$MeshFormat
2.2 0 8
$EndMeshFormat
$PhysicalNames
3
1 2 "main_joint"
1 3 "cross_joint"
2 1 "rock"
$EndPhysicalNames
$Nodes
973
1 -7.771561172376096e-16 -8.881784197001252e-16 0
2 -5 -2 0
3 -5 -4 0
4 -2 -4 0
5 5 -4 0
6 5 2 0
7 -5 4 0
8 2 4 0
9 5 4 0
10 -4.6875 -1.875 0
11 -4.375000000000001 -1.75 0
12 -4.0625 -1.625 0
13 -3.75 -1.5 0
14 -3.437500000000002 -1.375000000000001 0
15 -3.125000000000003 -1.250000000000001 0
16 -2.812500000000004 -1.125000000000001 0
17 -2.500000000000004 -1.000000000000002 0
18 -2.187500000000004 -0.8750000000000018 0
19 -1.875000000000004 -0.7500000000000018 0
20 -1.562500000000003 -0.6250000000000013 0
21 -1.250000000000003 -0.5000000000000016 0
22 -0.9375000000000027 -0.3750000000000013 0
23 -0.6250000000000009 -0.2500000000000007 0
24 -0.3125 -0.1250000000000004 0
25 0.3125 0.125 0
26 0.6249999999999991 0.2499999999999996 0
27 0.9374999999999991 0.3749999999999991 0
28 1.249999999999999 0.4999999999999991 0
29 1.562499999999998 0.6249999999999987 0
30 1.874999999999996 0.7499999999999982 0
31 2.187499999999996 0.8749999999999978 0
32 2.499999999999994 0.9999999999999969 0
33 2.812499999999994 1.124999999999997 0
34 3.124999999999995 1.249999999999997 0
35 3.437499999999995 1.374999999999998 0
36 3.749999999999996 1.499999999999998 0
37 4.062499999999998 1.624999999999999 0
38 4.375 1.749999999999999 0
39 4.6875 1.875 0
40 -1.846153846153846 -3.692307692307693 0
41 -1.692307692307693 -3.384615384615386 0
42 -1.538461538461539 -3.076923076923079 0
43 -1.384615384615386 -2.769230769230772 0
44 -1.230769230769233 -2.461538461538465 0
45 -1.07692307692308 -2.153846153846159 0
46 -0.9230769230769258 -1.846153846153852 0
47 -0.769230769230772 -1.538461538461544 0
48 -0.6153846153846176 -1.230769230769235 0
49 -0.4615384615384635 -0.9230769230769269 0
50 -0.3076923076923093 -0.6153846153846185 0
51 -0.1538461538461551 -0.3076923076923102 0
52 0.1538461538461533 0.3076923076923066 0
53 0.307692307692307 0.6153846153846141 0
54 0.4615384615384612 0.9230769230769225 0
55 0.6153846153846145 1.230769230769229 0
56 0.7692307692307687 1.538461538461537 0
57 0.9230769230769225 1.846153846153845 0
58 1.076923076923076 2.153846153846152 0
59 1.23076923076923 2.461538461538459 0
60 1.384615384615384 2.769230769230768 0
61 1.538461538461539 3.076923076923078 0
62 1.692307692307692 3.384615384615384 0
63 1.846153846153846 3.692307692307693 0
64 -5 -2.333333333333333 0
65 -5 -2.666666666666665 0
66 -5 -2.999999999999997 0
67 -5 -3.333333333333329 0
68 -5 -3.666666666666664 0
69 -4.666666666666667 -4 0
70 -4.333333333333334 -4 0
71 -4 -4 0
72 -3.666666666666666 -4 0
73 -3.333333333333333 -4 0
74 -2.999999999999999 -4 0
75 -2.666666666666665 -4 0
76 -2.333333333333331 -4 0
77 5 -3.666666666666667 0
78 5 -3.333333333333333 0
79 5 -3.000000000000001 0
80 5 -2.666666666666668 0
81 5 -2.333333333333334 0
82 5 -2 0
83 5 -1.666666666666667 0
84 5 -1.333333333333333 0
85 5 -0.9999999999999996 0
86 5 -0.6666666666666652 0
87 5 -0.3333333333333313 0
88 5 1.77635683940025e-15 0
89 5 0.3333333333333357 0
90 5 0.6666666666666705 0
91 5 1.000000000000004 0
92 5 1.333333333333337 0
93 5 1.666666666666671 0
94 -1.65 -4 0
95 -1.3 -4 0
96 -0.9500000000000002 -4 0
97 -0.5999999999999996 -4 0
98 -0.25 -4 0
99 0.09999999999999964 -4 0
100 0.4500000000000002 -4 0
101 0.7999999999999998 -4 0
102 1.15 -4 0
103 1.5 -4 0
104 1.85 -4 0
105 2.2 -4 0
106 2.55 -4 0
107 2.9 -4 0
108 3.25 -4 0
109 3.6 -4 0
110 3.949999999999999 -4 0
111 4.300000000000001 -4 0
112 4.65 -4 0
113 -5 3.666666666666667 0
114 -5 3.333333333333333 0
115 -5 3.000000000000001 0
116 -5 2.666666666666668 0
117 -5 2.333333333333334 0
118 -5 2 0
119 -5 1.666666666666667 0
120 -5 1.333333333333333 0
121 -5 0.9999999999999996 0
122 -5 0.6666666666666652 0
123 -5 0.3333333333333313 0
124 -5 -1.77635683940025e-15 0
125 -5 -0.3333333333333357 0
126 -5 -0.6666666666666705 0
127 -5 -1.000000000000004 0
128 -5 -1.333333333333337 0
129 -5 -1.666666666666671 0
130 1.65 4 0
131 1.3 4 0
132 0.9500000000000002 4 0
133 0.5999999999999996 4 0
134 0.25 4 0
135 -0.09999999999999964 4 0
136 -0.4500000000000002 4 0
137 -0.7999999999999998 4 0
138 -1.15 4 0
139 -1.5 4 0
140 -1.85 4 0
141 -2.2 4 0
142 -2.55 4 0
143 -2.9 4 0
144 -3.25 4 0
145 -3.6 4 0
146 -3.949999999999999 4 0
147 -4.300000000000001 4 0
148 -4.65 4 0
149 4.666666666666667 4 0
150 4.333333333333334 4 0
151 4 4 0
152 3.666666666666666 4 0
153 3.333333333333333 4 0
154 2.999999999999999 4 0
155 2.666666666666665 4 0
156 2.333333333333331 4 0
157 5 2.333333333333333 0
158 5 2.666666666666665 0
159 5 2.999999999999997 0
160 5 3.333333333333329 0
161 5 3.666666666666664 0
162 -2.848076923076922 -2.625721153846154 0
163 -3.933514525131684 -2.897680670245666 0
164 -2.101156165814448 -1.935518208774085 0
165 -3.524442206671004 -2.236488711531418 0
166 -3.247218696931001 -3.257595800979757 0
167 -1.544783427461715 -1.399238978654197 0
168 -2.458561357211461 -3.346543024103639 0
169 -2.809069159534552 -1.887057910958271 0
170 -2.16530669930681 -2.685723033107263 0
171 -4.367922167501006 -2.43969374092988 0
172 -4.414752482165726 -3.41463540093702 0
173 -3.809213210953428 -3.458655920631077 0
174 -1.08651533576657 -1.032076794524949 0
175 -2.082292787424989 -1.400208398776847 0
176 -3.363701212566443 -2.696615801770978 0
177 -1.570454408167315 -1.957494119705182 0
178 -2.47685206862042 -2.278200451688755 0
179 -4.514021895534628 -2.871337687018221 0
180 -3.988204055288096 -2.065870504403215 0
181 -2.545096753765211 -1.527371098890355 0
182 -1.712869019859284 -2.417239848844494 0
183 -3.350411899145034 -1.826328958638858 0
184 -2.902357387184969 -3.554008050547672 0
185 -2.076523510341151 -3.147202854742019 0
186 -3.103151607647609 -2.246043190957261 0
187 -2.867545535198856 -3.055425253413488 0
188 -2.487212686042465 -2.785024455349459 0
189 -3.877195480560219 -2.582183284800554 0
190 -2.213579603600401 -3.546259846402935 0
191 -3.437488949572335 -3.611722042972146 0
192 -0.8300320166038168 -0.766447057913421 0
193 -1.628228265489196 -1.031787418108257 0
194 -1.168830123958386 -1.460304240051661 0
195 -3.648241108320546 -1.915551153345835 0
196 -3.628148051283257 -3.138470801084843 0
197 -4.621254437469767 -3.63917686465978 0
198 -4.127802773261615 -3.650666565830865 0
199 -1.827927818955935 -1.677159035104231 0
200 -1.68963561279469 -2.757142506329299 0
201 -2.88520391873274 -1.540300780087088 0
202 -2.08535040782156 -2.318863931569086 0
203 -2.470713348773461 -1.888128382168239 0
204 -4.669870890921935 -2.22458076309295 0
205 -4.677002619055626 -3.169569558939533 0
206 -1.268673830848429 -1.774441029261688 0
207 -4.665995562696026 -2.586118370062727 0
208 -4.211775110135758 -2.747655537549602 0
209 -4.330966768122306 -2.086927447405922 0
210 -1.921452756066789 -1.094848199654084 0
211 -4.035823623379691 -3.251286711257004 0
212 -2.539119387652585 -3.677748858565048 0
213 -3.071347108287196 -2.8576606076667 0
214 -3.108655303812162 -3.741019113857591 0
215 -0.4030066045764665 -0.3654205821998642 0
216 -0.5941282317351765 -0.5492215297624718 0
217 -2.811433635763859 -2.232453862981075 0
218 -3.319742801462466 -2.378640337866492 0
219 -2.358255751186157 -1.314494764578207 0
220 -1.454003054975219 -2.245497671225592 0
221 -1.991137098892901 -3.395289608527095 0
222 -2.237733689434504 -1.662718195320072 0
223 -1.324832385120908 -0.8333474957409817 0
224 -3.808234320090809 -3.744208905886817 0
225 -1.841807286332071 -2.091449944260994 0
226 -0.8840465229332063 -1.25763256393753 0
227 -2.398835484033249 -2.54805569563077 0
228 -3.216027164329822 -1.573873850471905 0
229 -4.297815042567184 -3.058694260991174 0
230 -3.623245944298328 -2.805013056995547 0
231 -3.494649769960082 -1.643090308971746 0
232 -1.362741829771895 -1.188077926542085 0
233 -4.088156057020994 -2.369257638725693 0
234 -4.771404015457256 -2.858738456537429 0
235 -1.811530262556235 -1.347785946527761 0
236 -4.132932537989116 -1.868050644243296 0
237 -4.381802847360261 -3.736354190490494 0
238 -2.980199438397539 -3.338231920078719 0
239 -3.381252390887004 -2.970374477241736 0
240 -3.293659627656681 -2.092422263628722 0
241 -2.304734114305368 -3.043333365483218 0
242 -1.825016364175229 -3.091446694799214 0
243 -1.476133921878356 -1.653727480555392 0
244 -3.580590803188222 -2.49139302960397 0
245 -2.833333333333332 -3.802267219789252 0
246 -2.217867812902361 -3.301678500327925 0
247 -0.7768657846968636 -1.037586371711797 0
248 -3.775217173570872 -2.249416984658831 0
249 -3.546651732202064 -3.377938888539864 0
250 -3.066993858972899 -1.914068688246168 0
251 -2.277016955080954 -2.114504013895814 0
252 -1.306309152207119 -2.031619688742279 0
253 -2.642110077215188 -2.490101384135164 0
254 -1.48007111743756 -2.529195210511992 0
255 -1.081308057142816 -0.6905133603628 0
256 -2.620211284736823 -1.301433328711131 0
257 -2.728584673620769 -3.34005787293874 0
258 -3.086242214800749 -2.506189159181443 0
259 -4.769859223092089 -3.45113796877649 0
260 -2.182399352205991 -1.126573430715992 0
261 -1.99332951141604 -2.883453754975167 0
262 -3.135183955179601 -3.500515385687177 0
263 -2.741195909409667 -2.845856696222863 0
264 -4.796802659777448 -3.796802659777451 0
265 -2.597972379298097 -3.069373444585234 0
266 -3.910174205608575 -1.807884046737395 0
267 -4.439997155101352 -2.663856542720414 0
268 -2.180788500581928 -3.795730800199578 0
269 -1.914341115872322 -2.594552922111965 0
270 -2.687992854283362 -1.70448352212247 0
271 2.634585732223631 -1.508184104820052 0
272 0.9215948447885952 -2.136534740128805 0
273 3.471921653811797 -0.2818776103144447 0
274 3.561079944592136 -2.632340800862463 0
275 1.392440115744323 -0.9110418271836944 0
276 1.9895476731991 -2.714414307720328 0
277 3.791303152533283 -1.392861327674349 0
278 -0.09070955900416168 -2.850777830557883 0
279 2.353287180289797 -0.2622143683045526 0
280 4.021203774445252 0.5526389950012096 0
281 0.4702224913065333 -1.289012077020258 0
282 1.232986970884861 -3.070180799953126 0
283 1.684603353494686 -1.824714088590757 0
284 2.911671807928145 -3.125585076439066 0
285 4.098539381027779 -3.13695635015731 0
286 -0.08512589660867421 -2.020340361716478 0
287 4.178989163332421 -0.6719884481291055 0
288 2.893776102820159 0.2798867710485513 0
289 2.811740781324656 -2.278385303330893 0
290 4.209979984569369 -2.092276795898239 0
291 2.926989886088054 -0.8128214444992707 0
292 0.6695979349285388 -0.5979710574468763 0
293 -0.7733056670452326 -3.244305821295289 0
294 1.59076689651976 -0.1835626869216124 0
295 2.117272002830151 -0.9931283712659018 0
296 0.5122300056616068 -3.257822502471759 0
297 3.210567418416352 -1.779214168300389 0
298 4.338218430457791 -0.02899423959666851 0
299 1.101286796309367 -1.514039463903516 0
300 3.501198961646482 -3.353817842324494 0
301 1.829232379351607 -3.360705016407592 0
302 3.363839498558379 0.6944027463091209 0
303 1.539721147473043 -2.382669665294503 0
304 4.384653981494862 1.102445851124982 0
305 4.40270174792003 -1.501333884224537 0
306 3.515555564946775 -0.8477400945960996 0
307 2.230279472678335 -2.113228037711537 0
308 0.4827835141277908 -2.696549031642402 0
309 -0.4986888650434467 -2.397547336684029 0
310 2.315486620315012 0.304831358632918 0
311 -0.1291550068376393 -3.404151793544209 0
312 4.418013678247138 -2.636640316625871 0
313 2.432191092927031 -3.431188963038207 0
314 2.868740915053587 -0.2218855646190026 0
315 -0.09960312443022885 -1.381388568411468 0
316 0.1989718055737326 -0.8499361400729983 0
317 0.4669540175985014 -1.877149556839682 0
318 1.040820423107467 -0.1121832383395524 0
319 3.699070759368531 -2.029678220936397 0
320 3.163677215458094 -1.258954413091411 0
321 3.668027983272442 0.232263661668206 0
322 4.4948602557072 0.5068632417386414 0
323 3.781716312619651 1.003273196508145 0
324 0.8903924447661309 -1.011718743581344 0
325 0.9562396800701363 -3.537126993591282 0
326 -1.184958593728144 -3.524618837254842 0
327 4.506853800390129 -3.520211167416397 0
328 4.493693379759366 -1.036533008027333 0
329 1.914768964471268 -0.5469501426191049 0
330 1.724111695069168 -1.271026023480294 0
331 -0.8276793226796357 -2.745544471046019 0
332 1.836049833478178 0.2337640374195018 0
333 2.560686961475856 -2.789444287033827 0
334 3.099946713768561 -2.706007367946051 0
335 3.936310261639767 -0.2706794843827223 0
336 2.122566564627733 -1.501820218691303 0
337 1.015108624027035 -2.625177979552468 0
338 3.121441859442323 -3.525787720752579 0
339 1.616818164390265 -2.871139023572357 0
340 4.519815070841259 -0.4417340549622115 0
341 3.281242522996352 -2.25251090852854 0
342 1.311158403011872 -1.952643156733125 0
343 1.454914859125516 -3.541339165353355 0
344 0.2985079017184576 -0.3563556976672905 0
345 0.06983260120764762 -2.356473180500323 0
346 2.455566314335676 -0.7269373019152342 0
347 4.03447060338567 -2.740069889892098 0
348 3.94470737724768 -3.590271503613575 0
349 -0.4989684843025047 -1.837973290938405 0
350 3.043475198738408 0.6877507443482331 0
351 4.607261169229542 -1.880907919031044 0
352 1.199001146495751 -0.6349118360276386 0
353 4.136280137652928 -1.050217561424894 0
354 -0.4791358205535239 -3.576574016667981 0
355 4.579784423011947 -3.013345939437044 0
356 2.661864946735418 -1.028167042431805 0
357 2.832389803473863 -1.890402821708253 0
358 3.211551264125324 0.1389798394713928 0
359 4.589197401523758 1.397078434801813 0
360 2.580170676876921 0.6005981117414732 0
361 4.069933730488457 -1.713579344449788 0
362 2.609008068737053 0.002019199572320429 0
363 0.2621507733522473 -3.624608608636751 0
364 0.7097985170301642 -0.1196007477048033 0
365 4.606196045625961 -2.300411854965041 0
366 -0.3045203594059873 -3.067830928313052 0
367 3.25688689813647 -0.5948073895418844 0
368 -1.223723580773343 -3.048628118212552 0
369 2.303997005501948 -3.028779897515435 0
370 3.415555734038338 -2.919682166276067 0
371 3.929286829195753 -2.345137296226374 0
372 1.916085513063015 -0.07364857499994493 0
373 0.5379998866068525 -2.223009102862639 0
374 1.351386197210636 0.06812889955911305 0
375 4.010751244181639 0.1697321253521196 0
376 0.8392901831903919 -3.036021569303376 0
377 1.867765665971405 -2.159883844376769 0
378 1.566911445359398 -0.5414281923609868 0
379 3.750242212151043 -0.6902787002674449 0
380 0.2722536843793308 -2.954507298082984 0
381 4.664327425903726 0.2051670381025257 0
382 4.670985234040056 0.8090231003659987 0
383 -0.1004739946047365 -1.060549166078525 0
384 0.8427475112847804 -1.798287352658426 0
385 2.757708920020818 -3.701812573965878 0
386 4.00457969313722 1.266321601494737 0
387 2.078803414414356 -3.636873236184917 0
388 1.775734424296336 -0.8920881447752984 0
389 3.79523288022769 -3.080100238329057 0
390 3.575742539681103 -1.715720591065037 0
391 -0.4548526809019306 -2.741249930448128 0
392 -0.7845458663765947 -3.620515838643656 0
393 0.2149720914849405 -1.552652711053489 0
394 2.50390556567415 -2.421469863290007 0
395 0.5662999024188664 -0.8937996671856937 0
396 2.97746000265695 -1.548480602624366 0
397 1.386969268314701 -1.264725945415415 0
398 3.376415839123367 -3.737190609840892 0
399 3.443717033615416 1.049760625211591 0
400 2.479828386668782 -1.862637078941731 0
401 1.331070442793737 -2.687298999345097 0
402 -0.4117681631859607 -1.486794853214976 0
403 3.471156672825531 -1.164670840762812 0
404 0.6702306891266895 -3.642037277947266 0
405 -1.459344187502606 -3.672422631631791 0
406 0.75623359583594 -1.488077441149565 0
407 4.295554292094257 0.7482593460153251 0
408 4.713504951144652 -0.7853762575079759 0
409 -0.8455915502162797 -2.404745524854242 0
410 1.453648692427975 -1.586452517843135 0
411 3.151530502179432 0.4455023703022835 0
412 4.219973858247944 -3.722000514590565 0
413 3.193153343368345 -3.20715861388764 0
414 1.865676140169688 -2.469715462753331 0
415 1.742590130578296 -3.707783483589172 0
416 4.675309568062901 -1.307470659667247 0
417 3.69144631225986 0.5475287376432454 0
418 2.086414499491381 -1.801048428400531 0
419 1.906735109684053 -3.072324627030636 0
420 1.54110375398817 -3.212036928874792 0
421 1.202841216055563 -2.331828160972197 0
422 2.607123972180739 -0.4228952857655597 0
423 2.318969181624544 -1.252101031968841 0
424 -0.2025527282106613 -2.274034310861726 0
425 -0.7093754087073979 -2.128165356267033 0
426 4.199088591265905 -0.3322170589922661 0
427 3.210708686101024 -0.9473925252328459 0
428 4.722626685536946 -0.169656277225429 0
429 2.036964020572976 0.475000176875305 0
430 3.779341749507281 -1.03111489621735 0
431 4.30204611171309 0.280568186516909 0
432 0.1717181332518678 -1.193794630578297 0
433 0.2552364026887568 -2.106089696753334 0
434 4.111007487015499 -1.407250352109834 0
435 4.717464687176697 -2.752761911992369 0
436 1.29364719004855 -0.3087779882662715 0
437 0.0563507780352848 -0.5373273728069455 0
438 4.692708125800306 -1.612747073037483 0
439 4.728967323411736 1.128376143925227 0
440 4.283186215231168 1.428169177484306 0
441 3.364984500261885 -1.476650323919727 0
442 3.765446721224364 -0.07934146116586994 0
443 -0.1535233423398193 -3.737720681393342 0
444 0.005662751461989687 -3.117688589319744 0
445 4.263361779258222 -2.376024931291584 0
446 0.7534090153472766 -2.451829022198966 0
447 2.243655102212668 0.004165866171268399 0
448 2.88423698234171 -1.278103754940464 0
449 4.056531793605017 0.9034391303552844 0
450 2.236087117275133 -0.524221346259281 0
451 1.566793929387053 0.3313614268733582 0
452 2.38966361503696 -3.751117731788813 0
453 2.645169318085174 -3.106596717151078 0
454 0.8790537042046184 0.1076538373613679 0
455 -0.133270730494275 -1.689131778193556 0
456 2.149945873937728 -2.410015259354599 0
457 2.12035731202809 -3.302519289873839 0
458 4.275832745291522 -2.909382795681067 0
459 -0.3377536718288013 -1.216515748310226 0
460 1.528820265128762 -2.117860863296025 0
461 0.1949855889702102 -3.287073114805136 0
462 3.538955593676931 -0.5554243796442547 0
463 2.612187471451116 0.3202940291335695 0
464 2.292533391542143 0.6071454458847124 0
465 4.718893902110039 -3.278497821470561 0
466 0.5667891388058127 -2.932608730044832 0
467 -0.1788152711562853 -2.551857684013416 0
468 2.005536198646328 -1.248660804945605 0
469 0.3883957543449762 -0.6004930964149363 0
470 2.575709733878517 -2.11892699805166 0
471 1.183657243650127 -3.706350898881239 0
472 3.117331988607177 0.9652942408582706 0
473 2.961092957460465 0.01441548629815048 0
474 3.173397224756546 -0.2075204665735451 0
475 2.815637695702252 -2.587251346042648 0
476 -0.6317438571041505 -3.00462895462537 0
477 4.718784191757603 -3.721806734678815 0
478 3.954092233031049 -1.971662740363954 0
479 3.093433220147441 -2.063921750802028 0
480 2.935730643880384 -0.5000297316148222 0
481 0.1698262458463181 -2.649852236368617 0
482 3.718492584646691 -2.807596632209093 0
483 1.062753472187639 -1.19933616457508 0
484 1.141491406128399 -3.343857230925063 0
485 0.8957870485677414 -0.7365542681042789 0
486 3.412164546288055 -2.003182218159005 0
487 3.703679540465814 -3.712490417150846 0
488 4.374036886951778 -1.791624197438772 0
489 -1.10408560810261 -2.805865454687897 0
490 2.850329487776373 -3.400714448280451 0
491 3.573642682566084 -2.336861771583276 0
492 -1.125 -3.775449558947354 0
493 4.357087486472856 -1.253507731532904 0
494 2.811477978629006 0.8182495641432259 0
495 -1.383060654934915 -3.333673757501933 0
496 1.846146833959545 -1.538953680325271 0
497 0.9070426376533127 -0.4110811113141764 0
498 3.967034810783182 -0.842968697323453 0
499 4.769431234255882 -2.508365272549476 0
500 4.773118489155822 0.5030076257438826 0
501 3.671967526108708 1.24195618472822 0
502 0.6923240650696824 -2.008745188122388 0
503 3.312964045368894 -2.510212183507616 0
504 4.388441424248975 -3.213669594611022 0
505 2.340417841227181 -0.9532788659149836 0
506 0.8119966097366296 -3.346393442182184 0
507 3.069160829884693 -2.399714810026295 0
508 4.417378763961342 -0.7808515671145356 0
509 1.088074845552317 -0.8987125678944072 0
510 -0.1121335782547817 -0.7879668679760716 0
511 3.437867932270631 0.3689348661872733 0
512 0.7329885254875619 -1.206774406977551 0
513 3.086493430401017 -2.964460171029661 0
514 0.5064751501401612 -1.579928379407386 0
515 4.800322553430941 -0.4946254992552889 0
516 3.831912420468758 0.765055613517054 0
517 1.637494666541675 0.07652819255845986 0
518 4.746397100187962 1.624803983615276 0
519 1.778668095123136 0.4833728773568512 0
520 2.841516768372032 -2.875312771319177 0
521 4.757390294115249 -2.080930330346745 0
522 2.352022796118973 -1.613167163024238 0
523 4.479122370079135 -3.792803683337156 0
524 -1.030188116522201 -3.300498194927928 0
525 0.3502077822929545 -1.048805197891092 0
526 2.313498996825654 -2.660296961866637 0
527 -0.398942276574537 -2.131612131293534 0
528 0.9520255225693905 -3.777103034083957 0
529 3.732642438343432 -0.3865481617782498 0
530 3.608663909414008 0.8183980080773859 0
531 4.061195804607134 -0.09736799230063509 0
532 4.155532520954324 -3.420603993640739 0
533 4.768473433491094 -1.082406743500441 0
534 1.80390480373552 -0.3247315616507986 0
535 3.075000000000001 -3.806855427702128 0
536 0.4011577604898026 -0.1111449004681164 0
537 -0.9317876920378618 -3.024911835799176 0
538 0.1437531769338499 -1.849072820911308 0
539 2.075603751213873 0.1910918855366194 0
540 2.718389768086823 -0.6560912969995673 0
541 3.821517290872041 -3.361871239319736 0
542 0.7844183097943472 -2.774260673893466 0
543 1.091752064904544 0.1877198997161854 0
544 1.586494660548682 -1.066158333941115 0
545 0.3575165888215829 -2.432749903250782 0
546 2.075945006260833 -0.753116012360814 0
547 4.788906378851554 -3.504103144713155 0
548 -0.517067762887188 -3.319667892181593 0
549 3.481666574586097 0.02762709667667141 0
550 2.84876965511584 0.525380265119556 0
551 4.823072889938201 -1.833333333333334 0
552 3.847857328539798 0.3755408799161951 0
553 4.454166761144725 -2.095437346803041 0
554 2.078895811040004 -0.3210182291800628 0
555 1.113079470241827 -1.762190580263144 0
556 2.978457994485187 -1.053421833419989 0
557 0.1086445098428338 -0.2537580435001818 0
558 3.835799726733817 -1.647081691330043 0
559 -0.6431587416722245 -2.579080706893722 0
560 0.5624167510275421 -0.3661077685026998 0
561 -0.4395107172724426 -3.803628668403912 0
562 3.960717912919292 -0.5324467584788735 0
563 1.04476485411997 -2.870321738063016 0
564 3.779478986384582 -2.575992562356912 0
565 4.278416108489949 0.5220824423180213 0
566 1.660053282848704 -2.60437712917848 0
567 -1.009255641742973 -2.591616837600369 0
568 -2.63458573222363 1.508184104820052 0
569 -0.9215948447885963 2.1365347401288 0
570 -3.471921653811797 0.2818776103144439 0
571 -3.561079944592136 2.632340800862463 0
572 -1.392440115744326 0.9110418271836909 0
573 -1.989547673199099 2.714414307720326 0
574 -3.791303152533282 1.392861327674349 0
575 0.09070955900415914 2.850777830557881 0
576 -2.353287180289799 0.2622143683045499 0
577 -4.021203774445251 -0.5526389950012107 0
578 -0.4702224913065357 1.289012077020252 0
579 -1.232986970884858 3.070180799953123 0
580 -1.684603353494687 1.824714088590753 0
581 -2.911671807928144 3.125585076439066 0
582 -4.098539381027779 3.136956350157309 0
583 0.0851258966086707 2.020340361716475 0
584 -4.178989163332422 0.6719884481291054 0
585 -2.893776102820159 -0.2798867710485523 0
586 -2.811740781324658 2.278385303330893 0
587 -4.209979984569368 2.092276795898238 0
588 -2.926989886088053 0.8128214444992696 0
589 -0.6695979349285427 0.5979710574468727 0
590 0.7733056670452311 3.244305821295288 0
591 -1.590766896519763 0.1835626869216095 0
592 -2.117272002830154 0.9931283712658987 0
593 -0.5122300056616061 3.25782250247176 0
594 -3.210567418416353 1.779214168300388 0
595 -4.33821843045779 0.02899423959666748 0
596 -1.101286796309369 1.51403946390351 0
597 -3.501198961646481 3.353817842324493 0
598 -1.829232379351604 3.36070501640759 0
599 -3.363839498558381 -0.6944027463091211 0
600 -1.539721147473043 2.3826696652945 0
601 -4.384653981494862 -1.102445851124982 0
602 -4.40270174792003 1.501333884224537 0
603 -3.515555564946774 0.8477400945960993 0
604 -2.230279472678336 2.113228037711536 0
605 -0.4827835141277931 2.696549031642399 0
606 0.4986888650434433 2.397547336684026 0
607 -2.315486620315015 -0.3048313586329205 0
608 0.1291550068376386 3.404151793544207 0
609 -4.418013678247137 2.63664031662587 0
610 -2.432191092927029 3.431188963038207 0
611 -2.868740915053587 0.2218855646190007 0
612 0.09960312443022604 1.381388568411464 0
613 -0.1989718055737355 0.849936140072993 0
614 -0.4669540175985039 1.877149556839677 0
615 -1.04082042310747 0.1121832383395494 0
616 -3.69907075936853 2.029678220936396 0
617 -3.163677215458093 1.25895441309141 0
618 -3.668027983272442 -0.2322636616682068 0
619 -4.494860255707199 -0.5068632417386412 0
620 -3.781716312619651 -1.003273196508146 0
621 -0.8903924447661344 1.01171874358134 0
622 -0.9562396800701358 3.537126993591281 0
623 1.184958593728145 3.524618837254842 0
624 -4.50685380039013 3.520211167416397 0
625 -4.493693379759365 1.036533008027334 0
626 -1.91476896447127 0.546950142619102 0
627 -1.72411169506917 1.27102602348029 0
628 0.8276793226796326 2.745544471046016 0
629 -1.83604983347818 -0.2337640374195036 0
630 -2.560686961475856 2.789444287033826 0
631 -3.099946713768561 2.706007367946052 0
632 -3.936310261639767 0.270679484382722 0
633 -2.122566564627734 1.501820218691301 0
634 -1.015108624027037 2.625177979552465 0
635 -3.121441859442323 3.525787720752579 0
636 -1.616818164390263 2.871139023572354 0
637 -4.519815070841259 0.4417340549622104 0
638 -3.281242522996353 2.252510908528538 0
639 -1.311158403011873 1.952643156733121 0
640 -1.454914859125515 3.541339165353356 0
641 -0.2985079017184603 0.3563556976672886 0
642 -0.06983260120765092 2.356473180500321 0
643 -2.455566314335676 0.7269373019152303 0
644 -4.03447060338567 2.740069889892097 0
645 -3.94470737724768 3.590271503613575 0
646 0.4989684843025018 1.837973290938401 0
647 -3.043475198738411 -0.6877507443482339 0
648 -4.607261169229541 1.880907919031045 0
649 -1.199001146495754 0.6349118360276348 0
650 -4.136280137652928 1.050217561424894 0
651 0.4791358205535247 3.576574016667981 0
652 -4.579784423011946 3.013345939437042 0
653 -2.661864946735417 1.028167042431802 0
654 -2.832389803473862 1.890402821708253 0
655 -3.211551264125324 -0.1389798394713939 0
656 -4.589197401523758 -1.397078434801814 0
657 -2.580170676876923 -0.600598111741477 0
658 -4.069933730488457 1.713579344449788 0
659 -2.609008068737054 -0.002019199572322546 0
660 -0.2621507733522465 3.62460860863675 0
661 -0.7097985170301674 0.1196007477048016 0
662 -4.606196045625961 2.300411854965042 0
663 0.3045203594059847 3.067830928313049 0
664 -3.256886898136469 0.5948073895418838 0
665 1.223723580773342 3.04862811821255 0
666 -2.303997005501946 3.028779897515435 0
667 -3.415555734038338 2.919682166276068 0
668 -3.929286829195751 2.345137296226374 0
669 -1.916085513063018 0.07364857499994273 0
670 -0.5379998866068531 2.223009102862635 0
671 -1.351386197210639 -0.06812889955911573 0
672 -4.010751244181639 -0.1697321253521208 0
673 -0.8392901831903865 3.036021569303367 0
674 -1.867765665971406 2.159883844376767 0
675 -1.566911445359401 0.5414281923609835 0
676 -3.750242212151043 0.6902787002674448 0
677 -0.2722536843793332 2.954507298082984 0
678 -4.664327425903725 -0.2051670381025264 0
679 -4.670985234040056 -0.809023100365999 0
680 0.100473994604734 1.060549166078521 0
681 -0.8427475112847833 1.798287352658421 0
682 -2.757708920020818 3.701812573965878 0
683 -4.004579693137221 -1.266321601494738 0
684 -2.078803414414354 3.636873236184917 0
685 -1.775734424296339 0.8920881447752957 0
686 -3.795232880227689 3.080100238329056 0
687 -3.575742539681103 1.715720591065037 0
688 0.4548526809019275 2.741249930448125 0
689 0.7845458663765941 3.620515838643656 0
690 -0.214972091484943 1.552652711053485 0
691 -2.50390556567415 2.421469863290004 0
692 -0.5662999024188695 0.8937996671856889 0
693 -2.97746000265695 1.548480602624366 0
694 -1.386969268314703 1.264725945415411 0
695 -3.376415839123365 3.737190609840891 0
696 -3.44371703361542 -1.049760625211592 0
697 -2.479828386668783 1.862637078941731 0
698 -1.331070442793737 2.687298999345094 0
699 0.4117681631859578 1.486794853214972 0
700 -3.471156672825531 1.164670840762812 0
701 -0.6702306891266893 3.642037277947266 0
702 1.459344187502606 3.672422631631791 0
703 -0.7562335958359416 1.48807744114956 0
704 -4.295554292094257 -0.7482593460153245 0
705 -4.713504951144652 0.785376257507977 0
706 0.8455915502162766 2.404745524854238 0
707 -1.453648692427977 1.586452517843131 0
708 -3.151530502179433 -0.4455023703022842 0
709 -4.219973858247946 3.722000514590566 0
710 -3.193153343368344 3.207158613887641 0
711 -1.865676140169689 2.469715462753329 0
712 -1.742590130578294 3.707783483589173 0
713 -4.675309568062901 1.30747065966725 0
714 -3.69144631225986 -0.5475287376432453 0
715 -2.086414499491382 1.801048428400529 0
716 -1.906735109684051 3.072324627030635 0
717 -1.541103753988169 3.21203692887479 0
718 -1.202841216055563 2.331828160972192 0
719 -2.60712397218074 0.4228952857655568 0
720 -2.318969181624543 1.25210103196884 0
721 0.2025527282106577 2.274034310861723 0
722 0.7093754087073947 2.128165356267029 0
723 -4.199088591265904 0.3322170589922655 0
724 -3.210708686101023 0.9473925252328457 0
725 -4.722626685536945 0.1696562772254272 0
726 -2.036964020572978 -0.4750001768753064 0
727 -3.77934174950728 1.03111489621735 0
728 -4.302046111713089 -0.2805681865169094 0
729 -0.1717181332518703 1.193794630578292 0
730 -0.2552364026887597 2.106089696753329 0
731 -4.1110074870155 1.407250352109835 0
732 -4.717464687176697 2.752761911992367 0
733 -1.293647190048554 0.3087779882662682 0
734 -0.05635077803528619 0.5373273728069409 0
735 -4.692708125800306 1.612747073037483 0
736 -4.728967323411735 -1.128376143925227 0
737 -4.283186215231168 -1.428169177484307 0
738 -3.364984500261885 1.476650323919727 0
739 -3.765446721224364 0.07934146116586892 0
740 0.1535233423398195 3.737720681393343 0
741 -0.005662751461990188 3.117688589319743 0
742 -4.263361779258221 2.376024931291584 0
743 -0.7534090153472781 2.451829022198961 0
744 -2.243655102212671 -0.004165866171270102 0
745 -2.884236982341709 1.278103754940463 0
746 -4.056531793605018 -0.9034391303552851 0
747 -2.236087117275135 0.5242213462592775 0
748 -1.566793929387056 -0.3313614268733603 0
749 -2.38966361503696 3.751117731788812 0
750 -2.645169318085174 3.106596717151077 0
751 -0.8790537042046214 -0.10765383736137 0
752 0.1332707304942722 1.689131778193552 0
753 -2.149945873937729 2.410015259354596 0
754 -2.120357312028088 3.302519289873839 0
755 -4.27583274529152 2.909382795681065 0
756 0.3377536718287989 1.216515748310222 0
757 -1.528820265128762 2.117860863296021 0
758 -0.1949855889702107 3.287073114805135 0
759 -3.538955593676931 0.5554243796442541 0
760 -2.612187471451118 -0.3202940291335715 0
761 -2.292533391542144 -0.6071454458847145 0
762 -4.71889390211004 3.27849782147056 0
763 -0.5667891388058123 2.932608730044829 0
764 0.1788152711562815 2.551857684013414 0
765 -2.005536198646331 1.248660804945603 0
766 -0.388395754344979 0.6004930964149326 0
767 -2.575709733878519 2.118926998051659 0
768 -1.183657243650126 3.706350898881239 0
769 -3.117331988607183 -0.9652942408582711 0
770 -2.961092957460465 -0.0144154862981523 0
771 -3.173397224756546 0.2075204665735438 0
772 -2.815637695702252 2.587251346042647 0
773 0.6317438571041475 3.004628954625367 0
774 -4.718784191757604 3.721806734678816 0
775 -3.954092233031048 1.971662740363955 0
776 -3.093433220147442 2.063921750802027 0
777 -2.935730643880383 0.5000297316148206 0
778 -0.1698262458463211 2.649852236368615 0
779 -3.718492584646691 2.807596632209093 0
780 -1.062753472187642 1.199336164575075 0
781 -1.141491406128397 3.34385723092506 0
782 -0.8957870485677449 0.7365542681042748 0
783 -3.412164546288054 2.003182218159004 0
784 -3.703679540465811 3.712490417150844 0
785 -4.374036886951778 1.791624197438772 0
786 1.104085608102607 2.805865454687895 0
787 -2.850329487776375 3.400714448280451 0
788 -3.573642682566084 2.336861771583276 0
789 1.125 3.775449558947353 0
790 -4.357087486472857 1.253507731532905 0
791 -2.811477978629012 -0.8182495641432281 0
792 1.383060654934915 3.333673757501934 0
793 -1.846146833959547 1.538953680325267 0
794 -0.9070426376533161 0.4110811113141734 0
795 -3.967034810783183 0.8429686973234529 0
796 -4.769431234255883 2.508365272549475 0
797 -4.773118489155821 -0.5030076257438827 0
798 -3.671967526108712 -1.241956184728224 0
799 -0.692324065069684 2.008745188122383 0
800 -3.312964045368895 2.510212183507615 0
801 -4.388441424248976 3.213669594611022 0
802 -2.340417841227182 0.9532788659149798 0
803 -0.8119966097366282 3.346393442182181 0
804 -3.069160829884693 2.399714810026295 0
805 -4.417378763961339 0.7808515671145383 0
806 -1.08807484555232 0.8987125678944031 0
807 0.1121335782547796 0.7879668679760675 0
808 -3.437867932270632 -0.3689348661872736 0
809 -0.7329885254875648 1.206774406977546 0
810 -3.086493430401017 2.964460171029661 0
811 -0.5064751501401628 1.579928379407381 0
812 -4.80032255343094 0.4946254992552888 0
813 -3.831912420468758 -0.765055613517054 0
814 -1.637494666541678 -0.07652819255846241 0
815 -4.746397100187962 -1.624803983615277 0
816 -1.778668095123138 -0.483372877356852 0
817 -2.841516768372032 2.875312771319176 0
818 -4.757390294115247 2.080930330346747 0
819 -2.352022796118972 1.613167163024237 0
820 -4.479122370079136 3.792803683337156 0
821 1.0301881165222 3.300498194927927 0
822 -0.350207782292957 1.048805197891087 0
823 -2.313498996825653 2.660296961866634 0
824 0.3989422765745336 2.131612131293531 0
825 -0.9520255225693902 3.777103034083957 0
826 -3.732642438343432 0.386548161778249 0
827 -3.608663909414008 -0.8183980080773827 0
828 -4.061195804607134 0.09736799230063434 0
829 -4.155532520954326 3.420603993640739 0
830 -4.768473433491093 1.082406743500443 0
831 -1.803904803735522 0.3247315616507958 0
832 -3.075 3.806855427702127 0
833 -0.4011577604898058 0.1111449004681151 0
834 0.93178769203786 3.024911835799173 0
835 -0.1437531769338528 1.849072820911303 0
836 -2.075603751213876 -0.1910918855366203 0
837 -2.718389768086824 0.6560912969995641 0
838 -3.821517290872041 3.361871239319736 0
839 -0.7844183097943468 2.774260673893461 0
840 -1.091752064904548 -0.1877198997161879 0
841 -1.586494660548685 1.066158333941113 0
842 -0.3575165888215851 2.432749903250781 0
843 -2.075945006260835 0.7531160123608112 0
844 -4.788906378851554 3.504103144713155 0
845 0.5170677628871867 3.319667892181591 0
846 -3.481666574586097 -0.02762709667667317 0
847 -2.848769655115842 -0.5253802651195578 0
848 -4.823072889938201 1.833333333333334 0
849 -3.847857328539798 -0.3755408799161959 0
850 -4.454166761144724 2.095437346803043 0
851 -2.078895811040006 0.3210182291800601 0
852 -1.113079470241829 1.762190580263139 0
853 -2.978457994485185 1.053421833419988 0
854 -0.1086445098428357 0.2537580435001799 0
855 -3.835799726733818 1.647081691330044 0
856 0.6431587416722212 2.579080706893719 0
857 -0.5624167510275452 0.3661077685026973 0
858 0.4395107172724426 3.803628668403912 0
859 -3.960717912919292 0.5324467584788732 0
860 -1.044764854119968 2.87032173806301 0
861 -3.779478986384582 2.575992562356912 0
862 -4.278416108489949 -0.5220824423180214 0
863 -1.660053282848702 2.604377129178478 0
864 1.009255641742971 2.591616837600365 0
865 2.848076923076922 2.625721153846154 0
866 3.933514525131684 2.897680670245666 0
867 2.101156165814448 1.935518208774085 0
868 3.524442206671007 2.236488711531418 0
869 3.247218696931002 3.257595800979757 0
870 1.544783427461712 1.399238978654197 0
871 2.458561357211461 3.346543024103641 0
872 2.809069159534552 1.887057910958271 0
873 2.165306699306811 2.685723033107263 0
874 4.367922167501006 2.439693740929879 0
875 4.414752482165727 3.41463540093702 0
876 3.809213210953429 3.458655920631077 0
877 1.086515335766569 1.032076794524948 0
878 2.082292787424988 1.400208398776846 0
879 3.363701212566446 2.696615801770979 0
880 1.570454408167316 1.957494119705181 0
881 2.47685206862042 2.278200451688754 0
882 4.514021895534627 2.871337687018221 0
883 3.988204055288096 2.065870504403213 0
884 2.54509675376521 1.527371098890357 0
885 1.712869019859286 2.417239848844494 0
886 3.350411899145033 1.826328958638858 0
887 2.902357387184967 3.554008050547672 0
888 2.076523510341152 3.147202854742021 0
889 3.10315160764761 2.246043190957262 0
890 2.867545535198856 3.055425253413489 0
891 2.487212686042465 2.78502445534946 0
892 3.877195480560221 2.582183284800554 0
893 2.213579603600401 3.546259846402937 0
894 3.437488949572335 3.611722042972146 0
895 0.8300320166038153 0.7664470579134188 0
896 1.628228265489192 1.031787418108257 0
897 1.168830123958385 1.46030424005166 0
898 3.648241108320547 1.915551153345834 0
899 3.628148051283258 3.138470801084841 0
900 4.621254437469767 3.63917686465978 0
901 4.127802773261616 3.650666565830865 0
902 1.827927818955936 1.677159035104231 0
903 1.689635612794691 2.757142506329299 0
904 2.885203918732738 1.540300780087088 0
905 2.085350407821562 2.318863931569086 0
906 2.470713348773462 1.88812838216824 0
907 4.669870890921935 2.22458076309295 0
908 4.677002619055626 3.169569558939533 0
909 1.268673830848428 1.774441029261689 0
910 4.665995562696028 2.586118370062727 0
911 4.211775110135758 2.747655537549603 0
912 4.330966768122306 2.086927447405921 0
913 1.921452756066782 1.094848199654084 0
914 4.035823623379692 3.251286711257004 0
915 2.539119387652585 3.677748858565048 0
916 3.071347108287198 2.857660607666701 0
917 3.108655303812162 3.741019113857591 0
918 0.4030066045764653 0.3654205821998638 0
919 0.5941282317351746 0.5492215297624699 0
920 2.811433635763859 2.232453862981076 0
921 3.319742801462469 2.378640337866493 0
922 2.358255751186155 1.314494764578207 0
923 1.454003054975222 2.245497671225593 0
924 1.9911370988929 3.395289608527097 0
925 2.237733689434507 1.662718195320071 0
926 1.324832385120904 0.8333474957409798 0
927 3.808234320090809 3.744208905886818 0
928 1.841807286332071 2.091449944260996 0
929 0.8840465229332047 1.257632563937527 0
930 2.398835484033248 2.548055695630769 0
931 3.216027164329817 1.573873850471905 0
932 4.297815042567185 3.058694260991174 0
933 3.623245944298331 2.805013056995547 0
934 3.494649769960079 1.643090308971744 0
935 1.362741829771892 1.188077926542087 0
936 4.088156057020993 2.369257638725692 0
937 4.771404015457256 2.858738456537429 0
938 1.811530262556234 1.347785946527764 0
939 4.132932537989116 1.868050644243295 0
940 4.381802847360261 3.736354190490496 0
941 2.980199438397539 3.33823192007872 0
942 3.381252390887006 2.970374477241737 0
943 3.293659627656684 2.092422263628722 0
944 2.304734114305368 3.043333365483221 0
945 1.82501636417523 3.091446694799215 0
946 1.476133921878355 1.653727480555392 0
947 3.580590803188225 2.49139302960397 0
948 2.833333333333331 3.802267219789252 0
949 2.217867812902361 3.301678500327928 0
950 0.7768657846968624 1.037586371711795 0
951 3.775217173570875 2.249416984658833 0
952 3.546651732202064 3.377938888539862 0
953 3.066993858972899 1.914068688246169 0
954 2.277016955080954 2.114504013895813 0
955 1.306309152207122 2.031619688742279 0
956 2.642110077215187 2.490101384135166 0
957 1.480071117437559 2.529195210511988 0
958 1.081308057142813 0.6905133603627966 0
959 2.620211284736818 1.301433328711129 0
960 2.728584673620768 3.340057872938742 0
961 3.08624221480075 2.506189159181444 0
962 4.769859223092089 3.45113796877649 0
963 2.182399352205986 1.126573430715991 0
964 1.993329511416041 2.883453754975168 0
965 3.135183955179601 3.500515385687177 0
966 2.741195909409669 2.845856696222863 0
967 4.796802659777448 3.796802659777451 0
968 2.597972379298097 3.069373444585235 0
969 3.910174205608576 1.807884046737394 0
970 4.439997155101352 2.663856542720413 0
971 2.180788500581928 3.795730800199578 0
972 1.914341115872323 2.594552922111966 0
973 2.687992854283362 1.704483522122471 0
$EndNodes
$Elements
1896
1 1 2 2 5 2 10
2 1 2 2 5 10 11
3 1 2 2 5 11 12
4 1 2 2 5 12 13
5 1 2 2 5 13 14
6 1 2 2 5 14 15
7 1 2 2 5 15 16
8 1 2 2 5 16 17
9 1 2 2 5 17 18
10 1 2 2 5 18 19
11 1 2 2 5 19 20
12 1 2 2 5 20 21
13 1 2 2 5 21 22
14 1 2 2 5 22 23
15 1 2 2 5 23 24
16 1 2 2 5 24 1
17 1 2 2 6 1 25
18 1 2 2 6 25 26
19 1 2 2 6 26 27
20 1 2 2 6 27 28
21 1 2 2 6 28 29
22 1 2 2 6 29 30
23 1 2 2 6 30 31
24 1 2 2 6 31 32
25 1 2 2 6 32 33
26 1 2 2 6 33 34
27 1 2 2 6 34 35
28 1 2 2 6 35 36
29 1 2 2 6 36 37
30 1 2 2 6 37 38
31 1 2 2 6 38 39
32 1 2 2 6 39 6
33 1 2 3 7 4 40
34 1 2 3 7 40 41
35 1 2 3 7 41 42
36 1 2 3 7 42 43
37 1 2 3 7 43 44
38 1 2 3 7 44 45
39 1 2 3 7 45 46
40 1 2 3 7 46 47
41 1 2 3 7 47 48
42 1 2 3 7 48 49
43 1 2 3 7 49 50
44 1 2 3 7 50 51
45 1 2 3 7 51 1
46 1 2 3 8 1 52
47 1 2 3 8 52 53
48 1 2 3 8 53 54
49 1 2 3 8 54 55
50 1 2 3 8 55 56
51 1 2 3 8 56 57
52 1 2 3 8 57 58
53 1 2 3 8 58 59
54 1 2 3 8 59 60
55 1 2 3 8 60 61
56 1 2 3 8 61 62
57 1 2 3 8 62 63
58 1 2 3 8 63 8
59 2 2 1 1 187 213 166
60 2 2 1 1 189 208 163
61 2 2 1 1 73 191 72
62 2 2 1 1 191 224 72
63 2 2 1 1 203 217 178
64 2 2 1 1 47 194 46
65 2 2 1 1 228 250 201
66 2 2 1 1 196 211 173
67 2 2 1 1 163 211 196
68 2 2 1 1 169 217 203
69 2 2 1 1 194 206 46
70 2 2 1 1 188 241 170
71 2 2 1 1 213 239 166
72 2 2 1 1 178 227 202
73 2 2 1 1 198 211 172
74 2 2 1 1 173 211 198
75 2 2 1 1 172 229 205
76 2 2 1 1 189 233 208
77 2 2 1 1 241 261 170
78 2 2 1 1 183 250 228
79 2 2 1 1 205 229 179
80 2 2 1 1 166 238 187
81 2 2 1 1 24 51 1
82 2 2 1 1 15 201 16
83 2 2 1 1 167 243 194
84 2 2 1 1 168 212 190
85 2 2 1 1 196 239 230
86 2 2 1 1 173 224 191
87 2 2 1 1 201 250 169
88 2 2 1 1 202 227 170
89 2 2 1 1 64 207 204
90 2 2 1 1 194 243 206
91 2 2 1 1 19 193 20
92 2 2 1 1 195 240 183
93 2 2 1 1 165 240 195
94 2 2 1 1 201 256 16
95 2 2 1 1 76 268 212
96 2 2 1 1 49 216 192
97 2 2 1 1 230 239 176
98 2 2 1 1 64 204 2
99 2 2 1 1 204 209 10
100 2 2 1 1 2 204 10
101 2 2 1 1 71 198 70
102 2 2 1 1 217 258 162
103 2 2 1 1 65 207 64
104 2 2 1 1 202 251 178
105 2 2 1 1 212 268 190
106 2 2 1 1 172 259 197
107 2 2 1 1 162 253 217
108 2 2 1 1 10 209 11
109 2 2 1 1 196 230 163
110 2 2 1 1 199 225 177
111 2 2 1 1 164 225 199
112 2 2 1 1 213 258 176
113 2 2 1 1 205 259 172
114 2 2 1 1 175 222 199
115 2 2 1 1 176 258 218
116 2 2 1 1 199 222 164
117 2 2 1 1 253 263 188
118 2 2 1 1 19 210 193
119 2 2 1 1 50 216 49
120 2 2 1 1 192 216 22
121 2 2 1 1 193 235 167
122 2 2 1 1 227 253 188
123 2 2 1 1 76 212 75
124 2 2 1 1 220 225 182
125 2 2 1 1 43 200 42
126 2 2 1 1 205 234 66
127 2 2 1 1 193 232 223
128 2 2 1 1 206 252 46
129 2 2 1 1 67 205 66
130 2 2 1 1 163 230 189
131 2 2 1 1 73 214 191
132 2 2 1 1 46 252 45
133 2 2 1 1 191 249 173
134 2 2 1 1 181 222 219
135 2 2 1 1 170 227 188
136 2 2 1 1 193 223 20
137 2 2 1 1 41 242 221
138 2 2 1 1 198 237 70
139 2 2 1 1 223 232 174
140 2 2 1 1 168 257 212
141 2 2 1 1 177 225 220
142 2 2 1 1 69 237 197
143 2 2 1 1 186 258 217
144 2 2 1 1 190 246 168
145 2 2 1 1 181 256 201
146 2 2 1 1 219 222 175
147 2 2 1 1 192 255 174
148 2 2 1 1 174 247 192
149 2 2 1 1 180 248 195
150 2 2 1 1 195 248 165
151 2 2 1 1 204 207 171
152 2 2 1 1 22 255 192
153 2 2 1 1 40 221 190
154 2 2 1 1 190 268 40
155 2 2 1 1 166 249 191
156 2 2 1 1 208 233 171
157 2 2 1 1 171 209 204
158 2 2 1 1 43 254 200
159 2 2 1 1 197 237 172
160 2 2 1 1 179 234 205
161 2 2 1 1 221 242 185
162 2 2 1 1 178 251 203
163 2 2 1 1 172 237 198
164 2 2 1 1 191 262 166
165 2 2 1 1 192 247 49
166 2 2 1 1 210 235 193
167 2 2 1 1 200 254 182
168 2 2 1 1 167 232 193
169 2 2 1 1 45 220 44
170 2 2 1 1 70 237 69
171 2 2 1 1 208 229 163
172 2 2 1 1 163 229 211
173 2 2 1 1 162 263 253
174 2 2 1 1 47 226 194
175 2 2 1 1 18 210 19
176 2 2 1 1 13 266 195
177 2 2 1 1 194 232 167
178 2 2 1 1 174 232 194
179 2 2 1 1 194 226 174
180 2 2 1 1 183 231 195
181 2 2 1 1 51 215 50
182 2 2 1 1 182 225 202
183 2 2 1 1 196 249 166
184 2 2 1 1 217 250 186
185 2 2 1 1 171 233 209
186 2 2 1 1 195 231 13
187 2 2 1 1 209 233 180
188 2 2 1 1 195 266 180
189 2 2 1 1 203 222 181
190 2 2 1 1 197 264 69
191 2 2 1 1 71 224 198
192 2 2 1 1 198 224 173
193 2 2 1 1 22 216 23
194 2 2 1 1 169 250 217
195 2 2 1 1 23 215 24
196 2 2 1 1 199 235 175
197 2 2 1 1 167 235 199
198 2 2 1 1 45 252 220
199 2 2 1 1 173 249 196
200 2 2 1 1 74 214 73
201 2 2 1 1 212 257 184
202 2 2 1 1 166 239 196
203 2 2 1 1 211 229 172
204 2 2 1 1 15 228 201
205 2 2 1 1 177 243 199
206 2 2 1 1 164 222 203
207 2 2 1 1 202 225 164
208 2 2 1 1 199 243 167
209 2 2 1 1 218 240 165
210 2 2 1 1 186 240 218
211 2 2 1 1 185 261 241
212 2 2 1 1 68 264 259
213 2 2 1 1 182 269 200
214 2 2 1 1 203 251 164
215 2 2 1 1 169 270 201
216 2 2 1 1 201 270 181
217 2 2 1 1 259 264 197
218 2 2 1 1 17 260 18
219 2 2 1 1 42 242 41
220 2 2 1 1 170 269 202
221 2 2 1 1 40 268 4
222 2 2 1 1 200 242 42
223 2 2 1 1 48 226 47
224 2 2 1 1 21 255 22
225 2 2 1 1 12 266 13
226 2 2 1 1 202 269 182
227 2 2 1 1 203 270 169
228 2 2 1 1 181 270 203
229 2 2 1 1 41 221 40
230 2 2 1 1 24 215 51
231 2 2 1 1 20 223 21
232 2 2 1 1 164 251 202
233 2 2 1 1 174 255 223
234 2 2 1 1 187 263 213
235 2 2 1 1 226 247 174
236 2 2 1 1 215 216 50
237 2 2 1 1 213 263 162
238 2 2 1 1 72 224 71
239 2 2 1 1 14 228 15
240 2 2 1 1 49 247 48
241 2 2 1 1 219 260 17
242 2 2 1 1 179 229 208
243 2 2 1 1 176 239 213
244 2 2 1 1 68 259 67
245 2 2 1 1 180 236 209
246 2 2 1 1 209 236 11
247 2 2 1 1 65 234 207
248 2 2 1 1 207 234 179
249 2 2 1 1 13 231 14
250 2 2 1 1 175 235 210
251 2 2 1 1 67 259 205
252 2 2 1 1 206 243 177
253 2 2 1 1 74 245 214
254 2 2 1 1 210 260 175
255 2 2 1 1 177 252 206
256 2 2 1 1 162 258 213
257 2 2 1 1 214 245 184
258 2 2 1 1 212 245 75
259 2 2 1 1 184 245 212
260 2 2 1 1 16 256 17
261 2 2 1 1 14 231 228
262 2 2 1 1 228 231 183
263 2 2 1 1 66 234 65
264 2 2 1 1 214 262 191
265 2 2 1 1 179 267 207
266 2 2 1 1 11 236 12
267 2 2 1 1 208 267 179
268 2 2 1 1 207 267 171
269 2 2 1 1 171 267 208
270 2 2 1 1 3 264 68
271 2 2 1 1 69 264 3
272 2 2 1 1 18 260 210
273 2 2 1 1 23 216 215
274 2 2 1 1 189 248 233
275 2 2 1 1 233 248 180
276 2 2 1 1 75 245 74
277 2 2 1 1 218 244 176
278 2 2 1 1 44 254 43
279 2 2 1 1 257 265 187
280 2 2 1 1 4 268 76
281 2 2 1 1 244 248 189
282 2 2 1 1 17 256 219
283 2 2 1 1 165 248 244
284 2 2 1 1 176 244 230
285 2 2 1 1 217 253 178
286 2 2 1 1 238 257 187
287 2 2 1 1 221 246 190
288 2 2 1 1 175 260 219
289 2 2 1 1 184 262 214
290 2 2 1 1 182 254 220
291 2 2 1 1 220 254 44
292 2 2 1 1 165 244 218
293 2 2 1 1 220 252 177
294 2 2 1 1 180 266 236
295 2 2 1 1 185 246 221
296 2 2 1 1 261 269 170
297 2 2 1 1 200 269 261
298 2 2 1 1 230 244 189
299 2 2 1 1 186 250 240
300 2 2 1 1 219 256 181
301 2 2 1 1 223 255 21
302 2 2 1 1 48 247 226
303 2 2 1 1 218 258 186
304 2 2 1 1 178 253 227
305 2 2 1 1 241 265 168
306 2 2 1 1 188 265 241
307 2 2 1 1 168 265 257
308 2 2 1 1 238 262 184
309 2 2 1 1 168 246 241
310 2 2 1 1 241 246 185
311 2 2 1 1 240 250 183
312 2 2 1 1 242 261 185
313 2 2 1 1 200 261 242
314 2 2 1 1 184 257 238
315 2 2 1 1 166 262 238
316 2 2 1 1 236 266 12
317 2 2 1 1 187 265 263
318 2 2 1 1 263 265 188
319 2 2 1 2 272 421 342
320 2 2 1 2 376 506 484
321 2 2 1 2 46 349 47
322 2 2 1 2 342 555 272
323 2 2 1 2 339 401 282
324 2 2 1 2 376 484 282
325 2 2 1 2 110 412 348
326 2 2 1 2 312 445 347
327 2 2 1 2 362 422 314
328 2 2 1 2 338 398 300
329 2 2 1 2 340 428 298
330 2 2 1 2 276 566 339
331 2 2 1 2 300 413 338
332 2 2 1 2 275 378 352
333 2 2 1 2 291 540 356
334 2 2 1 2 356 540 346
335 2 2 1 2 272 555 384
336 2 2 1 2 279 422 362
337 2 2 1 2 347 389 285
338 2 2 1 2 103 415 343
339 2 2 1 2 343 471 103
340 2 2 1 2 301 420 343
341 2 2 1 2 328 508 353
342 2 2 1 2 353 508 287
343 2 2 1 2 339 419 276
344 2 2 1 2 421 460 342
345 2 2 1 2 410 496 330
346 2 2 1 2 282 420 339
347 2 2 1 2 311 548 354
348 2 2 1 2 363 404 296
349 2 2 1 2 340 426 287
350 2 2 1 2 369 453 333
351 2 2 1 2 32 464 360
352 2 2 1 2 287 508 340
353 2 2 1 2 298 426 340
354 2 2 1 2 283 410 342
355 2 2 1 2 421 446 337
356 2 2 1 2 414 566 276
357 2 2 1 2 343 415 301
358 2 2 1 2 354 443 311
359 2 2 1 2 272 446 421
360 2 2 1 2 342 460 283
361 2 2 1 2 345 433 286
362 2 2 1 2 97 561 392
363 2 2 1 2 277 441 390
364 2 2 1 2 350 411 302
365 2 2 1 2 347 458 312
366 2 2 1 2 403 441 277
367 2 2 1 2 453 520 333
368 2 2 1 2 330 468 388
369 2 2 1 2 366 548 311
370 2 2 1 2 100 363 99
371 2 2 1 2 318 436 374
372 2 2 1 2 374 436 294
373 2 2 1 2 285 458 347
374 2 2 1 2 300 389 370
375 2 2 1 2 347 445 371
376 2 2 1 2 356 423 271
377 2 2 1 2 286 424 345
378 2 2 1 2 388 468 295
379 2 2 1 2 302 472 350
380 2 2 1 2 349 402 47
381 2 2 1 2 397 410 330
382 2 2 1 2 392 548 293
383 2 2 1 2 274 503 370
384 2 2 1 2 278 391 366
385 2 2 1 2 31 464 32
386 2 2 1 2 370 503 334
387 2 2 1 2 392 561 354
388 2 2 1 2 79 435 355
389 2 2 1 2 467 481 345
390 2 2 1 2 278 481 467
391 2 2 1 2 349 527 286
392 2 2 1 2 348 487 110
393 2 2 1 2 355 465 79
394 2 2 1 2 275 509 483
395 2 2 1 2 275 483 397
396 2 2 1 2 297 396 357
397 2 2 1 2 487 541 300
398 2 2 1 2 357 396 271
399 2 2 1 2 354 548 392
400 2 2 1 2 378 388 329
401 2 2 1 2 275 388 378
402 2 2 1 2 478 558 319
403 2 2 1 2 46 425 349
404 2 2 1 2 286 455 349
405 2 2 1 2 42 368 43
406 2 2 1 2 319 558 390
407 2 2 1 2 97 392 96
408 2 2 1 2 105 387 104
409 2 2 1 2 398 487 300
410 2 2 1 2 306 430 379
411 2 2 1 2 400 418 307
412 2 2 1 2 353 430 277
413 2 2 1 2 271 400 357
414 2 2 1 2 363 443 99
415 2 2 1 2 111 412 110
416 2 2 1 2 287 498 353
417 2 2 1 2 279 450 422
418 2 2 1 2 422 450 346
419 2 2 1 2 404 506 296
420 2 2 1 2 26 536 364
421 2 2 1 2 385 490 313
422 2 2 1 2 346 546 505
423 2 2 1 2 289 479 357
424 2 2 1 2 86 408 85
425 2 2 1 2 30 429 31
426 2 2 1 2 346 505 356
427 2 2 1 2 285 541 532
428 2 2 1 2 353 493 328
429 2 2 1 2 271 448 356
430 2 2 1 2 298 428 381
431 2 2 1 2 389 541 285
432 2 2 1 2 400 522 418
433 2 2 1 2 313 490 453
434 2 2 1 2 429 464 31
435 2 2 1 2 314 473 362
436 2 2 1 2 100 404 363
437 2 2 1 2 377 456 307
438 2 2 1 2 283 496 410
439 2 2 1 2 303 460 421
440 2 2 1 2 450 546 346
441 2 2 1 2 384 514 317
442 2 2 1 2 474 480 367
443 2 2 1 2 312 458 355
444 2 2 1 2 352 509 275
445 2 2 1 2 276 419 369
446 2 2 1 2 430 498 379
447 2 2 1 2 277 434 353
448 2 2 1 2 394 475 289
449 2 2 1 2 315 455 393
450 2 2 1 2 365 445 312
451 2 2 1 2 311 443 363
452 2 2 1 2 333 475 394
453 2 2 1 2 306 427 403
454 2 2 1 2 406 514 384
455 2 2 1 2 89 381 88
456 2 2 1 2 25 536 26
457 2 2 1 2 375 431 280
458 2 2 1 2 333 526 369
459 2 2 1 2 355 435 312
460 2 2 1 2 33 494 472
461 2 2 1 2 403 427 320
462 2 2 1 2 359 440 304
463 2 2 1 2 369 526 276
464 2 2 1 2 304 439 359
465 2 2 1 2 359 518 38
466 2 2 1 2 332 517 372
467 2 2 1 2 383 432 316
468 2 2 1 2 408 533 85
469 2 2 1 2 91 382 90
470 2 2 1 2 372 517 294
471 2 2 1 2 36 386 37
472 2 2 1 2 387 415 104
473 2 2 1 2 273 474 367
474 2 2 1 2 358 411 288
475 2 2 1 2 382 407 322
476 2 2 1 2 92 518 359
477 2 2 1 2 356 556 291
478 2 2 1 2 304 407 382
479 2 2 1 2 289 507 479
480 2 2 1 2 290 478 371
481 2 2 1 2 371 478 319
482 2 2 1 2 281 512 395
483 2 2 1 2 321 442 375
484 2 2 1 2 472 494 350
485 2 2 1 2 395 525 281
486 2 2 1 2 312 499 365
487 2 2 1 2 357 479 297
488 2 2 1 2 358 549 511
489 2 2 1 2 354 561 443
490 2 2 1 2 431 565 280
491 2 2 1 2 319 491 371
492 2 2 1 2 357 470 289
493 2 2 1 2 455 538 393
494 2 2 1 2 103 471 102
495 2 2 1 2 407 449 280
496 2 2 1 2 484 506 325
497 2 2 1 2 396 441 320
498 2 2 1 2 297 441 396
499 2 2 1 2 367 427 306
500 2 2 1 2 84 438 83
501 2 2 1 2 291 427 367
502 2 2 1 2 350 550 411
503 2 2 1 2 362 473 288
504 2 2 1 2 359 439 92
505 2 2 1 2 322 431 381
506 2 2 1 2 423 522 271
507 2 2 1 2 107 385 106
508 2 2 1 2 381 431 298
509 2 2 1 2 1 536 25
510 2 2 1 2 416 438 84
511 2 2 1 2 310 447 362
512 2 2 1 2 491 564 371
513 2 2 1 2 362 447 279
514 2 2 1 2 1 557 536
515 2 2 1 2 414 456 377
516 2 2 1 2 483 512 406
517 2 2 1 2 366 444 278
518 2 2 1 2 38 440 359
519 2 2 1 2 299 483 406
520 2 2 1 2 311 444 366
521 2 2 1 2 371 564 347
522 2 2 1 2 383 510 49
523 2 2 1 2 458 504 355
524 2 2 1 2 377 418 283
525 2 2 1 2 288 473 358
526 2 2 1 2 307 418 377
527 2 2 1 2 420 484 343
528 2 2 1 2 432 525 316
529 2 2 1 2 399 472 302
530 2 2 1 2 449 516 280
531 2 2 1 2 339 420 419
532 2 2 1 2 378 436 352
533 2 2 1 2 419 420 301
534 2 2 1 2 290 488 361
535 2 2 1 2 442 531 375
536 2 2 1 2 305 434 361
537 2 2 1 2 36 501 386
538 2 2 1 2 364 497 318
539 2 2 1 2 495 524 368
540 2 2 1 2 360 494 32
541 2 2 1 2 42 495 368
542 2 2 1 2 104 415 103
543 2 2 1 2 370 413 300
544 2 2 1 2 293 524 392
545 2 2 1 2 360 464 310
546 2 2 1 2 314 480 474
547 2 2 1 2 39 93 6
548 2 2 1 2 44 409 45
549 2 2 1 2 310 463 360
550 2 2 1 2 285 504 458
551 2 2 1 2 389 482 370
552 2 2 1 2 326 524 495
553 2 2 1 2 413 490 338
554 2 2 1 2 283 460 377
555 2 2 1 2 299 406 384
556 2 2 1 2 89 500 381
557 2 2 1 2 79 465 78
558 2 2 1 2 80 435 79
559 2 2 1 2 382 439 304
560 2 2 1 2 364 454 26
561 2 2 1 2 81 521 365
562 2 2 1 2 358 511 411
563 2 2 1 2 361 488 305
564 2 2 1 2 374 451 28
565 2 2 1 2 318 454 364
566 2 2 1 2 479 507 341
567 2 2 1 2 303 414 377
568 2 2 1 2 304 440 386
569 2 2 1 2 401 563 282
570 2 2 1 2 301 415 387
571 2 2 1 2 511 549 321
572 2 2 1 2 382 500 90
573 2 2 1 2 77 477 5
574 2 2 1 2 411 550 288
575 2 2 1 2 401 421 337
576 2 2 1 2 505 546 295
577 2 2 1 2 49 510 50
578 2 2 1 2 388 544 330
579 2 2 1 2 361 478 290
580 2 2 1 2 274 564 491
581 2 2 1 2 323 501 399
582 2 2 1 2 101 404 100
583 2 2 1 2 362 463 310
584 2 2 1 2 281 432 393
585 2 2 1 2 288 463 362
586 2 2 1 2 365 553 445
587 2 2 1 2 386 501 323
588 2 2 1 2 393 432 315
589 2 2 1 2 284 490 413
590 2 2 1 2 5 477 112
591 2 2 1 2 306 462 367
592 2 2 1 2 380 461 296
593 2 2 1 2 363 461 311
594 2 2 1 2 296 461 363
595 2 2 1 2 365 499 81
596 2 2 1 2 109 398 108
597 2 2 1 2 381 500 322
598 2 2 1 2 94 405 40
599 2 2 1 2 396 448 271
600 2 2 1 2 34 399 35
601 2 2 1 2 95 405 94
602 2 2 1 2 322 500 382
603 2 2 1 2 317 433 373
604 2 2 1 2 419 457 369
605 2 2 1 2 282 563 376
606 2 2 1 2 47 402 48
607 2 2 1 2 371 445 290
608 2 2 1 2 294 534 372
609 2 2 1 2 367 462 273
610 2 2 1 2 305 488 438
611 2 2 1 2 38 518 39
612 2 2 1 2 40 4 94
613 2 2 1 2 40 405 41
614 2 2 1 2 385 452 106
615 2 2 1 2 298 431 375
616 2 2 1 2 313 452 385
617 2 2 1 2 438 488 351
618 2 2 1 2 368 489 43
619 2 2 1 2 294 436 378
620 2 2 1 2 391 476 366
621 2 2 1 2 44 567 409
622 2 2 1 2 28 543 374
623 2 2 1 2 367 480 291
624 2 2 1 2 373 446 272
625 2 2 1 2 370 482 274
626 2 2 1 2 372 539 332
627 2 2 1 2 277 430 403
628 2 2 1 2 93 518 92
629 2 2 1 2 280 552 375
630 2 2 1 2 313 453 369
631 2 2 1 2 381 428 88
632 2 2 1 2 286 527 424
633 2 2 1 2 447 554 279
634 2 2 1 2 369 457 313
635 2 2 1 2 372 554 447
636 2 2 1 2 325 506 404
637 2 2 1 2 318 497 436
638 2 2 1 2 435 499 312
639 2 2 1 2 334 513 370
640 2 2 1 2 282 484 420
641 2 2 1 2 395 485 292
642 2 2 1 2 436 497 352
643 2 2 1 2 399 530 323
644 2 2 1 2 364 560 497
645 2 2 1 2 348 541 487
646 2 2 1 2 374 543 318
647 2 2 1 2 324 485 395
648 2 2 1 2 376 466 296
649 2 2 1 2 378 534 294
650 2 2 1 2 504 532 327
651 2 2 1 2 299 410 397
652 2 2 1 2 329 534 378
653 2 2 1 2 340 508 408
654 2 2 1 2 385 535 338
655 2 2 1 2 95 492 405
656 2 2 1 2 345 545 433
657 2 2 1 2 284 520 453
658 2 2 1 2 45 425 46
659 2 2 1 2 327 532 412
660 2 2 1 2 107 535 385
661 2 2 1 2 313 457 387
662 2 2 1 2 387 457 301
663 2 2 1 2 50 437 51
664 2 2 1 2 373 502 317
665 2 2 1 2 272 502 373
666 2 2 1 2 409 425 45
667 2 2 1 2 49 459 383
668 2 2 1 2 395 512 324
669 2 2 1 2 375 531 298
670 2 2 1 2 379 462 306
671 2 2 1 2 294 517 374
672 2 2 1 2 315 432 383
673 2 2 1 2 380 481 278
674 2 2 1 2 296 466 380
675 2 2 1 2 390 486 319
676 2 2 1 2 373 545 446
677 2 2 1 2 446 545 308
678 2 2 1 2 297 486 390
679 2 2 1 2 405 492 326
680 2 2 1 2 91 439 382
681 2 2 1 2 278 444 380
682 2 2 1 2 394 470 307
683 2 2 1 2 377 460 303
684 2 2 1 2 335 531 442
685 2 2 1 2 375 552 321
686 2 2 1 2 336 522 423
687 2 2 1 2 386 449 304
688 2 2 1 2 303 421 401
689 2 2 1 2 398 535 108
690 2 2 1 2 386 440 37
691 2 2 1 2 296 506 376
692 2 2 1 2 349 455 402
693 2 2 1 2 338 535 398
694 2 2 1 2 307 470 400
695 2 2 1 2 391 467 309
696 2 2 1 2 418 522 336
697 2 2 1 2 405 495 41
698 2 2 1 2 387 452 313
699 2 2 1 2 392 524 326
700 2 2 1 2 336 496 418
701 2 2 1 2 418 496 283
702 2 2 1 2 323 449 386
703 2 2 1 2 497 560 292
704 2 2 1 2 309 425 409
705 2 2 1 2 105 452 387
706 2 2 1 2 88 428 87
707 2 2 1 2 43 489 44
708 2 2 1 2 532 541 348
709 2 2 1 2 399 501 35
710 2 2 1 2 434 558 361
711 2 2 1 2 380 466 308
712 2 2 1 2 28 451 29
713 2 2 1 2 390 441 297
714 2 2 1 2 383 459 315
715 2 2 1 2 400 470 357
716 2 2 1 2 39 518 93
717 2 2 1 2 326 495 405
718 2 2 1 2 277 558 434
719 2 2 1 2 308 481 380
720 2 2 1 2 384 555 299
721 2 2 1 2 92 439 91
722 2 2 1 2 403 430 306
723 2 2 1 2 316 510 383
724 2 2 1 2 424 467 345
725 2 2 1 2 444 461 380
726 2 2 1 2 33 472 34
727 2 2 1 2 320 441 403
728 2 2 1 2 448 556 356
729 2 2 1 2 433 545 373
730 2 2 1 2 388 546 329
731 2 2 1 2 337 563 401
732 2 2 1 2 437 469 344
733 2 2 1 2 85 533 84
734 2 2 1 2 295 546 388
735 2 2 1 2 273 549 474
736 2 2 1 2 37 440 38
737 2 2 1 2 290 553 488
738 2 2 1 2 445 553 290
739 2 2 1 2 476 548 366
740 2 2 1 2 316 469 437
741 2 2 1 2 338 490 385
742 2 2 1 2 301 457 419
743 2 2 1 2 292 469 395
744 2 2 1 2 428 515 87
745 2 2 1 2 320 448 396
746 2 2 1 2 82 521 81
747 2 2 1 2 110 487 109
748 2 2 1 2 347 482 389
749 2 2 1 2 48 459 49
750 2 2 1 2 317 502 384
751 2 2 1 2 275 544 388
752 2 2 1 2 384 502 272
753 2 2 1 2 395 469 316
754 2 2 1 2 422 480 314
755 2 2 1 2 84 533 416
756 2 2 1 2 410 555 342
757 2 2 1 2 278 467 391
758 2 2 1 2 307 456 394
759 2 2 1 2 326 492 392
760 2 2 1 2 402 459 48
761 2 2 1 2 331 476 391
762 2 2 1 2 392 492 96
763 2 2 1 2 328 493 416
764 2 2 1 2 328 533 408
765 2 2 1 2 300 541 389
766 2 2 1 2 293 548 476
767 2 2 1 2 340 515 428
768 2 2 1 2 416 493 305
769 2 2 1 2 304 449 407
770 2 2 1 2 390 558 277
771 2 2 1 2 474 549 358
772 2 2 1 2 27 543 28
773 2 2 1 2 393 538 317
774 2 2 1 2 315 459 402
775 2 2 1 2 309 559 391
776 2 2 1 2 391 559 331
777 2 2 1 2 289 470 394
778 2 2 1 2 50 510 437
779 2 2 1 2 99 443 98
780 2 2 1 2 299 555 410
781 2 2 1 2 402 455 315
782 2 2 1 2 305 438 416
783 2 2 1 2 309 467 424
784 2 2 1 2 489 567 44
785 2 2 1 2 397 544 275
786 2 2 1 2 330 544 397
787 2 2 1 2 34 472 399
788 2 2 1 2 397 483 299
789 2 2 1 2 393 514 281
790 2 2 1 2 276 456 414
791 2 2 1 2 401 566 303
792 2 2 1 2 106 452 105
793 2 2 1 2 339 566 401
794 2 2 1 2 26 454 27
795 2 2 1 2 324 512 483
796 2 2 1 2 317 514 393
797 2 2 1 2 302 530 399
798 2 2 1 2 286 538 455
799 2 2 1 2 109 487 398
800 2 2 1 2 32 494 33
801 2 2 1 2 394 526 333
802 2 2 1 2 352 497 485
803 2 2 1 2 485 497 292
804 2 2 1 2 316 525 395
805 2 2 1 2 443 561 98
806 2 2 1 2 376 563 542
807 2 2 1 2 370 513 413
808 2 2 1 2 471 484 325
809 2 2 1 2 343 484 471
810 2 2 1 2 447 539 372
811 2 2 1 2 310 464 429
812 2 2 1 2 102 528 101
813 2 2 1 2 488 553 351
814 2 2 1 2 295 468 423
815 2 2 1 2 423 468 336
816 2 2 1 2 334 520 513
817 2 2 1 2 271 522 400
818 2 2 1 2 422 540 480
819 2 2 1 2 404 528 325
820 2 2 1 2 426 562 287
821 2 2 1 2 101 528 404
822 2 2 1 2 81 499 80
823 2 2 1 2 287 562 498
824 2 2 1 2 412 523 327
825 2 2 1 2 498 562 379
826 2 2 1 2 483 509 324
827 2 2 1 2 361 558 478
828 2 2 1 2 309 527 425
829 2 2 1 2 96 492 95
830 2 2 1 2 281 514 406
831 2 2 1 2 41 495 42
832 2 2 1 2 318 543 454
833 2 2 1 2 453 490 284
834 2 2 1 2 29 519 30
835 2 2 1 2 542 563 337
836 2 2 1 2 298 531 426
837 2 2 1 2 475 520 334
838 2 2 1 2 426 531 335
839 2 2 1 2 35 501 36
840 2 2 1 2 90 500 89
841 2 2 1 2 379 562 529
842 2 2 1 2 406 512 281
843 2 2 1 2 317 538 433
844 2 2 1 2 479 486 297
845 2 2 1 2 341 486 479
846 2 2 1 2 112 523 111
847 2 2 1 2 536 557 344
848 2 2 1 2 356 505 423
849 2 2 1 2 423 505 295
850 2 2 1 2 86 515 408
851 2 2 1 2 311 461 444
852 2 2 1 2 408 515 340
853 2 2 1 2 87 515 86
854 2 2 1 2 473 474 358
855 2 2 1 2 407 565 322
856 2 2 1 2 529 562 335
857 2 2 1 2 314 474 473
858 2 2 1 2 425 527 349
859 2 2 1 2 417 530 302
860 2 2 1 2 51 557 1
861 2 2 1 2 408 508 328
862 2 2 1 2 323 516 449
863 2 2 1 2 108 535 107
864 2 2 1 2 293 537 524
865 2 2 1 2 411 511 302
866 2 2 1 2 280 565 407
867 2 2 1 2 486 491 319
868 2 2 1 2 341 491 486
869 2 2 1 2 434 493 353
870 2 2 1 2 83 551 82
871 2 2 1 2 98 561 97
872 2 2 1 2 413 513 284
873 2 2 1 2 78 547 77
874 2 2 1 2 409 559 309
875 2 2 1 2 331 559 409
876 2 2 1 2 30 519 429
877 2 2 1 2 302 511 417
878 2 2 1 2 353 498 430
879 2 2 1 2 524 537 368
880 2 2 1 2 417 511 321
881 2 2 1 2 412 532 348
882 2 2 1 2 335 562 426
883 2 2 1 2 111 523 412
884 2 2 1 2 321 552 417
885 2 2 1 2 280 516 417
886 2 2 1 2 485 509 352
887 2 2 1 2 80 499 435
888 2 2 1 2 409 567 331
889 2 2 1 2 437 510 316
890 2 2 1 2 429 539 310
891 2 2 1 2 332 539 429
892 2 2 1 2 427 556 320
893 2 2 1 2 305 493 434
894 2 2 1 2 330 496 468
895 2 2 1 2 468 496 336
896 2 2 1 2 344 557 437
897 2 2 1 2 281 525 432
898 2 2 1 2 416 533 328
899 2 2 1 2 437 557 51
900 2 2 1 2 285 532 504
901 2 2 1 2 494 550 350
902 2 2 1 2 360 550 494
903 2 2 1 2 303 566 414
904 2 2 1 2 276 526 456
905 2 2 1 2 442 529 335
906 2 2 1 2 341 503 491
907 2 2 1 2 417 552 280
908 2 2 1 2 491 503 274
909 2 2 1 2 424 527 309
910 2 2 1 2 273 529 442
911 2 2 1 2 471 528 102
912 2 2 1 2 429 519 332
913 2 2 1 2 346 540 422
914 2 2 1 2 374 517 451
915 2 2 1 2 463 550 360
916 2 2 1 2 288 550 463
917 2 2 1 2 442 549 273
918 2 2 1 2 376 542 466
919 2 2 1 2 308 542 446
920 2 2 1 2 327 523 477
921 2 2 1 2 355 504 465
922 2 2 1 2 465 504 327
923 2 2 1 2 322 565 431
924 2 2 1 2 320 556 448
925 2 2 1 2 451 519 29
926 2 2 1 2 291 556 427
927 2 2 1 2 332 519 451
928 2 2 1 2 456 526 394
929 2 2 1 2 446 542 337
930 2 2 1 2 379 529 462
931 2 2 1 2 433 538 286
932 2 2 1 2 475 507 289
933 2 2 1 2 334 507 475
934 2 2 1 2 451 517 332
935 2 2 1 2 438 551 83
936 2 2 1 2 351 553 521
937 2 2 1 2 351 551 438
938 2 2 1 2 521 553 365
939 2 2 1 2 513 520 284
940 2 2 1 2 327 547 465
941 2 2 1 2 279 554 450
942 2 2 1 2 310 539 447
943 2 2 1 2 477 547 327
944 2 2 1 2 321 549 442
945 2 2 1 2 341 507 503
946 2 2 1 2 516 530 417
947 2 2 1 2 476 537 293
948 2 2 1 2 324 509 485
949 2 2 1 2 368 537 489
950 2 2 1 2 329 546 450
951 2 2 1 2 489 537 331
952 2 2 1 2 481 545 345
953 2 2 1 2 477 523 112
954 2 2 1 2 462 529 273
955 2 2 1 2 308 545 481
956 2 2 1 2 480 540 291
957 2 2 1 2 450 554 329
958 2 2 1 2 333 520 475
959 2 2 1 2 454 543 27
960 2 2 1 2 292 560 469
961 2 2 1 2 469 560 344
962 2 2 1 2 325 528 471
963 2 2 1 2 503 507 334
964 2 2 1 2 536 560 364
965 2 2 1 2 344 560 536
966 2 2 1 2 331 537 476
967 2 2 1 2 466 542 308
968 2 2 1 2 465 547 78
969 2 2 1 2 534 554 372
970 2 2 1 2 329 554 534
971 2 2 1 2 77 547 477
972 2 2 1 2 347 564 482
973 2 2 1 2 482 564 274
974 2 2 1 2 331 567 489
975 2 2 1 2 323 530 516
976 2 2 1 2 82 551 521
977 2 2 1 2 521 551 351
978 2 2 1 3 569 718 639
979 2 2 1 3 673 803 781
980 2 2 1 3 57 646 56
981 2 2 1 3 639 852 569
982 2 2 1 3 636 698 579
983 2 2 1 3 673 781 579
984 2 2 1 3 146 709 645
985 2 2 1 3 609 742 644
986 2 2 1 3 659 719 611
987 2 2 1 3 635 695 597
988 2 2 1 3 637 725 595
989 2 2 1 3 573 863 636
990 2 2 1 3 597 710 635
991 2 2 1 3 572 675 649
992 2 2 1 3 588 837 653
993 2 2 1 3 653 837 643
994 2 2 1 3 569 852 681
995 2 2 1 3 576 719 659
996 2 2 1 3 644 686 582
997 2 2 1 3 139 712 640
998 2 2 1 3 640 768 139
999 2 2 1 3 598 717 640
1000 2 2 1 3 625 805 650
1001 2 2 1 3 650 805 584
1002 2 2 1 3 636 716 573
1003 2 2 1 3 718 757 639
1004 2 2 1 3 707 793 627
1005 2 2 1 3 579 717 636
1006 2 2 1 3 608 845 651
1007 2 2 1 3 660 701 593
1008 2 2 1 3 637 723 584
1009 2 2 1 3 666 750 630
1010 2 2 1 3 17 761 657
1011 2 2 1 3 584 805 637
1012 2 2 1 3 595 723 637
1013 2 2 1 3 580 707 639
1014 2 2 1 3 718 743 634
1015 2 2 1 3 711 863 573
1016 2 2 1 3 640 712 598
1017 2 2 1 3 651 740 608
1018 2 2 1 3 569 743 718
1019 2 2 1 3 639 757 580
1020 2 2 1 3 642 730 583
1021 2 2 1 3 133 858 689
1022 2 2 1 3 574 738 687
1023 2 2 1 3 647 708 599
1024 2 2 1 3 644 755 609
1025 2 2 1 3 700 738 574
1026 2 2 1 3 750 817 630
1027 2 2 1 3 627 765 685
1028 2 2 1 3 663 845 608
1029 2 2 1 3 136 660 135
1030 2 2 1 3 615 733 671
1031 2 2 1 3 671 733 591
1032 2 2 1 3 582 755 644
1033 2 2 1 3 597 686 667
1034 2 2 1 3 644 742 668
1035 2 2 1 3 653 720 568
1036 2 2 1 3 583 721 642
1037 2 2 1 3 685 765 592
1038 2 2 1 3 599 769 647
1039 2 2 1 3 646 699 56
1040 2 2 1 3 694 707 627
1041 2 2 1 3 689 845 590
1042 2 2 1 3 571 800 667
1043 2 2 1 3 575 688 663
1044 2 2 1 3 18 761 17
1045 2 2 1 3 667 800 631
1046 2 2 1 3 689 858 651
1047 2 2 1 3 115 732 652
1048 2 2 1 3 764 778 642
1049 2 2 1 3 575 778 764
1050 2 2 1 3 646 824 583
1051 2 2 1 3 645 784 146
1052 2 2 1 3 652 762 115
1053 2 2 1 3 572 806 780
1054 2 2 1 3 572 780 694
1055 2 2 1 3 594 693 654
1056 2 2 1 3 784 838 597
1057 2 2 1 3 654 693 568
1058 2 2 1 3 651 845 689
1059 2 2 1 3 675 685 626
1060 2 2 1 3 572 685 675
1061 2 2 1 3 775 855 616
1062 2 2 1 3 57 722 646
1063 2 2 1 3 583 752 646
1064 2 2 1 3 61 665 60
1065 2 2 1 3 616 855 687
1066 2 2 1 3 133 689 132
1067 2 2 1 3 141 684 140
1068 2 2 1 3 695 784 597
1069 2 2 1 3 603 727 676
1070 2 2 1 3 697 715 604
1071 2 2 1 3 650 727 574
1072 2 2 1 3 568 697 654
1073 2 2 1 3 660 740 135
1074 2 2 1 3 147 709 146
1075 2 2 1 3 584 795 650
1076 2 2 1 3 576 747 719
1077 2 2 1 3 719 747 643
1078 2 2 1 3 701 803 593
1079 2 2 1 3 23 833 661
1080 2 2 1 3 682 787 610
1081 2 2 1 3 643 843 802
1082 2 2 1 3 586 776 654
1083 2 2 1 3 122 705 121
1084 2 2 1 3 19 726 18
1085 2 2 1 3 643 802 653
1086 2 2 1 3 582 838 829
1087 2 2 1 3 650 790 625
1088 2 2 1 3 568 745 653
1089 2 2 1 3 595 725 678
1090 2 2 1 3 686 838 582
1091 2 2 1 3 697 819 715
1092 2 2 1 3 610 787 750
1093 2 2 1 3 726 761 18
1094 2 2 1 3 611 770 659
1095 2 2 1 3 136 701 660
1096 2 2 1 3 674 753 604
1097 2 2 1 3 580 793 707
1098 2 2 1 3 600 757 718
1099 2 2 1 3 747 843 643
1100 2 2 1 3 681 811 614
1101 2 2 1 3 771 777 664
1102 2 2 1 3 609 755 652
1103 2 2 1 3 649 806 572
1104 2 2 1 3 573 716 666
1105 2 2 1 3 727 795 676
1106 2 2 1 3 574 731 650
1107 2 2 1 3 691 772 586
1108 2 2 1 3 612 752 690
1109 2 2 1 3 662 742 609
1110 2 2 1 3 608 740 660
1111 2 2 1 3 630 772 691
1112 2 2 1 3 603 724 700
1113 2 2 1 3 703 811 681
1114 2 2 1 3 125 678 124
1115 2 2 1 3 24 833 23
1116 2 2 1 3 672 728 577
1117 2 2 1 3 630 823 666
1118 2 2 1 3 652 732 609
1119 2 2 1 3 16 791 769
1120 2 2 1 3 700 724 617
1121 2 2 1 3 656 737 601
1122 2 2 1 3 666 823 573
1123 2 2 1 3 601 736 656
1124 2 2 1 3 656 815 11
1125 2 2 1 3 629 814 669
1126 2 2 1 3 680 729 613
1127 2 2 1 3 705 830 121
1128 2 2 1 3 127 679 126
1129 2 2 1 3 669 814 591
1130 2 2 1 3 13 683 12
1131 2 2 1 3 684 712 140
1132 2 2 1 3 570 771 664
1133 2 2 1 3 655 708 585
1134 2 2 1 3 679 704 619
1135 2 2 1 3 128 815 656
1136 2 2 1 3 653 853 588
1137 2 2 1 3 601 704 679
1138 2 2 1 3 586 804 776
1139 2 2 1 3 587 775 668
1140 2 2 1 3 668 775 616
1141 2 2 1 3 578 809 692
1142 2 2 1 3 618 739 672
1143 2 2 1 3 769 791 647
1144 2 2 1 3 692 822 578
1145 2 2 1 3 609 796 662
1146 2 2 1 3 654 776 594
1147 2 2 1 3 655 846 808
1148 2 2 1 3 651 858 740
1149 2 2 1 3 728 862 577
1150 2 2 1 3 616 788 668
1151 2 2 1 3 654 767 586
1152 2 2 1 3 752 835 690
1153 2 2 1 3 139 768 138
1154 2 2 1 3 704 746 577
1155 2 2 1 3 781 803 622
1156 2 2 1 3 693 738 617
1157 2 2 1 3 594 738 693
1158 2 2 1 3 664 724 603
1159 2 2 1 3 120 735 119
1160 2 2 1 3 588 724 664
1161 2 2 1 3 647 847 708
1162 2 2 1 3 659 770 585
1163 2 2 1 3 656 736 128
1164 2 2 1 3 619 728 678
1165 2 2 1 3 720 819 568
1166 2 2 1 3 143 682 142
1167 2 2 1 3 678 728 595
1168 2 2 1 3 1 833 24
1169 2 2 1 3 713 735 120
1170 2 2 1 3 607 744 659
1171 2 2 1 3 788 861 668
1172 2 2 1 3 659 744 576
1173 2 2 1 3 1 854 833
1174 2 2 1 3 711 753 674
1175 2 2 1 3 780 809 703
1176 2 2 1 3 663 741 575
1177 2 2 1 3 11 737 656
1178 2 2 1 3 596 780 703
1179 2 2 1 3 608 741 663
1180 2 2 1 3 668 861 644
1181 2 2 1 3 680 807 54
1182 2 2 1 3 755 801 652
1183 2 2 1 3 674 715 580
1184 2 2 1 3 585 770 655
1185 2 2 1 3 604 715 674
1186 2 2 1 3 717 781 640
1187 2 2 1 3 729 822 613
1188 2 2 1 3 696 769 599
1189 2 2 1 3 746 813 577
1190 2 2 1 3 636 717 716
1191 2 2 1 3 675 733 649
1192 2 2 1 3 716 717 598
1193 2 2 1 3 587 785 658
1194 2 2 1 3 739 828 672
1195 2 2 1 3 602 731 658
1196 2 2 1 3 13 798 683
1197 2 2 1 3 661 794 615
1198 2 2 1 3 792 821 665
1199 2 2 1 3 657 791 17
1200 2 2 1 3 61 792 665
1201 2 2 1 3 140 712 139
1202 2 2 1 3 667 710 597
1203 2 2 1 3 590 821 689
1204 2 2 1 3 657 761 607
1205 2 2 1 3 611 777 771
1206 2 2 1 3 2 10 129
1207 2 2 1 3 59 706 58
1208 2 2 1 3 607 760 657
1209 2 2 1 3 582 801 755
1210 2 2 1 3 686 779 667
1211 2 2 1 3 623 821 792
1212 2 2 1 3 710 787 635
1213 2 2 1 3 580 757 674
1214 2 2 1 3 596 703 681
1215 2 2 1 3 125 797 678
1216 2 2 1 3 115 762 114
1217 2 2 1 3 116 732 115
1218 2 2 1 3 679 736 601
1219 2 2 1 3 661 751 23
1220 2 2 1 3 117 818 662
1221 2 2 1 3 655 808 708
1222 2 2 1 3 658 785 602
1223 2 2 1 3 671 748 21
1224 2 2 1 3 615 751 661
1225 2 2 1 3 776 804 638
1226 2 2 1 3 600 711 674
1227 2 2 1 3 601 737 683
1228 2 2 1 3 698 860 579
1229 2 2 1 3 598 712 684
1230 2 2 1 3 808 846 618
1231 2 2 1 3 679 797 126
1232 2 2 1 3 113 774 7
1233 2 2 1 3 708 847 585
1234 2 2 1 3 698 718 634
1235 2 2 1 3 802 843 592
1236 2 2 1 3 54 807 53
1237 2 2 1 3 685 841 627
1238 2 2 1 3 658 775 587
1239 2 2 1 3 571 861 788
1240 2 2 1 3 620 798 696
1241 2 2 1 3 137 701 136
1242 2 2 1 3 659 760 607
1243 2 2 1 3 578 729 690
1244 2 2 1 3 585 760 659
1245 2 2 1 3 662 850 742
1246 2 2 1 3 683 798 620
1247 2 2 1 3 690 729 612
1248 2 2 1 3 581 787 710
1249 2 2 1 3 7 774 148
1250 2 2 1 3 603 759 664
1251 2 2 1 3 677 758 593
1252 2 2 1 3 660 758 608
1253 2 2 1 3 593 758 660
1254 2 2 1 3 662 796 117
1255 2 2 1 3 145 695 144
1256 2 2 1 3 678 797 619
1257 2 2 1 3 130 702 63
1258 2 2 1 3 693 745 568
1259 2 2 1 3 15 696 14
1260 2 2 1 3 131 702 130
1261 2 2 1 3 619 797 679
1262 2 2 1 3 614 730 670
1263 2 2 1 3 716 754 666
1264 2 2 1 3 579 860 673
1265 2 2 1 3 56 699 55
1266 2 2 1 3 668 742 587
1267 2 2 1 3 591 831 669
1268 2 2 1 3 664 759 570
1269 2 2 1 3 602 785 735
1270 2 2 1 3 11 815 10
1271 2 2 1 3 130 63 8
1272 2 2 1 3 63 702 62
1273 2 2 1 3 682 749 142
1274 2 2 1 3 595 728 672
1275 2 2 1 3 610 749 682
1276 2 2 1 3 735 785 648
1277 2 2 1 3 665 786 60
1278 2 2 1 3 591 733 675
1279 2 2 1 3 688 773 663
1280 2 2 1 3 59 864 706
1281 2 2 1 3 21 840 671
1282 2 2 1 3 664 777 588
1283 2 2 1 3 670 743 569
1284 2 2 1 3 667 779 571
1285 2 2 1 3 669 836 629
1286 2 2 1 3 574 727 700
1287 2 2 1 3 129 815 128
1288 2 2 1 3 577 849 672
1289 2 2 1 3 610 750 666
1290 2 2 1 3 678 725 124
1291 2 2 1 3 583 824 721
1292 2 2 1 3 744 851 576
1293 2 2 1 3 666 754 610
1294 2 2 1 3 669 851 744
1295 2 2 1 3 622 803 701
1296 2 2 1 3 615 794 733
1297 2 2 1 3 732 796 609
1298 2 2 1 3 631 810 667
1299 2 2 1 3 579 781 717
1300 2 2 1 3 692 782 589
1301 2 2 1 3 733 794 649
1302 2 2 1 3 696 827 620
1303 2 2 1 3 661 857 794
1304 2 2 1 3 645 838 784
1305 2 2 1 3 671 840 615
1306 2 2 1 3 621 782 692
1307 2 2 1 3 673 763 593
1308 2 2 1 3 675 831 591
1309 2 2 1 3 801 829 624
1310 2 2 1 3 596 707 694
1311 2 2 1 3 626 831 675
1312 2 2 1 3 637 805 705
1313 2 2 1 3 682 832 635
1314 2 2 1 3 131 789 702
1315 2 2 1 3 642 842 730
1316 2 2 1 3 581 817 750
1317 2 2 1 3 58 722 57
1318 2 2 1 3 624 829 709
1319 2 2 1 3 143 832 682
1320 2 2 1 3 610 754 684
1321 2 2 1 3 684 754 598
1322 2 2 1 3 53 734 52
1323 2 2 1 3 670 799 614
1324 2 2 1 3 569 799 670
1325 2 2 1 3 706 722 58
1326 2 2 1 3 54 756 680
1327 2 2 1 3 692 809 621
1328 2 2 1 3 672 828 595
1329 2 2 1 3 676 759 603
1330 2 2 1 3 591 814 671
1331 2 2 1 3 612 729 680
1332 2 2 1 3 677 778 575
1333 2 2 1 3 593 763 677
1334 2 2 1 3 687 783 616
1335 2 2 1 3 670 842 743
1336 2 2 1 3 743 842 605
1337 2 2 1 3 594 783 687
1338 2 2 1 3 702 789 623
1339 2 2 1 3 127 736 679
1340 2 2 1 3 575 741 677
1341 2 2 1 3 691 767 604
1342 2 2 1 3 674 757 600
1343 2 2 1 3 632 828 739
1344 2 2 1 3 672 849 618
1345 2 2 1 3 633 819 720
1346 2 2 1 3 683 746 601
1347 2 2 1 3 600 718 698
1348 2 2 1 3 695 832 144
1349 2 2 1 3 683 737 12
1350 2 2 1 3 593 803 673
1351 2 2 1 3 646 752 699
1352 2 2 1 3 635 832 695
1353 2 2 1 3 604 767 697
1354 2 2 1 3 688 764 606
1355 2 2 1 3 715 819 633
1356 2 2 1 3 702 792 62
1357 2 2 1 3 684 749 610
1358 2 2 1 3 689 821 623
1359 2 2 1 3 633 793 715
1360 2 2 1 3 715 793 580
1361 2 2 1 3 620 746 683
1362 2 2 1 3 794 857 589
1363 2 2 1 3 606 722 706
1364 2 2 1 3 141 749 684
1365 2 2 1 3 124 725 123
1366 2 2 1 3 60 786 59
1367 2 2 1 3 829 838 645
1368 2 2 1 3 696 798 14
1369 2 2 1 3 731 855 658
1370 2 2 1 3 677 763 605
1371 2 2 1 3 21 748 20
1372 2 2 1 3 687 738 594
1373 2 2 1 3 680 756 612
1374 2 2 1 3 697 767 654
1375 2 2 1 3 10 815 129
1376 2 2 1 3 623 792 702
1377 2 2 1 3 574 855 731
1378 2 2 1 3 605 778 677
1379 2 2 1 3 681 852 596
1380 2 2 1 3 128 736 127
1381 2 2 1 3 700 727 603
1382 2 2 1 3 613 807 680
1383 2 2 1 3 721 764 642
1384 2 2 1 3 741 758 677
1385 2 2 1 3 16 769 15
1386 2 2 1 3 617 738 700
1387 2 2 1 3 745 853 653
1388 2 2 1 3 730 842 670
1389 2 2 1 3 685 843 626
1390 2 2 1 3 634 860 698
1391 2 2 1 3 734 766 641
1392 2 2 1 3 121 830 120
1393 2 2 1 3 592 843 685
1394 2 2 1 3 570 846 771
1395 2 2 1 3 12 737 11
1396 2 2 1 3 587 850 785
1397 2 2 1 3 742 850 587
1398 2 2 1 3 773 845 663
1399 2 2 1 3 613 766 734
1400 2 2 1 3 635 787 682
1401 2 2 1 3 598 754 716
1402 2 2 1 3 589 766 692
1403 2 2 1 3 725 812 123
1404 2 2 1 3 617 745 693
1405 2 2 1 3 118 818 117
1406 2 2 1 3 146 784 145
1407 2 2 1 3 644 779 686
1408 2 2 1 3 55 756 54
1409 2 2 1 3 614 799 681
1410 2 2 1 3 572 841 685
1411 2 2 1 3 681 799 569
1412 2 2 1 3 692 766 613
1413 2 2 1 3 719 777 611
1414 2 2 1 3 120 830 713
1415 2 2 1 3 707 852 639
1416 2 2 1 3 575 764 688
1417 2 2 1 3 604 753 691
1418 2 2 1 3 623 789 689
1419 2 2 1 3 699 756 55
1420 2 2 1 3 628 773 688
1421 2 2 1 3 689 789 132
1422 2 2 1 3 625 790 713
1423 2 2 1 3 625 830 705
1424 2 2 1 3 597 838 686
1425 2 2 1 3 590 845 773
1426 2 2 1 3 637 812 725
1427 2 2 1 3 713 790 602
1428 2 2 1 3 601 746 704
1429 2 2 1 3 687 855 574
1430 2 2 1 3 771 846 655
1431 2 2 1 3 22 840 21
1432 2 2 1 3 690 835 614
1433 2 2 1 3 612 756 699
1434 2 2 1 3 606 856 688
1435 2 2 1 3 688 856 628
1436 2 2 1 3 586 767 691
1437 2 2 1 3 53 807 734
1438 2 2 1 3 135 740 134
1439 2 2 1 3 596 852 707
1440 2 2 1 3 699 752 612
1441 2 2 1 3 602 735 713
1442 2 2 1 3 606 764 721
1443 2 2 1 3 786 864 59
1444 2 2 1 3 694 841 572
1445 2 2 1 3 627 841 694
1446 2 2 1 3 15 769 696
1447 2 2 1 3 694 780 596
1448 2 2 1 3 690 811 578
1449 2 2 1 3 573 753 711
1450 2 2 1 3 698 863 600
1451 2 2 1 3 142 749 141
1452 2 2 1 3 636 863 698
1453 2 2 1 3 23 751 22
1454 2 2 1 3 621 809 780
1455 2 2 1 3 614 811 690
1456 2 2 1 3 599 827 696
1457 2 2 1 3 583 835 752
1458 2 2 1 3 145 784 695
1459 2 2 1 3 17 791 16
1460 2 2 1 3 691 823 630
1461 2 2 1 3 649 794 782
1462 2 2 1 3 782 794 589
1463 2 2 1 3 613 822 692
1464 2 2 1 3 740 858 134
1465 2 2 1 3 673 860 839
1466 2 2 1 3 667 810 710
1467 2 2 1 3 768 781 622
1468 2 2 1 3 640 781 768
1469 2 2 1 3 744 836 669
1470 2 2 1 3 607 761 726
1471 2 2 1 3 138 825 137
1472 2 2 1 3 785 850 648
1473 2 2 1 3 592 765 720
1474 2 2 1 3 720 765 633
1475 2 2 1 3 631 817 810
1476 2 2 1 3 568 819 697
1477 2 2 1 3 719 837 777
1478 2 2 1 3 701 825 622
1479 2 2 1 3 723 859 584
1480 2 2 1 3 137 825 701
1481 2 2 1 3 117 796 116
1482 2 2 1 3 584 859 795
1483 2 2 1 3 709 820 624
1484 2 2 1 3 795 859 676
1485 2 2 1 3 780 806 621
1486 2 2 1 3 658 855 775
1487 2 2 1 3 606 824 722
1488 2 2 1 3 132 789 131
1489 2 2 1 3 578 811 703
1490 2 2 1 3 62 792 61
1491 2 2 1 3 615 840 751
1492 2 2 1 3 750 787 581
1493 2 2 1 3 20 816 19
1494 2 2 1 3 839 860 634
1495 2 2 1 3 595 828 723
1496 2 2 1 3 772 817 631
1497 2 2 1 3 723 828 632
1498 2 2 1 3 14 798 13
1499 2 2 1 3 126 797 125
1500 2 2 1 3 676 859 826
1501 2 2 1 3 703 809 578
1502 2 2 1 3 614 835 730
1503 2 2 1 3 776 783 594
1504 2 2 1 3 638 783 776
1505 2 2 1 3 148 820 147
1506 2 2 1 3 833 854 641
1507 2 2 1 3 653 802 720
1508 2 2 1 3 720 802 592
1509 2 2 1 3 122 812 705
1510 2 2 1 3 608 758 741
1511 2 2 1 3 705 812 637
1512 2 2 1 3 123 812 122
1513 2 2 1 3 770 771 655
1514 2 2 1 3 704 862 619
1515 2 2 1 3 826 859 632
1516 2 2 1 3 611 771 770
1517 2 2 1 3 722 824 646
1518 2 2 1 3 714 827 599
1519 2 2 1 3 52 854 1
1520 2 2 1 3 705 805 625
1521 2 2 1 3 620 813 746
1522 2 2 1 3 144 832 143
1523 2 2 1 3 590 834 821
1524 2 2 1 3 708 808 599
1525 2 2 1 3 577 862 704
1526 2 2 1 3 783 788 616
1527 2 2 1 3 638 788 783
1528 2 2 1 3 731 790 650
1529 2 2 1 3 119 848 118
1530 2 2 1 3 134 858 133
1531 2 2 1 3 710 810 581
1532 2 2 1 3 114 844 113
1533 2 2 1 3 706 856 606
1534 2 2 1 3 628 856 706
1535 2 2 1 3 19 816 726
1536 2 2 1 3 599 808 714
1537 2 2 1 3 650 795 727
1538 2 2 1 3 821 834 665
1539 2 2 1 3 714 808 618
1540 2 2 1 3 709 829 645
1541 2 2 1 3 632 859 723
1542 2 2 1 3 147 820 709
1543 2 2 1 3 618 849 714
1544 2 2 1 3 577 813 714
1545 2 2 1 3 782 806 649
1546 2 2 1 3 116 796 732
1547 2 2 1 3 706 864 628
1548 2 2 1 3 734 807 613
1549 2 2 1 3 726 836 607
1550 2 2 1 3 629 836 726
1551 2 2 1 3 724 853 617
1552 2 2 1 3 602 790 731
1553 2 2 1 3 627 793 765
1554 2 2 1 3 765 793 633
1555 2 2 1 3 641 854 734
1556 2 2 1 3 578 822 729
1557 2 2 1 3 713 830 625
1558 2 2 1 3 734 854 52
1559 2 2 1 3 582 829 801
1560 2 2 1 3 791 847 647
1561 2 2 1 3 657 847 791
1562 2 2 1 3 600 863 711
1563 2 2 1 3 573 823 753
1564 2 2 1 3 739 826 632
1565 2 2 1 3 638 800 788
1566 2 2 1 3 714 849 577
1567 2 2 1 3 788 800 571
1568 2 2 1 3 721 824 606
1569 2 2 1 3 570 826 739
1570 2 2 1 3 768 825 138
1571 2 2 1 3 726 816 629
1572 2 2 1 3 643 837 719
1573 2 2 1 3 671 814 748
1574 2 2 1 3 760 847 657
1575 2 2 1 3 585 847 760
1576 2 2 1 3 739 846 570
1577 2 2 1 3 673 839 763
1578 2 2 1 3 605 839 743
1579 2 2 1 3 624 820 774
1580 2 2 1 3 652 801 762
1581 2 2 1 3 762 801 624
1582 2 2 1 3 619 862 728
1583 2 2 1 3 617 853 745
1584 2 2 1 3 748 816 20
1585 2 2 1 3 588 853 724
1586 2 2 1 3 629 816 748
1587 2 2 1 3 753 823 691
1588 2 2 1 3 743 839 634
1589 2 2 1 3 676 826 759
1590 2 2 1 3 730 835 583
1591 2 2 1 3 772 804 586
1592 2 2 1 3 631 804 772
1593 2 2 1 3 748 814 629
1594 2 2 1 3 735 848 119
1595 2 2 1 3 648 850 818
1596 2 2 1 3 648 848 735
1597 2 2 1 3 818 850 662
1598 2 2 1 3 810 817 581
1599 2 2 1 3 624 844 762
1600 2 2 1 3 576 851 747
1601 2 2 1 3 607 836 744
1602 2 2 1 3 774 844 624
1603 2 2 1 3 618 846 739
1604 2 2 1 3 638 804 800
1605 2 2 1 3 813 827 714
1606 2 2 1 3 773 834 590
1607 2 2 1 3 621 806 782
1608 2 2 1 3 665 834 786
1609 2 2 1 3 626 843 747
1610 2 2 1 3 786 834 628
1611 2 2 1 3 778 842 642
1612 2 2 1 3 774 820 148
1613 2 2 1 3 759 826 570
1614 2 2 1 3 605 842 778
1615 2 2 1 3 777 837 588
1616 2 2 1 3 747 851 626
1617 2 2 1 3 630 817 772
1618 2 2 1 3 751 840 22
1619 2 2 1 3 589 857 766
1620 2 2 1 3 766 857 641
1621 2 2 1 3 622 825 768
1622 2 2 1 3 800 804 631
1623 2 2 1 3 833 857 661
1624 2 2 1 3 641 857 833
1625 2 2 1 3 628 834 773
1626 2 2 1 3 763 839 605
1627 2 2 1 3 762 844 114
1628 2 2 1 3 831 851 669
1629 2 2 1 3 626 851 831
1630 2 2 1 3 113 844 774
1631 2 2 1 3 644 861 779
1632 2 2 1 3 779 861 571
1633 2 2 1 3 628 864 786
1634 2 2 1 3 620 827 813
1635 2 2 1 3 118 848 818
1636 2 2 1 3 818 848 648
1637 2 2 1 4 890 916 869
1638 2 2 1 4 892 911 866
1639 2 2 1 4 153 894 152
1640 2 2 1 4 894 927 152
1641 2 2 1 4 906 920 881
1642 2 2 1 4 56 897 57
1643 2 2 1 4 931 953 904
1644 2 2 1 4 899 914 876
1645 2 2 1 4 866 914 899
1646 2 2 1 4 872 920 906
1647 2 2 1 4 897 909 57
1648 2 2 1 4 891 944 873
1649 2 2 1 4 916 942 869
1650 2 2 1 4 881 930 905
1651 2 2 1 4 901 914 875
1652 2 2 1 4 876 914 901
1653 2 2 1 4 875 932 908
1654 2 2 1 4 892 936 911
1655 2 2 1 4 944 964 873
1656 2 2 1 4 886 953 931
1657 2 2 1 4 908 932 882
1658 2 2 1 4 869 941 890
1659 2 2 1 4 52 1 25
1660 2 2 1 4 34 904 33
1661 2 2 1 4 870 946 897
1662 2 2 1 4 871 915 893
1663 2 2 1 4 899 942 933
1664 2 2 1 4 876 927 894
1665 2 2 1 4 904 953 872
1666 2 2 1 4 905 930 873
1667 2 2 1 4 157 910 907
1668 2 2 1 4 897 946 909
1669 2 2 1 4 30 896 29
1670 2 2 1 4 898 943 886
1671 2 2 1 4 868 943 898
1672 2 2 1 4 904 959 33
1673 2 2 1 4 156 971 915
1674 2 2 1 4 54 919 895
1675 2 2 1 4 933 942 879
1676 2 2 1 4 157 907 6
1677 2 2 1 4 907 912 39
1678 2 2 1 4 6 907 39
1679 2 2 1 4 151 901 150
1680 2 2 1 4 920 961 865
1681 2 2 1 4 158 910 157
1682 2 2 1 4 905 954 881
1683 2 2 1 4 915 971 893
1684 2 2 1 4 875 962 900
1685 2 2 1 4 865 956 920
1686 2 2 1 4 39 912 38
1687 2 2 1 4 899 933 866
1688 2 2 1 4 902 928 880
1689 2 2 1 4 867 928 902
1690 2 2 1 4 916 961 879
1691 2 2 1 4 908 962 875
1692 2 2 1 4 878 925 902
1693 2 2 1 4 879 961 921
1694 2 2 1 4 902 925 867
1695 2 2 1 4 956 966 891
1696 2 2 1 4 30 913 896
1697 2 2 1 4 53 919 54
1698 2 2 1 4 895 919 27
1699 2 2 1 4 896 938 870
1700 2 2 1 4 930 956 891
1701 2 2 1 4 156 915 155
1702 2 2 1 4 923 928 885
1703 2 2 1 4 60 903 61
1704 2 2 1 4 908 937 159
1705 2 2 1 4 896 935 926
1706 2 2 1 4 909 955 57
1707 2 2 1 4 160 908 159
1708 2 2 1 4 866 933 892
1709 2 2 1 4 153 917 894
1710 2 2 1 4 57 955 58
1711 2 2 1 4 894 952 876
1712 2 2 1 4 884 925 922
1713 2 2 1 4 873 930 891
1714 2 2 1 4 896 926 29
1715 2 2 1 4 62 945 924
1716 2 2 1 4 901 940 150
1717 2 2 1 4 926 935 877
1718 2 2 1 4 871 960 915
1719 2 2 1 4 880 928 923
1720 2 2 1 4 149 940 900
1721 2 2 1 4 889 961 920
1722 2 2 1 4 893 949 871
1723 2 2 1 4 884 959 904
1724 2 2 1 4 922 925 878
1725 2 2 1 4 895 958 877
1726 2 2 1 4 877 950 895
1727 2 2 1 4 883 951 898
1728 2 2 1 4 898 951 868
1729 2 2 1 4 907 910 874
1730 2 2 1 4 27 958 895
1731 2 2 1 4 63 924 893
1732 2 2 1 4 893 971 63
1733 2 2 1 4 869 952 894
1734 2 2 1 4 911 936 874
1735 2 2 1 4 874 912 907
1736 2 2 1 4 60 957 903
1737 2 2 1 4 900 940 875
1738 2 2 1 4 882 937 908
1739 2 2 1 4 924 945 888
1740 2 2 1 4 881 954 906
1741 2 2 1 4 875 940 901
1742 2 2 1 4 894 965 869
1743 2 2 1 4 895 950 54
1744 2 2 1 4 913 938 896
1745 2 2 1 4 903 957 885
1746 2 2 1 4 870 935 896
1747 2 2 1 4 58 923 59
1748 2 2 1 4 150 940 149
1749 2 2 1 4 911 932 866
1750 2 2 1 4 866 932 914
1751 2 2 1 4 865 966 956
1752 2 2 1 4 56 929 897
1753 2 2 1 4 31 913 30
1754 2 2 1 4 36 969 898
1755 2 2 1 4 897 935 870
1756 2 2 1 4 877 935 897
1757 2 2 1 4 897 929 877
1758 2 2 1 4 886 934 898
1759 2 2 1 4 52 918 53
1760 2 2 1 4 885 928 905
1761 2 2 1 4 899 952 869
1762 2 2 1 4 920 953 889
1763 2 2 1 4 874 936 912
1764 2 2 1 4 898 934 36
1765 2 2 1 4 912 936 883
1766 2 2 1 4 898 969 883
1767 2 2 1 4 906 925 884
1768 2 2 1 4 900 967 149
1769 2 2 1 4 151 927 901
1770 2 2 1 4 901 927 876
1771 2 2 1 4 27 919 26
1772 2 2 1 4 872 953 920
1773 2 2 1 4 26 918 25
1774 2 2 1 4 902 938 878
1775 2 2 1 4 870 938 902
1776 2 2 1 4 58 955 923
1777 2 2 1 4 876 952 899
1778 2 2 1 4 154 917 153
1779 2 2 1 4 915 960 887
1780 2 2 1 4 869 942 899
1781 2 2 1 4 914 932 875
1782 2 2 1 4 34 931 904
1783 2 2 1 4 880 946 902
1784 2 2 1 4 867 925 906
1785 2 2 1 4 905 928 867
1786 2 2 1 4 902 946 870
1787 2 2 1 4 921 943 868
1788 2 2 1 4 889 943 921
1789 2 2 1 4 888 964 944
1790 2 2 1 4 161 967 962
1791 2 2 1 4 885 972 903
1792 2 2 1 4 906 954 867
1793 2 2 1 4 872 973 904
1794 2 2 1 4 904 973 884
1795 2 2 1 4 962 967 900
1796 2 2 1 4 32 963 31
1797 2 2 1 4 61 945 62
1798 2 2 1 4 873 972 905
1799 2 2 1 4 63 971 8
1800 2 2 1 4 903 945 61
1801 2 2 1 4 55 929 56
1802 2 2 1 4 28 958 27
1803 2 2 1 4 37 969 36
1804 2 2 1 4 905 972 885
1805 2 2 1 4 906 973 872
1806 2 2 1 4 884 973 906
1807 2 2 1 4 62 924 63
1808 2 2 1 4 25 918 52
1809 2 2 1 4 29 926 28
1810 2 2 1 4 867 954 905
1811 2 2 1 4 877 958 926
1812 2 2 1 4 890 966 916
1813 2 2 1 4 929 950 877
1814 2 2 1 4 918 919 53
1815 2 2 1 4 916 966 865
1816 2 2 1 4 152 927 151
1817 2 2 1 4 35 931 34
1818 2 2 1 4 54 950 55
1819 2 2 1 4 922 963 32
1820 2 2 1 4 882 932 911
1821 2 2 1 4 879 942 916
1822 2 2 1 4 161 962 160
1823 2 2 1 4 883 939 912
1824 2 2 1 4 912 939 38
1825 2 2 1 4 158 937 910
1826 2 2 1 4 910 937 882
1827 2 2 1 4 36 934 35
1828 2 2 1 4 878 938 913
1829 2 2 1 4 160 962 908
1830 2 2 1 4 909 946 880
1831 2 2 1 4 154 948 917
1832 2 2 1 4 913 963 878
1833 2 2 1 4 880 955 909
1834 2 2 1 4 865 961 916
1835 2 2 1 4 917 948 887
1836 2 2 1 4 915 948 155
1837 2 2 1 4 887 948 915
1838 2 2 1 4 33 959 32
1839 2 2 1 4 35 934 931
1840 2 2 1 4 931 934 886
1841 2 2 1 4 159 937 158
1842 2 2 1 4 917 965 894
1843 2 2 1 4 882 970 910
1844 2 2 1 4 38 939 37
1845 2 2 1 4 911 970 882
1846 2 2 1 4 910 970 874
1847 2 2 1 4 874 970 911
1848 2 2 1 4 9 967 161
1849 2 2 1 4 149 967 9
1850 2 2 1 4 31 963 913
1851 2 2 1 4 26 919 918
1852 2 2 1 4 892 951 936
1853 2 2 1 4 936 951 883
1854 2 2 1 4 155 948 154
1855 2 2 1 4 921 947 879
1856 2 2 1 4 59 957 60
1857 2 2 1 4 960 968 890
1858 2 2 1 4 8 971 156
1859 2 2 1 4 947 951 892
1860 2 2 1 4 32 959 922
1861 2 2 1 4 868 951 947
1862 2 2 1 4 879 947 933
1863 2 2 1 4 920 956 881
1864 2 2 1 4 941 960 890
1865 2 2 1 4 924 949 893
1866 2 2 1 4 878 963 922
1867 2 2 1 4 887 965 917
1868 2 2 1 4 885 957 923
1869 2 2 1 4 923 957 59
1870 2 2 1 4 868 947 921
1871 2 2 1 4 923 955 880
1872 2 2 1 4 883 969 939
1873 2 2 1 4 888 949 924
1874 2 2 1 4 964 972 873
1875 2 2 1 4 903 972 964
1876 2 2 1 4 933 947 892
1877 2 2 1 4 889 953 943
1878 2 2 1 4 922 959 884
1879 2 2 1 4 926 958 28
1880 2 2 1 4 55 950 929
1881 2 2 1 4 921 961 889
1882 2 2 1 4 881 956 930
1883 2 2 1 4 944 968 871
1884 2 2 1 4 891 968 944
1885 2 2 1 4 871 968 960
1886 2 2 1 4 941 965 887
1887 2 2 1 4 871 949 944
1888 2 2 1 4 944 949 888
1889 2 2 1 4 943 953 886
1890 2 2 1 4 945 964 888
1891 2 2 1 4 903 964 945
1892 2 2 1 4 887 960 941
1893 2 2 1 4 869 965 941
1894 2 2 1 4 939 969 37
1895 2 2 1 4 890 968 966
1896 2 2 1 4 966 968 891
$EndElements
