# vtk DataFile Version 2.0
, Created by Gmsh 4.10.1 
ASCII
DATASET UNSTRUCTURED_GRID
POINTS 973 double
-7.771561172376096e-16 -8.881784197001252e-16 0
-5 -2 0
-5 -4 0
-2 -4 0
5 -4 0
5 2 0
-5 4 0
2 4 0
5 4 0
-4.6875 -1.875 0
-4.375000000000001 -1.75 0
-4.0625 -1.625 0
-3.75 -1.5 0
-3.437500000000002 -1.375000000000001 0
-3.125000000000003 -1.250000000000001 0
-2.812500000000004 -1.125000000000001 0
-2.500000000000004 -1.000000000000002 0
-2.187500000000004 -0.8750000000000018 0
-1.875000000000004 -0.7500000000000018 0
-1.562500000000003 -0.6250000000000013 0
-1.250000000000003 -0.5000000000000016 0
-0.9375000000000027 -0.3750000000000013 0
-0.6250000000000009 -0.2500000000000007 0
-0.3125 -0.1250000000000004 0
0.3125 0.125 0
0.6249999999999991 0.2499999999999996 0
0.9374999999999991 0.3749999999999991 0
1.249999999999999 0.4999999999999991 0
1.562499999999998 0.6249999999999987 0
1.874999999999996 0.7499999999999982 0
2.187499999999996 0.8749999999999978 0
2.499999999999994 0.9999999999999969 0
2.812499999999994 1.124999999999997 0
3.124999999999995 1.249999999999997 0
3.437499999999995 1.374999999999998 0
3.749999999999996 1.499999999999998 0
4.062499999999998 1.624999999999999 0
4.375 1.749999999999999 0
4.6875 1.875 0
-1.846153846153846 -3.692307692307693 0
-1.692307692307693 -3.384615384615386 0
-1.538461538461539 -3.076923076923079 0
-1.384615384615386 -2.769230769230772 0
-1.230769230769233 -2.461538461538465 0
-1.07692307692308 -2.153846153846159 0
-0.9230769230769258 -1.846153846153852 0
-0.769230769230772 -1.538461538461544 0
-0.6153846153846176 -1.230769230769235 0
-0.4615384615384635 -0.9230769230769269 0
-0.3076923076923093 -0.6153846153846185 0
-0.1538461538461551 -0.3076923076923102 0
0.1538461538461533 0.3076923076923066 0
0.307692307692307 0.6153846153846141 0
0.4615384615384612 0.9230769230769225 0
0.6153846153846145 1.230769230769229 0
0.7692307692307687 1.538461538461537 0
0.9230769230769225 1.846153846153845 0
1.076923076923076 2.153846153846152 0
1.23076923076923 2.461538461538459 0
1.384615384615384 2.769230769230768 0
1.538461538461539 3.076923076923078 0
1.692307692307692 3.384615384615384 0
1.846153846153846 3.692307692307693 0
-5 -2.333333333333333 0
-5 -2.666666666666665 0
-5 -2.999999999999997 0
-5 -3.333333333333329 0
-5 -3.666666666666664 0
-4.666666666666667 -4 0
-4.333333333333334 -4 0
-4 -4 0
-3.666666666666666 -4 0
-3.333333333333333 -4 0
-2.999999999999999 -4 0
-2.666666666666665 -4 0
-2.333333333333331 -4 0
5 -3.666666666666667 0
5 -3.333333333333333 0
5 -3.000000000000001 0
5 -2.666666666666668 0
5 -2.333333333333334 0
5 -2 0
5 -1.666666666666667 0
5 -1.333333333333333 0
5 -0.9999999999999996 0
5 -0.6666666666666652 0
5 -0.3333333333333313 0
5 1.77635683940025e-15 0
5 0.3333333333333357 0
5 0.6666666666666705 0
5 1.000000000000004 0
5 1.333333333333337 0
5 1.666666666666671 0
-1.65 -4 0
-1.3 -4 0
-0.9500000000000002 -4 0
-0.5999999999999996 -4 0
-0.25 -4 0
0.09999999999999964 -4 0
0.4500000000000002 -4 0
0.7999999999999998 -4 0
1.15 -4 0
1.5 -4 0
1.85 -4 0
2.2 -4 0
2.55 -4 0
2.9 -4 0
3.25 -4 0
3.6 -4 0
3.949999999999999 -4 0
4.300000000000001 -4 0
4.65 -4 0
-5 3.666666666666667 0
-5 3.333333333333333 0
-5 3.000000000000001 0
-5 2.666666666666668 0
-5 2.333333333333334 0
-5 2 0
-5 1.666666666666667 0
-5 1.333333333333333 0
-5 0.9999999999999996 0
-5 0.6666666666666652 0
-5 0.3333333333333313 0
-5 -1.77635683940025e-15 0
-5 -0.3333333333333357 0
-5 -0.6666666666666705 0
-5 -1.000000000000004 0
-5 -1.333333333333337 0
-5 -1.666666666666671 0
1.65 4 0
1.3 4 0
0.9500000000000002 4 0
0.5999999999999996 4 0
0.25 4 0
-0.09999999999999964 4 0
-0.4500000000000002 4 0
-0.7999999999999998 4 0
-1.15 4 0
-1.5 4 0
-1.85 4 0
-2.2 4 0
-2.55 4 0
-2.9 4 0
-3.25 4 0
-3.6 4 0
-3.949999999999999 4 0
-4.300000000000001 4 0
-4.65 4 0
4.666666666666667 4 0
4.333333333333334 4 0
4 4 0
3.666666666666666 4 0
3.333333333333333 4 0
2.999999999999999 4 0
2.666666666666665 4 0
2.333333333333331 4 0
5 2.333333333333333 0
5 2.666666666666665 0
5 2.999999999999997 0
5 3.333333333333329 0
5 3.666666666666664 0
-2.848076923076922 -2.625721153846154 0
-3.933514525131684 -2.897680670245666 0
-2.101156165814448 -1.935518208774085 0
-3.524442206671004 -2.236488711531418 0
-3.247218696931001 -3.257595800979757 0
-1.544783427461715 -1.399238978654197 0
-2.458561357211461 -3.346543024103639 0
-2.809069159534552 -1.887057910958271 0
-2.16530669930681 -2.685723033107263 0
-4.367922167501006 -2.43969374092988 0
-4.414752482165726 -3.41463540093702 0
-3.809213210953428 -3.458655920631077 0
-1.08651533576657 -1.032076794524949 0
-2.082292787424989 -1.400208398776847 0
-3.363701212566443 -2.696615801770978 0
-1.570454408167315 -1.957494119705182 0
-2.47685206862042 -2.278200451688755 0
-4.514021895534628 -2.871337687018221 0
-3.988204055288096 -2.065870504403215 0
-2.545096753765211 -1.527371098890355 0
-1.712869019859284 -2.417239848844494 0
-3.350411899145034 -1.826328958638858 0
-2.902357387184969 -3.554008050547672 0
-2.076523510341151 -3.147202854742019 0
-3.103151607647609 -2.246043190957261 0
-2.867545535198856 -3.055425253413488 0
-2.487212686042465 -2.785024455349459 0
-3.877195480560219 -2.582183284800554 0
-2.213579603600401 -3.546259846402935 0
-3.437488949572335 -3.611722042972146 0
-0.8300320166038168 -0.766447057913421 0
-1.628228265489196 -1.031787418108257 0
-1.168830123958386 -1.460304240051661 0
-3.648241108320546 -1.915551153345835 0
-3.628148051283257 -3.138470801084843 0
-4.621254437469767 -3.63917686465978 0
-4.127802773261615 -3.650666565830865 0
-1.827927818955935 -1.677159035104231 0
-1.68963561279469 -2.757142506329299 0
-2.88520391873274 -1.540300780087088 0
-2.08535040782156 -2.318863931569086 0
-2.470713348773461 -1.888128382168239 0
-4.669870890921935 -2.22458076309295 0
-4.677002619055626 -3.169569558939533 0
-1.268673830848429 -1.774441029261688 0
-4.665995562696026 -2.586118370062727 0
-4.211775110135758 -2.747655537549602 0
-4.330966768122306 -2.086927447405922 0
-1.921452756066789 -1.094848199654084 0
-4.035823623379691 -3.251286711257004 0
-2.539119387652585 -3.677748858565048 0
-3.071347108287196 -2.8576606076667 0
-3.108655303812162 -3.741019113857591 0
-0.4030066045764665 -0.3654205821998642 0
-0.5941282317351765 -0.5492215297624718 0
-2.811433635763859 -2.232453862981075 0
-3.319742801462466 -2.378640337866492 0
-2.358255751186157 -1.314494764578207 0
-1.454003054975219 -2.245497671225592 0
-1.991137098892901 -3.395289608527095 0
-2.237733689434504 -1.662718195320072 0
-1.324832385120908 -0.8333474957409817 0
-3.808234320090809 -3.744208905886817 0
-1.841807286332071 -2.091449944260994 0
-0.8840465229332063 -1.25763256393753 0
-2.398835484033249 -2.54805569563077 0
-3.216027164329822 -1.573873850471905 0
-4.297815042567184 -3.058694260991174 0
-3.623245944298328 -2.805013056995547 0
-3.494649769960082 -1.643090308971746 0
-1.362741829771895 -1.188077926542085 0
-4.088156057020994 -2.369257638725693 0
-4.771404015457256 -2.858738456537429 0
-1.811530262556235 -1.347785946527761 0
-4.132932537989116 -1.868050644243296 0
-4.381802847360261 -3.736354190490494 0
-2.980199438397539 -3.338231920078719 0
-3.381252390887004 -2.970374477241736 0
-3.293659627656681 -2.092422263628722 0
-2.304734114305368 -3.043333365483218 0
-1.825016364175229 -3.091446694799214 0
-1.476133921878356 -1.653727480555392 0
-3.580590803188222 -2.49139302960397 0
-2.833333333333332 -3.802267219789252 0
-2.217867812902361 -3.301678500327925 0
-0.7768657846968636 -1.037586371711797 0
-3.775217173570872 -2.249416984658831 0
-3.546651732202064 -3.377938888539864 0
-3.066993858972899 -1.914068688246168 0
-2.277016955080954 -2.114504013895814 0
-1.306309152207119 -2.031619688742279 0
-2.642110077215188 -2.490101384135164 0
-1.48007111743756 -2.529195210511992 0
-1.081308057142816 -0.6905133603628 0
-2.620211284736823 -1.301433328711131 0
-2.728584673620769 -3.34005787293874 0
-3.086242214800749 -2.506189159181443 0
-4.769859223092089 -3.45113796877649 0
-2.182399352205991 -1.126573430715992 0
-1.99332951141604 -2.883453754975167 0
-3.135183955179601 -3.500515385687177 0
-2.741195909409667 -2.845856696222863 0
-4.796802659777448 -3.796802659777451 0
-2.597972379298097 -3.069373444585234 0
-3.910174205608575 -1.807884046737395 0
-4.439997155101352 -2.663856542720414 0
-2.180788500581928 -3.795730800199578 0
-1.914341115872322 -2.594552922111965 0
-2.687992854283362 -1.70448352212247 0
2.634585732223631 -1.508184104820052 0
0.9215948447885952 -2.136534740128805 0
3.471921653811797 -0.2818776103144447 0
3.561079944592136 -2.632340800862463 0
1.392440115744323 -0.9110418271836944 0
1.9895476731991 -2.714414307720328 0
3.791303152533283 -1.392861327674349 0
-0.09070955900416168 -2.850777830557883 0
2.353287180289797 -0.2622143683045526 0
4.021203774445252 0.5526389950012096 0
0.4702224913065333 -1.289012077020258 0
1.232986970884861 -3.070180799953126 0
1.684603353494686 -1.824714088590757 0
2.911671807928145 -3.125585076439066 0
4.098539381027779 -3.13695635015731 0
-0.08512589660867421 -2.020340361716478 0
4.178989163332421 -0.6719884481291055 0
2.893776102820159 0.2798867710485513 0
2.811740781324656 -2.278385303330893 0
4.209979984569369 -2.092276795898239 0
2.926989886088054 -0.8128214444992707 0
0.6695979349285388 -0.5979710574468763 0
-0.7733056670452326 -3.244305821295289 0
1.59076689651976 -0.1835626869216124 0
2.117272002830151 -0.9931283712659018 0
0.5122300056616068 -3.257822502471759 0
3.210567418416352 -1.779214168300389 0
4.338218430457791 -0.02899423959666851 0
1.101286796309367 -1.514039463903516 0
3.501198961646482 -3.353817842324494 0
1.829232379351607 -3.360705016407592 0
3.363839498558379 0.6944027463091209 0
1.539721147473043 -2.382669665294503 0
4.384653981494862 1.102445851124982 0
4.40270174792003 -1.501333884224537 0
3.515555564946775 -0.8477400945960996 0
2.230279472678335 -2.113228037711537 0
0.4827835141277908 -2.696549031642402 0
-0.4986888650434467 -2.397547336684029 0
2.315486620315012 0.304831358632918 0
-0.1291550068376393 -3.404151793544209 0
4.418013678247138 -2.636640316625871 0
2.432191092927031 -3.431188963038207 0
2.868740915053587 -0.2218855646190026 0
-0.09960312443022885 -1.381388568411468 0
0.1989718055737326 -0.8499361400729983 0
0.4669540175985014 -1.877149556839682 0
1.040820423107467 -0.1121832383395524 0
3.699070759368531 -2.029678220936397 0
3.163677215458094 -1.258954413091411 0
3.668027983272442 0.232263661668206 0
4.4948602557072 0.5068632417386414 0
3.781716312619651 1.003273196508145 0
0.8903924447661309 -1.011718743581344 0
0.9562396800701363 -3.537126993591282 0
-1.184958593728144 -3.524618837254842 0
4.506853800390129 -3.520211167416397 0
4.493693379759366 -1.036533008027333 0
1.914768964471268 -0.5469501426191049 0
1.724111695069168 -1.271026023480294 0
-0.8276793226796357 -2.745544471046019 0
1.836049833478178 0.2337640374195018 0
2.560686961475856 -2.789444287033827 0
3.099946713768561 -2.706007367946051 0
3.936310261639767 -0.2706794843827223 0
2.122566564627733 -1.501820218691303 0
1.015108624027035 -2.625177979552468 0
3.121441859442323 -3.525787720752579 0
1.616818164390265 -2.871139023572357 0
4.519815070841259 -0.4417340549622115 0
3.281242522996352 -2.25251090852854 0
1.311158403011872 -1.952643156733125 0
1.454914859125516 -3.541339165353355 0
0.2985079017184576 -0.3563556976672905 0
0.06983260120764762 -2.356473180500323 0
2.455566314335676 -0.7269373019152342 0
4.03447060338567 -2.740069889892098 0
3.94470737724768 -3.590271503613575 0
-0.4989684843025047 -1.837973290938405 0
3.043475198738408 0.6877507443482331 0
4.607261169229542 -1.880907919031044 0
1.199001146495751 -0.6349118360276386 0
4.136280137652928 -1.050217561424894 0
-0.4791358205535239 -3.576574016667981 0
4.579784423011947 -3.013345939437044 0
2.661864946735418 -1.028167042431805 0
2.832389803473863 -1.890402821708253 0
3.211551264125324 0.1389798394713928 0
4.589197401523758 1.397078434801813 0
2.580170676876921 0.6005981117414732 0
4.069933730488457 -1.713579344449788 0
2.609008068737053 0.002019199572320429 0
0.2621507733522473 -3.624608608636751 0
0.7097985170301642 -0.1196007477048033 0
4.606196045625961 -2.300411854965041 0
-0.3045203594059873 -3.067830928313052 0
3.25688689813647 -0.5948073895418844 0
-1.223723580773343 -3.048628118212552 0
2.303997005501948 -3.028779897515435 0
3.415555734038338 -2.919682166276067 0
3.929286829195753 -2.345137296226374 0
1.916085513063015 -0.07364857499994493 0
0.5379998866068525 -2.223009102862639 0
1.351386197210636 0.06812889955911305 0
4.010751244181639 0.1697321253521196 0
0.8392901831903919 -3.036021569303376 0
1.867765665971405 -2.159883844376769 0
1.566911445359398 -0.5414281923609868 0
3.750242212151043 -0.6902787002674449 0
0.2722536843793308 -2.954507298082984 0
4.664327425903726 0.2051670381025257 0
4.670985234040056 0.8090231003659987 0
-0.1004739946047365 -1.060549166078525 0
0.8427475112847804 -1.798287352658426 0
2.757708920020818 -3.701812573965878 0
4.00457969313722 1.266321601494737 0
2.078803414414356 -3.636873236184917 0
1.775734424296336 -0.8920881447752984 0
3.79523288022769 -3.080100238329057 0
3.575742539681103 -1.715720591065037 0
-0.4548526809019306 -2.741249930448128 0
-0.7845458663765947 -3.620515838643656 0
0.2149720914849405 -1.552652711053489 0
2.50390556567415 -2.421469863290007 0
0.5662999024188664 -0.8937996671856937 0
2.97746000265695 -1.548480602624366 0
1.386969268314701 -1.264725945415415 0
3.376415839123367 -3.737190609840892 0
3.443717033615416 1.049760625211591 0
2.479828386668782 -1.862637078941731 0
1.331070442793737 -2.687298999345097 0
-0.4117681631859607 -1.486794853214976 0
3.471156672825531 -1.164670840762812 0
0.6702306891266895 -3.642037277947266 0
-1.459344187502606 -3.672422631631791 0
0.75623359583594 -1.488077441149565 0
4.295554292094257 0.7482593460153251 0
4.713504951144652 -0.7853762575079759 0
-0.8455915502162797 -2.404745524854242 0
1.453648692427975 -1.586452517843135 0
3.151530502179432 0.4455023703022835 0
4.219973858247944 -3.722000514590565 0
3.193153343368345 -3.20715861388764 0
1.865676140169688 -2.469715462753331 0
1.742590130578296 -3.707783483589172 0
4.675309568062901 -1.307470659667247 0
3.69144631225986 0.5475287376432454 0
2.086414499491381 -1.801048428400531 0
1.906735109684053 -3.072324627030636 0
1.54110375398817 -3.212036928874792 0
1.202841216055563 -2.331828160972197 0
2.607123972180739 -0.4228952857655597 0
2.318969181624544 -1.252101031968841 0
-0.2025527282106613 -2.274034310861726 0
-0.7093754087073979 -2.128165356267033 0
4.199088591265905 -0.3322170589922661 0
3.210708686101024 -0.9473925252328459 0
4.722626685536946 -0.169656277225429 0
2.036964020572976 0.475000176875305 0
3.779341749507281 -1.03111489621735 0
4.30204611171309 0.280568186516909 0
0.1717181332518678 -1.193794630578297 0
0.2552364026887568 -2.106089696753334 0
4.111007487015499 -1.407250352109834 0
4.717464687176697 -2.752761911992369 0
1.29364719004855 -0.3087779882662715 0
0.0563507780352848 -0.5373273728069455 0
4.692708125800306 -1.612747073037483 0
4.728967323411736 1.128376143925227 0
4.283186215231168 1.428169177484306 0
3.364984500261885 -1.476650323919727 0
3.765446721224364 -0.07934146116586994 0
-0.1535233423398193 -3.737720681393342 0
0.005662751461989687 -3.117688589319744 0
4.263361779258222 -2.376024931291584 0
0.7534090153472766 -2.451829022198966 0
2.243655102212668 0.004165866171268399 0
2.88423698234171 -1.278103754940464 0
4.056531793605017 0.9034391303552844 0
2.236087117275133 -0.524221346259281 0
1.566793929387053 0.3313614268733582 0
2.38966361503696 -3.751117731788813 0
2.645169318085174 -3.106596717151078 0
0.8790537042046184 0.1076538373613679 0
-0.133270730494275 -1.689131778193556 0
2.149945873937728 -2.410015259354599 0
2.12035731202809 -3.302519289873839 0
4.275832745291522 -2.909382795681067 0
-0.3377536718288013 -1.216515748310226 0
1.528820265128762 -2.117860863296025 0
0.1949855889702102 -3.287073114805136 0
3.538955593676931 -0.5554243796442547 0
2.612187471451116 0.3202940291335695 0
2.292533391542143 0.6071454458847124 0
4.718893902110039 -3.278497821470561 0
0.5667891388058127 -2.932608730044832 0
-0.1788152711562853 -2.551857684013416 0
2.005536198646328 -1.248660804945605 0
0.3883957543449762 -0.6004930964149363 0
2.575709733878517 -2.11892699805166 0
1.183657243650127 -3.706350898881239 0
3.117331988607177 0.9652942408582706 0
2.961092957460465 0.01441548629815048 0
3.173397224756546 -0.2075204665735451 0
2.815637695702252 -2.587251346042648 0
-0.6317438571041505 -3.00462895462537 0
4.718784191757603 -3.721806734678815 0
3.954092233031049 -1.971662740363954 0
3.093433220147441 -2.063921750802028 0
2.935730643880384 -0.5000297316148222 0
0.1698262458463181 -2.649852236368617 0
3.718492584646691 -2.807596632209093 0
1.062753472187639 -1.19933616457508 0
1.141491406128399 -3.343857230925063 0
0.8957870485677414 -0.7365542681042789 0
3.412164546288055 -2.003182218159005 0
3.703679540465814 -3.712490417150846 0
4.374036886951778 -1.791624197438772 0
-1.10408560810261 -2.805865454687897 0
2.850329487776373 -3.400714448280451 0
3.573642682566084 -2.336861771583276 0
-1.125 -3.775449558947354 0
4.357087486472856 -1.253507731532904 0
2.811477978629006 0.8182495641432259 0
-1.383060654934915 -3.333673757501933 0
1.846146833959545 -1.538953680325271 0
0.9070426376533127 -0.4110811113141764 0
3.967034810783182 -0.842968697323453 0
4.769431234255882 -2.508365272549476 0
4.773118489155822 0.5030076257438826 0
3.671967526108708 1.24195618472822 0
0.6923240650696824 -2.008745188122388 0
3.312964045368894 -2.510212183507616 0
4.388441424248975 -3.213669594611022 0
2.340417841227181 -0.9532788659149836 0
0.8119966097366296 -3.346393442182184 0
3.069160829884693 -2.399714810026295 0
4.417378763961342 -0.7808515671145356 0
1.088074845552317 -0.8987125678944072 0
-0.1121335782547817 -0.7879668679760716 0
3.437867932270631 0.3689348661872733 0
0.7329885254875619 -1.206774406977551 0
3.086493430401017 -2.964460171029661 0
0.5064751501401612 -1.579928379407386 0
4.800322553430941 -0.4946254992552889 0
3.831912420468758 0.765055613517054 0
1.637494666541675 0.07652819255845986 0
4.746397100187962 1.624803983615276 0
1.778668095123136 0.4833728773568512 0
2.841516768372032 -2.875312771319177 0
4.757390294115249 -2.080930330346745 0
2.352022796118973 -1.613167163024238 0
4.479122370079135 -3.792803683337156 0
-1.030188116522201 -3.300498194927928 0
0.3502077822929545 -1.048805197891092 0
2.313498996825654 -2.660296961866637 0
-0.398942276574537 -2.131612131293534 0
0.9520255225693905 -3.777103034083957 0
3.732642438343432 -0.3865481617782498 0
3.608663909414008 0.8183980080773859 0
4.061195804607134 -0.09736799230063509 0
4.155532520954324 -3.420603993640739 0
4.768473433491094 -1.082406743500441 0
1.80390480373552 -0.3247315616507986 0
3.075000000000001 -3.806855427702128 0
0.4011577604898026 -0.1111449004681164 0
-0.9317876920378618 -3.024911835799176 0
0.1437531769338499 -1.849072820911308 0
2.075603751213873 0.1910918855366194 0
2.718389768086823 -0.6560912969995673 0
3.821517290872041 -3.361871239319736 0
0.7844183097943472 -2.774260673893466 0
1.091752064904544 0.1877198997161854 0
1.586494660548682 -1.066158333941115 0
0.3575165888215829 -2.432749903250782 0
2.075945006260833 -0.753116012360814 0
4.788906378851554 -3.504103144713155 0
-0.517067762887188 -3.319667892181593 0
3.481666574586097 0.02762709667667141 0
2.84876965511584 0.525380265119556 0
4.823072889938201 -1.833333333333334 0
3.847857328539798 0.3755408799161951 0
4.454166761144725 -2.095437346803041 0
2.078895811040004 -0.3210182291800628 0
1.113079470241827 -1.762190580263144 0
2.978457994485187 -1.053421833419989 0
0.1086445098428338 -0.2537580435001818 0
3.835799726733817 -1.647081691330043 0
-0.6431587416722245 -2.579080706893722 0
0.5624167510275421 -0.3661077685026998 0
-0.4395107172724426 -3.803628668403912 0
3.960717912919292 -0.5324467584788735 0
1.04476485411997 -2.870321738063016 0
3.779478986384582 -2.575992562356912 0
4.278416108489949 0.5220824423180213 0
1.660053282848704 -2.60437712917848 0
-1.009255641742973 -2.591616837600369 0
-2.63458573222363 1.508184104820052 0
-0.9215948447885963 2.1365347401288 0
-3.471921653811797 0.2818776103144439 0
-3.561079944592136 2.632340800862463 0
-1.392440115744326 0.9110418271836909 0
-1.989547673199099 2.714414307720326 0
-3.791303152533282 1.392861327674349 0
0.09070955900415914 2.850777830557881 0
-2.353287180289799 0.2622143683045499 0
-4.021203774445251 -0.5526389950012107 0
-0.4702224913065357 1.289012077020252 0
-1.232986970884858 3.070180799953123 0
-1.684603353494687 1.824714088590753 0
-2.911671807928144 3.125585076439066 0
-4.098539381027779 3.136956350157309 0
0.0851258966086707 2.020340361716475 0
-4.178989163332422 0.6719884481291054 0
-2.893776102820159 -0.2798867710485523 0
-2.811740781324658 2.278385303330893 0
-4.209979984569368 2.092276795898238 0
-2.926989886088053 0.8128214444992696 0
-0.6695979349285427 0.5979710574468727 0
0.7733056670452311 3.244305821295288 0
-1.590766896519763 0.1835626869216095 0
-2.117272002830154 0.9931283712658987 0
-0.5122300056616061 3.25782250247176 0
-3.210567418416353 1.779214168300388 0
-4.33821843045779 0.02899423959666748 0
-1.101286796309369 1.51403946390351 0
-3.501198961646481 3.353817842324493 0
-1.829232379351604 3.36070501640759 0
-3.363839498558381 -0.6944027463091211 0
-1.539721147473043 2.3826696652945 0
-4.384653981494862 -1.102445851124982 0
-4.40270174792003 1.501333884224537 0
-3.515555564946774 0.8477400945960993 0
-2.230279472678336 2.113228037711536 0
-0.4827835141277931 2.696549031642399 0
0.4986888650434433 2.397547336684026 0
-2.315486620315015 -0.3048313586329205 0
0.1291550068376386 3.404151793544207 0
-4.418013678247137 2.63664031662587 0
-2.432191092927029 3.431188963038207 0
-2.868740915053587 0.2218855646190007 0
0.09960312443022604 1.381388568411464 0
-0.1989718055737355 0.849936140072993 0
-0.4669540175985039 1.877149556839677 0
-1.04082042310747 0.1121832383395494 0
-3.69907075936853 2.029678220936396 0
-3.163677215458093 1.25895441309141 0
-3.668027983272442 -0.2322636616682068 0
-4.494860255707199 -0.5068632417386412 0
-3.781716312619651 -1.003273196508146 0
-0.8903924447661344 1.01171874358134 0
-0.9562396800701358 3.537126993591281 0
1.184958593728145 3.524618837254842 0
-4.50685380039013 3.520211167416397 0
-4.493693379759365 1.036533008027334 0
-1.91476896447127 0.546950142619102 0
-1.72411169506917 1.27102602348029 0
0.8276793226796326 2.745544471046016 0
-1.83604983347818 -0.2337640374195036 0
-2.560686961475856 2.789444287033826 0
-3.099946713768561 2.706007367946052 0
-3.936310261639767 0.270679484382722 0
-2.122566564627734 1.501820218691301 0
-1.015108624027037 2.625177979552465 0
-3.121441859442323 3.525787720752579 0
-1.616818164390263 2.871139023572354 0
-4.519815070841259 0.4417340549622104 0
-3.281242522996353 2.252510908528538 0
-1.311158403011873 1.952643156733121 0
-1.454914859125515 3.541339165353356 0
-0.2985079017184603 0.3563556976672886 0
-0.06983260120765092 2.356473180500321 0
-2.455566314335676 0.7269373019152303 0
-4.03447060338567 2.740069889892097 0
-3.94470737724768 3.590271503613575 0
0.4989684843025018 1.837973290938401 0
-3.043475198738411 -0.6877507443482339 0
-4.607261169229541 1.880907919031045 0
-1.199001146495754 0.6349118360276348 0
-4.136280137652928 1.050217561424894 0
0.4791358205535247 3.576574016667981 0
-4.579784423011946 3.013345939437042 0
-2.661864946735417 1.028167042431802 0
-2.832389803473862 1.890402821708253 0
-3.211551264125324 -0.1389798394713939 0
-4.589197401523758 -1.397078434801814 0
-2.580170676876923 -0.600598111741477 0
-4.069933730488457 1.713579344449788 0
-2.609008068737054 -0.002019199572322546 0
-0.2621507733522465 3.62460860863675 0
-0.7097985170301674 0.1196007477048016 0
-4.606196045625961 2.300411854965042 0
0.3045203594059847 3.067830928313049 0
-3.256886898136469 0.5948073895418838 0
1.223723580773342 3.04862811821255 0
-2.303997005501946 3.028779897515435 0
-3.415555734038338 2.919682166276068 0
-3.929286829195751 2.345137296226374 0
-1.916085513063018 0.07364857499994273 0
-0.5379998866068531 2.223009102862635 0
-1.351386197210639 -0.06812889955911573 0
-4.010751244181639 -0.1697321253521208 0
-0.8392901831903865 3.036021569303367 0
-1.867765665971406 2.159883844376767 0
-1.566911445359401 0.5414281923609835 0
-3.750242212151043 0.6902787002674448 0
-0.2722536843793332 2.954507298082984 0
-4.664327425903725 -0.2051670381025264 0
-4.670985234040056 -0.809023100365999 0
0.100473994604734 1.060549166078521 0
-0.8427475112847833 1.798287352658421 0
-2.757708920020818 3.701812573965878 0
-4.004579693137221 -1.266321601494738 0
-2.078803414414354 3.636873236184917 0
-1.775734424296339 0.8920881447752957 0
-3.795232880227689 3.080100238329056 0
-3.575742539681103 1.715720591065037 0
0.4548526809019275 2.741249930448125 0
0.7845458663765941 3.620515838643656 0
-0.214972091484943 1.552652711053485 0
-2.50390556567415 2.421469863290004 0
-0.5662999024188695 0.8937996671856889 0
-2.97746000265695 1.548480602624366 0
-1.386969268314703 1.264725945415411 0
-3.376415839123365 3.737190609840891 0
-3.44371703361542 -1.049760625211592 0
-2.479828386668783 1.862637078941731 0
-1.331070442793737 2.687298999345094 0
0.4117681631859578 1.486794853214972 0
-3.471156672825531 1.164670840762812 0
-0.6702306891266893 3.642037277947266 0
1.459344187502606 3.672422631631791 0
-0.7562335958359416 1.48807744114956 0
-4.295554292094257 -0.7482593460153245 0
-4.713504951144652 0.785376257507977 0
0.8455915502162766 2.404745524854238 0
-1.453648692427977 1.586452517843131 0
-3.151530502179433 -0.4455023703022842 0
-4.219973858247946 3.722000514590566 0
-3.193153343368344 3.207158613887641 0
-1.865676140169689 2.469715462753329 0
-1.742590130578294 3.707783483589173 0
-4.675309568062901 1.30747065966725 0
-3.69144631225986 -0.5475287376432453 0
-2.086414499491382 1.801048428400529 0
-1.906735109684051 3.072324627030635 0
-1.541103753988169 3.21203692887479 0
-1.202841216055563 2.331828160972192 0
-2.60712397218074 0.4228952857655568 0
-2.318969181624543 1.25210103196884 0
0.2025527282106577 2.274034310861723 0
0.7093754087073947 2.128165356267029 0
-4.199088591265904 0.3322170589922655 0
-3.210708686101023 0.9473925252328457 0
-4.722626685536945 0.1696562772254272 0
-2.036964020572978 -0.4750001768753064 0
-3.77934174950728 1.03111489621735 0
-4.302046111713089 -0.2805681865169094 0
-0.1717181332518703 1.193794630578292 0
-0.2552364026887597 2.106089696753329 0
-4.1110074870155 1.407250352109835 0
-4.717464687176697 2.752761911992367 0
-1.293647190048554 0.3087779882662682 0
-0.05635077803528619 0.5373273728069409 0
-4.692708125800306 1.612747073037483 0
-4.728967323411735 -1.128376143925227 0
-4.283186215231168 -1.428169177484307 0
-3.364984500261885 1.476650323919727 0
-3.765446721224364 0.07934146116586892 0
0.1535233423398195 3.737720681393343 0
-0.005662751461990188 3.117688589319743 0
-4.263361779258221 2.376024931291584 0
-0.7534090153472781 2.451829022198961 0
-2.243655102212671 -0.004165866171270102 0
-2.884236982341709 1.278103754940463 0
-4.056531793605018 -0.9034391303552851 0
-2.236087117275135 0.5242213462592775 0
-1.566793929387056 -0.3313614268733603 0
-2.38966361503696 3.751117731788812 0
-2.645169318085174 3.106596717151077 0
-0.8790537042046214 -0.10765383736137 0
0.1332707304942722 1.689131778193552 0
-2.149945873937729 2.410015259354596 0
-2.120357312028088 3.302519289873839 0
-4.27583274529152 2.909382795681065 0
0.3377536718287989 1.216515748310222 0
-1.528820265128762 2.117860863296021 0
-0.1949855889702107 3.287073114805135 0
-3.538955593676931 0.5554243796442541 0
-2.612187471451118 -0.3202940291335715 0
-2.292533391542144 -0.6071454458847145 0
-4.71889390211004 3.27849782147056 0
-0.5667891388058123 2.932608730044829 0
0.1788152711562815 2.551857684013414 0
-2.005536198646331 1.248660804945603 0
-0.388395754344979 0.6004930964149326 0
-2.575709733878519 2.118926998051659 0
-1.183657243650126 3.706350898881239 0
-3.117331988607183 -0.9652942408582711 0
-2.961092957460465 -0.0144154862981523 0
-3.173397224756546 0.2075204665735438 0
-2.815637695702252 2.587251346042647 0
0.6317438571041475 3.004628954625367 0
-4.718784191757604 3.721806734678816 0
-3.954092233031048 1.971662740363955 0
-3.093433220147442 2.063921750802027 0
-2.935730643880383 0.5000297316148206 0
-0.1698262458463211 2.649852236368615 0
-3.718492584646691 2.807596632209093 0
-1.062753472187642 1.199336164575075 0
-1.141491406128397 3.34385723092506 0
-0.8957870485677449 0.7365542681042748 0
-3.412164546288054 2.003182218159004 0
-3.703679540465811 3.712490417150844 0
-4.374036886951778 1.791624197438772 0
1.104085608102607 2.805865454687895 0
-2.850329487776375 3.400714448280451 0
-3.573642682566084 2.336861771583276 0
1.125 3.775449558947353 0
-4.357087486472857 1.253507731532905 0
-2.811477978629012 -0.8182495641432281 0
1.383060654934915 3.333673757501934 0
-1.846146833959547 1.538953680325267 0
-0.9070426376533161 0.4110811113141734 0
-3.967034810783183 0.8429686973234529 0
-4.769431234255883 2.508365272549475 0
-4.773118489155821 -0.5030076257438827 0
-3.671967526108712 -1.241956184728224 0
-0.692324065069684 2.008745188122383 0
-3.312964045368895 2.510212183507615 0
-4.388441424248976 3.213669594611022 0
-2.340417841227182 0.9532788659149798 0
-0.8119966097366282 3.346393442182181 0
-3.069160829884693 2.399714810026295 0
-4.417378763961339 0.7808515671145383 0
-1.08807484555232 0.8987125678944031 0
0.1121335782547796 0.7879668679760675 0
-3.437867932270632 -0.3689348661872736 0
-0.7329885254875648 1.206774406977546 0
-3.086493430401017 2.964460171029661 0
-0.5064751501401628 1.579928379407381 0
-4.80032255343094 0.4946254992552888 0
-3.831912420468758 -0.765055613517054 0
-1.637494666541678 -0.07652819255846241 0
-4.746397100187962 -1.624803983615277 0
-1.778668095123138 -0.483372877356852 0
-2.841516768372032 2.875312771319176 0
-4.757390294115247 2.080930330346747 0
-2.352022796118972 1.613167163024237 0
-4.479122370079136 3.792803683337156 0
1.0301881165222 3.300498194927927 0
-0.350207782292957 1.048805197891087 0
-2.313498996825653 2.660296961866634 0
0.3989422765745336 2.131612131293531 0
-0.9520255225693902 3.777103034083957 0
-3.732642438343432 0.386548161778249 0
-3.608663909414008 -0.8183980080773827 0
-4.061195804607134 0.09736799230063434 0
-4.155532520954326 3.420603993640739 0
-4.768473433491093 1.082406743500443 0
-1.803904803735522 0.3247315616507958 0
-3.075 3.806855427702127 0
-0.4011577604898058 0.1111449004681151 0
0.93178769203786 3.024911835799173 0
-0.1437531769338528 1.849072820911303 0
-2.075603751213876 -0.1910918855366203 0
-2.718389768086824 0.6560912969995641 0
-3.821517290872041 3.361871239319736 0
-0.7844183097943468 2.774260673893461 0
-1.091752064904548 -0.1877198997161879 0
-1.586494660548685 1.066158333941113 0
-0.3575165888215851 2.432749903250781 0
-2.075945006260835 0.7531160123608112 0
-4.788906378851554 3.504103144713155 0
0.5170677628871867 3.319667892181591 0
-3.481666574586097 -0.02762709667667317 0
-2.848769655115842 -0.5253802651195578 0
-4.823072889938201 1.833333333333334 0
-3.847857328539798 -0.3755408799161959 0
-4.454166761144724 2.095437346803043 0
-2.078895811040006 0.3210182291800601 0
-1.113079470241829 1.762190580263139 0
-2.978457994485185 1.053421833419988 0
-0.1086445098428357 0.2537580435001799 0
-3.835799726733818 1.647081691330044 0
0.6431587416722212 2.579080706893719 0
-0.5624167510275452 0.3661077685026973 0
0.4395107172724426 3.803628668403912 0
-3.960717912919292 0.5324467584788732 0
-1.044764854119968 2.87032173806301 0
-3.779478986384582 2.575992562356912 0
-4.278416108489949 -0.5220824423180214 0
-1.660053282848702 2.604377129178478 0
1.009255641742971 2.591616837600365 0
2.848076923076922 2.625721153846154 0
3.933514525131684 2.897680670245666 0
2.101156165814448 1.935518208774085 0
3.524442206671007 2.236488711531418 0
3.247218696931002 3.257595800979757 0
1.544783427461712 1.399238978654197 0
2.458561357211461 3.346543024103641 0
2.809069159534552 1.887057910958271 0
2.165306699306811 2.685723033107263 0
4.367922167501006 2.439693740929879 0
4.414752482165727 3.41463540093702 0
3.809213210953429 3.458655920631077 0
1.086515335766569 1.032076794524948 0
2.082292787424988 1.400208398776846 0
3.363701212566446 2.696615801770979 0
1.570454408167316 1.957494119705181 0
2.47685206862042 2.278200451688754 0
4.514021895534627 2.871337687018221 0
3.988204055288096 2.065870504403213 0
2.54509675376521 1.527371098890357 0
1.712869019859286 2.417239848844494 0
3.350411899145033 1.826328958638858 0
2.902357387184967 3.554008050547672 0
2.076523510341152 3.147202854742021 0
3.10315160764761 2.246043190957262 0
2.867545535198856 3.055425253413489 0
2.487212686042465 2.78502445534946 0
3.877195480560221 2.582183284800554 0
2.213579603600401 3.546259846402937 0
3.437488949572335 3.611722042972146 0
0.8300320166038153 0.7664470579134188 0
1.628228265489192 1.031787418108257 0
1.168830123958385 1.46030424005166 0
3.648241108320547 1.915551153345834 0
3.628148051283258 3.138470801084841 0
4.621254437469767 3.63917686465978 0
4.127802773261616 3.650666565830865 0
1.827927818955936 1.677159035104231 0
1.689635612794691 2.757142506329299 0
2.885203918732738 1.540300780087088 0
2.085350407821562 2.318863931569086 0
2.470713348773462 1.88812838216824 0
4.669870890921935 2.22458076309295 0
4.677002619055626 3.169569558939533 0
1.268673830848428 1.774441029261689 0
4.665995562696028 2.586118370062727 0
4.211775110135758 2.747655537549603 0
4.330966768122306 2.086927447405921 0
1.921452756066782 1.094848199654084 0
4.035823623379692 3.251286711257004 0
2.539119387652585 3.677748858565048 0
3.071347108287198 2.857660607666701 0
3.108655303812162 3.741019113857591 0
0.4030066045764653 0.3654205821998638 0
0.5941282317351746 0.5492215297624699 0
2.811433635763859 2.232453862981076 0
3.319742801462469 2.378640337866493 0
2.358255751186155 1.314494764578207 0
1.454003054975222 2.245497671225593 0
1.9911370988929 3.395289608527097 0
2.237733689434507 1.662718195320071 0
1.324832385120904 0.8333474957409798 0
3.808234320090809 3.744208905886818 0
1.841807286332071 2.091449944260996 0
0.8840465229332047 1.257632563937527 0
2.398835484033248 2.548055695630769 0
3.216027164329817 1.573873850471905 0
4.297815042567185 3.058694260991174 0
3.623245944298331 2.805013056995547 0
3.494649769960079 1.643090308971744 0
1.362741829771892 1.188077926542087 0
4.088156057020993 2.369257638725692 0
4.771404015457256 2.858738456537429 0
1.811530262556234 1.347785946527764 0
4.132932537989116 1.868050644243295 0
4.381802847360261 3.736354190490496 0
2.980199438397539 3.33823192007872 0
3.381252390887006 2.970374477241737 0
3.293659627656684 2.092422263628722 0
2.304734114305368 3.043333365483221 0
1.82501636417523 3.091446694799215 0
1.476133921878355 1.653727480555392 0
3.580590803188225 2.49139302960397 0
2.833333333333331 3.802267219789252 0
2.217867812902361 3.301678500327928 0
0.7768657846968624 1.037586371711795 0
3.775217173570875 2.249416984658833 0
3.546651732202064 3.377938888539862 0
3.066993858972899 1.914068688246169 0
2.277016955080954 2.114504013895813 0
1.306309152207122 2.031619688742279 0
2.642110077215187 2.490101384135166 0
1.480071117437559 2.529195210511988 0
1.081308057142813 0.6905133603627966 0
2.620211284736818 1.301433328711129 0
2.728584673620768 3.340057872938742 0
3.08624221480075 2.506189159181444 0
4.769859223092089 3.45113796877649 0
2.182399352205986 1.126573430715991 0
1.993329511416041 2.883453754975168 0
3.135183955179601 3.500515385687177 0
2.741195909409669 2.845856696222863 0
4.796802659777448 3.796802659777451 0
2.597972379298097 3.069373444585235 0
3.910174205608576 1.807884046737394 0
4.439997155101352 2.663856542720413 0
2.180788500581928 3.795730800199578 0
1.914341115872323 2.594552922111966 0
2.687992854283362 1.704483522122471 0

CELLS 1896 7526
2 1 9
2 9 10
2 10 11
2 11 12
2 12 13
2 13 14
2 14 15
2 15 16
2 16 17
2 17 18
2 18 19
2 19 20
2 20 21
2 21 22
2 22 23
2 23 0
2 0 24
2 24 25
2 25 26
2 26 27
2 27 28
2 28 29
2 29 30
2 30 31
2 31 32
2 32 33
2 33 34
2 34 35
2 35 36
2 36 37
2 37 38
2 38 5
2 3 39
2 39 40
2 40 41
2 41 42
2 42 43
2 43 44
2 44 45
2 45 46
2 46 47
2 47 48
2 48 49
2 49 50
2 50 0
2 0 51
2 51 52
2 52 53
2 53 54
2 54 55
2 55 56
2 56 57
2 57 58
2 58 59
2 59 60
2 60 61
2 61 62
2 62 7
3 186 212 165
3 188 207 162
3 72 190 71
3 190 223 71
3 202 216 177
3 46 193 45
3 227 249 200
3 195 210 172
3 162 210 195
3 168 216 202
3 193 205 45
3 187 240 169
3 212 238 165
3 177 226 201
3 197 210 171
3 172 210 197
3 171 228 204
3 188 232 207
3 240 260 169
3 182 249 227
3 204 228 178
3 165 237 186
3 23 50 0
3 14 200 15
3 166 242 193
3 167 211 189
3 195 238 229
3 172 223 190
3 200 249 168
3 201 226 169
3 63 206 203
3 193 242 205
3 18 192 19
3 194 239 182
3 164 239 194
3 200 255 15
3 75 267 211
3 48 215 191
3 229 238 175
3 63 203 1
3 203 208 9
3 1 203 9
3 70 197 69
3 216 257 161
3 64 206 63
3 201 250 177
3 211 267 189
3 171 258 196
3 161 252 216
3 9 208 10
3 195 229 162
3 198 224 176
3 163 224 198
3 212 257 175
3 204 258 171
3 174 221 198
3 175 257 217
3 198 221 163
3 252 262 187
3 18 209 192
3 49 215 48
3 191 215 21
3 192 234 166
3 226 252 187
3 75 211 74
3 219 224 181
3 42 199 41
3 204 233 65
3 192 231 222
3 205 251 45
3 66 204 65
3 162 229 188
3 72 213 190
3 45 251 44
3 190 248 172
3 180 221 218
3 169 226 187
3 192 222 19
3 40 241 220
3 197 236 69
3 222 231 173
3 167 256 211
3 176 224 219
3 68 236 196
3 185 257 216
3 189 245 167
3 180 255 200
3 218 221 174
3 191 254 173
3 173 246 191
3 179 247 194
3 194 247 164
3 203 206 170
3 21 254 191
3 39 220 189
3 189 267 39
3 165 248 190
3 207 232 170
3 170 208 203
3 42 253 199
3 196 236 171
3 178 233 204
3 220 241 184
3 177 250 202
3 171 236 197
3 190 261 165
3 191 246 48
3 209 234 192
3 199 253 181
3 166 231 192
3 44 219 43
3 69 236 68
3 207 228 162
3 162 228 210
3 161 262 252
3 46 225 193
3 17 209 18
3 12 265 194
3 193 231 166
3 173 231 193
3 193 225 173
3 182 230 194
3 50 214 49
3 181 224 201
3 195 248 165
3 216 249 185
3 170 232 208
3 194 230 12
3 208 232 179
3 194 265 179
3 202 221 180
3 196 263 68
3 70 223 197
3 197 223 172
3 21 215 22
3 168 249 216
3 22 214 23
3 198 234 174
3 166 234 198
3 44 251 219
3 172 248 195
3 73 213 72
3 211 256 183
3 165 238 195
3 210 228 171
3 14 227 200
3 176 242 198
3 163 221 202
3 201 224 163
3 198 242 166
3 217 239 164
3 185 239 217
3 184 260 240
3 67 263 258
3 181 268 199
3 202 250 163
3 168 269 200
3 200 269 180
3 258 263 196
3 16 259 17
3 41 241 40
3 169 268 201
3 39 267 3
3 199 241 41
3 47 225 46
3 20 254 21
3 11 265 12
3 201 268 181
3 202 269 168
3 180 269 202
3 40 220 39
3 23 214 50
3 19 222 20
3 163 250 201
3 173 254 222
3 186 262 212
3 225 246 173
3 214 215 49
3 212 262 161
3 71 223 70
3 13 227 14
3 48 246 47
3 218 259 16
3 178 228 207
3 175 238 212
3 67 258 66
3 179 235 208
3 208 235 10
3 64 233 206
3 206 233 178
3 12 230 13
3 174 234 209
3 66 258 204
3 205 242 176
3 73 244 213
3 209 259 174
3 176 251 205
3 161 257 212
3 213 244 183
3 211 244 74
3 183 244 211
3 15 255 16
3 13 230 227
3 227 230 182
3 65 233 64
3 213 261 190
3 178 266 206
3 10 235 11
3 207 266 178
3 206 266 170
3 170 266 207
3 2 263 67
3 68 263 2
3 17 259 209
3 22 215 214
3 188 247 232
3 232 247 179
3 74 244 73
3 217 243 175
3 43 253 42
3 256 264 186
3 3 267 75
3 243 247 188
3 16 255 218
3 164 247 243
3 175 243 229
3 216 252 177
3 237 256 186
3 220 245 189
3 174 259 218
3 183 261 213
3 181 253 219
3 219 253 43
3 164 243 217
3 219 251 176
3 179 265 235
3 184 245 220
3 260 268 169
3 199 268 260
3 229 243 188
3 185 249 239
3 218 255 180
3 222 254 20
3 47 246 225
3 217 257 185
3 177 252 226
3 240 264 167
3 187 264 240
3 167 264 256
3 237 261 183
3 167 245 240
3 240 245 184
3 239 249 182
3 241 260 184
3 199 260 241
3 183 256 237
3 165 261 237
3 235 265 11
3 186 264 262
3 262 264 187
3 271 420 341
3 375 505 483
3 45 348 46
3 341 554 271
3 338 400 281
3 375 483 281
3 109 411 347
3 311 444 346
3 361 421 313
3 337 397 299
3 339 427 297
3 275 565 338
3 299 412 337
3 274 377 351
3 290 539 355
3 355 539 345
3 271 554 383
3 278 421 361
3 346 388 284
3 102 414 342
3 342 470 102
3 300 419 342
3 327 507 352
3 352 507 286
3 338 418 275
3 420 459 341
3 409 495 329
3 281 419 338
3 310 547 353
3 362 403 295
3 339 425 286
3 368 452 332
3 31 463 359
3 286 507 339
3 297 425 339
3 282 409 341
3 420 445 336
3 413 565 275
3 342 414 300
3 353 442 310
3 271 445 420
3 341 459 282
3 344 432 285
3 96 560 391
3 276 440 389
3 349 410 301
3 346 457 311
3 402 440 276
3 452 519 332
3 329 467 387
3 365 547 310
3 99 362 98
3 317 435 373
3 373 435 293
3 284 457 346
3 299 388 369
3 346 444 370
3 355 422 270
3 285 423 344
3 387 467 294
3 301 471 349
3 348 401 46
3 396 409 329
3 391 547 292
3 273 502 369
3 277 390 365
3 30 463 31
3 369 502 333
3 391 560 353
3 78 434 354
3 466 480 344
3 277 480 466
3 348 526 285
3 347 486 109
3 354 464 78
3 274 508 482
3 274 482 396
3 296 395 356
3 486 540 299
3 356 395 270
3 353 547 391
3 377 387 328
3 274 387 377
3 477 557 318
3 45 424 348
3 285 454 348
3 41 367 42
3 318 557 389
3 96 391 95
3 104 386 103
3 397 486 299
3 305 429 378
3 399 417 306
3 352 429 276
3 270 399 356
3 362 442 98
3 110 411 109
3 286 497 352
3 278 449 421
3 421 449 345
3 403 505 295
3 25 535 363
3 384 489 312
3 345 545 504
3 288 478 356
3 85 407 84
3 29 428 30
3 345 504 355
3 284 540 531
3 352 492 327
3 270 447 355
3 297 427 380
3 388 540 284
3 399 521 417
3 312 489 452
3 428 463 30
3 313 472 361
3 99 403 362
3 376 455 306
3 282 495 409
3 302 459 420
3 449 545 345
3 383 513 316
3 473 479 366
3 311 457 354
3 351 508 274
3 275 418 368
3 429 497 378
3 276 433 352
3 393 474 288
3 314 454 392
3 364 444 311
3 310 442 362
3 332 474 393
3 305 426 402
3 405 513 383
3 88 380 87
3 24 535 25
3 374 430 279
3 332 525 368
3 354 434 311
3 32 493 471
3 402 426 319
3 358 439 303
3 368 525 275
3 303 438 358
3 358 517 37
3 331 516 371
3 382 431 315
3 407 532 84
3 90 381 89
3 371 516 293
3 35 385 36
3 386 414 103
3 272 473 366
3 357 410 287
3 381 406 321
3 91 517 358
3 355 555 290
3 303 406 381
3 288 506 478
3 289 477 370
3 370 477 318
3 280 511 394
3 320 441 374
3 471 493 349
3 394 524 280
3 311 498 364
3 356 478 296
3 357 548 510
3 353 560 442
3 430 564 279
3 318 490 370
3 356 469 288
3 454 537 392
3 102 470 101
3 406 448 279
3 483 505 324
3 395 440 319
3 296 440 395
3 366 426 305
3 83 437 82
3 290 426 366
3 349 549 410
3 361 472 287
3 358 438 91
3 321 430 380
3 422 521 270
3 106 384 105
3 380 430 297
3 0 535 24
3 415 437 83
3 309 446 361
3 490 563 370
3 361 446 278
3 0 556 535
3 413 455 376
3 482 511 405
3 365 443 277
3 37 439 358
3 298 482 405
3 310 443 365
3 370 563 346
3 382 509 48
3 457 503 354
3 376 417 282
3 287 472 357
3 306 417 376
3 419 483 342
3 431 524 315
3 398 471 301
3 448 515 279
3 338 419 418
3 377 435 351
3 418 419 300
3 289 487 360
3 441 530 374
3 304 433 360
3 35 500 385
3 363 496 317
3 494 523 367
3 359 493 31
3 41 494 367
3 103 414 102
3 369 412 299
3 292 523 391
3 359 463 309
3 313 479 473
3 38 92 5
3 43 408 44
3 309 462 359
3 284 503 457
3 388 481 369
3 325 523 494
3 412 489 337
3 282 459 376
3 298 405 383
3 88 499 380
3 78 464 77
3 79 434 78
3 381 438 303
3 363 453 25
3 80 520 364
3 357 510 410
3 360 487 304
3 373 450 27
3 317 453 363
3 478 506 340
3 302 413 376
3 303 439 385
3 400 562 281
3 300 414 386
3 510 548 320
3 381 499 89
3 76 476 4
3 410 549 287
3 400 420 336
3 504 545 294
3 48 509 49
3 387 543 329
3 360 477 289
3 273 563 490
3 322 500 398
3 100 403 99
3 361 462 309
3 280 431 392
3 287 462 361
3 364 552 444
3 385 500 322
3 392 431 314
3 283 489 412
3 4 476 111
3 305 461 366
3 379 460 295
3 362 460 310
3 295 460 362
3 364 498 80
3 108 397 107
3 380 499 321
3 93 404 39
3 395 447 270
3 33 398 34
3 94 404 93
3 321 499 381
3 316 432 372
3 418 456 368
3 281 562 375
3 46 401 47
3 370 444 289
3 293 533 371
3 366 461 272
3 304 487 437
3 37 517 38
3 39 3 93
3 39 404 40
3 384 451 105
3 297 430 374
3 312 451 384
3 437 487 350
3 367 488 42
3 293 435 377
3 390 475 365
3 43 566 408
3 27 542 373
3 366 479 290
3 372 445 271
3 369 481 273
3 371 538 331
3 276 429 402
3 92 517 91
3 279 551 374
3 312 452 368
3 380 427 87
3 285 526 423
3 446 553 278
3 368 456 312
3 371 553 446
3 324 505 403
3 317 496 435
3 434 498 311
3 333 512 369
3 281 483 419
3 394 484 291
3 435 496 351
3 398 529 322
3 363 559 496
3 347 540 486
3 373 542 317
3 323 484 394
3 375 465 295
3 377 533 293
3 503 531 326
3 298 409 396
3 328 533 377
3 339 507 407
3 384 534 337
3 94 491 404
3 344 544 432
3 283 519 452
3 44 424 45
3 326 531 411
3 106 534 384
3 312 456 386
3 386 456 300
3 49 436 50
3 372 501 316
3 271 501 372
3 408 424 44
3 48 458 382
3 394 511 323
3 374 530 297
3 378 461 305
3 293 516 373
3 314 431 382
3 379 480 277
3 295 465 379
3 389 485 318
3 372 544 445
3 445 544 307
3 296 485 389
3 404 491 325
3 90 438 381
3 277 443 379
3 393 469 306
3 376 459 302
3 334 530 441
3 374 551 320
3 335 521 422
3 385 448 303
3 302 420 400
3 397 534 107
3 385 439 36
3 295 505 375
3 348 454 401
3 337 534 397
3 306 469 399
3 390 466 308
3 417 521 335
3 404 494 40
3 386 451 312
3 391 523 325
3 335 495 417
3 417 495 282
3 322 448 385
3 496 559 291
3 308 424 408
3 104 451 386
3 87 427 86
3 42 488 43
3 531 540 347
3 398 500 34
3 433 557 360
3 379 465 307
3 27 450 28
3 389 440 296
3 382 458 314
3 399 469 356
3 38 517 92
3 325 494 404
3 276 557 433
3 307 480 379
3 383 554 298
3 91 438 90
3 402 429 305
3 315 509 382
3 423 466 344
3 443 460 379
3 32 471 33
3 319 440 402
3 447 555 355
3 432 544 372
3 387 545 328
3 336 562 400
3 436 468 343
3 84 532 83
3 294 545 387
3 272 548 473
3 36 439 37
3 289 552 487
3 444 552 289
3 475 547 365
3 315 468 436
3 337 489 384
3 300 456 418
3 291 468 394
3 427 514 86
3 319 447 395
3 81 520 80
3 109 486 108
3 346 481 388
3 47 458 48
3 316 501 383
3 274 543 387
3 383 501 271
3 394 468 315
3 421 479 313
3 83 532 415
3 409 554 341
3 277 466 390
3 306 455 393
3 325 491 391
3 401 458 47
3 330 475 390
3 391 491 95
3 327 492 415
3 327 532 407
3 299 540 388
3 292 547 475
3 339 514 427
3 415 492 304
3 303 448 406
3 389 557 276
3 473 548 357
3 26 542 27
3 392 537 316
3 314 458 401
3 308 558 390
3 390 558 330
3 288 469 393
3 49 509 436
3 98 442 97
3 298 554 409
3 401 454 314
3 304 437 415
3 308 466 423
3 488 566 43
3 396 543 274
3 329 543 396
3 33 471 398
3 396 482 298
3 392 513 280
3 275 455 413
3 400 565 302
3 105 451 104
3 338 565 400
3 25 453 26
3 323 511 482
3 316 513 392
3 301 529 398
3 285 537 454
3 108 486 397
3 31 493 32
3 393 525 332
3 351 496 484
3 484 496 291
3 315 524 394
3 442 560 97
3 375 562 541
3 369 512 412
3 470 483 324
3 342 483 470
3 446 538 371
3 309 463 428
3 101 527 100
3 487 552 350
3 294 467 422
3 422 467 335
3 333 519 512
3 270 521 399
3 421 539 479
3 403 527 324
3 425 561 286
3 100 527 403
3 80 498 79
3 286 561 497
3 411 522 326
3 497 561 378
3 482 508 323
3 360 557 477
3 308 526 424
3 95 491 94
3 280 513 405
3 40 494 41
3 317 542 453
3 452 489 283
3 28 518 29
3 541 562 336
3 297 530 425
3 474 519 333
3 425 530 334
3 34 500 35
3 89 499 88
3 378 561 528
3 405 511 280
3 316 537 432
3 478 485 296
3 340 485 478
3 111 522 110
3 535 556 343
3 355 504 422
3 422 504 294
3 85 514 407
3 310 460 443
3 407 514 339
3 86 514 85
3 472 473 357
3 406 564 321
3 528 561 334
3 313 473 472
3 424 526 348
3 416 529 301
3 50 556 0
3 407 507 327
3 322 515 448
3 107 534 106
3 292 536 523
3 410 510 301
3 279 564 406
3 485 490 318
3 340 490 485
3 433 492 352
3 82 550 81
3 97 560 96
3 412 512 283
3 77 546 76
3 408 558 308
3 330 558 408
3 29 518 428
3 301 510 416
3 352 497 429
3 523 536 367
3 416 510 320
3 411 531 347
3 334 561 425
3 110 522 411
3 320 551 416
3 279 515 416
3 484 508 351
3 79 498 434
3 408 566 330
3 436 509 315
3 428 538 309
3 331 538 428
3 426 555 319
3 304 492 433
3 329 495 467
3 467 495 335
3 343 556 436
3 280 524 431
3 415 532 327
3 436 556 50
3 284 531 503
3 493 549 349
3 359 549 493
3 302 565 413
3 275 525 455
3 441 528 334
3 340 502 490
3 416 551 279
3 490 502 273
3 423 526 308
3 272 528 441
3 470 527 101
3 428 518 331
3 345 539 421
3 373 516 450
3 462 549 359
3 287 549 462
3 441 548 272
3 375 541 465
3 307 541 445
3 326 522 476
3 354 503 464
3 464 503 326
3 321 564 430
3 319 555 447
3 450 518 28
3 290 555 426
3 331 518 450
3 455 525 393
3 445 541 336
3 378 528 461
3 432 537 285
3 474 506 288
3 333 506 474
3 450 516 331
3 437 550 82
3 350 552 520
3 350 550 437
3 520 552 364
3 512 519 283
3 326 546 464
3 278 553 449
3 309 538 446
3 476 546 326
3 320 548 441
3 340 506 502
3 515 529 416
3 475 536 292
3 323 508 484
3 367 536 488
3 328 545 449
3 488 536 330
3 480 544 344
3 476 522 111
3 461 528 272
3 307 544 480
3 479 539 290
3 449 553 328
3 332 519 474
3 453 542 26
3 291 559 468
3 468 559 343
3 324 527 470
3 502 506 333
3 535 559 363
3 343 559 535
3 330 536 475
3 465 541 307
3 464 546 77
3 533 553 371
3 328 553 533
3 76 546 476
3 346 563 481
3 481 563 273
3 330 566 488
3 322 529 515
3 81 550 520
3 520 550 350
3 568 717 638
3 672 802 780
3 56 645 55
3 638 851 568
3 635 697 578
3 672 780 578
3 145 708 644
3 608 741 643
3 658 718 610
3 634 694 596
3 636 724 594
3 572 862 635
3 596 709 634
3 571 674 648
3 587 836 652
3 652 836 642
3 568 851 680
3 575 718 658
3 643 685 581
3 138 711 639
3 639 767 138
3 597 716 639
3 624 804 649
3 649 804 583
3 635 715 572
3 717 756 638
3 706 792 626
3 578 716 635
3 607 844 650
3 659 700 592
3 636 722 583
3 665 749 629
3 16 760 656
3 583 804 636
3 594 722 636
3 579 706 638
3 717 742 633
3 710 862 572
3 639 711 597
3 650 739 607
3 568 742 717
3 638 756 579
3 641 729 582
3 132 857 688
3 573 737 686
3 646 707 598
3 643 754 608
3 699 737 573
3 749 816 629
3 626 764 684
3 662 844 607
3 135 659 134
3 614 732 670
3 670 732 590
3 581 754 643
3 596 685 666
3 643 741 667
3 652 719 567
3 582 720 641
3 684 764 591
3 598 768 646
3 645 698 55
3 693 706 626
3 688 844 589
3 570 799 666
3 574 687 662
3 17 760 16
3 666 799 630
3 688 857 650
3 114 731 651
3 763 777 641
3 574 777 763
3 645 823 582
3 644 783 145
3 651 761 114
3 571 805 779
3 571 779 693
3 593 692 653
3 783 837 596
3 653 692 567
3 650 844 688
3 674 684 625
3 571 684 674
3 774 854 615
3 56 721 645
3 582 751 645
3 60 664 59
3 615 854 686
3 132 688 131
3 140 683 139
3 694 783 596
3 602 726 675
3 696 714 603
3 649 726 573
3 567 696 653
3 659 739 134
3 146 708 145
3 583 794 649
3 575 746 718
3 718 746 642
3 700 802 592
3 22 832 660
3 681 786 609
3 642 842 801
3 585 775 653
3 121 704 120
3 18 725 17
3 642 801 652
3 581 837 828
3 649 789 624
3 567 744 652
3 594 724 677
3 685 837 581
3 696 818 714
3 609 786 749
3 725 760 17
3 610 769 658
3 135 700 659
3 673 752 603
3 579 792 706
3 599 756 717
3 746 842 642
3 680 810 613
3 770 776 663
3 608 754 651
3 648 805 571
3 572 715 665
3 726 794 675
3 573 730 649
3 690 771 585
3 611 751 689
3 661 741 608
3 607 739 659
3 629 771 690
3 602 723 699
3 702 810 680
3 124 677 123
3 23 832 22
3 671 727 576
3 629 822 665
3 651 731 608
3 15 790 768
3 699 723 616
3 655 736 600
3 665 822 572
3 600 735 655
3 655 814 10
3 628 813 668
3 679 728 612
3 704 829 120
3 126 678 125
3 668 813 590
3 12 682 11
3 683 711 139
3 569 770 663
3 654 707 584
3 678 703 618
3 127 814 655
3 652 852 587
3 600 703 678
3 585 803 775
3 586 774 667
3 667 774 615
3 577 808 691
3 617 738 671
3 768 790 646
3 691 821 577
3 608 795 661
3 653 775 593
3 654 845 807
3 650 857 739
3 727 861 576
3 615 787 667
3 653 766 585
3 751 834 689
3 138 767 137
3 703 745 576
3 780 802 621
3 692 737 616
3 593 737 692
3 663 723 602
3 119 734 118
3 587 723 663
3 646 846 707
3 658 769 584
3 655 735 127
3 618 727 677
3 719 818 567
3 142 681 141
3 677 727 594
3 0 832 23
3 712 734 119
3 606 743 658
3 787 860 667
3 658 743 575
3 0 853 832
3 710 752 673
3 779 808 702
3 662 740 574
3 10 736 655
3 595 779 702
3 607 740 662
3 667 860 643
3 679 806 53
3 754 800 651
3 673 714 579
3 584 769 654
3 603 714 673
3 716 780 639
3 728 821 612
3 695 768 598
3 745 812 576
3 635 716 715
3 674 732 648
3 715 716 597
3 586 784 657
3 738 827 671
3 601 730 657
3 12 797 682
3 660 793 614
3 791 820 664
3 656 790 16
3 60 791 664
3 139 711 138
3 666 709 596
3 589 820 688
3 656 760 606
3 610 776 770
3 1 9 128
3 58 705 57
3 606 759 656
3 581 800 754
3 685 778 666
3 622 820 791
3 709 786 634
3 579 756 673
3 595 702 680
3 124 796 677
3 114 761 113
3 115 731 114
3 678 735 600
3 660 750 22
3 116 817 661
3 654 807 707
3 657 784 601
3 670 747 20
3 614 750 660
3 775 803 637
3 599 710 673
3 600 736 682
3 697 859 578
3 597 711 683
3 807 845 617
3 678 796 125
3 112 773 6
3 707 846 584
3 697 717 633
3 801 842 591
3 53 806 52
3 684 840 626
3 657 774 586
3 570 860 787
3 619 797 695
3 136 700 135
3 658 759 606
3 577 728 689
3 584 759 658
3 661 849 741
3 682 797 619
3 689 728 611
3 580 786 709
3 6 773 147
3 602 758 663
3 676 757 592
3 659 757 607
3 592 757 659
3 661 795 116
3 144 694 143
3 677 796 618
3 129 701 62
3 692 744 567
3 14 695 13
3 130 701 129
3 618 796 678
3 613 729 669
3 715 753 665
3 578 859 672
3 55 698 54
3 667 741 586
3 590 830 668
3 663 758 569
3 601 784 734
3 10 814 9
3 129 62 7
3 62 701 61
3 681 748 141
3 594 727 671
3 609 748 681
3 734 784 647
3 664 785 59
3 590 732 674
3 687 772 662
3 58 863 705
3 20 839 670
3 663 776 587
3 669 742 568
3 666 778 570
3 668 835 628
3 573 726 699
3 128 814 127
3 576 848 671
3 609 749 665
3 677 724 123
3 582 823 720
3 743 850 575
3 665 753 609
3 668 850 743
3 621 802 700
3 614 793 732
3 731 795 608
3 630 809 666
3 578 780 716
3 691 781 588
3 732 793 648
3 695 826 619
3 660 856 793
3 644 837 783
3 670 839 614
3 620 781 691
3 672 762 592
3 674 830 590
3 800 828 623
3 595 706 693
3 625 830 674
3 636 804 704
3 681 831 634
3 130 788 701
3 641 841 729
3 580 816 749
3 57 721 56
3 623 828 708
3 142 831 681
3 609 753 683
3 683 753 597
3 52 733 51
3 669 798 613
3 568 798 669
3 705 721 57
3 53 755 679
3 691 808 620
3 671 827 594
3 675 758 602
3 590 813 670
3 611 728 679
3 676 777 574
3 592 762 676
3 686 782 615
3 669 841 742
3 742 841 604
3 593 782 686
3 701 788 622
3 126 735 678
3 574 740 676
3 690 766 603
3 673 756 599
3 631 827 738
3 671 848 617
3 632 818 719
3 682 745 600
3 599 717 697
3 694 831 143
3 682 736 11
3 592 802 672
3 645 751 698
3 634 831 694
3 603 766 696
3 687 763 605
3 714 818 632
3 701 791 61
3 683 748 609
3 688 820 622
3 632 792 714
3 714 792 579
3 619 745 682
3 793 856 588
3 605 721 705
3 140 748 683
3 123 724 122
3 59 785 58
3 828 837 644
3 695 797 13
3 730 854 657
3 676 762 604
3 20 747 19
3 686 737 593
3 679 755 611
3 696 766 653
3 9 814 128
3 622 791 701
3 573 854 730
3 604 777 676
3 680 851 595
3 127 735 126
3 699 726 602
3 612 806 679
3 720 763 641
3 740 757 676
3 15 768 14
3 616 737 699
3 744 852 652
3 729 841 669
3 684 842 625
3 633 859 697
3 733 765 640
3 120 829 119
3 591 842 684
3 569 845 770
3 11 736 10
3 586 849 784
3 741 849 586
3 772 844 662
3 612 765 733
3 634 786 681
3 597 753 715
3 588 765 691
3 724 811 122
3 616 744 692
3 117 817 116
3 145 783 144
3 643 778 685
3 54 755 53
3 613 798 680
3 571 840 684
3 680 798 568
3 691 765 612
3 718 776 610
3 119 829 712
3 706 851 638
3 574 763 687
3 603 752 690
3 622 788 688
3 698 755 54
3 627 772 687
3 688 788 131
3 624 789 712
3 624 829 704
3 596 837 685
3 589 844 772
3 636 811 724
3 712 789 601
3 600 745 703
3 686 854 573
3 770 845 654
3 21 839 20
3 689 834 613
3 611 755 698
3 605 855 687
3 687 855 627
3 585 766 690
3 52 806 733
3 134 739 133
3 595 851 706
3 698 751 611
3 601 734 712
3 605 763 720
3 785 863 58
3 693 840 571
3 626 840 693
3 14 768 695
3 693 779 595
3 689 810 577
3 572 752 710
3 697 862 599
3 141 748 140
3 635 862 697
3 22 750 21
3 620 808 779
3 613 810 689
3 598 826 695
3 582 834 751
3 144 783 694
3 16 790 15
3 690 822 629
3 648 793 781
3 781 793 588
3 612 821 691
3 739 857 133
3 672 859 838
3 666 809 709
3 767 780 621
3 639 780 767
3 743 835 668
3 606 760 725
3 137 824 136
3 784 849 647
3 591 764 719
3 719 764 632
3 630 816 809
3 567 818 696
3 718 836 776
3 700 824 621
3 722 858 583
3 136 824 700
3 116 795 115
3 583 858 794
3 708 819 623
3 794 858 675
3 779 805 620
3 657 854 774
3 605 823 721
3 131 788 130
3 577 810 702
3 61 791 60
3 614 839 750
3 749 786 580
3 19 815 18
3 838 859 633
3 594 827 722
3 771 816 630
3 722 827 631
3 13 797 12
3 125 796 124
3 675 858 825
3 702 808 577
3 613 834 729
3 775 782 593
3 637 782 775
3 147 819 146
3 832 853 640
3 652 801 719
3 719 801 591
3 121 811 704
3 607 757 740
3 704 811 636
3 122 811 121
3 769 770 654
3 703 861 618
3 825 858 631
3 610 770 769
3 721 823 645
3 713 826 598
3 51 853 0
3 704 804 624
3 619 812 745
3 143 831 142
3 589 833 820
3 707 807 598
3 576 861 703
3 782 787 615
3 637 787 782
3 730 789 649
3 118 847 117
3 133 857 132
3 709 809 580
3 113 843 112
3 705 855 605
3 627 855 705
3 18 815 725
3 598 807 713
3 649 794 726
3 820 833 664
3 713 807 617
3 708 828 644
3 631 858 722
3 146 819 708
3 617 848 713
3 576 812 713
3 781 805 648
3 115 795 731
3 705 863 627
3 733 806 612
3 725 835 606
3 628 835 725
3 723 852 616
3 601 789 730
3 626 792 764
3 764 792 632
3 640 853 733
3 577 821 728
3 712 829 624
3 733 853 51
3 581 828 800
3 790 846 646
3 656 846 790
3 599 862 710
3 572 822 752
3 738 825 631
3 637 799 787
3 713 848 576
3 787 799 570
3 720 823 605
3 569 825 738
3 767 824 137
3 725 815 628
3 642 836 718
3 670 813 747
3 759 846 656
3 584 846 759
3 738 845 569
3 672 838 762
3 604 838 742
3 623 819 773
3 651 800 761
3 761 800 623
3 618 861 727
3 616 852 744
3 747 815 19
3 587 852 723
3 628 815 747
3 752 822 690
3 742 838 633
3 675 825 758
3 729 834 582
3 771 803 585
3 630 803 771
3 747 813 628
3 734 847 118
3 647 849 817
3 647 847 734
3 817 849 661
3 809 816 580
3 623 843 761
3 575 850 746
3 606 835 743
3 773 843 623
3 617 845 738
3 637 803 799
3 812 826 713
3 772 833 589
3 620 805 781
3 664 833 785
3 625 842 746
3 785 833 627
3 777 841 641
3 773 819 147
3 758 825 569
3 604 841 777
3 776 836 587
3 746 850 625
3 629 816 771
3 750 839 21
3 588 856 765
3 765 856 640
3 621 824 767
3 799 803 630
3 832 856 660
3 640 856 832
3 627 833 772
3 762 838 604
3 761 843 113
3 830 850 668
3 625 850 830
3 112 843 773
3 643 860 778
3 778 860 570
3 627 863 785
3 619 826 812
3 117 847 817
3 817 847 647
3 889 915 868
3 891 910 865
3 152 893 151
3 893 926 151
3 905 919 880
3 55 896 56
3 930 952 903
3 898 913 875
3 865 913 898
3 871 919 905
3 896 908 56
3 890 943 872
3 915 941 868
3 880 929 904
3 900 913 874
3 875 913 900
3 874 931 907
3 891 935 910
3 943 963 872
3 885 952 930
3 907 931 881
3 868 940 889
3 51 0 24
3 33 903 32
3 869 945 896
3 870 914 892
3 898 941 932
3 875 926 893
3 903 952 871
3 904 929 872
3 156 909 906
3 896 945 908
3 29 895 28
3 897 942 885
3 867 942 897
3 903 958 32
3 155 970 914
3 53 918 894
3 932 941 878
3 156 906 5
3 906 911 38
3 5 906 38
3 150 900 149
3 919 960 864
3 157 909 156
3 904 953 880
3 914 970 892
3 874 961 899
3 864 955 919
3 38 911 37
3 898 932 865
3 901 927 879
3 866 927 901
3 915 960 878
3 907 961 874
3 877 924 901
3 878 960 920
3 901 924 866
3 955 965 890
3 29 912 895
3 52 918 53
3 894 918 26
3 895 937 869
3 929 955 890
3 155 914 154
3 922 927 884
3 59 902 60
3 907 936 158
3 895 934 925
3 908 954 56
3 159 907 158
3 865 932 891
3 152 916 893
3 56 954 57
3 893 951 875
3 883 924 921
3 872 929 890
3 895 925 28
3 61 944 923
3 900 939 149
3 925 934 876
3 870 959 914
3 879 927 922
3 148 939 899
3 888 960 919
3 892 948 870
3 883 958 903
3 921 924 877
3 894 957 876
3 876 949 894
3 882 950 897
3 897 950 867
3 906 909 873
3 26 957 894
3 62 923 892
3 892 970 62
3 868 951 893
3 910 935 873
3 873 911 906
3 59 956 902
3 899 939 874
3 881 936 907
3 923 944 887
3 880 953 905
3 874 939 900
3 893 964 868
3 894 949 53
3 912 937 895
3 902 956 884
3 869 934 895
3 57 922 58
3 149 939 148
3 910 931 865
3 865 931 913
3 864 965 955
3 55 928 896
3 30 912 29
3 35 968 897
3 896 934 869
3 876 934 896
3 896 928 876
3 885 933 897
3 51 917 52
3 884 927 904
3 898 951 868
3 919 952 888
3 873 935 911
3 897 933 35
3 911 935 882
3 897 968 882
3 905 924 883
3 899 966 148
3 150 926 900
3 900 926 875
3 26 918 25
3 871 952 919
3 25 917 24
3 901 937 877
3 869 937 901
3 57 954 922
3 875 951 898
3 153 916 152
3 914 959 886
3 868 941 898
3 913 931 874
3 33 930 903
3 879 945 901
3 866 924 905
3 904 927 866
3 901 945 869
3 920 942 867
3 888 942 920
3 887 963 943
3 160 966 961
3 884 971 902
3 905 953 866
3 871 972 903
3 903 972 883
3 961 966 899
3 31 962 30
3 60 944 61
3 872 971 904
3 62 970 7
3 902 944 60
3 54 928 55
3 27 957 26
3 36 968 35
3 904 971 884
3 905 972 871
3 883 972 905
3 61 923 62
3 24 917 51
3 28 925 27
3 866 953 904
3 876 957 925
3 889 965 915
3 928 949 876
3 917 918 52
3 915 965 864
3 151 926 150
3 34 930 33
3 53 949 54
3 921 962 31
3 881 931 910
3 878 941 915
3 160 961 159
3 882 938 911
3 911 938 37
3 157 936 909
3 909 936 881
3 35 933 34
3 877 937 912
3 159 961 907
3 908 945 879
3 153 947 916
3 912 962 877
3 879 954 908
3 864 960 915
3 916 947 886
3 914 947 154
3 886 947 914
3 32 958 31
3 34 933 930
3 930 933 885
3 158 936 157
3 916 964 893
3 881 969 909
3 37 938 36
3 910 969 881
3 909 969 873
3 873 969 910
3 8 966 160
3 148 966 8
3 30 962 912
3 25 918 917
3 891 950 935
3 935 950 882
3 154 947 153
3 920 946 878
3 58 956 59
3 959 967 889
3 7 970 155
3 946 950 891
3 31 958 921
3 867 950 946
3 878 946 932
3 919 955 880
3 940 959 889
3 923 948 892
3 877 962 921
3 886 964 916
3 884 956 922
3 922 956 58
3 867 946 920
3 922 954 879
3 882 968 938
3 887 948 923
3 963 971 872
3 902 971 963
3 932 946 891
3 888 952 942
3 921 958 883
3 925 957 27
3 54 949 928
3 920 960 888
3 880 955 929
3 943 967 870
3 890 967 943
3 870 967 959
3 940 964 886
3 870 948 943
3 943 948 887
3 942 952 885
3 944 963 887
3 902 963 944
3 886 959 940
3 868 964 940
3 938 968 36
3 889 967 965
3 965 967 890

CELL_TYPES 1896
3
3
3
3
3
3
3
3
3
3
3
3
3
3
3
3
3
3
3
3
3
3
3
3
3
3
3
3
3
3
3
3
3
3
3
3
3
3
3
3
3
3
3
3
3
3
3
3
3
3
3
3
3
3
3
3
3
3
5
5
5
5
5
5
5
5
5
5
5
5
5
5
5
5
5
5
5
5
5
5
5
5
5
5
5
5
5
5
5
5
5
5
5
5
5
5
5
5
5
5
5
5
5
5
5
5
5
5
5
5
5
5
5
5
5
5
5
5
5
5
5
5
5
5
5
5
5
5
5
5
5
5
5
5
5
5
5
5
5
5
5
5
5
5
5
5
5
5
5
5
5
5
5
5
5
5
5
5
5
5
5
5
5
5
5
5
5
5
5
5
5
5
5
5
5
5
5
5
5
5
5
5
5
5
5
5
5
5
5
5
5
5
5
5
5
5
5
5
5
5
5
5
5
5
5
5
5
5
5
5
5
5
5
5
5
5
5
5
5
5
5
5
5
5
5
5
5
5
5
5
5
5
5
5
5
5
5
5
5
5
5
5
5
5
5
5
5
5
5
5
5
5
5
5
5
5
5
5
5
5
5
5
5
5
5
5
5
5
5
5
5
5
5
5
5
5
5
5
5
5
5
5
5
5
5
5
5
5
5
5
5
5
5
5
5
5
5
5
5
5
5
5
5
5
5
5
5
5
5
5
5
5
5
5
5
5
5
5
5
5
5
5
5
5
5
5
5
5
5
5
5
5
5
5
5
5
5
5
5
5
5
5
5
5
5
5
5
5
5
5
5
5
5
5
5
5
5
5
5
5
5
5
5
5
5
5
5
5
5
5
5
5
5
5
5
5
5
5
5
5
5
5
5
5
5
5
5
5
5
5
5
5
5
5
5
5
5
5
5
5
5
5
5
5
5
5
5
5
5
5
5
5
5
5
5
5
5
5
5
5
5
5
5
5
5
5
5
5
5
5
5
5
5
5
5
5
5
5
5
5
5
5
5
5
5
5
5
5
5
5
5
5
5
5
5
5
5
5
5
5
5
5
5
5
5
5
5
5
5
5
5
5
5
5
5
5
5
5
5
5
5
5
5
5
5
5
5
5
5
5
5
5
5
5
5
5
5
5
5
5
5
5
5
5
5
5
5
5
5
5
5
5
5
5
5
5
5
5
5
5
5
5
5
5
5
5
5
5
5
5
5
5
5
5
5
5
5
5
5
5
5
5
5
5
5
5
5
5
5
5
5
5
5
5
5
5
5
5
5
5
5
5
5
5
5
5
5
5
5
5
5
5
5
5
5
5
5
5
5
5
5
5
5
5
5
5
5
5
5
5
5
5
5
5
5
5
5
5
5
5
5
5
5
5
5
5
5
5
5
5
5
5
5
5
5
5
5
5
5
5
5
5
5
5
5
5
5
5
5
5
5
5
5
5
5
5
5
5
5
5
5
5
5
5
5
5
5
5
5
5
5
5
5
5
5
5
5
5
5
5
5
5
5
5
5
5
5
5
5
5
5
5
5
5
5
5
5
5
5
5
5
5
5
5
5
5
5
5
5
5
5
5
5
5
5
5
5
5
5
5
5
5
5
5
5
5
5
5
5
5
5
5
5
5
5
5
5
5
5
5
5
5
5
5
5
5
5
5
5
5
5
5
5
5
5
5
5
5
5
5
5
5
5
5
5
5
5
5
5
5
5
5
5
5
5
5
5
5
5
5
5
5
5
5
5
5
5
5
5
5
5
5
5
5
5
5
5
5
5
5
5
5
5
5
5
5
5
5
5
5
5
5
5
5
5
5
5
5
5
5
5
5
5
5
5
5
5
5
5
5
5
5
5
5
5
5
5
5
5
5
5
5
5
5
5
5
5
5
5
5
5
5
5
5
5
5
5
5
5
5
5
5
5
5
5
5
5
5
5
5
5
5
5
5
5
5
5
5
5
5
5
5
5
5
5
5
5
5
5
5
5
5
5
5
5
5
5
5
5
5
5
5
5
5
5
5
5
5
5
5
5
5
5
5
5
5
5
5
5
5
5
5
5
5
5
5
5
5
5
5
5
5
5
5
5
5
5
5
5
5
5
5
5
5
5
5
5
5
5
5
5
5
5
5
5
5
5
5
5
5
5
5
5
5
5
5
5
5
5
5
5
5
5
5
5
5
5
5
5
5
5
5
5
5
5
5
5
5
5
5
5
5
5
5
5
5
5
5
5
5
5
5
5
5
5
5
5
5
5
5
5
5
5
5
5
5
5
5
5
5
5
5
5
5
5
5
5
5
5
5
5
5
5
5
5
5
5
5
5
5
5
5
5
5
5
5
5
5
5
5
5
5
5
5
5
5
5
5
5
5
5
5
5
5
5
5
5
5
5
5
5
5
5
5
5
5
5
5
5
5
5
5
5
5
5
5
5
5
5
5
5
5
5
5
5
5
5
5
5
5
5
5
5
5
5
5
5
5
5
5
5
5
5
5
5
5
5
5
5
5
5
5
5
5
5
5
5
5
5
5
5
5
5
5
5
5
5
5
5
5
5
5
5
5
5
5
5
5
5
5
5
5
5
5
5
5
5
5
5
5
5
5
5
5
5
5
5
5
5
5
5
5
5
5
5
5
5
5
5
5
5
5
5
5
5
5
5
5
5
5
5
5
5
5
5
5
5
5
5
5
5
5
5
5
5
5
5
5
5
5
5
5
5
5
5
5
5
5
5
5
5
5
5
5
5
5
5
5
5
5
5
5
5
5
5
5
5
5
5
5
5
5
5
5
5
5
5
5
5
5
5
5
5
5
5
5
5
5
5
5
5
5
5
5
5
5
5
5
5
5
5
5
5
5
5
5
5
5
5
5
5
5
5
5
5
5
5
5
5
5
5
5
5
5
5
5
5
5
5
5
5
5
5
5
5
5
5
5
5
5
5
5
5
5
5
5
5
5
5
5
5
5
5
5
5
5
5
5
5
5
5
5
5
5
5
5
5
5
5
5
5
5
5
5
5
5
5
5
5
5
5
5
5
5
5
5
5
5
5
5
5
5
5
5
5
5
5
5
5
5
5
5
5
5
5
5
5
5
5
5
5
5
5
5
5
5
5
5
5
5
5
5
5
5
5
5
5
5
5
5
5
5
5
5
5
5
5
5
5
5
5
5
5
5
5
5
5
5
5
5
5
5
5
5
5
5
5
5
5
5
5
5
5
5
5
5
5
5
5
5
5
5
5
5
5
5
5
5
5
5
5
5
5
5
5
5
5
5
5
5
5
5
5
5
5
5
5
5
5
5
5
5
5
5
5
5
5
5
5
5
5
5
5
5
5
5
5
5
5
5
5
5
5
5
5
5
5
5
5
5
5
5
5
5
5
5
5
5
5
5
5
5
5
5
5
5
5
5
5
5
5
5
5
5
5
5
5
5
5
5
5
5
5
5
5
5
5
5
5
5
5
5
5
5
5
5
5
5
5
5
5
5
5
5
5
5
5
5
5
5
5
5
5
5
5
5
5
5
5
5
5
5
5
5
5
5
5
5
5
5
5
5
5
5
5
5
5
5
5
5
5
5
5
5
5
5
5
5
5
5
5
5
5
5
5
5
5
5
5
5
5
5
5
5
5
5
5
5
5
5
5
5
5
5
5
5
5
5
5
5
5
5
5
5
5
5
5
5
5
5
5
5
5
5
5
5
5
5
5
5
5
5
5
5
5
5
5
5
5
5
5
5
5
5
5
5
5
5
5
5
5
5
5
5
5
5
5
5
5
5
5
5
5
5
5
5
5
5
5
5
5
5
5
5
5
5
5
5
5
5
5
5
5
5
5
5
5
5
5
5
5
5
5
5
5
5
5
5
5
5
5
5
5
5
5
5
5
5
5
5
5
5
5
5
5
5
5
5
5
5
5
5
5
5
5
5
5
5
5
5
5
5
5
5
5
5
5
5
5
5
5
5
5
5
5
5
5
5
5
5
5
5
5
5
5
5
5
5
5
5
5
5
5
5
5
5
5
5
5
5
5
5
5
5
5
5
5
5
5
5
5
5
5
5
5
5
5
5
5
5
5
5
5
5
5
5
5
5
5
5
5
5
5
5
5
5
5
5
5
5
5
5
5
5
5
5
5
5
5
5
5
5
5
5
5
5
5
5
5
5
5
5
5
5
5
5
5
5
5
5
5
5
5
5
5
5
5
5
5
5
5
5
5
5
5
5
5
5
5
5
5
5
5
5
5
5
5
5
5
5
5
5
5
5
5
5
5
5
5
5
5
5
5
5
5
5
5
5
5
5
5
5
5
5
5
5

CELL_DATA 1896
SCALARS CellEntityIds int 1
LOOKUP_TABLE default
2
2
2
2
2
2
2
2
2
2
2
2
2
2
2
2
2
2
2
2
2
2
2
2
2
2
2
2
2
2
2
2
3
3
3
3
3
3
3
3
3
3
3
3
3
3
3
3
3
3
3
3
3
3
3
3
3
3
1
1
1
1
1
1
1
1
1
1
1
1
1
1
1
1
1
1
1
1
1
1
1
1
1
1
1
1
1
1
1
1
1
1
1
1
1
1
1
1
1
1
1
1
1
1
1
1
1
1
1
1
1
1
1
1
1
1
1
1
1
1
1
1
1
1
1
1
1
1
1
1
1
1
1
1
1
1
1
1
1
1
1
1
1
1
1
1
1
1
1
1
1
1
1
1
1
1
1
1
1
1
1
1
1
1
1
1
1
1
1
1
1
1
1
1
1
1
1
1
1
1
1
1
1
1
1
1
1
1
1
1
1
1
1
1
1
1
1
1
1
1
1
1
1
1
1
1
1
1
1
1
1
1
1
1
1
1
1
1
1
1
1
1
1
1
1
1
1
1
1
1
1
1
1
1
1
1
1
1
1
1
1
1
1
1
1
1
1
1
1
1
1
1
1
1
1
1
1
1
1
1
1
1
1
1
1
1
1
1
1
1
1
1
1
1
1
1
1
1
1
1
1
1
1
1
1
1
1
1
1
1
1
1
1
1
1
1
1
1
1
1
1
1
1
1
1
1
1
1
1
1
1
1
1
1
1
1
1
1
1
1
1
1
1
1
1
1
1
1
1
1
1
1
1
1
1
1
1
1
1
1
1
1
1
1
1
1
1
1
1
1
1
1
1
1
1
1
1
1
1
1
1
1
1
1
1
1
1
1
1
1
1
1
1
1
1
1
1
1
1
1
1
1
1
1
1
1
1
1
1
1
1
1
1
1
1
1
1
1
1
1
1
1
1
1
1
1
1
1
1
1
1
1
1
1
1
1
1
1
1
1
1
1
1
1
1
1
1
1
1
1
1
1
1
1
1
1
1
1
1
1
1
1
1
1
1
1
1
1
1
1
1
1
1
1
1
1
1
1
1
1
1
1
1
1
1
1
1
1
1
1
1
1
1
1
1
1
1
1
1
1
1
1
1
1
1
1
1
1
1
1
1
1
1
1
1
1
1
1
1
1
1
1
1
1
1
1
1
1
1
1
1
1
1
1
1
1
1
1
1
1
1
1
1
1
1
1
1
1
1
1
1
1
1
1
1
1
1
1
1
1
1
1
1
1
1
1
1
1
1
1
1
1
1
1
1
1
1
1
1
1
1
1
1
1
1
1
1
1
1
1
1
1
1
1
1
1
1
1
1
1
1
1
1
1
1
1
1
1
1
1
1
1
1
1
1
1
1
1
1
1
1
1
1
1
1
1
1
1
1
1
1
1
1
1
1
1
1
1
1
1
1
1
1
1
1
1
1
1
1
1
1
1
1
1
1
1
1
1
1
1
1
1
1
1
1
1
1
1
1
1
1
1
1
1
1
1
1
1
1
1
1
1
1
1
1
1
1
1
1
1
1
1
1
1
1
1
1
1
1
1
1
1
1
1
1
1
1
1
1
1
1
1
1
1
1
1
1
1
1
1
1
1
1
1
1
1
1
1
1
1
1
1
1
1
1
1
1
1
1
1
1
1
1
1
1
1
1
1
1
1
1
1
1
1
1
1
1
1
1
1
1
1
1
1
1
1
1
1
1
1
1
1
1
1
1
1
1
1
1
1
1
1
1
1
1
1
1
1
1
1
1
1
1
1
1
1
1
1
1
1
1
1
1
1
1
1
1
1
1
1
1
1
1
1
1
1
1
1
1
1
1
1
1
1
1
1
1
1
1
1
1
1
1
1
1
1
1
1
1
1
1
1
1
1
1
1
1
1
1
1
1
1
1
1
1
1
1
1
1
1
1
1
1
1
1
1
1
1
1
1
1
1
1
1
1
1
1
1
1
1
1
1
1
1
1
1
1
1
1
1
1
1
1
1
1
1
1
1
1
1
1
1
1
1
1
1
1
1
1
1
1
1
1
1
1
1
1
1
1
1
1
1
1
1
1
1
1
1
1
1
1
1
1
1
1
1
1
1
1
1
1
1
1
1
1
1
1
1
1
1
1
1
1
1
1
1
1
1
1
1
1
1
1
1
1
1
1
1
1
1
1
1
1
1
1
1
1
1
1
1
1
1
1
1
1
1
1
1
1
1
1
1
1
1
1
1
1
1
1
1
1
1
1
1
1
1
1
1
1
1
1
1
1
1
1
1
1
1
1
1
1
1
1
1
1
1
1
1
1
1
1
1
1
1
1
1
1
1
1
1
1
1
1
1
1
1
1
1
1
1
1
1
1
1
1
1
1
1
1
1
1
1
1
1
1
1
1
1
1
1
1
1
1
1
1
1
1
1
1
1
1
1
1
1
1
1
1
1
1
1
1
1
1
1
1
1
1
1
1
1
1
1
1
1
1
1
1
1
1
1
1
1
1
1
1
1
1
1
1
1
1
1
1
1
1
1
1
1
1
1
1
1
1
1
1
1
1
1
1
1
1
1
1
1
1
1
1
1
1
1
1
1
1
1
1
1
1
1
1
1
1
1
1
1
1
1
1
1
1
1
1
1
1
1
1
1
1
1
1
1
1
1
1
1
1
1
1
1
1
1
1
1
1
1
1
1
1
1
1
1
1
1
1
1
1
1
1
1
1
1
1
1
1
1
1
1
1
1
1
1
1
1
1
1
1
1
1
1
1
1
1
1
1
1
1
1
1
1
1
1
1
1
1
1
1
1
1
1
1
1
1
1
1
1
1
1
1
1
1
1
1
1
1
1
1
1
1
1
1
1
1
1
1
1
1
1
1
1
1
1
1
1
1
1
1
1
1
1
1
1
1
1
1
1
1
1
1
1
1
1
1
1
1
1
1
1
1
1
1
1
1
1
1
1
1
1
1
1
1
1
1
1
1
1
1
1
1
1
1
1
1
1
1
1
1
1
1
1
1
1
1
1
1
1
1
1
1
1
1
1
1
1
1
1
1
1
1
1
1
1
1
1
1
1
1
1
1
1
1
1
1
1
1
1
1
1
1
1
1
1
1
1
1
1
1
1
1
1
1
1
1
1
1
1
1
1
1
1
1
1
1
1
1
1
1
1
1
1
1
1
1
1
1
1
1
1
1
1
1
1
1
1
1
1
1
1
1
1
1
1
1
1
1
1
1
1
1
1
1
1
1
1
1
1
1
1
1
1
1
1
1
1
1
1
1
1
1
1
1
1
1
1
1
1
1
1
1
1
1
1
1
1
1
1
1
1
1
1
1
1
1
1
1
1
1
1
1
1
1
1
1
1
1
1
1
1
1
1
1
1
1
1
1
1
1
1
1
1
1
1
1
1
1
1
1
1
1
1
1
1
1
1
1
1
1
1
1
1
1
1
1
1
1
1
1
1
1
1
1
1
1
1
1
1
1
1
1
1
1
1
1
1
1
1
1
1
1
1
1
1
1
1
1
1
1
1
1
1
1
1
1
1
1
1
1
1
1
1
1
1
1
1
1
1
1
1
1
1
1
1
1
1
1
1
1
1
1
1
1
1
1
1
1
1
1
1
1
1
1
1
1
1
1
1
1
1
1
1
1
1
1
1
1
1
1
1
1
1
1
1
1
1
1
1
1
1
1
1
1
1
1
1
1
1
1
1
1
1
1
1
1
1
1
1
1
1
1
1
1
1
1
1
1
1
1
1
1
1
1
1
1
1
1
1
1
1
1
1
1
1
1
1
1
1
1
1
1
1
1
1
1
1
1
1
1
1
1
1
1
1
1
1
1
1
1
1
1
1
1
1
1
1
1
1
1
1
1
1
1
1
1
1
1
1
1
1
1
1
1
1
1
1
1
1
1
1
1
1
1
1
1
1
1
1
1
1
1
1
1
1
1
1
1
1
1
1
1
1
1
1
1
1
1
1
1
1
1
1
1
1
1
1
1
1
1
1
1
1
1
1
1
1
1
1
1
1
1
1
1
1
1
1
1
1
1
1
1
1
1
1
1
1
1
1
1
1
1
1
1
1
1
1
1
1
1
1
1
1
1
1
1
1
1
1
1
1
1
1
1
1
1
1
1
1
1
1
1
1
1
1
1
1
1
1
1
1
1
1
1
1
1
1
1
1
1
1
1
1
1
1
1
1
1
1
1
1
1
1
1
1
1
1
1
1
1
1
1
1
1
1
1
1
1
1
1
1
1
1
1
1
1
1
1
1
1
1
1
1
1
1
1
1
1
1
1
1
1
1
1
1
1
1
1
1
1
1
