$MeshFormat
2.2 0 8
$EndMeshFormat
$PhysicalNames
2
1 2 "single_joint"
2 1 "rock"
$EndPhysicalNames
$Nodes
946
1 -5 -2 0
2 -5 -4 0
3 5 -4 0
4 5 2 0
5 -5 4 0
6 5 4 0
7 -4.67741935483871 -1.870967741935484 0
8 -4.35483870967742 -1.741935483870968 0
9 -4.03225806451613 -1.612903225806452 0
10 -3.70967741935484 -1.483870967741936 0
11 -3.387096774193549 -1.35483870967742 0
12 -3.064516129032259 -1.225806451612904 0
13 -2.741935483870969 -1.096774193548388 0
14 -2.419354838709679 -0.9677419354838717 0
15 -2.09677419354839 -0.8387096774193561 0
16 -1.7741935483871 -0.7096774193548403 0
17 -1.451612903225811 -0.5806451612903245 0
18 -1.129032258064522 -0.4516129032258092 0
19 -0.8064516129032322 -0.3225806451612931 0
20 -0.483870967741943 -0.1935483870967774 0
21 -0.1612903225806539 -0.06451612903226156 0
22 0.1612903225806361 0.06451612903225401 0
23 0.4838709677419271 0.1935483870967705 0
24 0.8064516129032189 0.3225806451612874 0
25 1.129032258064508 0.4516129032258029 0
26 1.4516129032258 0.5806451612903194 0
27 1.77419354838709 0.7096774193548359 0
28 2.096774193548381 0.8387096774193519 0
29 2.419354838709671 0.9677419354838679 0
30 2.741935483870962 1.096774193548384 0
31 3.064516129032253 1.225806451612901 0
32 3.387096774193544 1.354838709677417 0
33 3.709677419354835 1.483870967741934 0
34 4.032258064516126 1.61290322580645 0
35 4.354838709677418 1.741935483870967 0
36 4.67741935483871 1.870967741935484 0
37 -5 -2.333333333333333 0
38 -5 -2.666666666666665 0
39 -5 -2.999999999999997 0
40 -5 -3.333333333333329 0
41 -5 -3.666666666666664 0
42 5 -3.666666666666667 0
43 5 -3.333333333333333 0
44 5 -3.000000000000001 0
45 5 -2.666666666666668 0
46 5 -2.333333333333334 0
47 5 -2 0
48 5 -1.666666666666667 0
49 5 -1.333333333333333 0
50 5 -0.9999999999999996 0
51 5 -0.6666666666666652 0
52 5 -0.3333333333333313 0
53 5 1.77635683940025e-15 0
54 5 0.3333333333333357 0
55 5 0.6666666666666705 0
56 5 1.000000000000004 0
57 5 1.333333333333337 0
58 5 1.666666666666671 0
59 -4.655172413793104 -4 0
60 -4.310344827586208 -4 0
61 -3.965517241379311 -4 0
62 -3.620689655172415 -4 0
63 -3.275862068965519 -4 0
64 -2.931034482758623 -4 0
65 -2.586206896551726 -4 0
66 -2.24137931034483 -4 0
67 -1.896551724137935 -4 0
68 -1.55172413793104 -4 0
69 -1.206896551724145 -4 0
70 -0.86206896551725 -4 0
71 -0.517241379310355 -4 0
72 -0.1724137931034599 -4 0
73 0.1724137931034342 -4 0
74 0.5172413793103301 -4 0
75 0.8620689655172278 -4 0
76 1.206896551724125 -4 0
77 1.551724137931022 -4 0
78 1.896551724137921 -4 0
79 2.241379310344819 -4 0
80 2.586206896551715 -4 0
81 2.931034482758613 -4 0
82 3.275862068965511 -4 0
83 3.620689655172409 -4 0
84 3.965517241379308 -4 0
85 4.310344827586205 -4 0
86 4.655172413793101 -4 0
87 -5 3.666666666666667 0
88 -5 3.333333333333333 0
89 -5 3.000000000000001 0
90 -5 2.666666666666668 0
91 -5 2.333333333333334 0
92 -5 2 0
93 -5 1.666666666666667 0
94 -5 1.333333333333333 0
95 -5 0.9999999999999996 0
96 -5 0.6666666666666652 0
97 -5 0.3333333333333313 0
98 -5 -1.77635683940025e-15 0
99 -5 -0.3333333333333357 0
100 -5 -0.6666666666666705 0
101 -5 -1.000000000000004 0
102 -5 -1.333333333333337 0
103 -5 -1.666666666666671 0
104 4.655172413793104 4 0
105 4.310344827586208 4 0
106 3.965517241379311 4 0
107 3.620689655172415 4 0
108 3.275862068965519 4 0
109 2.931034482758623 4 0
110 2.586206896551726 4 0
111 2.24137931034483 4 0
112 1.896551724137935 4 0
113 1.55172413793104 4 0
114 1.206896551724145 4 0
115 0.86206896551725 4 0
116 0.517241379310355 4 0
117 0.1724137931034599 4 0
118 -0.1724137931034342 4 0
119 -0.5172413793103301 4 0
120 -0.8620689655172278 4 0
121 -1.206896551724125 4 0
122 -1.551724137931022 4 0
123 -1.896551724137921 4 0
124 -2.241379310344819 4 0
125 -2.586206896551715 4 0
126 -2.931034482758613 4 0
127 -3.275862068965511 4 0
128 -3.620689655172409 4 0
129 -3.965517241379308 4 0
130 -4.310344827586205 4 0
131 -4.655172413793101 4 0
132 5 2.333333333333333 0
133 5 2.666666666666665 0
134 5 2.999999999999997 0
135 5 3.333333333333329 0
136 5 3.666666666666664 0
137 2.511856420085241 -1.540918442158463 0
138 0.5759864421438364 -1.989868217004219 0
139 -1.077137600798955 -2.294543648869966 0
140 3.433388383045584 -0.2944498399774553 0
141 3.582559511078011 -2.580451971428303 0
142 -2.515779900028867 -2.558136025438089 0
143 1.748244747850853 -2.650690655233983 0
144 1.411411880071703 -0.8785547878245423 0
145 -3.71280399745122 -2.782309332468111 0
146 3.815754510079231 -1.416423834234646 0
147 -0.116580715391619 -2.923858060215347 0
148 -0.3626925806880235 -1.369983789448194 0
149 2.329678185861312 -0.2599216997304294 0
150 4.011766846170413 0.5335764011406066 0
151 2.680377600510416 -3.006662463357903 0
152 0.8403172185495204 -3.010918986808743 0
153 0.4094566855421519 -0.8861068337617473 0
154 -1.755048330912307 -2.988051767564813 0
155 -1.933603116658395 -1.798275006133561 0
156 1.669146557983826 -1.761247103982386 0
157 4.179857126651122 -3.166666666666668 0
158 4.175378993761711 -0.6743129928039642 0
159 -0.8606812519174211 -3.200469208092555 0
160 -1.214863171386567 -1.361701959772535 0
161 4.190298761118926 -2.05775435853449 0
162 2.902858861924328 0.3068906569115236 0
163 -3.227717288334803 -2.160537601500283 0
164 -3.015646522847518 -3.178724924115808 0
165 2.932154698960124 -0.7701497436008633 0
166 2.885679934303113 -2.273283661646746 0
167 -0.05978343782761364 -2.153323254302327 0
168 1.5837417803817 -0.1602332782755352 0
169 -4.289188629782695 -3.377346003516743 0
170 2.221886492726867 -0.9725036811436698 0
171 3.349720264204099 -3.277475473118811 0
172 2.001774371593394 -3.292083209100428 0
173 -4.334156833893484 -2.474221031050023 0
174 0.9572466085318547 -0.3609046708640017 0
175 -2.319748384676199 -3.322159503415048 0
176 -2.673698376126199 -1.760099177292696 0
177 1.079434220222737 -2.40193998424798 0
178 0.8514242360557844 -1.398833394406199 0
179 2.227654976471377 -2.156500649923553 0
180 4.342012250267955 -0.03671646265836688 0
181 3.224297870001357 -1.70763244102875 0
182 1.401697823109019 -3.381631678073423 0
183 0.2871618696308584 -3.333215075138943 0
184 4.380568773543239 1.099253017441562 0
185 -0.2076475986451105 -0.775977590167892 0
186 -1.717218814433687 -2.389481084893504 0
187 3.390263085082129 0.7057168524367233 0
188 4.402853311635825 -1.502070909661491 0
189 0.4180951266926179 -2.595613814203333 0
190 0.1942039574589041 -1.478687994272644 0
191 3.476760655278292 -0.8657546804113494 0
192 -3.637273269752913 -3.378339133279022 0
193 -3.940918689015652 -2.18454248225304 0
194 -0.3339547426787053 -3.42277673627137 0
195 4.422081256463184 -2.641349121598708 0
196 -0.8426770665634161 -0.966953608491766 0
197 -0.6413655905933373 -2.665004413786184 0
198 -0.825669623722375 -1.784659688485428 0
199 2.324762427723735 0.3356583143303949 0
200 2.888063567515276 -0.2803601521747874 0
201 3.666907246407929 -2.03589354946021 0
202 -1.319898634242525 -3.49929591278958 0
203 -1.767984871812635 -1.276456113159399 0
204 1.157350372384562 -1.849599221429273 0
205 -3.031665553690579 -2.642781803265692 0
206 3.609896444484731 0.2294319382641107 0
207 4.519367287171809 0.5000000000000032 0
208 2.295695159535219 -2.684207768516976 0
209 -1.413355673515868 -1.863863597121572 0
210 -1.236617923219649 -2.794632729633825 0
211 2.884114129557186 -3.483545885674435 0
212 3.841455018922215 -3.506624545786585 0
213 3.101230915546036 -2.77756915260979 0
214 4.488506199271096 -3.517432875005561 0
215 3.805309057100137 0.9911084050812746 0
216 0.1770541626918478 -0.4202398764017485 0
217 4.495143607285373 -1.036767741327893 0
218 1.913238218147896 -0.5353627290641033 0
219 0.7912414297817161 -3.493334440677444 0
220 1.741482382476905 -1.257382249795084 0
221 -1.880649250154584 -3.506283792742597 0
222 1.316032898391778 -2.885770004036685 0
223 -2.27387327569605 -1.463176591462663 0
224 0.9189019499687472 -0.8611061284751587 0
225 3.939595765651385 -0.2837317464972627 0
226 -2.277685746838844 -2.142815605297442 0
227 -2.102762645702043 -2.861948687798876 0
228 3.150218630780144 -1.255602795025048 0
229 1.583897219058178 -2.257626026001856 0
230 1.855023062630438 0.2361778131185295 0
231 2.421218089110112 -3.56932841585259 0
232 3.742239255990629 -3.015155718058399 0
233 2.16155869674907 -1.533298189502241 0
234 -4.551062893375612 -2.905546348509447 0
235 4.520439261464647 -0.4483940202439592 0
236 -2.728543473448457 -3.558418907637423 0
237 -3.038092801773205 -1.697863899807381 0
238 -0.6155343015067974 -2.191724211371446 0
239 1.122255622182039 -0.03537921351187399 0
240 3.992762524967631 -2.504415803313055 0
241 -2.767848893844056 -2.214535006374027 0
242 1.336003766544867 -1.423727621925431 0
243 -4.549861345768434 -3.561193124629485 0
244 -2.652460719064349 -2.98856450831433 0
245 2.533720434678883 -1.123684650850894 0
246 2.442940129981725 -0.6511936259204587 0
247 4.608428192226961 -1.88121096707067 0
248 4.136540451226352 -1.059871455552472 0
249 -0.7263981653167297 -3.558646273448167 0
250 4.57959478076065 -3.032482264581252 0
251 2.972295627962772 0.7323713143638733 0
252 -3.216052751914655 -3.576421746461977 0
253 3.309554912736662 -2.272748320910054 0
254 -4.053868869106676 -2.849250936160145 0
255 -3.977417537889101 -3.567474831505264 0
256 -1.244403814250744 -0.9874280404160676 0
257 1.719785860314253 -3.62781721884364 0
258 -3.536570671787685 -1.869434354785499 0
259 4.583884357373641 1.395988314430177 0
260 1.356588799255073 -0.480848312619282 0
261 1.692593079560888 -3.063238084602074 0
262 0.5276987711888638 -0.2193720761376314 0
263 2.6051615102158 -2.037919604663648 0
264 0.1747168768489186 -1.872009888824496 0
265 -0.001718997010870352 -2.550003226022922 0
266 4.06207710171299 -1.681636638004513 0
267 -0.529188627089709 -2.998639803997643 0
268 0.4160175314217876 -2.97570807205071 0
269 3.244213903298105 0.052206541226757 0
270 -0.8367194372732754 -1.371249252885754 0
271 4.605276284568729 -2.28889946269526 0
272 0.07175686166948794 -1.073087815208839 0
273 -3.468469076624038 -2.443905446575245 0
274 -3.398920280389317 -3.039531779080504 0
275 3.238183191178936 -0.5941701756765317 0
276 2.60337471497235 0.0169438337808667 0
277 -0.3865472780118308 -1.75057812145603 0
278 2.661003617588502 -2.605813296797834 0
279 3.729048831994905 -0.7126124433711165 0
280 -4.245653845450504 -2.156730086275427 0
281 3.987393891593096 0.1473686841013606 0
282 -0.01220732223428433 -3.629906324250042 0
283 2.593852425860495 0.6104985850135428 0
284 0.8069963995746456 -2.633913249999273 0
285 -0.5679023147977293 -0.6328672347804569 0
286 3.473428103313358 -3.627958623352067 0
287 0.5837308116036871 -1.574268259383149 0
288 -4.626910412835879 -2.239325463098103 0
289 -2.16893382996134 -2.480969321442229 0
290 4.145698131413425 -3.694810341851695 0
291 1.967195595527174 -0.1316170227523898 0
292 4.664697271807092 0.202720494488419 0
293 4.671418456150061 0.8061349851576574 0
294 -3.951847436156922 -3.147215078421218 0
295 1.062549238327183 -3.664836469584863 0
296 1.439126015570951 0.1706116525393998 0
297 1.793139730377172 -0.904414550268501 0
298 2.342384109121676 -3.049030569947217 0
299 3.01350126601978 -3.117672897896632 0
300 -3.994941296380071 -2.527965485314046 0
301 -0.4062455763796716 -2.392718010343206 0
302 0.2820813923552929 -2.231688693761749 0
303 3.498865000325296 -1.387993226720005 0
304 0.6011324774116693 -1.177767334739827 0
305 0.785490812490121 -2.282683805825978 0
306 3.99599450637961 1.25861850749979 0
307 -0.0451975687292662 -3.243998380319398 0
308 -2.43309033541834 -3.647964436412881 0
309 -2.815558700030902 -1.443652280192511 0
310 1.913429192981242 -2.30888088248631 0
311 2.92881059225844 -1.915716448062304 0
312 3.44039451872697 -2.91956048054558 0
313 0.6182703798547005 -0.57358694786721 0
314 -0.4628546170617057 -1.003976133593639 0
315 4.047887253474791 -2.840088886654418 0
316 -0.0976084379242794 -1.605909862155829 0
317 -4.666777616160206 -3.191758353604041 0
318 2.887958163828199 -1.523870108136389 0
319 2.142093281426922 -3.661098658110012 0
320 -0.1828899810523792 -0.4318586355155455 0
321 2.017309241701573 -1.881625612835436 0
322 -1.407847024005857 -2.179047540348257 0
323 -1.574060690857136 -2.72090447936353 0
324 -1.207934806676648 -3.151554965147618 0
325 -1.658160658547414 -1.608086206435526 0
326 -4.666493231238158 -2.60048740690858 0
327 -1.029599315320813 -3.719269149563851 0
328 0.8207382487062391 0.006834748781768599 0
329 2.00771330120932 -2.902370650219202 0
330 -2.025523175844639 -3.22043380666866 0
331 1.017016304511353 -3.276275302294644 0
332 1.41661779313415 -2.555835841236121 0
333 -2.279829864317569 -1.785529890770487 0
334 0.3448275862068821 -3.702227519461166 0
335 4.297051435140758 0.7237816007903313 0
336 1.147548071145415 -1.145480438681537 0
337 3.267339964186553 0.4111055706674079 0
338 -1.597361844144332 -0.9675871588304006 0
339 -1.947057486804607 -2.139888164816797 0
340 3.64793012037008 -1.723713824767387 0
341 3.44235700161412 1.038349145621958 0
342 3.717030750463904 -1.064377110924235 0
343 4.714244521604964 -0.7855038083814291 0
344 4.209139067414217 -0.3441654207942727 0
345 4.676384773456541 -1.304863050396257 0
346 2.008118425238712 0.5357571429393146 0
347 2.484248515288452 -2.349657329999042 0
348 4.286755930888113 0.2978216444867356 0
349 3.663657760211202 0.5366206700014824 0
350 4.722166600189916 -0.1781811912645342 0
351 3.122633248417019 -3.709425152696535 0
352 -2.132281713359486 -1.191606448751113 0
353 -1.590864432871497 -3.643904166156216 0
354 -0.909816022194189 -2.866598222388673 0
355 2.375687007564317 -1.821420536806595 0
356 -1.10103800901703 -1.961341847001361 0
357 0.8691413159024698 -1.756560613475743 0
358 1.40148980235787 -3.725328299570177 0
359 -3.499844176523693 -3.688693618356874 0
360 0.1292270035636439 -0.7591542978639836 0
361 -4.271440728137822 -3.701921865280159 0
362 0.1826214558852666 -2.792041119383707 0
363 1.605742521818785 -0.6199271422731421 0
364 -3.361861263024387 -2.720970053118923 0
365 2.330924592615787 -1.282044130101299 0
366 2.618361556227126 -3.315119651421003 0
367 0.6450302350647901 -3.205039694585265 0
368 4.14415560511187 -1.385299008314558 0
369 4.706658871178733 -2.754029421641607 0
370 -0.4086450958428894 -3.739601224918665 0
371 3.175972743598083 -0.9640470751598036 0
372 4.694035698334052 -1.612014393487233 0
373 -3.84042469999075 -1.866673883121225 0
374 -0.8870863651868964 -0.6496413794008193 0
375 -1.863604862373303 -2.688271068212591 0
376 3.714450096137746 -0.08936038226450334 0
377 3.924993005777324 -2.197630246512279 0
378 4.727174317413389 1.126941930072547 0
379 2.746166838430394 -0.5672862415420332 0
380 -1.32622649829513 -2.487724675949776 0
381 -2.085462632662842 -3.735278890239631 0
382 -1.121102106840063 -1.655935371147918 0
383 4.269508882298007 1.421739709809789 0
384 -0.9753835931430022 -2.575488210497816 0
385 -1.602253224695119 -3.283371649126279 0
386 2.227252157565961 0.02689720685591857 0
387 2.685732143854076 -3.713261080327058 0
388 2.856343662243465 -1.140007277382782 0
389 3.378494148932953 -1.968412797326095 0
390 1.454346048580357 -1.937026974194653 0
391 -1.975032749537712 -1.497933862419698 0
392 -1.683132145681262 -1.991416659631256 0
393 4.710172109774708 -3.294175090407681 0
394 3.178551559939168 0.9491584749736671 0
395 4.270451843159753 -2.322724880387621 0
396 -0.5946702015061396 -3.303900210686322 0
397 2.931178175230027 0.01236539333374604 0
398 -0.1094166887939147 -1.30682205306943 0
399 2.209334048797102 -0.5305019226607178 0
400 0.9587414285801708 -2.076344186398892 0
401 3.513496257079531 -0.5713684270120283 0
402 1.138509856482581 -2.681978854114365 0
403 -2.636458556322664 -3.303619638447044 0
404 -2.959398809220982 -1.98886549483856 0
405 -2.784123947524245 -2.473622875454061 0
406 -1.034665872368501 -1.171833215391531 0
407 4.055822896227724 0.8899449050177665 0
408 -2.920209349373056 -2.890292062329231 0
409 -2.533617353495199 -1.304185211137967 0
410 4.323916598820242 -2.908163852073897 0
411 -0.3692725275025501 -2.725650430489703 0
412 4.737855151652811 -3.745166113570303 0
413 3.906700662702871 -3.247886315071087 0
414 3.143870513286972 -0.2470433456768186 0
415 1.465812144751354 -1.174176860332323 0
416 -0.6240995090680688 -1.57832757482884 0
417 2.608982037228576 0.3145406134663635 0
418 2.297927118392171 0.6502975713416255 0
419 -1.028902434694827 -3.425847101808354 0
420 -2.976226679199335 -3.73229426282631 0
421 -3.35413258224768 -1.630306870356505 0
422 1.15614499667511 -0.7282983308924892 0
423 -3.538741035666808 -2.154481875887386 0
424 -3.32549920547876 -3.31350595918317 0
425 1.727625652061035 -2.029281319900128 0
426 2.602044687352211 -0.3483635771173684 0
427 3.695355440193511 -2.31822797832478 0
428 -3.220345469469992 -2.452007130775042 0
429 3.9564015527606 -0.8327043703031198 0
430 3.280464835679284 -2.594978980595259 0
431 -1.864576884016178 -0.9944140582390442 0
432 -1.483995509820455 -1.269095464036041 0
433 4.343308523726142 -1.236744289978805 0
434 1.094557980632355 -1.576589749696874 0
435 4.769206915184427 -2.509606541377842 0
436 3.62565630397669 -3.265776859322088 0
437 -3.752013166101472 -3.739963620083778 0
438 0.6851805035722693 -3.753539547816738 0
439 4.415755958049813 -3.241890757790705 0
440 4.367770353605751 -1.778174743728773 0
441 1.703962783644388 -3.341192547654891 0
442 4.784029474222367 0.5004610308020684 0
443 2.150394715332603 -2.43698876126313 0
444 -1.339796614418004 -3.772493845701929 0
445 -2.360082822464098 -3.037449771111552 0
446 1.856065836488264 -1.523364205603357 0
447 1.2850454083373 -2.177413276410158 0
448 -2.516896668917199 -2.285475962934239 0
449 3.799026983904242 -3.779995856922151 0
450 -0.846406538916715 -2.106598820152929 0
451 3.403769556089144 -1.107554977648088 0
452 3.793189075674479 -2.749760861815229 0
453 3.89844124707745 -1.939325723455776 0
454 0.3092885894445641 -1.206697071956983 0
455 4.41575513728313 -0.7835675559825626 0
456 3.657960773302677 1.218173177100929 0
457 -3.671910342196454 -3.077026486725653 0
458 0.1448045145634055 -3.053764141421621 0
459 4.467515344743328 -3.791481866085511 0
460 1.690285767233821 0.4517049367541393 0
461 2.005401919205989 -1.204240766368223 0
462 3.149253368446526 -3.442442640160152 0
463 2.301978415724879 -3.343340154313179 0
464 -1.475182995272172 -2.987703118167213 0
465 -4.776866748154795 -2.872891755137746 0
466 -4.139087933500724 -1.914744756939138 0
467 3.720332938385178 -0.4097339602030192 0
468 -1.378295424022073 -1.551736519702718 0
469 1.320987334124099 -0.2149700559862144 0
470 0.263022438430498 -0.1706239227250101 0
471 3.013733041335025 -2.553705402404158 0
472 2.840238708901285 -2.801695854735419 0
473 -4.470031668266064 -2.036158227284884 0
474 0.8355049612888564 -1.088533665270844 0
475 2.516308053117447 -2.81840712049414 0
476 -0.2141709247038533 -1.105969476297599 0
477 -4.757497016466792 -3.760827274268066 0
478 4.802141406029058 -0.495422689498641 0
479 4.748834626679421 -2.072312838957271 0
480 4.744503583040742 1.620070739492738 0
481 -3.273858651374841 -1.896409977339557 0
482 3.840504797203653 0.7389663814801244 0
483 -2.969169246267727 -3.454147016198242 0
484 -2.715169361382904 -2.722370481693498 0
485 1.264026990953586 -3.142300941516305 0
486 2.681859594100975 0.8518465071024169 0
487 -2.564424885803981 -2.027895604686458 0
488 2.62220204283691 -0.8708042034067836 0
489 2.683862945401561 -1.343014318611108 0
490 0.364021814984884 -0.6063332130074777 0
491 -2.13862952390184 -3.481636215645099 0
492 -0.1558612444175096 -1.885443484335384 0
493 0.6448576981163824 -2.8583158271083 0
494 1.562561493163973 -2.824164798365107 0
495 0.4105450303216818 -1.766165645799874 0
496 -3.154109200388289 -2.895919230616107 0
497 0.5383146119689826 -3.498872104544768 0
498 4.768671743903473 -1.080907265028489 0
499 2.014478299520629 -2.622556319761458 0
500 -2.386776698616331 -2.78082561535959 0
501 3.145367491646505 -2.02755873379479 0
502 -4.80954582838097 -3.500717344465927 0
503 -1.137598377445496 -0.7088945054200981 0
504 -2.499851416046678 -1.558996667950333 0
505 1.698735186787296 -0.3850490726952709 0
506 0.5207353474255071 -2.328440707517095 0
507 4.081452771430137 -0.09555922159911051 0
508 -4.352661611868697 -2.75098567236916 0
509 -4.310901176075134 -3.037017065430125 0
510 2.68151944203967 -1.770909511905693 0
511 2.414351718903538 -3.805182821769125 0
512 4.162995516168423 -3.395885250362049 0
513 3.98237766799867 -0.5162509502696987 0
514 2.064645234697621 -0.7375518447132037 0
515 -3.144281001904312 -1.466255299962927 0
516 0.05143732401398975 -0.2045444869284623 0
517 1.570541335601118 -1.473046250210194 0
518 -0.3767554166207224 -2.053099188902165 0
519 4.82266330706977 -1.833333333333334 0
520 -4.49438571425005 -3.809274895722463 0
521 -3.007095249740031 -2.302852983119956 0
522 0.697233184833296 -0.851888778470258 0
523 0.8670167128347378 -0.6583971166348124 0
524 -1.80105043555158 -3.777093369827689 0
525 3.827697149470707 0.3570159799937058 0
526 1.049634977077021 0.2005286666645041 0
527 -0.7353138998067721 -2.411024703338247 0
528 3.628418340242249 0.8021522909243125 0
529 4.465176676893256 -2.066846208562347 0
530 1.373013766975556 -1.678255669587263 0
531 -0.2846672100565463 -3.179250972217858 0
532 -0.6032835475157948 -1.236513926302795 0
533 -0.6125021113077516 -1.910831267532806 0
534 1.073467971089593 -2.932435191051766 0
535 -2.731020373475296 -3.787735521375323 0
536 4.797095672884836 -3.509967862036961 0
537 1.711271613527566 0.02873479115750106 0
538 -4.140308323513431 -2.346507347771787 0
539 -0.703323323733663 -3.8100103827165 0
540 2.988816285163521 -0.4966717578973657 0
541 -3.748470630323015 -2.413221093901939 0
542 -2.511856420085242 1.540918442158463 0
543 -0.5759864421438362 1.989868217004219 0
544 1.077137600798956 2.294543648869966 0
545 -3.433388383045584 0.2944498399774551 0
546 -3.582559511078011 2.580451971428303 0
547 2.515779900028868 2.558136025438089 0
548 -1.748244747850853 2.650690655233983 0
549 -1.411411880071703 0.8785547878245429 0
550 3.71280399745122 2.78230933246811 0
551 -3.815754510079231 1.416423834234646 0
552 0.1165807153916188 2.923858060215348 0
553 0.3626925806880236 1.369983789448194 0
554 -2.329678185861313 0.2599216997304305 0
555 -4.011766846170413 -0.5335764011406067 0
556 -2.680377600510416 3.006662463357903 0
557 -0.8403172185495201 3.010918986808743 0
558 -0.4094566855421509 0.886106833761745 0
559 1.755048330912307 2.988051767564813 0
560 1.933603116658396 1.798275006133562 0
561 -1.669146557983826 1.761247103982387 0
562 -4.179857126651122 3.166666666666668 0
563 -4.175378993761711 0.6743129928039628 0
564 0.8606812519174205 3.200469208092556 0
565 1.214863171386568 1.361701959772536 0
566 -4.190298761118926 2.05775435853449 0
567 -2.902858861924329 -0.3068906569115247 0
568 3.227717288334802 2.160537601500281 0
569 3.015646522847518 3.178724924115808 0
570 -2.932154698960126 0.7701497436008629 0
571 -2.885679934303112 2.273283661646746 0
572 0.05978343782761365 2.153323254302326 0
573 -1.583741780381699 0.1602332782755337 0
574 4.289188629782695 3.377346003516743 0
575 -2.221886492726869 0.97250368114367 0
576 -3.349720264204098 3.277475473118811 0
577 -2.001774371593395 3.292083209100429 0
578 4.334156833893485 2.474221031050022 0
579 -0.9572466085318537 0.3609046708639974 0
580 2.319748384676199 3.322159503415048 0
581 2.673698376126198 1.760099177292694 0
582 -1.079434220222736 2.40193998424798 0
583 -0.8514242360557838 1.398833394406199 0
584 -2.227654976471376 2.156500649923554 0
585 -4.342012250267955 0.03671646265836573 0
586 -3.224297870001358 1.70763244102875 0
587 -1.401697823109019 3.381631678073422 0
588 -0.2871618696308586 3.333215075138943 0
589 -4.380568773543239 -1.099253017441562 0
590 0.2076475986451106 0.7759775901678923 0
591 1.717218814433688 2.389481084893503 0
592 -3.39026308508213 -0.7057168524367241 0
593 -4.402853311635827 1.502070909661491 0
594 -0.4180951266926184 2.595613814203333 0
595 -0.1942039574589041 1.478687994272643 0
596 -3.476760655278293 0.8657546804113483 0
597 3.637273269752913 3.378339133279022 0
598 3.940918689015652 2.184542482253037 0
599 0.3339547426787043 3.42277673627137 0
600 -4.422081256463184 2.641349121598708 0
601 0.8426770665634166 0.9669536084917671 0
602 0.6413655905933373 2.665004413786183 0
603 0.8256696237223755 1.784659688485427 0
604 -2.324762427723737 -0.3356583143303949 0
605 -2.888063567515278 0.2803601521747884 0
606 -3.666907246407929 2.03589354946021 0
607 1.319898634242523 3.499295912789579 0
608 1.767984871812636 1.276456113159401 0
609 -1.157350372384562 1.849599221429273 0
610 3.031665553690579 2.642781803265692 0
611 -3.609896444484731 -0.2294319382641107 0
612 -4.519367287171809 -0.5000000000000032 0
613 -2.29569515953522 2.684207768516977 0
614 1.413355673515869 1.863863597121573 0
615 1.236617923219649 2.794632729633824 0
616 -2.884114129557182 3.483545885674435 0
617 -3.841455018922215 3.506624545786585 0
618 -3.101230915546036 2.777569152609791 0
619 -4.488506199271097 3.517432875005562 0
620 -3.805309057100139 -0.9911084050812754 0
621 -0.1770541626918584 0.4202398764017416 0
622 -4.495143607285372 1.036767741327891 0
623 -1.913238218147894 0.5353627290641042 0
624 -0.7912414297817159 3.493334440677445 0
625 -1.741482382476909 1.257382249795084 0
626 1.880649250154582 3.506283792742598 0
627 -1.316032898391777 2.885770004036683 0
628 2.273873275696049 1.463176591462661 0
629 -0.9189019499687474 0.861106128475156 0
630 -3.939595765651385 0.2837317464972621 0
631 2.277685746838845 2.142815605297442 0
632 2.102762645702043 2.861948687798875 0
633 -3.150218630780146 1.255602795025048 0
634 -1.583897219058178 2.257626026001856 0
635 -1.855023062630437 -0.2361778131185314 0
636 -2.421218089110111 3.569328415852591 0
637 -3.742239255990629 3.015155718058399 0
638 -2.16155869674907 1.533298189502242 0
639 4.551062893375611 2.905546348509447 0
640 -4.520439261464645 0.4483940202439582 0
641 2.728543473448457 3.558418907637423 0
642 3.038092801773204 1.697863899807379 0
643 0.6155343015067983 2.191724211371445 0
644 -1.122255622182042 0.0353792135118679 0
645 -3.992762524967631 2.504415803313056 0
646 2.767848893844056 2.214535006374028 0
647 -1.336003766544867 1.423727621925432 0
648 4.549861345768433 3.561193124629485 0
649 2.652460719064349 2.98856450831433 0
650 -2.533720434678886 1.123684650850894 0
651 -2.442940129981728 0.6511936259204592 0
652 -4.608428192226963 1.88121096707067 0
653 -4.136540451226352 1.05987145555247 0
654 0.726398165316728 3.558646273448168 0
655 -4.579594780760652 3.032482264581254 0
656 -2.972295627962772 -0.7323713143638736 0
657 3.216052751914654 3.576421746461977 0
658 -3.309554912736661 2.272748320910054 0
659 4.053868869106675 2.849250936160142 0
660 3.977417537889102 3.567474831505263 0
661 1.244403814250743 0.9874280404160676 0
662 -1.719785860314252 3.62781721884364 0
663 3.536570671787687 1.869434354785499 0
664 -4.583884357373641 -1.395988314430177 0
665 -1.356588799255072 0.4808483126192816 0
666 -1.692593079560887 3.063238084602075 0
667 -0.5276987711888719 0.2193720761376192 0
668 -2.605161510215799 2.037919604663648 0
669 -0.1747168768489181 1.872009888824495 0
670 0.001718997010870019 2.550003226022921 0
671 -4.06207710171299 1.681636638004513 0
672 0.5291886270897084 2.998639803997645 0
673 -0.4160175314217883 2.97570807205071 0
674 -3.244213903298106 -0.05220654122675743 0
675 0.8367194372732761 1.371249252885756 0
676 -4.60527628456873 2.28889946269526 0
677 -0.07175686166948811 1.073087815208838 0
678 3.46846907662404 2.443905446575244 0
679 3.398920280389317 3.039531779080504 0
680 -3.238183191178938 0.5941701756765316 0
681 -2.603374714972351 -0.01694383378086636 0
682 0.3865472780118308 1.750578121456029 0
683 -2.661003617588503 2.605813296797836 0
684 -3.729048831994905 0.7126124433711151 0
685 4.245653845450505 2.156730086275426 0
686 -3.987393891593097 -0.147368684101361 0
687 0.01220732223428418 3.629906324250042 0
688 -2.593852425860497 -0.6104985850135435 0
689 -0.8069963995746458 2.633913249999273 0
690 0.5679023147977271 0.6328672347804586 0
691 -3.473428103313357 3.627958623352067 0
692 -0.5837308116036869 1.57426825938315 0
693 4.626910412835879 2.239325463098102 0
694 2.168933829961341 2.480969321442228 0
695 -4.145698131413426 3.694810341851695 0
696 -1.967195595527174 0.1316170227523887 0
697 -4.664697271807092 -0.2027204944884191 0
698 -4.671418456150061 -0.8061349851576576 0
699 3.951847436156922 3.147215078421218 0
700 -1.062549238327183 3.664836469584864 0
701 -1.439126015570956 -0.1706116525394042 0
702 -1.793139730377172 0.9044145502685017 0
703 -2.342384109121675 3.049030569947218 0
704 -3.013501266019778 3.117672897896632 0
705 3.994941296380071 2.527965485314043 0
706 0.4062455763796718 2.392718010343205 0
707 -0.2820813923552934 2.231688693761749 0
708 -3.498865000325296 1.387993226720005 0
709 -0.6011324774116684 1.177767334739826 0
710 -0.7854908124901203 2.282683805825978 0
711 -3.995994506379613 -1.258618507499792 0
712 0.04519756872926606 3.243998380319399 0
713 2.433090335418339 3.64796443641288 0
714 2.815558700030898 1.443652280192508 0
715 -1.913429192981241 2.308880882486311 0
716 -2.928810592258439 1.915716448062304 0
717 -3.440394518726969 2.91956048054558 0
718 -0.6182703798546957 0.5735869478672035 0
719 0.4628546170617058 1.003976133593639 0
720 -4.047887253474791 2.840088886654419 0
721 0.09760843792427981 1.605909862155828 0
722 4.666777616160204 3.19175835360404 0
723 -2.887958163828199 1.523870108136388 0
724 -2.142093281426922 3.661098658110013 0
725 0.182889981052366 0.4318586355155414 0
726 -2.017309241701572 1.881625612835438 0
727 1.407847024005858 2.179047540348257 0
728 1.574060690857137 2.720904479363529 0
729 1.207934806676648 3.151554965147617 0
730 1.658160658547416 1.608086206435527 0
731 4.666493231238158 2.600487406908579 0
732 1.029599315320811 3.719269149563852 0
733 -0.8207382487062462 -0.006834748781776922 0
734 -2.00771330120932 2.902370650219204 0
735 2.025523175844638 3.22043380666866 0
736 -1.017016304511351 3.276275302294644 0
737 -1.41661779313415 2.55583584123612 0
738 2.279829864317569 1.785529890770486 0
739 -0.3448275862068821 3.702227519461166 0
740 -4.297051435140757 -0.7237816007903315 0
741 -1.147548071145416 1.145480438681537 0
742 -3.267339964186553 -0.4111055706674087 0
743 1.597361844144328 0.9675871588304 0
744 1.94705748680461 2.139888164816798 0
745 -3.647930120370079 1.723713824767388 0
746 -3.442357001614122 -1.03834914562196 0
747 -3.717030750463904 1.064377110924233 0
748 -4.714244521604964 0.7855038083814285 0
749 -4.209139067414217 0.3441654207942724 0
750 -4.676384773456542 1.304863050396254 0
751 -2.008118425238717 -0.5357571429393171 0
752 -2.484248515288451 2.349657329999042 0
753 -4.286755930888114 -0.297821644486736 0
754 -3.663657760211203 -0.5366206700014819 0
755 -4.722166600189915 0.1781811912645342 0
756 -3.122633248417019 3.709425152696535 0
757 2.132281713359483 1.191606448751112 0
758 1.590864432871496 3.643904166156215 0
759 0.909816022194189 2.866598222388673 0
760 -2.375687007564317 1.821420536806595 0
761 1.101038009017031 1.961341847001361 0
762 -0.8691413159024695 1.756560613475743 0
763 -1.40148980235787 3.725328299570177 0
764 3.499844176523692 3.688693618356874 0
765 -0.1292270035636401 0.7591542978639765 0
766 4.271440728137823 3.701921865280157 0
767 -0.1826214558852666 2.792041119383706 0
768 -1.605742521818784 0.6199271422731442 0
769 3.361861263024389 2.720970053118922 0
770 -2.330924592615789 1.2820441301013 0
771 -2.61836155622712 3.315119651421001 0
772 -0.6450302350647903 3.205039694585265 0
773 -4.14415560511187 1.385299008314557 0
774 -4.706658871178733 2.754029421641604 0
775 0.4086450958428889 3.739601224918665 0
776 -3.175972743598085 0.9640470751598029 0
777 -4.694035698334054 1.612014393487233 0
778 3.840424699990749 1.866673883121224 0
779 0.887086365186894 0.6496413794008234 0
780 1.863604862373303 2.68827106821259 0
781 -3.714450096137747 0.0893603822645028 0
782 -3.924993005777324 2.197630246512279 0
783 -4.727174317413389 -1.126941930072548 0
784 -2.746166838430396 0.5672862415420326 0
785 1.32622649829513 2.487724675949775 0
786 2.085462632662844 3.73527889023963 0
787 1.121102106840063 1.655935371147918 0
788 -4.269508882298008 -1.42173970980979 0
789 0.9753835931430025 2.575488210497815 0
790 1.602253224695118 3.283371649126279 0
791 -2.227252157565961 -0.02689720685591782 0
792 -2.685732143854073 3.713261080327059 0
793 -2.856343662243467 1.140007277382782 0
794 -3.378494148932953 1.968412797326097 0
795 -1.454346048580357 1.937026974194652 0
796 1.975032749537712 1.497933862419699 0
797 1.683132145681264 1.991416659631258 0
798 -4.710172109774709 3.294175090407686 0
799 -3.178551559939167 -0.9491584749736678 0
800 -4.270451843159754 2.322724880387621 0
801 0.5946702015061383 3.303900210686325 0
802 -2.931178175230025 -0.01236539333374536 0
803 0.1094166887939151 1.306822053069429 0
804 -2.209334048797102 0.5305019226607218 0
805 -0.9587414285801704 2.076344186398892 0
806 -3.513496257079531 0.5713684270120274 0
807 -1.13850985648258 2.681978854114365 0
808 2.636458556322664 3.303619638447043 0
809 2.95939880922098 1.988865494838559 0
810 2.784123947524245 2.473622875454062 0
811 1.034665872368501 1.171833215391532 0
812 -4.055822896227725 -0.8899449050177668 0
813 2.920209349373056 2.890292062329231 0
814 2.533617353495194 1.304185211137963 0
815 -4.323916598820241 2.908163852073897 0
816 0.3692725275025496 2.725650430489702 0
817 -4.737855151652811 3.745166113570303 0
818 -3.906700662702871 3.247886315071088 0
819 -3.143870513286973 0.2470433456768191 0
820 -1.465812144751355 1.174176860332324 0
821 0.6240995090680675 1.578327574828841 0
822 -2.608982037228578 -0.3145406134663634 0
823 -2.297927118392174 -0.6502975713416255 0
824 1.028902434694826 3.425847101808354 0
825 2.976226679199334 3.73229426282631 0
826 3.354132582247679 1.630306870356503 0
827 -1.15614499667511 0.7282983308924892 0
828 3.53874103566681 2.154481875887383 0
829 3.32549920547876 3.31350595918317 0
830 -1.727625652061035 2.029281319900128 0
831 -2.602044687352213 0.3483635771173688 0
832 -3.695355440193511 2.318227978324781 0
833 3.220345469469991 2.452007130775042 0
834 -3.9564015527606 0.8327043703031183 0
835 -3.280464835679284 2.594978980595259 0
836 1.864576884016175 0.9944140582390453 0
837 1.483995509820456 1.269095464036042 0
838 -4.34330852372614 1.236744289978802 0
839 -1.094557980632357 1.576589749696873 0
840 -4.769206915184429 2.509606541377842 0
841 -3.625656303976689 3.265776859322088 0
842 3.752013166101472 3.739963620083777 0
843 -0.6851805035722692 3.753539547816738 0
844 -4.415755958049812 3.241890757790706 0
845 -4.367770353605753 1.778174743728774 0
846 -1.703962783644388 3.341192547654891 0
847 -4.784029474222367 -0.5004610308020684 0
848 -2.150394715332602 2.436988761263129 0
849 1.339796614418003 3.772493845701929 0
850 2.360082822464098 3.037449771111552 0
851 -1.856065836488265 1.523364205603358 0
852 -1.285045408337299 2.177413276410157 0
853 2.516896668917198 2.285475962934241 0
854 -3.799026983904242 3.779995856922151 0
855 0.8464065389167159 2.106598820152929 0
856 -3.403769556089145 1.107554977648087 0
857 -3.793189075674479 2.749760861815228 0
858 -3.89844124707745 1.939325723455776 0
859 -0.3092885894445634 1.206697071956982 0
860 -4.415755137283129 0.7835675559825634 0
861 -3.657960773302677 -1.218173177100932 0
862 3.671910342196455 3.077026486725654 0
863 -0.1448045145634057 3.053764141421622 0
864 -4.467515344743328 3.791481866085511 0
865 -1.69028576723383 -0.451704936754146 0
866 -2.005401919205993 1.204240766368221 0
867 -3.149253368446522 3.442442640160151 0
868 -2.301978415724879 3.34334015431318 0
869 1.475182995272172 2.987703118167213 0
870 4.776866748154794 2.872891755137746 0
871 4.139087933500723 1.914744756939136 0
872 -3.720332938385178 0.4097339602030184 0
873 1.378295424022074 1.551736519702719 0
874 -1.320987334124097 0.2149700559862127 0
875 -0.2630224384305094 0.170623922725002 0
876 -3.013733041335025 2.55370540240416 0
877 -2.840238708901286 2.801695854735422 0
878 4.470031668266066 2.036158227284884 0
879 -0.835504961288856 1.088533665270842 0
880 -2.516308053117447 2.818407120494141 0
881 0.2141709247038534 1.105969476297598 0
882 4.75749701646679 3.760827274268063 0
883 -4.802141406029056 0.4954226894986408 0
884 -4.748834626679422 2.072312838957271 0
885 -4.74450358304074 -1.620070739492735 0
886 3.273858651374842 1.896409977339554 0
887 -3.840504797203652 -0.7389663814801232 0
888 2.969169246267728 3.454147016198243 0
889 2.715169361382904 2.722370481693499 0
890 -1.264026990953581 3.142300941516304 0
891 -2.681859594100979 -0.851846507102419 0
892 2.564424885803983 2.027895604686459 0
893 -2.622202042836912 0.8708042034067833 0
894 -2.683862945401565 1.343014318611108 0
895 -0.3640218149848843 0.6063332130074768 0
896 2.13862952390184 3.481636215645098 0
897 0.1558612444175098 1.885443484335383 0
898 -0.6448576981163839 2.8583158271083 0
899 -1.543372129734417 2.788883646277215 0
900 -0.4105450303216816 1.766165645799874 0
901 3.154109200388289 2.895919230616106 0
902 -0.5383146119689826 3.498872104544768 0
903 -4.768671743903473 1.080907265028488 0
904 -2.014478299520629 2.622556319761459 0
905 2.386776698616333 2.780825615359591 0
906 -3.145367491646504 2.02755873379479 0
907 4.809545828380966 3.500717344465927 0
908 1.137598377445499 0.7088945054200947 0
909 2.499851416046678 1.55899666795033 0
910 -1.698735186787294 0.3850490726952714 0
911 -0.5207353474255068 2.328440707517096 0
912 -4.081452771430138 0.09555922159911018 0
913 4.352661611868694 2.750985672369159 0
914 4.310901176075133 3.037017065430124 0
915 -2.681519442039669 1.770909511905694 0
916 -2.414351718903538 3.805182821769126 0
917 -4.162995516168423 3.39588525036205 0
918 -3.982377667998671 0.5162509502696977 0
919 -2.064645234697619 0.7375518447132055 0
920 3.144281001904309 1.466255299962925 0
921 -0.05143732401400393 0.2045444869284554 0
922 -1.570541335601119 1.473046250210194 0
923 0.3767554166207224 2.053099188902165 0
924 -4.82266330706977 1.833333333333334 0
925 4.494385714250051 3.80927489572246 0
926 3.007095249740029 2.302852983119958 0
927 -0.6972331848332942 0.8518887784702541 0
928 -0.867016712834735 0.6583971166348092 0
929 1.801050435551579 3.777093369827689 0
930 -3.827697149470708 -0.3570159799937058 0
931 -1.049634977077031 -0.200528666664512 0
932 0.7353138998067742 2.411024703338246 0
933 -3.628418340242249 -0.8021522909243128 0
934 -4.465176676893257 2.066846208562348 0
935 -1.373013766975556 1.678255669587263 0
936 0.2846672100565463 3.179250972217861 0
937 0.6032835475157962 1.236513926302795 0
938 0.6125021113077517 1.910831267532806 0
939 -1.073467971089593 2.932435191051767 0
940 2.731020373475296 3.787735521375322 0
941 -4.797095672884837 3.509967862036964 0
942 -1.711271613527567 -0.02873479115750331 0
943 4.140308323513432 2.346507347771785 0
944 0.7033233237336627 3.810010382716501 0
945 -2.988816285163522 0.4966717578973648 0
946 3.748470630323017 2.413221093901936 0
$EndNodes
$Elements
1815
1 1 2 2 5 1 7
2 1 2 2 5 7 8
3 1 2 2 5 8 9
4 1 2 2 5 9 10
5 1 2 2 5 10 11
6 1 2 2 5 11 12
7 1 2 2 5 12 13
8 1 2 2 5 13 14
9 1 2 2 5 14 15
10 1 2 2 5 15 16
11 1 2 2 5 16 17
12 1 2 2 5 17 18
13 1 2 2 5 18 19
14 1 2 2 5 19 20
15 1 2 2 5 20 21
16 1 2 2 5 21 22
17 1 2 2 5 22 23
18 1 2 2 5 23 24
19 1 2 2 5 24 25
20 1 2 2 5 25 26
21 1 2 2 5 26 27
22 1 2 2 5 27 28
23 1 2 2 5 28 29
24 1 2 2 5 29 30
25 1 2 2 5 30 31
26 1 2 2 5 31 32
27 1 2 2 5 32 33
28 1 2 2 5 33 34
29 1 2 2 5 34 35
30 1 2 2 5 35 36
31 1 2 2 5 36 4
32 2 2 1 1 154 375 227
33 2 2 1 1 181 303 228
34 2 2 1 1 167 302 264
35 2 2 1 1 265 302 167
36 2 2 1 1 299 366 211
37 2 2 1 1 230 386 199
38 2 2 1 1 251 283 162
39 2 2 1 1 137 365 233
40 2 2 1 1 227 330 154
41 2 2 1 1 166 471 253
42 2 2 1 1 228 318 181
43 2 2 1 1 206 349 337
44 2 2 1 1 245 488 170
45 2 2 1 1 170 488 246
46 2 2 1 1 226 339 333
47 2 2 1 1 333 339 155
48 2 2 1 1 140 376 269
49 2 2 1 1 269 376 206
50 2 2 1 1 253 471 430
51 2 2 1 1 229 332 143
52 2 2 1 1 143 310 229
53 2 2 1 1 240 315 195
54 2 2 1 1 285 320 20
55 2 2 1 1 197 354 267
56 2 2 1 1 14 409 352
57 2 2 1 1 199 346 230
58 2 2 1 1 265 411 147
59 2 2 1 1 151 366 299
60 2 2 1 1 320 360 216
61 2 2 1 1 235 350 180
62 2 2 1 1 185 360 320
63 2 2 1 1 301 411 265
64 2 2 1 1 254 294 145
65 2 2 1 1 267 354 159
66 2 2 1 1 295 438 75
67 2 2 1 1 176 309 237
68 2 2 1 1 352 409 223
69 2 2 1 1 217 455 248
70 2 2 1 1 251 394 30
71 2 2 1 1 248 455 158
72 2 2 1 1 37 288 1
73 2 2 1 1 337 349 187
74 2 2 1 1 280 288 173
75 2 2 1 1 150 348 335
76 2 2 1 1 218 399 291
77 2 2 1 1 191 342 279
78 2 2 1 1 255 294 169
79 2 2 1 1 1 288 7
80 2 2 1 1 78 257 77
81 2 2 1 1 152 367 331
82 2 2 1 1 192 294 255
83 2 2 1 1 255 361 61
84 2 2 1 1 138 400 357
85 2 2 1 1 278 347 208
86 2 2 1 1 233 355 137
87 2 2 1 1 146 340 266
88 2 2 1 1 331 367 219
89 2 2 1 1 291 399 149
90 2 2 1 1 251 337 187
91 2 2 1 1 146 342 303
92 2 2 1 1 335 348 207
93 2 2 1 1 162 337 251
94 2 2 1 1 179 321 310
95 2 2 1 1 19 285 20
96 2 2 1 1 169 317 243
97 2 2 1 1 237 404 176
98 2 2 1 1 342 429 279
99 2 2 1 1 305 400 138
100 2 2 1 1 235 344 158
101 2 2 1 1 180 344 235
102 2 2 1 1 17 338 256
103 2 2 1 1 158 455 235
104 2 2 1 1 137 489 365
105 2 2 1 1 243 361 169
106 2 2 1 1 174 469 239
107 2 2 1 1 321 425 310
108 2 2 1 1 342 451 303
109 2 2 1 1 253 501 166
110 2 2 1 1 76 295 75
111 2 2 1 1 183 307 282
112 2 2 1 1 282 307 194
113 2 2 1 1 249 370 194
114 2 2 1 1 250 393 44
115 2 2 1 1 30 394 31
116 2 2 1 1 287 454 190
117 2 2 1 1 30 486 251
118 2 2 1 1 308 403 236
119 2 2 1 1 175 403 308
120 2 2 1 1 304 454 287
121 2 2 1 1 347 443 208
122 2 2 1 1 169 361 255
123 2 2 1 1 145 300 254
124 2 2 1 1 261 485 182
125 2 2 1 1 239 328 174
126 2 2 1 1 174 422 260
127 2 2 1 1 219 438 295
128 2 2 1 1 365 489 245
129 2 2 1 1 351 387 81
130 2 2 1 1 185 320 285
131 2 2 1 1 25 526 296
132 2 2 1 1 206 337 269
133 2 2 1 1 280 473 288
134 2 2 1 1 324 464 385
135 2 2 1 1 289 448 142
136 2 2 1 1 300 508 254
137 2 2 1 1 173 508 300
138 2 2 1 1 31 394 341
139 2 2 1 1 31 341 32
140 2 2 1 1 37 326 288
141 2 2 1 1 317 465 39
142 2 2 1 1 241 487 404
143 2 2 1 1 404 487 176
144 2 2 1 1 164 403 244
145 2 2 1 1 312 436 232
146 2 2 1 1 294 509 169
147 2 2 1 1 190 316 264
148 2 2 1 1 195 395 240
149 2 2 1 1 254 509 294
150 2 2 1 1 264 302 138
151 2 2 1 1 257 319 172
152 2 2 1 1 44 369 250
153 2 2 1 1 172 329 261
154 2 2 1 1 63 420 252
155 2 2 1 1 255 437 192
156 2 2 1 1 167 301 265
157 2 2 1 1 296 469 168
158 2 2 1 1 240 427 141
159 2 2 1 1 23 470 262
160 2 2 1 1 222 485 261
161 2 2 1 1 260 469 174
162 2 2 1 1 239 469 296
163 2 2 1 1 216 490 262
164 2 2 1 1 171 436 312
165 2 2 1 1 61 361 60
166 2 2 1 1 262 328 23
167 2 2 1 1 78 319 257
168 2 2 1 1 439 512 214
169 2 2 1 1 285 314 185
170 2 2 1 1 196 314 285
171 2 2 1 1 10 373 258
172 2 2 1 1 340 453 266
173 2 2 1 1 226 448 289
174 2 2 1 1 25 296 26
175 2 2 1 1 246 426 149
176 2 2 1 1 214 512 290
177 2 2 1 1 246 514 170
178 2 2 1 1 252 359 63
179 2 2 1 1 324 385 202
180 2 2 1 1 174 523 422
181 2 2 1 1 270 382 198
182 2 2 1 1 141 452 240
183 2 2 1 1 182 441 261
184 2 2 1 1 73 282 72
185 2 2 1 1 189 302 265
186 2 2 1 1 296 526 239
187 2 2 1 1 244 408 164
188 2 2 1 1 294 457 145
189 2 2 1 1 263 355 179
190 2 2 1 1 158 429 248
191 2 2 1 1 312 452 141
192 2 2 1 1 248 433 217
193 2 2 1 1 335 407 150
194 2 2 1 1 181 501 389
195 2 2 1 1 38 326 37
196 2 2 1 1 248 342 146
197 2 2 1 1 149 399 246
198 2 2 1 1 322 392 186
199 2 2 1 1 311 501 181
200 2 2 1 1 159 419 249
201 2 2 1 1 193 466 280
202 2 2 1 1 407 482 150
203 2 2 1 1 181 340 303
204 2 2 1 1 160 382 270
205 2 2 1 1 40 317 39
206 2 2 1 1 291 386 230
207 2 2 1 1 85 290 84
208 2 2 1 1 315 413 157
209 2 2 1 1 287 357 178
210 2 2 1 1 170 365 245
211 2 2 1 1 232 413 315
212 2 2 1 1 166 311 263
213 2 2 1 1 262 313 174
214 2 2 1 1 211 387 351
215 2 2 1 1 256 432 160
216 2 2 1 1 262 490 313
217 2 2 1 1 16 338 17
218 2 2 1 1 293 335 207
219 2 2 1 1 257 358 77
220 2 2 1 1 51 343 50
221 2 2 1 1 261 329 143
222 2 2 1 1 207 348 292
223 2 2 1 1 196 503 256
224 2 2 1 1 299 312 213
225 2 2 1 1 143 494 261
226 2 2 1 1 292 348 180
227 2 2 1 1 261 494 222
228 2 2 1 1 171 312 299
229 2 2 1 1 22 470 23
230 2 2 1 1 180 350 292
231 2 2 1 1 184 335 293
232 2 2 1 1 259 383 184
233 2 2 1 1 159 354 324
234 2 2 1 1 324 354 210
235 2 2 1 1 232 452 312
236 2 2 1 1 336 434 242
237 2 2 1 1 33 306 34
238 2 2 1 1 178 434 336
239 2 2 1 1 199 386 276
240 2 2 1 1 181 389 340
241 2 2 1 1 181 318 311
242 2 2 1 1 259 480 35
243 2 2 1 1 139 356 322
244 2 2 1 1 184 378 259
245 2 2 1 1 234 465 317
246 2 2 1 1 297 415 220
247 2 2 1 1 146 368 248
248 2 2 1 1 322 356 209
249 2 2 1 1 263 347 166
250 2 2 1 1 315 410 195
251 2 2 1 1 144 415 297
252 2 2 1 1 54 292 53
253 2 2 1 1 174 328 262
254 2 2 1 1 253 427 201
255 2 2 1 1 283 417 162
256 2 2 1 1 83 286 82
257 2 2 1 1 194 396 249
258 2 2 1 1 141 427 253
259 2 2 1 1 56 293 55
260 2 2 1 1 249 396 159
261 2 2 1 1 376 507 281
262 2 2 1 1 186 392 339
263 2 2 1 1 187 394 251
264 2 2 1 1 277 316 148
265 2 2 1 1 336 422 224
266 2 2 1 1 57 480 259
267 2 2 1 1 298 329 172
268 2 2 1 1 253 430 141
269 2 2 1 1 276 386 149
270 2 2 1 1 33 456 306
271 2 2 1 1 260 505 168
272 2 2 1 1 258 421 10
273 2 2 1 1 210 384 380
274 2 2 1 1 373 466 193
275 2 2 1 1 177 305 284
276 2 2 1 1 195 435 271
277 2 2 1 1 178 304 287
278 2 2 1 1 44 393 43
279 2 2 1 1 172 441 257
280 2 2 1 1 166 347 278
281 2 2 1 1 290 449 84
282 2 2 1 1 206 376 281
283 2 2 1 1 173 538 280
284 2 2 1 1 225 507 376
285 2 2 1 1 138 495 264
286 2 2 1 1 142 500 289
287 2 2 1 1 281 348 150
288 2 2 1 1 182 358 257
289 2 2 1 1 257 441 182
290 2 2 1 1 284 506 189
291 2 2 1 1 330 385 154
292 2 2 1 1 269 337 162
293 2 2 1 1 49 372 48
294 2 2 1 1 221 385 330
295 2 2 1 1 201 389 253
296 2 2 1 1 264 492 167
297 2 2 1 1 211 462 299
298 2 2 1 1 140 414 275
299 2 2 1 1 186 339 289
300 2 2 1 1 168 469 260
301 2 2 1 1 252 424 359
302 2 2 1 1 289 339 226
303 2 2 1 1 259 378 57
304 2 2 1 1 267 411 197
305 2 2 1 1 359 424 192
306 2 2 1 1 61 437 255
307 2 2 1 1 343 498 50
308 2 2 1 1 319 463 172
309 2 2 1 1 298 366 151
310 2 2 1 1 261 441 172
311 2 2 1 1 345 372 49
312 2 2 1 1 192 437 359
313 2 2 1 1 144 363 260
314 2 2 1 1 169 509 317
315 2 2 1 1 73 334 282
316 2 2 1 1 282 334 183
317 2 2 1 1 160 406 256
318 2 2 1 1 145 364 273
319 2 2 1 1 274 364 145
320 2 2 1 1 256 406 196
321 2 2 1 1 155 391 333
322 2 2 1 1 333 391 223
323 2 2 1 1 212 436 286
324 2 2 1 1 286 436 171
325 2 2 1 1 256 503 17
326 2 2 1 1 147 362 265
327 2 2 1 1 179 347 263
328 2 2 1 1 265 362 189
329 2 2 1 1 64 420 63
330 2 2 1 1 369 410 250
331 2 2 1 1 141 430 312
332 2 2 1 1 195 410 369
333 2 2 1 1 161 440 266
334 2 2 1 1 193 423 373
335 2 2 1 1 23 328 24
336 2 2 1 1 66 308 65
337 2 2 1 1 272 398 190
338 2 2 1 1 373 423 258
339 2 2 1 1 305 506 284
340 2 2 1 1 282 370 72
341 2 2 1 1 144 422 336
342 2 2 1 1 262 470 216
343 2 2 1 1 323 375 154
344 2 2 1 1 36 58 4
345 2 2 1 1 188 368 266
346 2 2 1 1 194 370 282
347 2 2 1 1 249 539 370
348 2 2 1 1 198 416 270
349 2 2 1 1 212 449 290
350 2 2 1 1 231 463 319
351 2 2 1 1 9 373 10
352 2 2 1 1 272 360 185
353 2 2 1 1 289 500 227
354 2 2 1 1 260 422 144
355 2 2 1 1 288 326 173
356 2 2 1 1 266 368 146
357 2 2 1 1 179 355 321
358 2 2 1 1 189 362 268
359 2 2 1 1 264 495 190
360 2 2 1 1 295 331 219
361 2 2 1 1 167 518 301
362 2 2 1 1 268 493 189
363 2 2 1 1 293 378 184
364 2 2 1 1 266 453 161
365 2 2 1 1 152 534 284
366 2 2 1 1 183 367 268
367 2 2 1 1 180 348 281
368 2 2 1 1 152 493 367
369 2 2 1 1 271 395 195
370 2 2 1 1 164 483 403
371 2 2 1 1 76 358 295
372 2 2 1 1 153 360 272
373 2 2 1 1 385 464 154
374 2 2 1 1 46 479 271
375 2 2 1 1 229 447 332
376 2 2 1 1 70 539 327
377 2 2 1 1 150 525 281
378 2 2 1 1 266 440 188
379 2 2 1 1 367 493 268
380 2 2 1 1 54 442 292
381 2 2 1 1 380 384 139
382 2 2 1 1 35 383 259
383 2 2 1 1 185 476 272
384 2 2 1 1 273 541 145
385 2 2 1 1 147 411 267
386 2 2 1 1 233 446 321
387 2 2 1 1 79 319 78
388 2 2 1 1 357 434 178
389 2 2 1 1 14 352 15
390 2 2 1 1 267 531 147
391 2 2 1 1 70 327 69
392 2 2 1 1 377 395 161
393 2 2 1 1 321 446 156
394 2 2 1 1 281 507 180
395 2 2 1 1 268 458 183
396 2 2 1 1 240 395 377
397 2 2 1 1 293 442 55
398 2 2 1 1 276 417 199
399 2 2 1 1 275 371 191
400 2 2 1 1 291 505 218
401 2 2 1 1 45 369 44
402 2 2 1 1 272 454 153
403 2 2 1 1 148 476 314
404 2 2 1 1 159 396 267
405 2 2 1 1 165 371 275
406 2 2 1 1 186 380 322
407 2 2 1 1 269 414 140
408 2 2 1 1 323 380 186
409 2 2 1 1 301 518 238
410 2 2 1 1 190 454 272
411 2 2 1 1 270 532 196
412 2 2 1 1 191 401 275
413 2 2 1 1 182 331 295
414 2 2 1 1 184 383 306
415 2 2 1 1 35 480 36
416 2 2 1 1 208 329 298
417 2 2 1 1 271 435 46
418 2 2 1 1 304 522 153
419 2 2 1 1 145 457 274
420 2 2 1 1 42 412 3
421 2 2 1 1 274 457 192
422 2 2 1 1 162 397 269
423 2 2 1 1 312 430 213
424 2 2 1 1 196 406 270
425 2 2 1 1 270 406 160
426 2 2 1 1 12 309 13
427 2 2 1 1 274 424 164
428 2 2 1 1 399 514 246
429 2 2 1 1 83 449 286
430 2 2 1 1 306 456 215
431 2 2 1 1 317 509 234
432 2 2 1 1 297 461 170
433 2 2 1 1 286 449 212
434 2 2 1 1 366 387 211
435 2 2 1 1 276 426 200
436 2 2 1 1 231 387 366
437 2 2 1 1 3 412 86
438 2 2 1 1 275 540 165
439 2 2 1 1 149 426 276
440 2 2 1 1 163 423 273
441 2 2 1 1 63 359 62
442 2 2 1 1 292 442 207
443 2 2 1 1 220 461 297
444 2 2 1 1 164 496 274
445 2 2 1 1 208 475 278
446 2 2 1 1 279 401 191
447 2 2 1 1 318 510 311
448 2 2 1 1 280 538 193
449 2 2 1 1 278 471 166
450 2 2 1 1 200 397 276
451 2 2 1 1 286 351 82
452 2 2 1 1 228 388 318
453 2 2 1 1 327 539 249
454 2 2 1 1 474 522 304
455 2 2 1 1 207 442 293
456 2 2 1 1 275 401 140
457 2 2 1 1 332 447 177
458 2 2 1 1 192 424 274
459 2 2 1 1 276 397 162
460 2 2 1 1 273 428 163
461 2 2 1 1 374 503 196
462 2 2 1 1 398 476 148
463 2 2 1 1 20 320 21
464 2 2 1 1 292 350 53
465 2 2 1 1 338 432 256
466 2 2 1 1 29 418 283
467 2 2 1 1 138 357 287
468 2 2 1 1 171 462 286
469 2 2 1 1 19 374 285
470 2 2 1 1 303 340 146
471 2 2 1 1 77 358 76
472 2 2 1 1 308 535 65
473 2 2 1 1 162 417 276
474 2 2 1 1 148 416 277
475 2 2 1 1 298 463 366
476 2 2 1 1 316 492 264
477 2 2 1 1 302 506 138
478 2 2 1 1 283 418 199
479 2 2 1 1 263 510 355
480 2 2 1 1 189 493 284
481 2 2 1 1 355 510 137
482 2 2 1 1 301 527 197
483 2 2 1 1 238 527 301
484 2 2 1 1 309 515 237
485 2 2 1 1 284 534 402
486 2 2 1 1 369 435 195
487 2 2 1 1 190 495 287
488 2 2 1 1 58 480 57
489 2 2 1 1 281 525 206
490 2 2 1 1 251 486 283
491 2 2 1 1 363 505 260
492 2 2 1 1 81 387 80
493 2 2 1 1 283 486 29
494 2 2 1 1 325 392 209
495 2 2 1 1 295 358 182
496 2 2 1 1 155 392 325
497 2 2 1 1 340 389 201
498 2 2 1 1 285 374 196
499 2 2 1 1 249 419 327
500 2 2 1 1 199 417 283
501 2 2 1 1 372 440 247
502 2 2 1 1 289 375 186
503 2 2 1 1 297 363 144
504 2 2 1 1 188 440 372
505 2 2 1 1 168 505 291
506 2 2 1 1 224 474 336
507 2 2 1 1 74 334 73
508 2 2 1 1 299 462 171
509 2 2 1 1 227 375 289
510 2 2 1 1 354 384 210
511 2 2 1 1 179 443 347
512 2 2 1 1 190 398 316
513 2 2 1 1 371 388 228
514 2 2 1 1 165 388 371
515 2 2 1 1 10 421 11
516 2 2 1 1 325 468 432
517 2 2 1 1 325 432 203
518 2 2 1 1 56 378 293
519 2 2 1 1 145 541 300
520 2 2 1 1 82 351 81
521 2 2 1 1 379 426 246
522 2 2 1 1 27 346 28
523 2 2 1 1 284 493 152
524 2 2 1 1 357 400 204
525 2 2 1 1 284 402 177
526 2 2 1 1 218 363 297
527 2 2 1 1 139 527 450
528 2 2 1 1 291 537 168
529 2 2 1 1 230 537 291
530 2 2 1 1 330 445 175
531 2 2 1 1 227 445 330
532 2 2 1 1 149 386 291
533 2 2 1 1 377 427 240
534 2 2 1 1 290 459 214
535 2 2 1 1 235 455 343
536 2 2 1 1 414 540 275
537 2 2 1 1 287 495 138
538 2 2 1 1 430 471 213
539 2 2 1 1 236 535 308
540 2 2 1 1 356 382 209
541 2 2 1 1 213 472 299
542 2 2 1 1 8 473 466
543 2 2 1 1 53 350 52
544 2 2 1 1 138 506 305
545 2 2 1 1 299 472 151
546 2 2 1 1 161 529 440
547 2 2 1 1 192 457 294
548 2 2 1 1 466 473 280
549 2 2 1 1 85 459 290
550 2 2 1 1 193 538 300
551 2 2 1 1 384 527 139
552 2 2 1 1 12 515 309
553 2 2 1 1 321 355 233
554 2 2 1 1 36 480 58
555 2 2 1 1 424 483 164
556 2 2 1 1 168 537 296
557 2 2 1 1 290 512 212
558 2 2 1 1 68 524 67
559 2 2 1 1 153 454 304
560 2 2 1 1 191 451 342
561 2 2 1 1 216 516 320
562 2 2 1 1 57 378 56
563 2 2 1 1 233 461 446
564 2 2 1 1 388 489 318
565 2 2 1 1 27 460 346
566 2 2 1 1 325 391 155
567 2 2 1 1 296 537 230
568 2 2 1 1 13 409 14
569 2 2 1 1 277 518 492
570 2 2 1 1 203 391 325
571 2 2 1 1 50 498 49
572 2 2 1 1 307 458 147
573 2 2 1 1 252 483 424
574 2 2 1 1 157 439 410
575 2 2 1 1 288 473 7
576 2 2 1 1 410 439 250
577 2 2 1 1 403 483 236
578 2 2 1 1 147 531 307
579 2 2 1 1 230 460 296
580 2 2 1 1 18 374 19
581 2 2 1 1 296 460 26
582 2 2 1 1 240 452 315
583 2 2 1 1 332 402 222
584 2 2 1 1 209 392 322
585 2 2 1 1 21 516 22
586 2 2 1 1 177 402 332
587 2 2 1 1 326 508 173
588 2 2 1 1 346 460 230
589 2 2 1 1 322 380 139
590 2 2 1 1 170 514 297
591 2 2 1 1 74 438 334
592 2 2 1 1 47 479 46
593 2 2 1 1 201 453 340
594 2 2 1 1 353 524 68
595 2 2 1 1 234 508 326
596 2 2 1 1 49 498 345
597 2 2 1 1 163 481 423
598 2 2 1 1 350 478 52
599 2 2 1 1 306 383 34
600 2 2 1 1 183 458 307
601 2 2 1 1 66 381 308
602 2 2 1 1 319 511 231
603 2 2 1 1 331 534 152
604 2 2 1 1 79 511 319
605 2 2 1 1 286 462 351
606 2 2 1 1 297 514 218
607 2 2 1 1 310 425 229
608 2 2 1 1 341 394 187
609 2 2 1 1 28 418 29
610 2 2 1 1 196 532 314
611 2 2 1 1 67 381 66
612 2 2 1 1 143 499 310
613 2 2 1 1 151 475 298
614 2 2 1 1 415 517 220
615 2 2 1 1 186 375 323
616 2 2 1 1 298 475 208
617 2 2 1 1 277 492 316
618 2 2 1 1 59 477 2
619 2 2 1 1 352 391 203
620 2 2 1 1 223 391 352
621 2 2 1 1 72 370 71
622 2 2 1 1 2 477 41
623 2 2 1 1 235 478 350
624 2 2 1 1 336 474 178
625 2 2 1 1 405 521 205
626 2 2 1 1 217 433 345
627 2 2 1 1 197 411 301
628 2 2 1 1 300 538 173
629 2 2 1 1 345 433 188
630 2 2 1 1 177 400 305
631 2 2 1 1 423 481 258
632 2 2 1 1 306 407 184
633 2 2 1 1 492 518 167
634 2 2 1 1 210 380 323
635 2 2 1 1 215 407 306
636 2 2 1 1 382 468 209
637 2 2 1 1 300 541 193
638 2 2 1 1 172 463 298
639 2 2 1 1 176 487 333
640 2 2 1 1 316 398 148
641 2 2 1 1 157 410 315
642 2 2 1 1 438 497 334
643 2 2 1 1 34 383 35
644 2 2 1 1 353 385 221
645 2 2 1 1 202 385 353
646 2 2 1 1 333 487 226
647 2 2 1 1 217 498 343
648 2 2 1 1 309 409 13
649 2 2 1 1 188 372 345
650 2 2 1 1 204 447 390
651 2 2 1 1 137 510 318
652 2 2 1 1 242 517 415
653 2 2 1 1 271 529 395
654 2 2 1 1 365 461 233
655 2 2 1 1 69 444 68
656 2 2 1 1 416 533 277
657 2 2 1 1 29 486 30
658 2 2 1 1 356 450 198
659 2 2 1 1 175 445 403
660 2 2 1 1 403 445 244
661 2 2 1 1 303 451 228
662 2 2 1 1 205 521 428
663 2 2 1 1 308 491 175
664 2 2 1 1 22 516 470
665 2 2 1 1 17 503 18
666 2 2 1 1 189 506 302
667 2 2 1 1 199 418 346
668 2 2 1 1 40 502 317
669 2 2 1 1 157 512 439
670 2 2 1 1 379 488 165
671 2 2 1 1 161 453 377
672 2 2 1 1 246 488 379
673 2 2 1 1 485 534 331
674 2 2 1 1 198 533 416
675 2 2 1 1 147 458 362
676 2 2 1 1 176 504 309
677 2 2 1 1 317 502 243
678 2 2 1 1 339 392 155
679 2 2 1 1 178 474 304
680 2 2 1 1 370 539 71
681 2 2 1 1 248 429 342
682 2 2 1 1 142 448 405
683 2 2 1 1 405 448 241
684 2 2 1 1 165 540 379
685 2 2 1 1 202 419 324
686 2 2 1 1 310 443 179
687 2 2 1 1 324 419 159
688 2 2 1 1 239 526 328
689 2 2 1 1 330 491 221
690 2 2 1 1 175 491 330
691 2 2 1 1 328 526 24
692 2 2 1 1 242 415 336
693 2 2 1 1 400 447 204
694 2 2 1 1 307 531 194
695 2 2 1 1 7 473 8
696 2 2 1 1 332 494 143
697 2 2 1 1 222 494 332
698 2 2 1 1 198 382 356
699 2 2 1 1 440 529 247
700 2 2 1 1 184 407 335
701 2 2 1 1 156 425 321
702 2 2 1 1 68 444 353
703 2 2 1 1 197 384 354
704 2 2 1 1 315 452 232
705 2 2 1 1 244 500 484
706 2 2 1 1 329 499 143
707 2 2 1 1 333 504 176
708 2 2 1 1 432 468 160
709 2 2 1 1 327 419 202
710 2 2 1 1 15 431 16
711 2 2 1 1 165 488 388
712 2 2 1 1 314 476 185
713 2 2 1 1 223 504 333
714 2 2 1 1 388 488 245
715 2 2 1 1 32 456 33
716 2 2 1 1 194 531 396
717 2 2 1 1 396 531 267
718 2 2 1 1 313 490 153
719 2 2 1 1 62 437 61
720 2 2 1 1 166 501 311
721 2 2 1 1 153 522 313
722 2 2 1 1 313 523 174
723 2 2 1 1 338 431 203
724 2 2 1 1 314 532 148
725 2 2 1 1 318 489 137
726 2 2 1 1 336 415 144
727 2 2 1 1 200 414 397
728 2 2 1 1 397 414 269
729 2 2 1 1 446 461 220
730 2 2 1 1 311 510 263
731 2 2 1 1 16 431 338
732 2 2 1 1 204 434 357
733 2 2 1 1 154 464 323
734 2 2 1 1 323 464 210
735 2 2 1 1 229 425 390
736 2 2 1 1 390 425 156
737 2 2 1 1 46 435 45
738 2 2 1 1 202 444 327
739 2 2 1 1 86 459 85
740 2 2 1 1 38 465 326
741 2 2 1 1 371 451 191
742 2 2 1 1 450 533 198
743 2 2 1 1 228 451 371
744 2 2 1 1 205 428 364
745 2 2 1 1 364 428 273
746 2 2 1 1 327 444 69
747 2 2 1 1 341 456 32
748 2 2 1 1 75 438 74
749 2 2 1 1 320 516 21
750 2 2 1 1 326 465 234
751 2 2 1 1 158 513 429
752 2 2 1 1 55 442 54
753 2 2 1 1 429 513 279
754 2 2 1 1 203 432 338
755 2 2 1 1 84 449 83
756 2 2 1 1 395 529 161
757 2 2 1 1 346 418 28
758 2 2 1 1 210 464 324
759 2 2 1 1 209 468 325
760 2 2 1 1 215 482 407
761 2 2 1 1 203 431 352
762 2 2 1 1 344 513 158
763 2 2 1 1 156 530 390
764 2 2 1 1 180 507 344
765 2 2 1 1 26 460 27
766 2 2 1 1 472 475 151
767 2 2 1 1 278 475 472
768 2 2 1 1 344 507 225
769 2 2 1 1 8 466 9
770 2 2 1 1 366 463 231
771 2 2 1 1 39 465 38
772 2 2 1 1 208 499 329
773 2 2 1 1 517 530 156
774 2 2 1 1 52 478 51
775 2 2 1 1 310 499 443
776 2 2 1 1 225 513 344
777 2 2 1 1 182 485 331
778 2 2 1 1 65 535 64
779 2 2 1 1 51 478 343
780 2 2 1 1 205 484 405
781 2 2 1 1 148 532 416
782 2 2 1 1 416 532 270
783 2 2 1 1 408 484 205
784 2 2 1 1 408 496 164
785 2 2 1 1 60 520 59
786 2 2 1 1 215 456 341
787 2 2 1 1 343 478 235
788 2 2 1 1 352 431 15
789 2 2 1 1 343 455 217
790 2 2 1 1 349 528 187
791 2 2 1 1 334 497 183
792 2 2 1 1 80 511 79
793 2 2 1 1 484 500 142
794 2 2 1 1 41 502 40
795 2 2 1 1 353 444 202
796 2 2 1 1 389 501 253
797 2 2 1 1 11 515 12
798 2 2 1 1 24 526 25
799 2 2 1 1 48 519 47
800 2 2 1 1 43 536 42
801 2 2 1 1 71 539 70
802 2 2 1 1 368 433 248
803 2 2 1 1 376 467 225
804 2 2 1 1 140 467 376
805 2 2 1 1 219 497 438
806 2 2 1 1 341 528 215
807 2 2 1 1 206 525 349
808 2 2 1 1 359 437 62
809 2 2 1 1 45 435 369
810 2 2 1 1 200 540 414
811 2 2 1 1 422 523 224
812 2 2 1 1 139 450 356
813 2 2 1 1 193 541 423
814 2 2 1 1 187 528 341
815 2 2 1 1 351 462 211
816 2 2 1 1 423 541 273
817 2 2 1 1 381 491 308
818 2 2 1 1 224 522 474
819 2 2 1 1 188 433 368
820 2 2 1 1 200 426 379
821 2 2 1 1 345 498 217
822 2 2 1 1 201 427 377
823 2 2 1 1 150 482 349
824 2 2 1 1 232 436 413
825 2 2 1 1 390 447 229
826 2 2 1 1 467 513 225
827 2 2 1 1 279 513 467
828 2 2 1 1 404 481 163
829 2 2 1 1 237 481 404
830 2 2 1 1 362 458 268
831 2 2 1 1 212 512 413
832 2 2 1 1 404 521 241
833 2 2 1 1 163 521 404
834 2 2 1 1 349 525 150
835 2 2 1 1 445 500 244
836 2 2 1 1 170 461 365
837 2 2 1 1 250 439 393
838 2 2 1 1 221 524 353
839 2 2 1 1 153 490 360
840 2 2 1 1 393 439 214
841 2 2 1 1 360 490 216
842 2 2 1 1 377 453 201
843 2 2 1 1 364 496 205
844 2 2 1 1 450 527 238
845 2 2 1 1 214 536 393
846 2 2 1 1 9 466 373
847 2 2 1 1 67 524 381
848 2 2 1 1 309 504 409
849 2 2 1 1 160 468 382
850 2 2 1 1 231 511 387
851 2 2 1 1 387 511 80
852 2 2 1 1 361 520 60
853 2 2 1 1 412 459 86
854 2 2 1 1 367 497 219
855 2 2 1 1 183 497 367
856 2 2 1 1 274 496 364
857 2 2 1 1 218 505 363
858 2 2 1 1 243 520 361
859 2 2 1 1 177 447 400
860 2 2 1 1 413 436 212
861 2 2 1 1 247 519 372
862 2 2 1 1 448 487 241
863 2 2 1 1 372 519 48
864 2 2 1 1 412 536 214
865 2 2 1 1 220 517 446
866 2 2 1 1 279 467 401
867 2 2 1 1 401 467 140
868 2 2 1 1 238 533 450
869 2 2 1 1 18 503 374
870 2 2 1 1 272 476 398
871 2 2 1 1 247 529 479
872 2 2 1 1 479 529 271
873 2 2 1 1 221 491 381
874 2 2 1 1 241 521 405
875 2 2 1 1 405 484 142
876 2 2 1 1 245 489 388
877 2 2 1 1 482 528 349
878 2 2 1 1 214 459 412
879 2 2 1 1 381 524 221
880 2 2 1 1 420 483 252
881 2 2 1 1 205 496 408
882 2 2 1 1 244 484 408
883 2 2 1 1 379 540 200
884 2 2 1 1 204 530 434
885 2 2 1 1 434 530 242
886 2 2 1 1 197 527 384
887 2 2 1 1 393 536 43
888 2 2 1 1 258 481 421
889 2 2 1 1 421 481 237
890 2 2 1 1 64 535 420
891 2 2 1 1 236 483 420
892 2 2 1 1 390 530 204
893 2 2 1 1 237 515 421
894 2 2 1 1 421 515 11
895 2 2 1 1 218 514 399
896 2 2 1 1 409 504 223
897 2 2 1 1 471 472 213
898 2 2 1 1 278 472 471
899 2 2 1 1 443 499 208
900 2 2 1 1 413 512 157
901 2 2 1 1 402 534 222
902 2 2 1 1 242 530 517
903 2 2 1 1 470 516 216
904 2 2 1 1 477 502 41
905 2 2 1 1 222 534 485
906 2 2 1 1 226 487 448
907 2 2 1 1 42 536 412
908 2 2 1 1 243 502 477
909 2 2 1 1 227 500 445
910 2 2 1 1 234 509 508
911 2 2 1 1 428 521 163
912 2 2 1 1 477 520 243
913 2 2 1 1 508 509 254
914 2 2 1 1 420 535 236
915 2 2 1 1 59 520 477
916 2 2 1 1 47 519 479
917 2 2 1 1 479 519 247
918 2 2 1 1 446 517 156
919 2 2 1 1 224 523 522
920 2 2 1 1 522 523 313
921 2 2 1 1 215 528 482
922 2 2 1 1 277 533 518
923 2 2 1 1 518 533 238
924 2 2 1 2 559 780 632
925 2 2 1 2 586 708 633
926 2 2 1 2 572 707 669
927 2 2 1 2 670 707 572
928 2 2 1 2 704 771 616
929 2 2 1 2 635 791 604
930 2 2 1 2 656 688 567
931 2 2 1 2 542 770 638
932 2 2 1 2 632 735 559
933 2 2 1 2 571 876 658
934 2 2 1 2 633 723 586
935 2 2 1 2 611 754 742
936 2 2 1 2 650 893 575
937 2 2 1 2 575 893 651
938 2 2 1 2 631 744 738
939 2 2 1 2 738 744 560
940 2 2 1 2 545 781 674
941 2 2 1 2 674 781 611
942 2 2 1 2 658 876 835
943 2 2 1 2 634 737 548
944 2 2 1 2 548 715 634
945 2 2 1 2 645 720 600
946 2 2 1 2 690 725 23
947 2 2 1 2 602 759 672
948 2 2 1 2 29 814 757
949 2 2 1 2 604 751 635
950 2 2 1 2 670 816 552
951 2 2 1 2 556 771 704
952 2 2 1 2 725 765 621
953 2 2 1 2 640 755 585
954 2 2 1 2 590 765 725
955 2 2 1 2 706 816 670
956 2 2 1 2 659 699 550
957 2 2 1 2 672 759 564
958 2 2 1 2 700 843 120
959 2 2 1 2 581 714 642
960 2 2 1 2 757 814 628
961 2 2 1 2 622 860 653
962 2 2 1 2 656 799 13
963 2 2 1 2 653 860 563
964 2 2 1 2 132 693 4
965 2 2 1 2 742 754 592
966 2 2 1 2 685 693 578
967 2 2 1 2 555 753 740
968 2 2 1 2 623 804 696
969 2 2 1 2 596 747 684
970 2 2 1 2 660 699 574
971 2 2 1 2 4 693 36
972 2 2 1 2 123 662 122
973 2 2 1 2 557 772 736
974 2 2 1 2 597 699 660
975 2 2 1 2 660 766 106
976 2 2 1 2 543 805 762
977 2 2 1 2 683 752 613
978 2 2 1 2 638 760 542
979 2 2 1 2 551 745 671
980 2 2 1 2 736 772 624
981 2 2 1 2 696 804 554
982 2 2 1 2 656 742 592
983 2 2 1 2 551 747 708
984 2 2 1 2 740 753 612
985 2 2 1 2 567 742 656
986 2 2 1 2 584 726 715
987 2 2 1 2 24 690 23
988 2 2 1 2 574 722 648
989 2 2 1 2 642 809 581
990 2 2 1 2 747 834 684
991 2 2 1 2 710 805 543
992 2 2 1 2 640 749 563
993 2 2 1 2 585 749 640
994 2 2 1 2 26 743 661
995 2 2 1 2 563 860 640
996 2 2 1 2 542 894 770
997 2 2 1 2 648 766 574
998 2 2 1 2 579 874 644
999 2 2 1 2 726 830 715
1000 2 2 1 2 747 856 708
1001 2 2 1 2 658 906 571
1002 2 2 1 2 121 700 120
1003 2 2 1 2 588 712 687
1004 2 2 1 2 687 712 599
1005 2 2 1 2 654 775 599
1006 2 2 1 2 655 798 89
1007 2 2 1 2 13 799 12
1008 2 2 1 2 692 859 595
1009 2 2 1 2 13 891 656
1010 2 2 1 2 713 808 641
1011 2 2 1 2 580 808 713
1012 2 2 1 2 709 859 692
1013 2 2 1 2 752 848 613
1014 2 2 1 2 574 766 660
1015 2 2 1 2 550 705 659
1016 2 2 1 2 666 890 587
1017 2 2 1 2 644 733 579
1018 2 2 1 2 579 827 665
1019 2 2 1 2 624 843 700
1020 2 2 1 2 770 894 650
1021 2 2 1 2 756 792 126
1022 2 2 1 2 590 725 690
1023 2 2 1 2 18 931 701
1024 2 2 1 2 611 742 674
1025 2 2 1 2 685 878 693
1026 2 2 1 2 729 869 790
1027 2 2 1 2 694 853 547
1028 2 2 1 2 705 913 659
1029 2 2 1 2 578 913 705
1030 2 2 1 2 12 799 746
1031 2 2 1 2 12 746 11
1032 2 2 1 2 132 731 693
1033 2 2 1 2 722 870 134
1034 2 2 1 2 646 892 809
1035 2 2 1 2 809 892 581
1036 2 2 1 2 569 808 649
1037 2 2 1 2 717 841 637
1038 2 2 1 2 699 914 574
1039 2 2 1 2 595 721 669
1040 2 2 1 2 600 800 645
1041 2 2 1 2 659 914 699
1042 2 2 1 2 669 707 543
1043 2 2 1 2 662 724 577
1044 2 2 1 2 89 774 655
1045 2 2 1 2 577 734 666
1046 2 2 1 2 108 825 657
1047 2 2 1 2 660 842 597
1048 2 2 1 2 572 706 670
1049 2 2 1 2 701 874 573
1050 2 2 1 2 645 832 546
1051 2 2 1 2 20 875 667
1052 2 2 1 2 627 890 666
1053 2 2 1 2 665 874 579
1054 2 2 1 2 644 874 701
1055 2 2 1 2 621 895 667
1056 2 2 1 2 576 841 717
1057 2 2 1 2 106 766 105
1058 2 2 1 2 667 733 20
1059 2 2 1 2 123 724 662
1060 2 2 1 2 844 917 619
1061 2 2 1 2 690 719 590
1062 2 2 1 2 601 719 690
1063 2 2 1 2 33 778 663
1064 2 2 1 2 745 858 671
1065 2 2 1 2 631 853 694
1066 2 2 1 2 18 701 17
1067 2 2 1 2 651 831 554
1068 2 2 1 2 619 917 695
1069 2 2 1 2 651 919 575
1070 2 2 1 2 657 764 108
1071 2 2 1 2 729 790 607
1072 2 2 1 2 579 928 827
1073 2 2 1 2 675 787 603
1074 2 2 1 2 546 857 645
1075 2 2 1 2 587 846 666
1076 2 2 1 2 118 687 117
1077 2 2 1 2 594 707 670
1078 2 2 1 2 701 931 644
1079 2 2 1 2 649 813 569
1080 2 2 1 2 699 862 550
1081 2 2 1 2 668 760 584
1082 2 2 1 2 563 834 653
1083 2 2 1 2 717 857 546
1084 2 2 1 2 653 838 622
1085 2 2 1 2 740 812 555
1086 2 2 1 2 586 906 794
1087 2 2 1 2 133 731 132
1088 2 2 1 2 653 747 551
1089 2 2 1 2 554 804 651
1090 2 2 1 2 727 797 591
1091 2 2 1 2 716 906 586
1092 2 2 1 2 564 824 654
1093 2 2 1 2 598 871 685
1094 2 2 1 2 812 887 555
1095 2 2 1 2 586 745 708
1096 2 2 1 2 565 787 675
1097 2 2 1 2 135 722 134
1098 2 2 1 2 696 791 635
1099 2 2 1 2 130 695 129
1100 2 2 1 2 720 818 562
1101 2 2 1 2 692 762 583
1102 2 2 1 2 575 770 650
1103 2 2 1 2 637 818 720
1104 2 2 1 2 571 716 668
1105 2 2 1 2 667 718 579
1106 2 2 1 2 616 792 756
1107 2 2 1 2 661 837 565
1108 2 2 1 2 667 895 718
1109 2 2 1 2 27 743 26
1110 2 2 1 2 698 740 612
1111 2 2 1 2 662 763 122
1112 2 2 1 2 96 748 95
1113 2 2 1 2 666 734 548
1114 2 2 1 2 612 753 697
1115 2 2 1 2 601 908 661
1116 2 2 1 2 704 717 618
1117 2 2 1 2 548 899 666
1118 2 2 1 2 697 753 585
1119 2 2 1 2 666 899 627
1120 2 2 1 2 576 717 704
1121 2 2 1 2 21 875 20
1122 2 2 1 2 585 755 697
1123 2 2 1 2 589 740 698
1124 2 2 1 2 664 788 589
1125 2 2 1 2 564 759 729
1126 2 2 1 2 729 759 615
1127 2 2 1 2 637 857 717
1128 2 2 1 2 741 839 647
1129 2 2 1 2 10 711 9
1130 2 2 1 2 583 839 741
1131 2 2 1 2 604 791 681
1132 2 2 1 2 586 794 745
1133 2 2 1 2 586 723 716
1134 2 2 1 2 664 885 8
1135 2 2 1 2 544 761 727
1136 2 2 1 2 589 783 664
1137 2 2 1 2 639 870 722
1138 2 2 1 2 702 820 625
1139 2 2 1 2 551 773 653
1140 2 2 1 2 727 761 614
1141 2 2 1 2 668 752 571
1142 2 2 1 2 720 815 600
1143 2 2 1 2 549 820 702
1144 2 2 1 2 99 697 98
1145 2 2 1 2 579 733 667
1146 2 2 1 2 658 832 606
1147 2 2 1 2 688 822 567
1148 2 2 1 2 128 691 127
1149 2 2 1 2 599 801 654
1150 2 2 1 2 546 832 658
1151 2 2 1 2 101 698 100
1152 2 2 1 2 654 801 564
1153 2 2 1 2 781 912 686
1154 2 2 1 2 591 797 744
1155 2 2 1 2 592 799 656
1156 2 2 1 2 682 721 553
1157 2 2 1 2 741 827 629
1158 2 2 1 2 102 885 664
1159 2 2 1 2 703 734 577
1160 2 2 1 2 658 835 546
1161 2 2 1 2 681 791 554
1162 2 2 1 2 10 861 711
1163 2 2 1 2 665 910 573
1164 2 2 1 2 663 826 33
1165 2 2 1 2 615 789 785
1166 2 2 1 2 778 871 598
1167 2 2 1 2 582 710 689
1168 2 2 1 2 600 840 676
1169 2 2 1 2 583 709 692
1170 2 2 1 2 89 798 88
1171 2 2 1 2 577 846 662
1172 2 2 1 2 571 752 683
1173 2 2 1 2 695 854 129
1174 2 2 1 2 611 781 686
1175 2 2 1 2 578 943 685
1176 2 2 1 2 630 912 781
1177 2 2 1 2 543 900 669
1178 2 2 1 2 547 905 694
1179 2 2 1 2 686 753 555
1180 2 2 1 2 587 763 662
1181 2 2 1 2 662 846 587
1182 2 2 1 2 689 911 594
1183 2 2 1 2 735 790 559
1184 2 2 1 2 674 742 567
1185 2 2 1 2 94 777 93
1186 2 2 1 2 626 790 735
1187 2 2 1 2 606 794 658
1188 2 2 1 2 669 897 572
1189 2 2 1 2 616 867 704
1190 2 2 1 2 545 819 680
1191 2 2 1 2 591 744 694
1192 2 2 1 2 573 874 665
1193 2 2 1 2 657 829 764
1194 2 2 1 2 694 744 631
1195 2 2 1 2 664 783 102
1196 2 2 1 2 672 816 602
1197 2 2 1 2 764 829 597
1198 2 2 1 2 106 842 660
1199 2 2 1 2 748 903 95
1200 2 2 1 2 724 868 577
1201 2 2 1 2 703 771 556
1202 2 2 1 2 666 846 577
1203 2 2 1 2 750 777 94
1204 2 2 1 2 597 842 764
1205 2 2 1 2 549 768 665
1206 2 2 1 2 574 914 722
1207 2 2 1 2 118 739 687
1208 2 2 1 2 687 739 588
1209 2 2 1 2 565 811 661
1210 2 2 1 2 550 769 678
1211 2 2 1 2 679 769 550
1212 2 2 1 2 661 811 601
1213 2 2 1 2 560 796 738
1214 2 2 1 2 738 796 628
1215 2 2 1 2 617 841 691
1216 2 2 1 2 691 841 576
1217 2 2 1 2 661 908 26
1218 2 2 1 2 552 767 670
1219 2 2 1 2 584 752 668
1220 2 2 1 2 670 767 594
1221 2 2 1 2 109 825 108
1222 2 2 1 2 774 815 655
1223 2 2 1 2 546 835 717
1224 2 2 1 2 600 815 774
1225 2 2 1 2 566 845 671
1226 2 2 1 2 598 828 778
1227 2 2 1 2 20 733 19
1228 2 2 1 2 111 713 110
1229 2 2 1 2 677 803 595
1230 2 2 1 2 778 828 663
1231 2 2 1 2 710 911 689
1232 2 2 1 2 687 775 117
1233 2 2 1 2 549 827 741
1234 2 2 1 2 667 875 621
1235 2 2 1 2 728 780 559
1236 2 2 1 2 1 7 103
1237 2 2 1 2 593 773 671
1238 2 2 1 2 599 775 687
1239 2 2 1 2 654 944 775
1240 2 2 1 2 603 821 675
1241 2 2 1 2 617 854 695
1242 2 2 1 2 636 868 724
1243 2 2 1 2 34 778 33
1244 2 2 1 2 677 765 590
1245 2 2 1 2 694 905 632
1246 2 2 1 2 665 827 549
1247 2 2 1 2 693 731 578
1248 2 2 1 2 671 773 551
1249 2 2 1 2 584 760 726
1250 2 2 1 2 594 767 673
1251 2 2 1 2 669 900 595
1252 2 2 1 2 700 736 624
1253 2 2 1 2 572 923 706
1254 2 2 1 2 673 898 594
1255 2 2 1 2 698 783 589
1256 2 2 1 2 671 858 566
1257 2 2 1 2 557 939 689
1258 2 2 1 2 588 772 673
1259 2 2 1 2 585 753 686
1260 2 2 1 2 557 898 772
1261 2 2 1 2 676 800 600
1262 2 2 1 2 569 888 808
1263 2 2 1 2 121 763 700
1264 2 2 1 2 558 765 677
1265 2 2 1 2 790 869 559
1266 2 2 1 2 91 884 676
1267 2 2 1 2 634 852 737
1268 2 2 1 2 115 944 732
1269 2 2 1 2 555 930 686
1270 2 2 1 2 671 845 593
1271 2 2 1 2 772 898 673
1272 2 2 1 2 99 847 697
1273 2 2 1 2 785 789 544
1274 2 2 1 2 8 788 664
1275 2 2 1 2 590 881 677
1276 2 2 1 2 678 946 550
1277 2 2 1 2 552 816 672
1278 2 2 1 2 638 851 726
1279 2 2 1 2 124 724 123
1280 2 2 1 2 762 839 583
1281 2 2 1 2 29 757 28
1282 2 2 1 2 672 936 552
1283 2 2 1 2 115 732 114
1284 2 2 1 2 782 800 566
1285 2 2 1 2 726 851 561
1286 2 2 1 2 686 912 585
1287 2 2 1 2 673 863 588
1288 2 2 1 2 645 800 782
1289 2 2 1 2 698 847 100
1290 2 2 1 2 681 822 604
1291 2 2 1 2 680 776 596
1292 2 2 1 2 696 910 623
1293 2 2 1 2 90 774 89
1294 2 2 1 2 677 859 558
1295 2 2 1 2 553 881 719
1296 2 2 1 2 564 801 672
1297 2 2 1 2 570 776 680
1298 2 2 1 2 591 785 727
1299 2 2 1 2 674 819 545
1300 2 2 1 2 728 785 591
1301 2 2 1 2 706 923 643
1302 2 2 1 2 595 859 677
1303 2 2 1 2 675 937 601
1304 2 2 1 2 596 806 680
1305 2 2 1 2 587 736 700
1306 2 2 1 2 589 788 711
1307 2 2 1 2 8 885 7
1308 2 2 1 2 613 734 703
1309 2 2 1 2 676 840 91
1310 2 2 1 2 709 927 558
1311 2 2 1 2 550 862 679
1312 2 2 1 2 87 817 5
1313 2 2 1 2 679 862 597
1314 2 2 1 2 567 802 674
1315 2 2 1 2 717 835 618
1316 2 2 1 2 601 811 675
1317 2 2 1 2 675 811 565
1318 2 2 1 2 31 714 30
1319 2 2 1 2 679 829 569
1320 2 2 1 2 804 919 651
1321 2 2 1 2 128 854 691
1322 2 2 1 2 711 861 620
1323 2 2 1 2 722 914 639
1324 2 2 1 2 702 866 575
1325 2 2 1 2 691 854 617
1326 2 2 1 2 771 792 616
1327 2 2 1 2 681 831 605
1328 2 2 1 2 636 792 771
1329 2 2 1 2 5 817 131
1330 2 2 1 2 680 945 570
1331 2 2 1 2 554 831 681
1332 2 2 1 2 568 828 678
1333 2 2 1 2 108 764 107
1334 2 2 1 2 697 847 612
1335 2 2 1 2 625 866 702
1336 2 2 1 2 569 901 679
1337 2 2 1 2 613 880 683
1338 2 2 1 2 684 806 596
1339 2 2 1 2 723 915 716
1340 2 2 1 2 685 943 598
1341 2 2 1 2 683 876 571
1342 2 2 1 2 605 802 681
1343 2 2 1 2 691 756 127
1344 2 2 1 2 633 793 723
1345 2 2 1 2 732 944 654
1346 2 2 1 2 879 927 709
1347 2 2 1 2 612 847 698
1348 2 2 1 2 680 806 545
1349 2 2 1 2 737 852 582
1350 2 2 1 2 597 829 679
1351 2 2 1 2 681 802 567
1352 2 2 1 2 678 833 568
1353 2 2 1 2 779 908 601
1354 2 2 1 2 803 881 553
1355 2 2 1 2 23 725 22
1356 2 2 1 2 697 755 98
1357 2 2 1 2 743 837 661
1358 2 2 1 2 14 823 688
1359 2 2 1 2 543 762 692
1360 2 2 1 2 576 867 691
1361 2 2 1 2 24 779 690
1362 2 2 1 2 708 745 551
1363 2 2 1 2 122 763 121
1364 2 2 1 2 713 940 110
1365 2 2 1 2 567 822 681
1366 2 2 1 2 553 821 682
1367 2 2 1 2 703 868 771
1368 2 2 1 2 721 897 669
1369 2 2 1 2 707 911 543
1370 2 2 1 2 688 823 604
1371 2 2 1 2 668 915 760
1372 2 2 1 2 594 898 689
1373 2 2 1 2 760 915 542
1374 2 2 1 2 706 932 602
1375 2 2 1 2 643 932 706
1376 2 2 1 2 714 920 642
1377 2 2 1 2 689 939 807
1378 2 2 1 2 774 840 600
1379 2 2 1 2 595 900 692
1380 2 2 1 2 103 885 102
1381 2 2 1 2 686 930 611
1382 2 2 1 2 656 891 688
1383 2 2 1 2 768 910 665
1384 2 2 1 2 126 792 125
1385 2 2 1 2 688 891 14
1386 2 2 1 2 730 797 614
1387 2 2 1 2 700 763 587
1388 2 2 1 2 560 797 730
1389 2 2 1 2 745 794 606
1390 2 2 1 2 690 779 601
1391 2 2 1 2 654 824 732
1392 2 2 1 2 604 822 688
1393 2 2 1 2 777 845 652
1394 2 2 1 2 694 780 591
1395 2 2 1 2 702 768 549
1396 2 2 1 2 593 845 777
1397 2 2 1 2 573 910 696
1398 2 2 1 2 629 879 741
1399 2 2 1 2 119 739 118
1400 2 2 1 2 704 867 576
1401 2 2 1 2 632 780 694
1402 2 2 1 2 759 789 615
1403 2 2 1 2 584 848 752
1404 2 2 1 2 595 803 721
1405 2 2 1 2 776 793 633
1406 2 2 1 2 570 793 776
1407 2 2 1 2 33 826 32
1408 2 2 1 2 730 873 837
1409 2 2 1 2 730 837 608
1410 2 2 1 2 101 783 698
1411 2 2 1 2 550 946 705
1412 2 2 1 2 127 756 126
1413 2 2 1 2 784 831 651
1414 2 2 1 2 16 751 15
1415 2 2 1 2 689 898 557
1416 2 2 1 2 762 805 609
1417 2 2 1 2 689 807 582
1418 2 2 1 2 623 768 702
1419 2 2 1 2 544 932 855
1420 2 2 1 2 696 942 573
1421 2 2 1 2 635 942 696
1422 2 2 1 2 735 850 580
1423 2 2 1 2 632 850 735
1424 2 2 1 2 554 791 696
1425 2 2 1 2 782 832 645
1426 2 2 1 2 695 864 619
1427 2 2 1 2 640 860 748
1428 2 2 1 2 819 945 680
1429 2 2 1 2 692 900 543
1430 2 2 1 2 835 876 618
1431 2 2 1 2 641 940 713
1432 2 2 1 2 761 787 614
1433 2 2 1 2 618 877 704
1434 2 2 1 2 35 878 871
1435 2 2 1 2 98 755 97
1436 2 2 1 2 543 911 710
1437 2 2 1 2 704 877 556
1438 2 2 1 2 566 934 845
1439 2 2 1 2 597 862 699
1440 2 2 1 2 871 878 685
1441 2 2 1 2 130 864 695
1442 2 2 1 2 598 943 705
1443 2 2 1 2 789 932 544
1444 2 2 1 2 31 920 714
1445 2 2 1 2 726 760 638
1446 2 2 1 2 7 885 103
1447 2 2 1 2 829 888 569
1448 2 2 1 2 573 942 701
1449 2 2 1 2 695 917 617
1450 2 2 1 2 113 929 112
1451 2 2 1 2 558 859 709
1452 2 2 1 2 596 856 747
1453 2 2 1 2 621 921 725
1454 2 2 1 2 102 783 101
1455 2 2 1 2 638 866 851
1456 2 2 1 2 793 894 723
1457 2 2 1 2 16 865 751
1458 2 2 1 2 730 796 560
1459 2 2 1 2 701 942 635
1460 2 2 1 2 30 814 29
1461 2 2 1 2 682 923 897
1462 2 2 1 2 608 796 730
1463 2 2 1 2 95 903 94
1464 2 2 1 2 712 863 552
1465 2 2 1 2 657 888 829
1466 2 2 1 2 562 844 815
1467 2 2 1 2 693 878 36
1468 2 2 1 2 815 844 655
1469 2 2 1 2 808 888 641
1470 2 2 1 2 552 936 712
1471 2 2 1 2 635 865 701
1472 2 2 1 2 25 779 24
1473 2 2 1 2 701 865 17
1474 2 2 1 2 645 857 720
1475 2 2 1 2 737 807 627
1476 2 2 1 2 614 797 727
1477 2 2 1 2 22 921 21
1478 2 2 1 2 582 807 737
1479 2 2 1 2 731 913 578
1480 2 2 1 2 751 865 635
1481 2 2 1 2 727 785 544
1482 2 2 1 2 575 919 702
1483 2 2 1 2 119 843 739
1484 2 2 1 2 92 884 91
1485 2 2 1 2 606 858 745
1486 2 2 1 2 758 929 113
1487 2 2 1 2 639 913 731
1488 2 2 1 2 94 903 750
1489 2 2 1 2 568 886 828
1490 2 2 1 2 755 883 97
1491 2 2 1 2 711 788 9
1492 2 2 1 2 588 863 712
1493 2 2 1 2 111 786 713
1494 2 2 1 2 724 916 636
1495 2 2 1 2 736 939 557
1496 2 2 1 2 124 916 724
1497 2 2 1 2 691 867 756
1498 2 2 1 2 702 919 623
1499 2 2 1 2 715 830 634
1500 2 2 1 2 746 799 592
1501 2 2 1 2 15 823 14
1502 2 2 1 2 601 937 719
1503 2 2 1 2 112 786 111
1504 2 2 1 2 548 904 715
1505 2 2 1 2 556 880 703
1506 2 2 1 2 820 922 625
1507 2 2 1 2 591 780 728
1508 2 2 1 2 703 880 613
1509 2 2 1 2 682 897 721
1510 2 2 1 2 104 882 6
1511 2 2 1 2 757 796 608
1512 2 2 1 2 628 796 757
1513 2 2 1 2 117 775 116
1514 2 2 1 2 6 882 136
1515 2 2 1 2 640 883 755
1516 2 2 1 2 741 879 583
1517 2 2 1 2 810 926 610
1518 2 2 1 2 622 838 750
1519 2 2 1 2 602 816 706
1520 2 2 1 2 705 943 578
1521 2 2 1 2 750 838 593
1522 2 2 1 2 582 805 710
1523 2 2 1 2 828 886 663
1524 2 2 1 2 711 812 589
1525 2 2 1 2 897 923 572
1526 2 2 1 2 615 785 728
1527 2 2 1 2 620 812 711
1528 2 2 1 2 787 873 614
1529 2 2 1 2 705 946 598
1530 2 2 1 2 577 868 703
1531 2 2 1 2 581 892 738
1532 2 2 1 2 721 803 553
1533 2 2 1 2 562 815 720
1534 2 2 1 2 843 902 739
1535 2 2 1 2 9 788 8
1536 2 2 1 2 758 790 626
1537 2 2 1 2 607 790 758
1538 2 2 1 2 738 892 631
1539 2 2 1 2 622 903 748
1540 2 2 1 2 714 814 30
1541 2 2 1 2 593 777 750
1542 2 2 1 2 609 852 795
1543 2 2 1 2 542 915 723
1544 2 2 1 2 647 922 820
1545 2 2 1 2 676 934 800
1546 2 2 1 2 770 866 638
1547 2 2 1 2 114 849 113
1548 2 2 1 2 821 938 682
1549 2 2 1 2 14 891 13
1550 2 2 1 2 761 855 603
1551 2 2 1 2 580 850 808
1552 2 2 1 2 808 850 649
1553 2 2 1 2 708 856 633
1554 2 2 1 2 610 926 833
1555 2 2 1 2 713 896 580
1556 2 2 1 2 21 921 875
1557 2 2 1 2 26 908 25
1558 2 2 1 2 594 911 707
1559 2 2 1 2 604 823 751
1560 2 2 1 2 135 907 722
1561 2 2 1 2 562 917 844
1562 2 2 1 2 784 893 570
1563 2 2 1 2 566 858 782
1564 2 2 1 2 651 893 784
1565 2 2 1 2 890 939 736
1566 2 2 1 2 603 938 821
1567 2 2 1 2 552 863 767
1568 2 2 1 2 581 909 714
1569 2 2 1 2 722 907 648
1570 2 2 1 2 744 797 560
1571 2 2 1 2 583 879 709
1572 2 2 1 2 775 944 116
1573 2 2 1 2 653 834 747
1574 2 2 1 2 547 853 810
1575 2 2 1 2 810 853 646
1576 2 2 1 2 570 945 784
1577 2 2 1 2 607 824 729
1578 2 2 1 2 715 848 584
1579 2 2 1 2 729 824 564
1580 2 2 1 2 644 931 733
1581 2 2 1 2 735 896 626
1582 2 2 1 2 580 896 735
1583 2 2 1 2 733 931 19
1584 2 2 1 2 647 820 741
1585 2 2 1 2 805 852 609
1586 2 2 1 2 712 936 599
1587 2 2 1 2 36 878 35
1588 2 2 1 2 737 899 548
1589 2 2 1 2 627 899 737
1590 2 2 1 2 603 787 761
1591 2 2 1 2 845 934 652
1592 2 2 1 2 589 812 740
1593 2 2 1 2 561 830 726
1594 2 2 1 2 113 849 758
1595 2 2 1 2 602 789 759
1596 2 2 1 2 720 857 637
1597 2 2 1 2 649 905 889
1598 2 2 1 2 734 904 548
1599 2 2 1 2 738 909 581
1600 2 2 1 2 837 873 565
1601 2 2 1 2 732 824 607
1602 2 2 1 2 28 836 27
1603 2 2 1 2 570 893 793
1604 2 2 1 2 719 881 590
1605 2 2 1 2 628 909 738
1606 2 2 1 2 793 893 650
1607 2 2 1 2 11 861 10
1608 2 2 1 2 599 936 801
1609 2 2 1 2 801 936 672
1610 2 2 1 2 718 895 558
1611 2 2 1 2 107 842 106
1612 2 2 1 2 571 906 716
1613 2 2 1 2 558 927 718
1614 2 2 1 2 718 928 579
1615 2 2 1 2 743 836 608
1616 2 2 1 2 719 937 553
1617 2 2 1 2 723 894 542
1618 2 2 1 2 741 820 549
1619 2 2 1 2 605 819 802
1620 2 2 1 2 802 819 674
1621 2 2 1 2 851 866 625
1622 2 2 1 2 716 915 668
1623 2 2 1 2 27 836 743
1624 2 2 1 2 609 839 762
1625 2 2 1 2 559 869 728
1626 2 2 1 2 728 869 615
1627 2 2 1 2 634 830 795
1628 2 2 1 2 795 830 561
1629 2 2 1 2 91 840 90
1630 2 2 1 2 607 849 732
1631 2 2 1 2 131 864 130
1632 2 2 1 2 133 870 731
1633 2 2 1 2 776 856 596
1634 2 2 1 2 855 938 603
1635 2 2 1 2 633 856 776
1636 2 2 1 2 610 833 769
1637 2 2 1 2 769 833 678
1638 2 2 1 2 732 849 114
1639 2 2 1 2 746 861 11
1640 2 2 1 2 120 843 119
1641 2 2 1 2 725 921 22
1642 2 2 1 2 731 870 639
1643 2 2 1 2 563 918 834
1644 2 2 1 2 100 847 99
1645 2 2 1 2 834 918 684
1646 2 2 1 2 608 837 743
1647 2 2 1 2 129 854 128
1648 2 2 1 2 800 934 566
1649 2 2 1 2 751 823 15
1650 2 2 1 2 615 869 729
1651 2 2 1 2 614 873 730
1652 2 2 1 2 620 887 812
1653 2 2 1 2 608 836 757
1654 2 2 1 2 749 918 563
1655 2 2 1 2 561 935 795
1656 2 2 1 2 585 912 749
1657 2 2 1 2 17 865 16
1658 2 2 1 2 877 880 556
1659 2 2 1 2 683 880 877
1660 2 2 1 2 749 912 630
1661 2 2 1 2 35 871 34
1662 2 2 1 2 771 868 636
1663 2 2 1 2 134 870 133
1664 2 2 1 2 613 904 734
1665 2 2 1 2 922 935 561
1666 2 2 1 2 97 883 96
1667 2 2 1 2 715 904 848
1668 2 2 1 2 630 918 749
1669 2 2 1 2 587 890 736
1670 2 2 1 2 110 940 109
1671 2 2 1 2 96 883 748
1672 2 2 1 2 610 889 810
1673 2 2 1 2 553 937 821
1674 2 2 1 2 821 937 675
1675 2 2 1 2 813 889 610
1676 2 2 1 2 813 901 569
1677 2 2 1 2 105 925 104
1678 2 2 1 2 620 861 746
1679 2 2 1 2 748 883 640
1680 2 2 1 2 757 836 28
1681 2 2 1 2 748 860 622
1682 2 2 1 2 754 933 592
1683 2 2 1 2 739 902 588
1684 2 2 1 2 125 916 124
1685 2 2 1 2 889 905 547
1686 2 2 1 2 136 907 135
1687 2 2 1 2 758 849 607
1688 2 2 1 2 794 906 658
1689 2 2 1 2 32 920 31
1690 2 2 1 2 19 931 18
1691 2 2 1 2 93 924 92
1692 2 2 1 2 88 941 87
1693 2 2 1 2 116 944 115
1694 2 2 1 2 773 838 653
1695 2 2 1 2 781 872 630
1696 2 2 1 2 545 872 781
1697 2 2 1 2 624 902 843
1698 2 2 1 2 746 933 620
1699 2 2 1 2 611 930 754
1700 2 2 1 2 764 842 107
1701 2 2 1 2 90 840 774
1702 2 2 1 2 605 945 819
1703 2 2 1 2 827 928 629
1704 2 2 1 2 544 855 761
1705 2 2 1 2 598 946 828
1706 2 2 1 2 592 933 746
1707 2 2 1 2 756 867 616
1708 2 2 1 2 828 946 678
1709 2 2 1 2 786 896 713
1710 2 2 1 2 629 927 879
1711 2 2 1 2 593 838 773
1712 2 2 1 2 605 831 784
1713 2 2 1 2 750 903 622
1714 2 2 1 2 606 832 782
1715 2 2 1 2 555 887 754
1716 2 2 1 2 637 841 818
1717 2 2 1 2 795 852 634
1718 2 2 1 2 872 918 630
1719 2 2 1 2 684 918 872
1720 2 2 1 2 809 886 568
1721 2 2 1 2 642 886 809
1722 2 2 1 2 767 863 673
1723 2 2 1 2 617 917 818
1724 2 2 1 2 809 926 646
1725 2 2 1 2 568 926 809
1726 2 2 1 2 754 930 555
1727 2 2 1 2 850 905 649
1728 2 2 1 2 575 866 770
1729 2 2 1 2 655 844 798
1730 2 2 1 2 626 929 758
1731 2 2 1 2 558 895 765
1732 2 2 1 2 798 844 619
1733 2 2 1 2 765 895 621
1734 2 2 1 2 782 858 606
1735 2 2 1 2 769 901 610
1736 2 2 1 2 855 932 643
1737 2 2 1 2 619 941 798
1738 2 2 1 2 34 871 778
1739 2 2 1 2 112 929 786
1740 2 2 1 2 714 909 814
1741 2 2 1 2 565 873 787
1742 2 2 1 2 636 916 792
1743 2 2 1 2 792 916 125
1744 2 2 1 2 766 925 105
1745 2 2 1 2 817 864 131
1746 2 2 1 2 772 902 624
1747 2 2 1 2 588 902 772
1748 2 2 1 2 679 901 769
1749 2 2 1 2 623 910 768
1750 2 2 1 2 648 925 766
1751 2 2 1 2 582 852 805
1752 2 2 1 2 818 841 617
1753 2 2 1 2 652 924 777
1754 2 2 1 2 853 892 646
1755 2 2 1 2 777 924 93
1756 2 2 1 2 817 941 619
1757 2 2 1 2 625 922 851
1758 2 2 1 2 684 872 806
1759 2 2 1 2 806 872 545
1760 2 2 1 2 643 938 855
1761 2 2 1 2 25 908 779
1762 2 2 1 2 677 881 803
1763 2 2 1 2 652 934 884
1764 2 2 1 2 884 934 676
1765 2 2 1 2 626 896 786
1766 2 2 1 2 646 926 810
1767 2 2 1 2 810 889 547
1768 2 2 1 2 650 894 793
1769 2 2 1 2 887 933 754
1770 2 2 1 2 619 864 817
1771 2 2 1 2 786 929 626
1772 2 2 1 2 825 888 657
1773 2 2 1 2 610 901 813
1774 2 2 1 2 649 889 813
1775 2 2 1 2 784 945 605
1776 2 2 1 2 609 935 839
1777 2 2 1 2 839 935 647
1778 2 2 1 2 602 932 789
1779 2 2 1 2 798 941 88
1780 2 2 1 2 663 886 826
1781 2 2 1 2 826 886 642
1782 2 2 1 2 109 940 825
1783 2 2 1 2 641 888 825
1784 2 2 1 2 795 935 609
1785 2 2 1 2 642 920 826
1786 2 2 1 2 826 920 32
1787 2 2 1 2 623 919 804
1788 2 2 1 2 814 909 628
1789 2 2 1 2 876 877 618
1790 2 2 1 2 683 877 876
1791 2 2 1 2 848 904 613
1792 2 2 1 2 818 917 562
1793 2 2 1 2 807 939 627
1794 2 2 1 2 647 935 922
1795 2 2 1 2 875 921 621
1796 2 2 1 2 882 907 136
1797 2 2 1 2 627 939 890
1798 2 2 1 2 631 892 853
1799 2 2 1 2 87 941 817
1800 2 2 1 2 648 907 882
1801 2 2 1 2 632 905 850
1802 2 2 1 2 639 914 913
1803 2 2 1 2 833 926 568
1804 2 2 1 2 882 925 648
1805 2 2 1 2 913 914 659
1806 2 2 1 2 825 940 641
1807 2 2 1 2 104 925 882
1808 2 2 1 2 92 924 884
1809 2 2 1 2 884 924 652
1810 2 2 1 2 851 922 561
1811 2 2 1 2 629 928 927
1812 2 2 1 2 927 928 718
1813 2 2 1 2 620 933 887
1814 2 2 1 2 682 938 923
1815 2 2 1 2 923 938 643
$EndElements
