# vtk DataFile Version 2.0
, Created by Gmsh 4.10.1 
ASCII
DATASET UNSTRUCTURED_GRID
POINTS 946 double
-5 -2 0
-5 -4 0
5 -4 0
5 2 0
-5 4 0
5 4 0
-4.67741935483871 -1.870967741935484 0
-4.35483870967742 -1.741935483870968 0
-4.03225806451613 -1.612903225806452 0
-3.70967741935484 -1.483870967741936 0
-3.387096774193549 -1.35483870967742 0
-3.064516129032259 -1.225806451612904 0
-2.741935483870969 -1.096774193548388 0
-2.419354838709679 -0.9677419354838717 0
-2.09677419354839 -0.8387096774193561 0
-1.7741935483871 -0.7096774193548403 0
-1.451612903225811 -0.5806451612903245 0
-1.129032258064522 -0.4516129032258092 0
-0.8064516129032322 -0.3225806451612931 0
-0.483870967741943 -0.1935483870967774 0
-0.1612903225806539 -0.06451612903226156 0
0.1612903225806361 0.06451612903225401 0
0.4838709677419271 0.1935483870967705 0
0.8064516129032189 0.3225806451612874 0
1.129032258064508 0.4516129032258029 0
1.4516129032258 0.5806451612903194 0
1.77419354838709 0.7096774193548359 0
2.096774193548381 0.8387096774193519 0
2.419354838709671 0.9677419354838679 0
2.741935483870962 1.096774193548384 0
3.064516129032253 1.225806451612901 0
3.387096774193544 1.354838709677417 0
3.709677419354835 1.483870967741934 0
4.032258064516126 1.61290322580645 0
4.354838709677418 1.741935483870967 0
4.67741935483871 1.870967741935484 0
-5 -2.333333333333333 0
-5 -2.666666666666665 0
-5 -2.999999999999997 0
-5 -3.333333333333329 0
-5 -3.666666666666664 0
5 -3.666666666666667 0
5 -3.333333333333333 0
5 -3.000000000000001 0
5 -2.666666666666668 0
5 -2.333333333333334 0
5 -2 0
5 -1.666666666666667 0
5 -1.333333333333333 0
5 -0.9999999999999996 0
5 -0.6666666666666652 0
5 -0.3333333333333313 0
5 1.77635683940025e-15 0
5 0.3333333333333357 0
5 0.6666666666666705 0
5 1.000000000000004 0
5 1.333333333333337 0
5 1.666666666666671 0
-4.655172413793104 -4 0
-4.310344827586208 -4 0
-3.965517241379311 -4 0
-3.620689655172415 -4 0
-3.275862068965519 -4 0
-2.931034482758623 -4 0
-2.586206896551726 -4 0
-2.24137931034483 -4 0
-1.896551724137935 -4 0
-1.55172413793104 -4 0
-1.206896551724145 -4 0
-0.86206896551725 -4 0
-0.517241379310355 -4 0
-0.1724137931034599 -4 0
0.1724137931034342 -4 0
0.5172413793103301 -4 0
0.8620689655172278 -4 0
1.206896551724125 -4 0
1.551724137931022 -4 0
1.896551724137921 -4 0
2.241379310344819 -4 0
2.586206896551715 -4 0
2.931034482758613 -4 0
3.275862068965511 -4 0
3.620689655172409 -4 0
3.965517241379308 -4 0
4.310344827586205 -4 0
4.655172413793101 -4 0
-5 3.666666666666667 0
-5 3.333333333333333 0
-5 3.000000000000001 0
-5 2.666666666666668 0
-5 2.333333333333334 0
-5 2 0
-5 1.666666666666667 0
-5 1.333333333333333 0
-5 0.9999999999999996 0
-5 0.6666666666666652 0
-5 0.3333333333333313 0
-5 -1.77635683940025e-15 0
-5 -0.3333333333333357 0
-5 -0.6666666666666705 0
-5 -1.000000000000004 0
-5 -1.333333333333337 0
-5 -1.666666666666671 0
4.655172413793104 4 0
4.310344827586208 4 0
3.965517241379311 4 0
3.620689655172415 4 0
3.275862068965519 4 0
2.931034482758623 4 0
2.586206896551726 4 0
2.24137931034483 4 0
1.896551724137935 4 0
1.55172413793104 4 0
1.206896551724145 4 0
0.86206896551725 4 0
0.517241379310355 4 0
0.1724137931034599 4 0
-0.1724137931034342 4 0
-0.5172413793103301 4 0
-0.8620689655172278 4 0
-1.206896551724125 4 0
-1.551724137931022 4 0
-1.896551724137921 4 0
-2.241379310344819 4 0
-2.586206896551715 4 0
-2.931034482758613 4 0
-3.275862068965511 4 0
-3.620689655172409 4 0
-3.965517241379308 4 0
-4.310344827586205 4 0
-4.655172413793101 4 0
5 2.333333333333333 0
5 2.666666666666665 0
5 2.999999999999997 0
5 3.333333333333329 0
5 3.666666666666664 0
2.511856420085241 -1.540918442158463 0
0.5759864421438364 -1.989868217004219 0
-1.077137600798955 -2.294543648869966 0
3.433388383045584 -0.2944498399774553 0
3.582559511078011 -2.580451971428303 0
-2.515779900028867 -2.558136025438089 0
1.748244747850853 -2.650690655233983 0
1.411411880071703 -0.8785547878245423 0
-3.71280399745122 -2.782309332468111 0
3.815754510079231 -1.416423834234646 0
-0.116580715391619 -2.923858060215347 0
-0.3626925806880235 -1.369983789448194 0
2.329678185861312 -0.2599216997304294 0
4.011766846170413 0.5335764011406066 0
2.680377600510416 -3.006662463357903 0
0.8403172185495204 -3.010918986808743 0
0.4094566855421519 -0.8861068337617473 0
-1.755048330912307 -2.988051767564813 0
-1.933603116658395 -1.798275006133561 0
1.669146557983826 -1.761247103982386 0
4.179857126651122 -3.166666666666668 0
4.175378993761711 -0.6743129928039642 0
-0.8606812519174211 -3.200469208092555 0
-1.214863171386567 -1.361701959772535 0
4.190298761118926 -2.05775435853449 0
2.902858861924328 0.3068906569115236 0
-3.227717288334803 -2.160537601500283 0
-3.015646522847518 -3.178724924115808 0
2.932154698960124 -0.7701497436008633 0
2.885679934303113 -2.273283661646746 0
-0.05978343782761364 -2.153323254302327 0
1.5837417803817 -0.1602332782755352 0
-4.289188629782695 -3.377346003516743 0
2.221886492726867 -0.9725036811436698 0
3.349720264204099 -3.277475473118811 0
2.001774371593394 -3.292083209100428 0
-4.334156833893484 -2.474221031050023 0
0.9572466085318547 -0.3609046708640017 0
-2.319748384676199 -3.322159503415048 0
-2.673698376126199 -1.760099177292696 0
1.079434220222737 -2.40193998424798 0
0.8514242360557844 -1.398833394406199 0
2.227654976471377 -2.156500649923553 0
4.342012250267955 -0.03671646265836688 0
3.224297870001357 -1.70763244102875 0
1.401697823109019 -3.381631678073423 0
0.2871618696308584 -3.333215075138943 0
4.380568773543239 1.099253017441562 0
-0.2076475986451105 -0.775977590167892 0
-1.717218814433687 -2.389481084893504 0
3.390263085082129 0.7057168524367233 0
4.402853311635825 -1.502070909661491 0
0.4180951266926179 -2.595613814203333 0
0.1942039574589041 -1.478687994272644 0
3.476760655278292 -0.8657546804113494 0
-3.637273269752913 -3.378339133279022 0
-3.940918689015652 -2.18454248225304 0
-0.3339547426787053 -3.42277673627137 0
4.422081256463184 -2.641349121598708 0
-0.8426770665634161 -0.966953608491766 0
-0.6413655905933373 -2.665004413786184 0
-0.825669623722375 -1.784659688485428 0
2.324762427723735 0.3356583143303949 0
2.888063567515276 -0.2803601521747874 0
3.666907246407929 -2.03589354946021 0
-1.319898634242525 -3.49929591278958 0
-1.767984871812635 -1.276456113159399 0
1.157350372384562 -1.849599221429273 0
-3.031665553690579 -2.642781803265692 0
3.609896444484731 0.2294319382641107 0
4.519367287171809 0.5000000000000032 0
2.295695159535219 -2.684207768516976 0
-1.413355673515868 -1.863863597121572 0
-1.236617923219649 -2.794632729633825 0
2.884114129557186 -3.483545885674435 0
3.841455018922215 -3.506624545786585 0
3.101230915546036 -2.77756915260979 0
4.488506199271096 -3.517432875005561 0
3.805309057100137 0.9911084050812746 0
0.1770541626918478 -0.4202398764017485 0
4.495143607285373 -1.036767741327893 0
1.913238218147896 -0.5353627290641033 0
0.7912414297817161 -3.493334440677444 0
1.741482382476905 -1.257382249795084 0
-1.880649250154584 -3.506283792742597 0
1.316032898391778 -2.885770004036685 0
-2.27387327569605 -1.463176591462663 0
0.9189019499687472 -0.8611061284751587 0
3.939595765651385 -0.2837317464972627 0
-2.277685746838844 -2.142815605297442 0
-2.102762645702043 -2.861948687798876 0
3.150218630780144 -1.255602795025048 0
1.583897219058178 -2.257626026001856 0
1.855023062630438 0.2361778131185295 0
2.421218089110112 -3.56932841585259 0
3.742239255990629 -3.015155718058399 0
2.16155869674907 -1.533298189502241 0
-4.551062893375612 -2.905546348509447 0
4.520439261464647 -0.4483940202439592 0
-2.728543473448457 -3.558418907637423 0
-3.038092801773205 -1.697863899807381 0
-0.6155343015067974 -2.191724211371446 0
1.122255622182039 -0.03537921351187399 0
3.992762524967631 -2.504415803313055 0
-2.767848893844056 -2.214535006374027 0
1.336003766544867 -1.423727621925431 0
-4.549861345768434 -3.561193124629485 0
-2.652460719064349 -2.98856450831433 0
2.533720434678883 -1.123684650850894 0
2.442940129981725 -0.6511936259204587 0
4.608428192226961 -1.88121096707067 0
4.136540451226352 -1.059871455552472 0
-0.7263981653167297 -3.558646273448167 0
4.57959478076065 -3.032482264581252 0
2.972295627962772 0.7323713143638733 0
-3.216052751914655 -3.576421746461977 0
3.309554912736662 -2.272748320910054 0
-4.053868869106676 -2.849250936160145 0
-3.977417537889101 -3.567474831505264 0
-1.244403814250744 -0.9874280404160676 0
1.719785860314253 -3.62781721884364 0
-3.536570671787685 -1.869434354785499 0
4.583884357373641 1.395988314430177 0
1.356588799255073 -0.480848312619282 0
1.692593079560888 -3.063238084602074 0
0.5276987711888638 -0.2193720761376314 0
2.6051615102158 -2.037919604663648 0
0.1747168768489186 -1.872009888824496 0
-0.001718997010870352 -2.550003226022922 0
4.06207710171299 -1.681636638004513 0
-0.529188627089709 -2.998639803997643 0
0.4160175314217876 -2.97570807205071 0
3.244213903298105 0.052206541226757 0
-0.8367194372732754 -1.371249252885754 0
4.605276284568729 -2.28889946269526 0
0.07175686166948794 -1.073087815208839 0
-3.468469076624038 -2.443905446575245 0
-3.398920280389317 -3.039531779080504 0
3.238183191178936 -0.5941701756765317 0
2.60337471497235 0.0169438337808667 0
-0.3865472780118308 -1.75057812145603 0
2.661003617588502 -2.605813296797834 0
3.729048831994905 -0.7126124433711165 0
-4.245653845450504 -2.156730086275427 0
3.987393891593096 0.1473686841013606 0
-0.01220732223428433 -3.629906324250042 0
2.593852425860495 0.6104985850135428 0
0.8069963995746456 -2.633913249999273 0
-0.5679023147977293 -0.6328672347804569 0
3.473428103313358 -3.627958623352067 0
0.5837308116036871 -1.574268259383149 0
-4.626910412835879 -2.239325463098103 0
-2.16893382996134 -2.480969321442229 0
4.145698131413425 -3.694810341851695 0
1.967195595527174 -0.1316170227523898 0
4.664697271807092 0.202720494488419 0
4.671418456150061 0.8061349851576574 0
-3.951847436156922 -3.147215078421218 0
1.062549238327183 -3.664836469584863 0
1.439126015570951 0.1706116525393998 0
1.793139730377172 -0.904414550268501 0
2.342384109121676 -3.049030569947217 0
3.01350126601978 -3.117672897896632 0
-3.994941296380071 -2.527965485314046 0
-0.4062455763796716 -2.392718010343206 0
0.2820813923552929 -2.231688693761749 0
3.498865000325296 -1.387993226720005 0
0.6011324774116693 -1.177767334739827 0
0.785490812490121 -2.282683805825978 0
3.99599450637961 1.25861850749979 0
-0.0451975687292662 -3.243998380319398 0
-2.43309033541834 -3.647964436412881 0
-2.815558700030902 -1.443652280192511 0
1.913429192981242 -2.30888088248631 0
2.92881059225844 -1.915716448062304 0
3.44039451872697 -2.91956048054558 0
0.6182703798547005 -0.57358694786721 0
-0.4628546170617057 -1.003976133593639 0
4.047887253474791 -2.840088886654418 0
-0.0976084379242794 -1.605909862155829 0
-4.666777616160206 -3.191758353604041 0
2.887958163828199 -1.523870108136389 0
2.142093281426922 -3.661098658110012 0
-0.1828899810523792 -0.4318586355155455 0
2.017309241701573 -1.881625612835436 0
-1.407847024005857 -2.179047540348257 0
-1.574060690857136 -2.72090447936353 0
-1.207934806676648 -3.151554965147618 0
-1.658160658547414 -1.608086206435526 0
-4.666493231238158 -2.60048740690858 0
-1.029599315320813 -3.719269149563851 0
0.8207382487062391 0.006834748781768599 0
2.00771330120932 -2.902370650219202 0
-2.025523175844639 -3.22043380666866 0
1.017016304511353 -3.276275302294644 0
1.41661779313415 -2.555835841236121 0
-2.279829864317569 -1.785529890770487 0
0.3448275862068821 -3.702227519461166 0
4.297051435140758 0.7237816007903313 0
1.147548071145415 -1.145480438681537 0
3.267339964186553 0.4111055706674079 0
-1.597361844144332 -0.9675871588304006 0
-1.947057486804607 -2.139888164816797 0
3.64793012037008 -1.723713824767387 0
3.44235700161412 1.038349145621958 0
3.717030750463904 -1.064377110924235 0
4.714244521604964 -0.7855038083814291 0
4.209139067414217 -0.3441654207942727 0
4.676384773456541 -1.304863050396257 0
2.008118425238712 0.5357571429393146 0
2.484248515288452 -2.349657329999042 0
4.286755930888113 0.2978216444867356 0
3.663657760211202 0.5366206700014824 0
4.722166600189916 -0.1781811912645342 0
3.122633248417019 -3.709425152696535 0
-2.132281713359486 -1.191606448751113 0
-1.590864432871497 -3.643904166156216 0
-0.909816022194189 -2.866598222388673 0
2.375687007564317 -1.821420536806595 0
-1.10103800901703 -1.961341847001361 0
0.8691413159024698 -1.756560613475743 0
1.40148980235787 -3.725328299570177 0
-3.499844176523693 -3.688693618356874 0
0.1292270035636439 -0.7591542978639836 0
-4.271440728137822 -3.701921865280159 0
0.1826214558852666 -2.792041119383707 0
1.605742521818785 -0.6199271422731421 0
-3.361861263024387 -2.720970053118923 0
2.330924592615787 -1.282044130101299 0
2.618361556227126 -3.315119651421003 0
0.6450302350647901 -3.205039694585265 0
4.14415560511187 -1.385299008314558 0
4.706658871178733 -2.754029421641607 0
-0.4086450958428894 -3.739601224918665 0
3.175972743598083 -0.9640470751598036 0
4.694035698334052 -1.612014393487233 0
-3.84042469999075 -1.866673883121225 0
-0.8870863651868964 -0.6496413794008193 0
-1.863604862373303 -2.688271068212591 0
3.714450096137746 -0.08936038226450334 0
3.924993005777324 -2.197630246512279 0
4.727174317413389 1.126941930072547 0
2.746166838430394 -0.5672862415420332 0
-1.32622649829513 -2.487724675949776 0
-2.085462632662842 -3.735278890239631 0
-1.121102106840063 -1.655935371147918 0
4.269508882298007 1.421739709809789 0
-0.9753835931430022 -2.575488210497816 0
-1.602253224695119 -3.283371649126279 0
2.227252157565961 0.02689720685591857 0
2.685732143854076 -3.713261080327058 0
2.856343662243465 -1.140007277382782 0
3.378494148932953 -1.968412797326095 0
1.454346048580357 -1.937026974194653 0
-1.975032749537712 -1.497933862419698 0
-1.683132145681262 -1.991416659631256 0
4.710172109774708 -3.294175090407681 0
3.178551559939168 0.9491584749736671 0
4.270451843159753 -2.322724880387621 0
-0.5946702015061396 -3.303900210686322 0
2.931178175230027 0.01236539333374604 0
-0.1094166887939147 -1.30682205306943 0
2.209334048797102 -0.5305019226607178 0
0.9587414285801708 -2.076344186398892 0
3.513496257079531 -0.5713684270120283 0
1.138509856482581 -2.681978854114365 0
-2.636458556322664 -3.303619638447044 0
-2.959398809220982 -1.98886549483856 0
-2.784123947524245 -2.473622875454061 0
-1.034665872368501 -1.171833215391531 0
4.055822896227724 0.8899449050177665 0
-2.920209349373056 -2.890292062329231 0
-2.533617353495199 -1.304185211137967 0
4.323916598820242 -2.908163852073897 0
-0.3692725275025501 -2.725650430489703 0
4.737855151652811 -3.745166113570303 0
3.906700662702871 -3.247886315071087 0
3.143870513286972 -0.2470433456768186 0
1.465812144751354 -1.174176860332323 0
-0.6240995090680688 -1.57832757482884 0
2.608982037228576 0.3145406134663635 0
2.297927118392171 0.6502975713416255 0
-1.028902434694827 -3.425847101808354 0
-2.976226679199335 -3.73229426282631 0
-3.35413258224768 -1.630306870356505 0
1.15614499667511 -0.7282983308924892 0
-3.538741035666808 -2.154481875887386 0
-3.32549920547876 -3.31350595918317 0
1.727625652061035 -2.029281319900128 0
2.602044687352211 -0.3483635771173684 0
3.695355440193511 -2.31822797832478 0
-3.220345469469992 -2.452007130775042 0
3.9564015527606 -0.8327043703031198 0
3.280464835679284 -2.594978980595259 0
-1.864576884016178 -0.9944140582390442 0
-1.483995509820455 -1.269095464036041 0
4.343308523726142 -1.236744289978805 0
1.094557980632355 -1.576589749696874 0
4.769206915184427 -2.509606541377842 0
3.62565630397669 -3.265776859322088 0
-3.752013166101472 -3.739963620083778 0
0.6851805035722693 -3.753539547816738 0
4.415755958049813 -3.241890757790705 0
4.367770353605751 -1.778174743728773 0
1.703962783644388 -3.341192547654891 0
4.784029474222367 0.5004610308020684 0
2.150394715332603 -2.43698876126313 0
-1.339796614418004 -3.772493845701929 0
-2.360082822464098 -3.037449771111552 0
1.856065836488264 -1.523364205603357 0
1.2850454083373 -2.177413276410158 0
-2.516896668917199 -2.285475962934239 0
3.799026983904242 -3.779995856922151 0
-0.846406538916715 -2.106598820152929 0
3.403769556089144 -1.107554977648088 0
3.793189075674479 -2.749760861815229 0
3.89844124707745 -1.939325723455776 0
0.3092885894445641 -1.206697071956983 0
4.41575513728313 -0.7835675559825626 0
3.657960773302677 1.218173177100929 0
-3.671910342196454 -3.077026486725653 0
0.1448045145634055 -3.053764141421621 0
4.467515344743328 -3.791481866085511 0
1.690285767233821 0.4517049367541393 0
2.005401919205989 -1.204240766368223 0
3.149253368446526 -3.442442640160152 0
2.301978415724879 -3.343340154313179 0
-1.475182995272172 -2.987703118167213 0
-4.776866748154795 -2.872891755137746 0
-4.139087933500724 -1.914744756939138 0
3.720332938385178 -0.4097339602030192 0
-1.378295424022073 -1.551736519702718 0
1.320987334124099 -0.2149700559862144 0
0.263022438430498 -0.1706239227250101 0
3.013733041335025 -2.553705402404158 0
2.840238708901285 -2.801695854735419 0
-4.470031668266064 -2.036158227284884 0
0.8355049612888564 -1.088533665270844 0
2.516308053117447 -2.81840712049414 0
-0.2141709247038533 -1.105969476297599 0
-4.757497016466792 -3.760827274268066 0
4.802141406029058 -0.495422689498641 0
4.748834626679421 -2.072312838957271 0
4.744503583040742 1.620070739492738 0
-3.273858651374841 -1.896409977339557 0
3.840504797203653 0.7389663814801244 0
-2.969169246267727 -3.454147016198242 0
-2.715169361382904 -2.722370481693498 0
1.264026990953586 -3.142300941516305 0
2.681859594100975 0.8518465071024169 0
-2.564424885803981 -2.027895604686458 0
2.62220204283691 -0.8708042034067836 0
2.683862945401561 -1.343014318611108 0
0.364021814984884 -0.6063332130074777 0
-2.13862952390184 -3.481636215645099 0
-0.1558612444175096 -1.885443484335384 0
0.6448576981163824 -2.8583158271083 0
1.562561493163973 -2.824164798365107 0
0.4105450303216818 -1.766165645799874 0
-3.154109200388289 -2.895919230616107 0
0.5383146119689826 -3.498872104544768 0
4.768671743903473 -1.080907265028489 0
2.014478299520629 -2.622556319761458 0
-2.386776698616331 -2.78082561535959 0
3.145367491646505 -2.02755873379479 0
-4.80954582838097 -3.500717344465927 0
-1.137598377445496 -0.7088945054200981 0
-2.499851416046678 -1.558996667950333 0
1.698735186787296 -0.3850490726952709 0
0.5207353474255071 -2.328440707517095 0
4.081452771430137 -0.09555922159911051 0
-4.352661611868697 -2.75098567236916 0
-4.310901176075134 -3.037017065430125 0
2.68151944203967 -1.770909511905693 0
2.414351718903538 -3.805182821769125 0
4.162995516168423 -3.395885250362049 0
3.98237766799867 -0.5162509502696987 0
2.064645234697621 -0.7375518447132037 0
-3.144281001904312 -1.466255299962927 0
0.05143732401398975 -0.2045444869284623 0
1.570541335601118 -1.473046250210194 0
-0.3767554166207224 -2.053099188902165 0
4.82266330706977 -1.833333333333334 0
-4.49438571425005 -3.809274895722463 0
-3.007095249740031 -2.302852983119956 0
0.697233184833296 -0.851888778470258 0
0.8670167128347378 -0.6583971166348124 0
-1.80105043555158 -3.777093369827689 0
3.827697149470707 0.3570159799937058 0
1.049634977077021 0.2005286666645041 0
-0.7353138998067721 -2.411024703338247 0
3.628418340242249 0.8021522909243125 0
4.465176676893256 -2.066846208562347 0
1.373013766975556 -1.678255669587263 0
-0.2846672100565463 -3.179250972217858 0
-0.6032835475157948 -1.236513926302795 0
-0.6125021113077516 -1.910831267532806 0
1.073467971089593 -2.932435191051766 0
-2.731020373475296 -3.787735521375323 0
4.797095672884836 -3.509967862036961 0
1.711271613527566 0.02873479115750106 0
-4.140308323513431 -2.346507347771787 0
-0.703323323733663 -3.8100103827165 0
2.988816285163521 -0.4966717578973657 0
-3.748470630323015 -2.413221093901939 0
-2.511856420085242 1.540918442158463 0
-0.5759864421438362 1.989868217004219 0
1.077137600798956 2.294543648869966 0
-3.433388383045584 0.2944498399774551 0
-3.582559511078011 2.580451971428303 0
2.515779900028868 2.558136025438089 0
-1.748244747850853 2.650690655233983 0
-1.411411880071703 0.8785547878245429 0
3.71280399745122 2.78230933246811 0
-3.815754510079231 1.416423834234646 0
0.1165807153916188 2.923858060215348 0
0.3626925806880236 1.369983789448194 0
-2.329678185861313 0.2599216997304305 0
-4.011766846170413 -0.5335764011406067 0
-2.680377600510416 3.006662463357903 0
-0.8403172185495201 3.010918986808743 0
-0.4094566855421509 0.886106833761745 0
1.755048330912307 2.988051767564813 0
1.933603116658396 1.798275006133562 0
-1.669146557983826 1.761247103982387 0
-4.179857126651122 3.166666666666668 0
-4.175378993761711 0.6743129928039628 0
0.8606812519174205 3.200469208092556 0
1.214863171386568 1.361701959772536 0
-4.190298761118926 2.05775435853449 0
-2.902858861924329 -0.3068906569115247 0
3.227717288334802 2.160537601500281 0
3.015646522847518 3.178724924115808 0
-2.932154698960126 0.7701497436008629 0
-2.885679934303112 2.273283661646746 0
0.05978343782761365 2.153323254302326 0
-1.583741780381699 0.1602332782755337 0
4.289188629782695 3.377346003516743 0
-2.221886492726869 0.97250368114367 0
-3.349720264204098 3.277475473118811 0
-2.001774371593395 3.292083209100429 0
4.334156833893485 2.474221031050022 0
-0.9572466085318537 0.3609046708639974 0
2.319748384676199 3.322159503415048 0
2.673698376126198 1.760099177292694 0
-1.079434220222736 2.40193998424798 0
-0.8514242360557838 1.398833394406199 0
-2.227654976471376 2.156500649923554 0
-4.342012250267955 0.03671646265836573 0
-3.224297870001358 1.70763244102875 0
-1.401697823109019 3.381631678073422 0
-0.2871618696308586 3.333215075138943 0
-4.380568773543239 -1.099253017441562 0
0.2076475986451106 0.7759775901678923 0
1.717218814433688 2.389481084893503 0
-3.39026308508213 -0.7057168524367241 0
-4.402853311635827 1.502070909661491 0
-0.4180951266926184 2.595613814203333 0
-0.1942039574589041 1.478687994272643 0
-3.476760655278293 0.8657546804113483 0
3.637273269752913 3.378339133279022 0
3.940918689015652 2.184542482253037 0
0.3339547426787043 3.42277673627137 0
-4.422081256463184 2.641349121598708 0
0.8426770665634166 0.9669536084917671 0
0.6413655905933373 2.665004413786183 0
0.8256696237223755 1.784659688485427 0
-2.324762427723737 -0.3356583143303949 0
-2.888063567515278 0.2803601521747884 0
-3.666907246407929 2.03589354946021 0
1.319898634242523 3.499295912789579 0
1.767984871812636 1.276456113159401 0
-1.157350372384562 1.849599221429273 0
3.031665553690579 2.642781803265692 0
-3.609896444484731 -0.2294319382641107 0
-4.519367287171809 -0.5000000000000032 0
-2.29569515953522 2.684207768516977 0
1.413355673515869 1.863863597121573 0
1.236617923219649 2.794632729633824 0
-2.884114129557182 3.483545885674435 0
-3.841455018922215 3.506624545786585 0
-3.101230915546036 2.777569152609791 0
-4.488506199271097 3.517432875005562 0
-3.805309057100139 -0.9911084050812754 0
-0.1770541626918584 0.4202398764017416 0
-4.495143607285372 1.036767741327891 0
-1.913238218147894 0.5353627290641042 0
-0.7912414297817159 3.493334440677445 0
-1.741482382476909 1.257382249795084 0
1.880649250154582 3.506283792742598 0
-1.316032898391777 2.885770004036683 0
2.273873275696049 1.463176591462661 0
-0.9189019499687474 0.861106128475156 0
-3.939595765651385 0.2837317464972621 0
2.277685746838845 2.142815605297442 0
2.102762645702043 2.861948687798875 0
-3.150218630780146 1.255602795025048 0
-1.583897219058178 2.257626026001856 0
-1.855023062630437 -0.2361778131185314 0
-2.421218089110111 3.569328415852591 0
-3.742239255990629 3.015155718058399 0
-2.16155869674907 1.533298189502242 0
4.551062893375611 2.905546348509447 0
-4.520439261464645 0.4483940202439582 0
2.728543473448457 3.558418907637423 0
3.038092801773204 1.697863899807379 0
0.6155343015067983 2.191724211371445 0
-1.122255622182042 0.0353792135118679 0
-3.992762524967631 2.504415803313056 0
2.767848893844056 2.214535006374028 0
-1.336003766544867 1.423727621925432 0
4.549861345768433 3.561193124629485 0
2.652460719064349 2.98856450831433 0
-2.533720434678886 1.123684650850894 0
-2.442940129981728 0.6511936259204592 0
-4.608428192226963 1.88121096707067 0
-4.136540451226352 1.05987145555247 0
0.726398165316728 3.558646273448168 0
-4.579594780760652 3.032482264581254 0
-2.972295627962772 -0.7323713143638736 0
3.216052751914654 3.576421746461977 0
-3.309554912736661 2.272748320910054 0
4.053868869106675 2.849250936160142 0
3.977417537889102 3.567474831505263 0
1.244403814250743 0.9874280404160676 0
-1.719785860314252 3.62781721884364 0
3.536570671787687 1.869434354785499 0
-4.583884357373641 -1.395988314430177 0
-1.356588799255072 0.4808483126192816 0
-1.692593079560887 3.063238084602075 0
-0.5276987711888719 0.2193720761376192 0
-2.605161510215799 2.037919604663648 0
-0.1747168768489181 1.872009888824495 0
0.001718997010870019 2.550003226022921 0
-4.06207710171299 1.681636638004513 0
0.5291886270897084 2.998639803997645 0
-0.4160175314217883 2.97570807205071 0
-3.244213903298106 -0.05220654122675743 0
0.8367194372732761 1.371249252885756 0
-4.60527628456873 2.28889946269526 0
-0.07175686166948811 1.073087815208838 0
3.46846907662404 2.443905446575244 0
3.398920280389317 3.039531779080504 0
-3.238183191178938 0.5941701756765316 0
-2.603374714972351 -0.01694383378086636 0
0.3865472780118308 1.750578121456029 0
-2.661003617588503 2.605813296797836 0
-3.729048831994905 0.7126124433711151 0
4.245653845450505 2.156730086275426 0
-3.987393891593097 -0.147368684101361 0
0.01220732223428418 3.629906324250042 0
-2.593852425860497 -0.6104985850135435 0
-0.8069963995746458 2.633913249999273 0
0.5679023147977271 0.6328672347804586 0
-3.473428103313357 3.627958623352067 0
-0.5837308116036869 1.57426825938315 0
4.626910412835879 2.239325463098102 0
2.168933829961341 2.480969321442228 0
-4.145698131413426 3.694810341851695 0
-1.967195595527174 0.1316170227523887 0
-4.664697271807092 -0.2027204944884191 0
-4.671418456150061 -0.8061349851576576 0
3.951847436156922 3.147215078421218 0
-1.062549238327183 3.664836469584864 0
-1.439126015570956 -0.1706116525394042 0
-1.793139730377172 0.9044145502685017 0
-2.342384109121675 3.049030569947218 0
-3.013501266019778 3.117672897896632 0
3.994941296380071 2.527965485314043 0
0.4062455763796718 2.392718010343205 0
-0.2820813923552934 2.231688693761749 0
-3.498865000325296 1.387993226720005 0
-0.6011324774116684 1.177767334739826 0
-0.7854908124901203 2.282683805825978 0
-3.995994506379613 -1.258618507499792 0
0.04519756872926606 3.243998380319399 0
2.433090335418339 3.64796443641288 0
2.815558700030898 1.443652280192508 0
-1.913429192981241 2.308880882486311 0
-2.928810592258439 1.915716448062304 0
-3.440394518726969 2.91956048054558 0
-0.6182703798546957 0.5735869478672035 0
0.4628546170617058 1.003976133593639 0
-4.047887253474791 2.840088886654419 0
0.09760843792427981 1.605909862155828 0
4.666777616160204 3.19175835360404 0
-2.887958163828199 1.523870108136388 0
-2.142093281426922 3.661098658110013 0
0.182889981052366 0.4318586355155414 0
-2.017309241701572 1.881625612835438 0
1.407847024005858 2.179047540348257 0
1.574060690857137 2.720904479363529 0
1.207934806676648 3.151554965147617 0
1.658160658547416 1.608086206435527 0
4.666493231238158 2.600487406908579 0
1.029599315320811 3.719269149563852 0
-0.8207382487062462 -0.006834748781776922 0
-2.00771330120932 2.902370650219204 0
2.025523175844638 3.22043380666866 0
-1.017016304511351 3.276275302294644 0
-1.41661779313415 2.55583584123612 0
2.279829864317569 1.785529890770486 0
-0.3448275862068821 3.702227519461166 0
-4.297051435140757 -0.7237816007903315 0
-1.147548071145416 1.145480438681537 0
-3.267339964186553 -0.4111055706674087 0
1.597361844144328 0.9675871588304 0
1.94705748680461 2.139888164816798 0
-3.647930120370079 1.723713824767388 0
-3.442357001614122 -1.03834914562196 0
-3.717030750463904 1.064377110924233 0
-4.714244521604964 0.7855038083814285 0
-4.209139067414217 0.3441654207942724 0
-4.676384773456542 1.304863050396254 0
-2.008118425238717 -0.5357571429393171 0
-2.484248515288451 2.349657329999042 0
-4.286755930888114 -0.297821644486736 0
-3.663657760211203 -0.5366206700014819 0
-4.722166600189915 0.1781811912645342 0
-3.122633248417019 3.709425152696535 0
2.132281713359483 1.191606448751112 0
1.590864432871496 3.643904166156215 0
0.909816022194189 2.866598222388673 0
-2.375687007564317 1.821420536806595 0
1.101038009017031 1.961341847001361 0
-0.8691413159024695 1.756560613475743 0
-1.40148980235787 3.725328299570177 0
3.499844176523692 3.688693618356874 0
-0.1292270035636401 0.7591542978639765 0
4.271440728137823 3.701921865280157 0
-0.1826214558852666 2.792041119383706 0
-1.605742521818784 0.6199271422731442 0
3.361861263024389 2.720970053118922 0
-2.330924592615789 1.2820441301013 0
-2.61836155622712 3.315119651421001 0
-0.6450302350647903 3.205039694585265 0
-4.14415560511187 1.385299008314557 0
-4.706658871178733 2.754029421641604 0
0.4086450958428889 3.739601224918665 0
-3.175972743598085 0.9640470751598029 0
-4.694035698334054 1.612014393487233 0
3.840424699990749 1.866673883121224 0
0.887086365186894 0.6496413794008234 0
1.863604862373303 2.68827106821259 0
-3.714450096137747 0.0893603822645028 0
-3.924993005777324 2.197630246512279 0
-4.727174317413389 -1.126941930072548 0
-2.746166838430396 0.5672862415420326 0
1.32622649829513 2.487724675949775 0
2.085462632662844 3.73527889023963 0
1.121102106840063 1.655935371147918 0
-4.269508882298008 -1.42173970980979 0
0.9753835931430025 2.575488210497815 0
1.602253224695118 3.283371649126279 0
-2.227252157565961 -0.02689720685591782 0
-2.685732143854073 3.713261080327059 0
-2.856343662243467 1.140007277382782 0
-3.378494148932953 1.968412797326097 0
-1.454346048580357 1.937026974194652 0
1.975032749537712 1.497933862419699 0
1.683132145681264 1.991416659631258 0
-4.710172109774709 3.294175090407686 0
-3.178551559939167 -0.9491584749736678 0
-4.270451843159754 2.322724880387621 0
0.5946702015061383 3.303900210686325 0
-2.931178175230025 -0.01236539333374536 0
0.1094166887939151 1.306822053069429 0
-2.209334048797102 0.5305019226607218 0
-0.9587414285801704 2.076344186398892 0
-3.513496257079531 0.5713684270120274 0
-1.13850985648258 2.681978854114365 0
2.636458556322664 3.303619638447043 0
2.95939880922098 1.988865494838559 0
2.784123947524245 2.473622875454062 0
1.034665872368501 1.171833215391532 0
-4.055822896227725 -0.8899449050177668 0
2.920209349373056 2.890292062329231 0
2.533617353495194 1.304185211137963 0
-4.323916598820241 2.908163852073897 0
0.3692725275025496 2.725650430489702 0
-4.737855151652811 3.745166113570303 0
-3.906700662702871 3.247886315071088 0
-3.143870513286973 0.2470433456768191 0
-1.465812144751355 1.174176860332324 0
0.6240995090680675 1.578327574828841 0
-2.608982037228578 -0.3145406134663634 0
-2.297927118392174 -0.6502975713416255 0
1.028902434694826 3.425847101808354 0
2.976226679199334 3.73229426282631 0
3.354132582247679 1.630306870356503 0
-1.15614499667511 0.7282983308924892 0
3.53874103566681 2.154481875887383 0
3.32549920547876 3.31350595918317 0
-1.727625652061035 2.029281319900128 0
-2.602044687352213 0.3483635771173688 0
-3.695355440193511 2.318227978324781 0
3.220345469469991 2.452007130775042 0
-3.9564015527606 0.8327043703031183 0
-3.280464835679284 2.594978980595259 0
1.864576884016175 0.9944140582390453 0
1.483995509820456 1.269095464036042 0
-4.34330852372614 1.236744289978802 0
-1.094557980632357 1.576589749696873 0
-4.769206915184429 2.509606541377842 0
-3.625656303976689 3.265776859322088 0
3.752013166101472 3.739963620083777 0
-0.6851805035722692 3.753539547816738 0
-4.415755958049812 3.241890757790706 0
-4.367770353605753 1.778174743728774 0
-1.703962783644388 3.341192547654891 0
-4.784029474222367 -0.5004610308020684 0
-2.150394715332602 2.436988761263129 0
1.339796614418003 3.772493845701929 0
2.360082822464098 3.037449771111552 0
-1.856065836488265 1.523364205603358 0
-1.285045408337299 2.177413276410157 0
2.516896668917198 2.285475962934241 0
-3.799026983904242 3.779995856922151 0
0.8464065389167159 2.106598820152929 0
-3.403769556089145 1.107554977648087 0
-3.793189075674479 2.749760861815228 0
-3.89844124707745 1.939325723455776 0
-0.3092885894445634 1.206697071956982 0
-4.415755137283129 0.7835675559825634 0
-3.657960773302677 -1.218173177100932 0
3.671910342196455 3.077026486725654 0
-0.1448045145634057 3.053764141421622 0
-4.467515344743328 3.791481866085511 0
-1.69028576723383 -0.451704936754146 0
-2.005401919205993 1.204240766368221 0
-3.149253368446522 3.442442640160151 0
-2.301978415724879 3.34334015431318 0
1.475182995272172 2.987703118167213 0
4.776866748154794 2.872891755137746 0
4.139087933500723 1.914744756939136 0
-3.720332938385178 0.4097339602030184 0
1.378295424022074 1.551736519702719 0
-1.320987334124097 0.2149700559862127 0
-0.2630224384305094 0.170623922725002 0
-3.013733041335025 2.55370540240416 0
-2.840238708901286 2.801695854735422 0
4.470031668266066 2.036158227284884 0
-0.835504961288856 1.088533665270842 0
-2.516308053117447 2.818407120494141 0
0.2141709247038534 1.105969476297598 0
4.75749701646679 3.760827274268063 0
-4.802141406029056 0.4954226894986408 0
-4.748834626679422 2.072312838957271 0
-4.74450358304074 -1.620070739492735 0
3.273858651374842 1.896409977339554 0
-3.840504797203652 -0.7389663814801232 0
2.969169246267728 3.454147016198243 0
2.715169361382904 2.722370481693499 0
-1.264026990953581 3.142300941516304 0
-2.681859594100979 -0.851846507102419 0
2.564424885803983 2.027895604686459 0
-2.622202042836912 0.8708042034067833 0
-2.683862945401565 1.343014318611108 0
-0.3640218149848843 0.6063332130074768 0
2.13862952390184 3.481636215645098 0
0.1558612444175098 1.885443484335383 0
-0.6448576981163839 2.8583158271083 0
-1.543372129734417 2.788883646277215 0
-0.4105450303216816 1.766165645799874 0
3.154109200388289 2.895919230616106 0
-0.5383146119689826 3.498872104544768 0
-4.768671743903473 1.080907265028488 0
-2.014478299520629 2.622556319761459 0
2.386776698616333 2.780825615359591 0
-3.145367491646504 2.02755873379479 0
4.809545828380966 3.500717344465927 0
1.137598377445499 0.7088945054200947 0
2.499851416046678 1.55899666795033 0
-1.698735186787294 0.3850490726952714 0
-0.5207353474255068 2.328440707517096 0
-4.081452771430138 0.09555922159911018 0
4.352661611868694 2.750985672369159 0
4.310901176075133 3.037017065430124 0
-2.681519442039669 1.770909511905694 0
-2.414351718903538 3.805182821769126 0
-4.162995516168423 3.39588525036205 0
-3.982377667998671 0.5162509502696977 0
-2.064645234697619 0.7375518447132055 0
3.144281001904309 1.466255299962925 0
-0.05143732401400393 0.2045444869284554 0
-1.570541335601119 1.473046250210194 0
0.3767554166207224 2.053099188902165 0
-4.82266330706977 1.833333333333334 0
4.494385714250051 3.80927489572246 0
3.007095249740029 2.302852983119958 0
-0.6972331848332942 0.8518887784702541 0
-0.867016712834735 0.6583971166348092 0
1.801050435551579 3.777093369827689 0
-3.827697149470708 -0.3570159799937058 0
-1.049634977077031 -0.200528666664512 0
0.7353138998067742 2.411024703338246 0
-3.628418340242249 -0.8021522909243128 0
-4.465176676893257 2.066846208562348 0
-1.373013766975556 1.678255669587263 0
0.2846672100565463 3.179250972217861 0
0.6032835475157962 1.236513926302795 0
0.6125021113077517 1.910831267532806 0
-1.073467971089593 2.932435191051767 0
2.731020373475296 3.787735521375322 0
-4.797095672884837 3.509967862036964 0
-1.711271613527567 -0.02873479115750331 0
4.140308323513432 2.346507347771785 0
0.7033233237336627 3.810010382716501 0
-2.988816285163522 0.4966717578973648 0
3.748470630323017 2.413221093901936 0

CELLS 1815 7229
2 0 6
2 6 7
2 7 8
2 8 9
2 9 10
2 10 11
2 11 12
2 12 13
2 13 14
2 14 15
2 15 16
2 16 17
2 17 18
2 18 19
2 19 20
2 20 21
2 21 22
2 22 23
2 23 24
2 24 25
2 25 26
2 26 27
2 27 28
2 28 29
2 29 30
2 30 31
2 31 32
2 32 33
2 33 34
2 34 35
2 35 3
3 153 374 226
3 180 302 227
3 166 301 263
3 264 301 166
3 298 365 210
3 229 385 198
3 250 282 161
3 136 364 232
3 226 329 153
3 165 470 252
3 227 317 180
3 205 348 336
3 244 487 169
3 169 487 245
3 225 338 332
3 332 338 154
3 139 375 268
3 268 375 205
3 252 470 429
3 228 331 142
3 142 309 228
3 239 314 194
3 284 319 19
3 196 353 266
3 13 408 351
3 198 345 229
3 264 410 146
3 150 365 298
3 319 359 215
3 234 349 179
3 184 359 319
3 300 410 264
3 253 293 144
3 266 353 158
3 294 437 74
3 175 308 236
3 351 408 222
3 216 454 247
3 250 393 29
3 247 454 157
3 36 287 0
3 336 348 186
3 279 287 172
3 149 347 334
3 217 398 290
3 190 341 278
3 254 293 168
3 0 287 6
3 77 256 76
3 151 366 330
3 191 293 254
3 254 360 60
3 137 399 356
3 277 346 207
3 232 354 136
3 145 339 265
3 330 366 218
3 290 398 148
3 250 336 186
3 145 341 302
3 334 347 206
3 161 336 250
3 178 320 309
3 18 284 19
3 168 316 242
3 236 403 175
3 341 428 278
3 304 399 137
3 234 343 157
3 179 343 234
3 16 337 255
3 157 454 234
3 136 488 364
3 242 360 168
3 173 468 238
3 320 424 309
3 341 450 302
3 252 500 165
3 75 294 74
3 182 306 281
3 281 306 193
3 248 369 193
3 249 392 43
3 29 393 30
3 286 453 189
3 29 485 250
3 307 402 235
3 174 402 307
3 303 453 286
3 346 442 207
3 168 360 254
3 144 299 253
3 260 484 181
3 238 327 173
3 173 421 259
3 218 437 294
3 364 488 244
3 350 386 80
3 184 319 284
3 24 525 295
3 205 336 268
3 279 472 287
3 323 463 384
3 288 447 141
3 299 507 253
3 172 507 299
3 30 393 340
3 30 340 31
3 36 325 287
3 316 464 38
3 240 486 403
3 403 486 175
3 163 402 243
3 311 435 231
3 293 508 168
3 189 315 263
3 194 394 239
3 253 508 293
3 263 301 137
3 256 318 171
3 43 368 249
3 171 328 260
3 62 419 251
3 254 436 191
3 166 300 264
3 295 468 167
3 239 426 140
3 22 469 261
3 221 484 260
3 259 468 173
3 238 468 295
3 215 489 261
3 170 435 311
3 60 360 59
3 261 327 22
3 77 318 256
3 438 511 213
3 284 313 184
3 195 313 284
3 9 372 257
3 339 452 265
3 225 447 288
3 24 295 25
3 245 425 148
3 213 511 289
3 245 513 169
3 251 358 62
3 323 384 201
3 173 522 421
3 269 381 197
3 140 451 239
3 181 440 260
3 72 281 71
3 188 301 264
3 295 525 238
3 243 407 163
3 293 456 144
3 262 354 178
3 157 428 247
3 311 451 140
3 247 432 216
3 334 406 149
3 180 500 388
3 37 325 36
3 247 341 145
3 148 398 245
3 321 391 185
3 310 500 180
3 158 418 248
3 192 465 279
3 406 481 149
3 180 339 302
3 159 381 269
3 39 316 38
3 290 385 229
3 84 289 83
3 314 412 156
3 286 356 177
3 169 364 244
3 231 412 314
3 165 310 262
3 261 312 173
3 210 386 350
3 255 431 159
3 261 489 312
3 15 337 16
3 292 334 206
3 256 357 76
3 50 342 49
3 260 328 142
3 206 347 291
3 195 502 255
3 298 311 212
3 142 493 260
3 291 347 179
3 260 493 221
3 170 311 298
3 21 469 22
3 179 349 291
3 183 334 292
3 258 382 183
3 158 353 323
3 323 353 209
3 231 451 311
3 335 433 241
3 32 305 33
3 177 433 335
3 198 385 275
3 180 388 339
3 180 317 310
3 258 479 34
3 138 355 321
3 183 377 258
3 233 464 316
3 296 414 219
3 145 367 247
3 321 355 208
3 262 346 165
3 314 409 194
3 143 414 296
3 53 291 52
3 173 327 261
3 252 426 200
3 282 416 161
3 82 285 81
3 193 395 248
3 140 426 252
3 55 292 54
3 248 395 158
3 375 506 280
3 185 391 338
3 186 393 250
3 276 315 147
3 335 421 223
3 56 479 258
3 297 328 171
3 252 429 140
3 275 385 148
3 32 455 305
3 259 504 167
3 257 420 9
3 209 383 379
3 372 465 192
3 176 304 283
3 194 434 270
3 177 303 286
3 43 392 42
3 171 440 256
3 165 346 277
3 289 448 83
3 205 375 280
3 172 537 279
3 224 506 375
3 137 494 263
3 141 499 288
3 280 347 149
3 181 357 256
3 256 440 181
3 283 505 188
3 329 384 153
3 268 336 161
3 48 371 47
3 220 384 329
3 200 388 252
3 263 491 166
3 210 461 298
3 139 413 274
3 185 338 288
3 167 468 259
3 251 423 358
3 288 338 225
3 258 377 56
3 266 410 196
3 358 423 191
3 60 436 254
3 342 497 49
3 318 462 171
3 297 365 150
3 260 440 171
3 344 371 48
3 191 436 358
3 143 362 259
3 168 508 316
3 72 333 281
3 281 333 182
3 159 405 255
3 144 363 272
3 273 363 144
3 255 405 195
3 154 390 332
3 332 390 222
3 211 435 285
3 285 435 170
3 255 502 16
3 146 361 264
3 178 346 262
3 264 361 188
3 63 419 62
3 368 409 249
3 140 429 311
3 194 409 368
3 160 439 265
3 192 422 372
3 22 327 23
3 65 307 64
3 271 397 189
3 372 422 257
3 304 505 283
3 281 369 71
3 143 421 335
3 261 469 215
3 322 374 153
3 35 57 3
3 187 367 265
3 193 369 281
3 248 538 369
3 197 415 269
3 211 448 289
3 230 462 318
3 8 372 9
3 271 359 184
3 288 499 226
3 259 421 143
3 287 325 172
3 265 367 145
3 178 354 320
3 188 361 267
3 263 494 189
3 294 330 218
3 166 517 300
3 267 492 188
3 292 377 183
3 265 452 160
3 151 533 283
3 182 366 267
3 179 347 280
3 151 492 366
3 270 394 194
3 163 482 402
3 75 357 294
3 152 359 271
3 384 463 153
3 45 478 270
3 228 446 331
3 69 538 326
3 149 524 280
3 265 439 187
3 366 492 267
3 53 441 291
3 379 383 138
3 34 382 258
3 184 475 271
3 272 540 144
3 146 410 266
3 232 445 320
3 78 318 77
3 356 433 177
3 13 351 14
3 266 530 146
3 69 326 68
3 376 394 160
3 320 445 155
3 280 506 179
3 267 457 182
3 239 394 376
3 292 441 54
3 275 416 198
3 274 370 190
3 290 504 217
3 44 368 43
3 271 453 152
3 147 475 313
3 158 395 266
3 164 370 274
3 185 379 321
3 268 413 139
3 322 379 185
3 300 517 237
3 189 453 271
3 269 531 195
3 190 400 274
3 181 330 294
3 183 382 305
3 34 479 35
3 207 328 297
3 270 434 45
3 303 521 152
3 144 456 273
3 41 411 2
3 273 456 191
3 161 396 268
3 311 429 212
3 195 405 269
3 269 405 159
3 11 308 12
3 273 423 163
3 398 513 245
3 82 448 285
3 305 455 214
3 316 508 233
3 296 460 169
3 285 448 211
3 365 386 210
3 275 425 199
3 230 386 365
3 2 411 85
3 274 539 164
3 148 425 275
3 162 422 272
3 62 358 61
3 291 441 206
3 219 460 296
3 163 495 273
3 207 474 277
3 278 400 190
3 317 509 310
3 279 537 192
3 277 470 165
3 199 396 275
3 285 350 81
3 227 387 317
3 326 538 248
3 473 521 303
3 206 441 292
3 274 400 139
3 331 446 176
3 191 423 273
3 275 396 161
3 272 427 162
3 373 502 195
3 397 475 147
3 19 319 20
3 291 349 52
3 337 431 255
3 28 417 282
3 137 356 286
3 170 461 285
3 18 373 284
3 302 339 145
3 76 357 75
3 307 534 64
3 161 416 275
3 147 415 276
3 297 462 365
3 315 491 263
3 301 505 137
3 282 417 198
3 262 509 354
3 188 492 283
3 354 509 136
3 300 526 196
3 237 526 300
3 308 514 236
3 283 533 401
3 368 434 194
3 189 494 286
3 57 479 56
3 280 524 205
3 250 485 282
3 362 504 259
3 80 386 79
3 282 485 28
3 324 391 208
3 294 357 181
3 154 391 324
3 339 388 200
3 284 373 195
3 248 418 326
3 198 416 282
3 371 439 246
3 288 374 185
3 296 362 143
3 187 439 371
3 167 504 290
3 223 473 335
3 73 333 72
3 298 461 170
3 226 374 288
3 353 383 209
3 178 442 346
3 189 397 315
3 370 387 227
3 164 387 370
3 9 420 10
3 324 467 431
3 324 431 202
3 55 377 292
3 144 540 299
3 81 350 80
3 378 425 245
3 26 345 27
3 283 492 151
3 356 399 203
3 283 401 176
3 217 362 296
3 138 526 449
3 290 536 167
3 229 536 290
3 329 444 174
3 226 444 329
3 148 385 290
3 376 426 239
3 289 458 213
3 234 454 342
3 413 539 274
3 286 494 137
3 429 470 212
3 235 534 307
3 355 381 208
3 212 471 298
3 7 472 465
3 52 349 51
3 137 505 304
3 298 471 150
3 160 528 439
3 191 456 293
3 465 472 279
3 84 458 289
3 192 537 299
3 383 526 138
3 11 514 308
3 320 354 232
3 35 479 57
3 423 482 163
3 167 536 295
3 289 511 211
3 67 523 66
3 152 453 303
3 190 450 341
3 215 515 319
3 56 377 55
3 232 460 445
3 387 488 317
3 26 459 345
3 324 390 154
3 295 536 229
3 12 408 13
3 276 517 491
3 202 390 324
3 49 497 48
3 306 457 146
3 251 482 423
3 156 438 409
3 287 472 6
3 409 438 249
3 402 482 235
3 146 530 306
3 229 459 295
3 17 373 18
3 295 459 25
3 239 451 314
3 331 401 221
3 208 391 321
3 20 515 21
3 176 401 331
3 325 507 172
3 345 459 229
3 321 379 138
3 169 513 296
3 73 437 333
3 46 478 45
3 200 452 339
3 352 523 67
3 233 507 325
3 48 497 344
3 162 480 422
3 349 477 51
3 305 382 33
3 182 457 306
3 65 380 307
3 318 510 230
3 330 533 151
3 78 510 318
3 285 461 350
3 296 513 217
3 309 424 228
3 340 393 186
3 27 417 28
3 195 531 313
3 66 380 65
3 142 498 309
3 150 474 297
3 414 516 219
3 185 374 322
3 297 474 207
3 276 491 315
3 58 476 1
3 351 390 202
3 222 390 351
3 71 369 70
3 1 476 40
3 234 477 349
3 335 473 177
3 404 520 204
3 216 432 344
3 196 410 300
3 299 537 172
3 344 432 187
3 176 399 304
3 422 480 257
3 305 406 183
3 491 517 166
3 209 379 322
3 214 406 305
3 381 467 208
3 299 540 192
3 171 462 297
3 175 486 332
3 315 397 147
3 156 409 314
3 437 496 333
3 33 382 34
3 352 384 220
3 201 384 352
3 332 486 225
3 216 497 342
3 308 408 12
3 187 371 344
3 203 446 389
3 136 509 317
3 241 516 414
3 270 528 394
3 364 460 232
3 68 443 67
3 415 532 276
3 28 485 29
3 355 449 197
3 174 444 402
3 402 444 243
3 302 450 227
3 204 520 427
3 307 490 174
3 21 515 469
3 16 502 17
3 188 505 301
3 198 417 345
3 39 501 316
3 156 511 438
3 378 487 164
3 160 452 376
3 245 487 378
3 484 533 330
3 197 532 415
3 146 457 361
3 175 503 308
3 316 501 242
3 338 391 154
3 177 473 303
3 369 538 70
3 247 428 341
3 141 447 404
3 404 447 240
3 164 539 378
3 201 418 323
3 309 442 178
3 323 418 158
3 238 525 327
3 329 490 220
3 174 490 329
3 327 525 23
3 241 414 335
3 399 446 203
3 306 530 193
3 6 472 7
3 331 493 142
3 221 493 331
3 197 381 355
3 439 528 246
3 183 406 334
3 155 424 320
3 67 443 352
3 196 383 353
3 314 451 231
3 243 499 483
3 328 498 142
3 332 503 175
3 431 467 159
3 326 418 201
3 14 430 15
3 164 487 387
3 313 475 184
3 222 503 332
3 387 487 244
3 31 455 32
3 193 530 395
3 395 530 266
3 312 489 152
3 61 436 60
3 165 500 310
3 152 521 312
3 312 522 173
3 337 430 202
3 313 531 147
3 317 488 136
3 335 414 143
3 199 413 396
3 396 413 268
3 445 460 219
3 310 509 262
3 15 430 337
3 203 433 356
3 153 463 322
3 322 463 209
3 228 424 389
3 389 424 155
3 45 434 44
3 201 443 326
3 85 458 84
3 37 464 325
3 370 450 190
3 449 532 197
3 227 450 370
3 204 427 363
3 363 427 272
3 326 443 68
3 340 455 31
3 74 437 73
3 319 515 20
3 325 464 233
3 157 512 428
3 54 441 53
3 428 512 278
3 202 431 337
3 83 448 82
3 394 528 160
3 345 417 27
3 209 463 323
3 208 467 324
3 214 481 406
3 202 430 351
3 343 512 157
3 155 529 389
3 179 506 343
3 25 459 26
3 471 474 150
3 277 474 471
3 343 506 224
3 7 465 8
3 365 462 230
3 38 464 37
3 207 498 328
3 516 529 155
3 51 477 50
3 309 498 442
3 224 512 343
3 181 484 330
3 64 534 63
3 50 477 342
3 204 483 404
3 147 531 415
3 415 531 269
3 407 483 204
3 407 495 163
3 59 519 58
3 214 455 340
3 342 477 234
3 351 430 14
3 342 454 216
3 348 527 186
3 333 496 182
3 79 510 78
3 483 499 141
3 40 501 39
3 352 443 201
3 388 500 252
3 10 514 11
3 23 525 24
3 47 518 46
3 42 535 41
3 70 538 69
3 367 432 247
3 375 466 224
3 139 466 375
3 218 496 437
3 340 527 214
3 205 524 348
3 358 436 61
3 44 434 368
3 199 539 413
3 421 522 223
3 138 449 355
3 192 540 422
3 186 527 340
3 350 461 210
3 422 540 272
3 380 490 307
3 223 521 473
3 187 432 367
3 199 425 378
3 344 497 216
3 200 426 376
3 149 481 348
3 231 435 412
3 389 446 228
3 466 512 224
3 278 512 466
3 403 480 162
3 236 480 403
3 361 457 267
3 211 511 412
3 403 520 240
3 162 520 403
3 348 524 149
3 444 499 243
3 169 460 364
3 249 438 392
3 220 523 352
3 152 489 359
3 392 438 213
3 359 489 215
3 376 452 200
3 363 495 204
3 449 526 237
3 213 535 392
3 8 465 372
3 66 523 380
3 308 503 408
3 159 467 381
3 230 510 386
3 386 510 79
3 360 519 59
3 411 458 85
3 366 496 218
3 182 496 366
3 273 495 363
3 217 504 362
3 242 519 360
3 176 446 399
3 412 435 211
3 246 518 371
3 447 486 240
3 371 518 47
3 411 535 213
3 219 516 445
3 278 466 400
3 400 466 139
3 237 532 449
3 17 502 373
3 271 475 397
3 246 528 478
3 478 528 270
3 220 490 380
3 240 520 404
3 404 483 141
3 244 488 387
3 481 527 348
3 213 458 411
3 380 523 220
3 419 482 251
3 204 495 407
3 243 483 407
3 378 539 199
3 203 529 433
3 433 529 241
3 196 526 383
3 392 535 42
3 257 480 420
3 420 480 236
3 63 534 419
3 235 482 419
3 389 529 203
3 236 514 420
3 420 514 10
3 217 513 398
3 408 503 222
3 470 471 212
3 277 471 470
3 442 498 207
3 412 511 156
3 401 533 221
3 241 529 516
3 469 515 215
3 476 501 40
3 221 533 484
3 225 486 447
3 41 535 411
3 242 501 476
3 226 499 444
3 233 508 507
3 427 520 162
3 476 519 242
3 507 508 253
3 419 534 235
3 58 519 476
3 46 518 478
3 478 518 246
3 445 516 155
3 223 522 521
3 521 522 312
3 214 527 481
3 276 532 517
3 517 532 237
3 558 779 631
3 585 707 632
3 571 706 668
3 669 706 571
3 703 770 615
3 634 790 603
3 655 687 566
3 541 769 637
3 631 734 558
3 570 875 657
3 632 722 585
3 610 753 741
3 649 892 574
3 574 892 650
3 630 743 737
3 737 743 559
3 544 780 673
3 673 780 610
3 657 875 834
3 633 736 547
3 547 714 633
3 644 719 599
3 689 724 22
3 601 758 671
3 28 813 756
3 603 750 634
3 669 815 551
3 555 770 703
3 724 764 620
3 639 754 584
3 589 764 724
3 705 815 669
3 658 698 549
3 671 758 563
3 699 842 119
3 580 713 641
3 756 813 627
3 621 859 652
3 655 798 12
3 652 859 562
3 131 692 3
3 741 753 591
3 684 692 577
3 554 752 739
3 622 803 695
3 595 746 683
3 659 698 573
3 3 692 35
3 122 661 121
3 556 771 735
3 596 698 659
3 659 765 105
3 542 804 761
3 682 751 612
3 637 759 541
3 550 744 670
3 735 771 623
3 695 803 553
3 655 741 591
3 550 746 707
3 739 752 611
3 566 741 655
3 583 725 714
3 23 689 22
3 573 721 647
3 641 808 580
3 746 833 683
3 709 804 542
3 639 748 562
3 584 748 639
3 25 742 660
3 562 859 639
3 541 893 769
3 647 765 573
3 578 873 643
3 725 829 714
3 746 855 707
3 657 905 570
3 120 699 119
3 587 711 686
3 686 711 598
3 653 774 598
3 654 797 88
3 12 798 11
3 691 858 594
3 12 890 655
3 712 807 640
3 579 807 712
3 708 858 691
3 751 847 612
3 573 765 659
3 549 704 658
3 665 889 586
3 643 732 578
3 578 826 664
3 623 842 699
3 769 893 649
3 755 791 125
3 589 724 689
3 17 930 700
3 610 741 673
3 684 877 692
3 728 868 789
3 693 852 546
3 704 912 658
3 577 912 704
3 11 798 745
3 11 745 10
3 131 730 692
3 721 869 133
3 645 891 808
3 808 891 580
3 568 807 648
3 716 840 636
3 698 913 573
3 594 720 668
3 599 799 644
3 658 913 698
3 668 706 542
3 661 723 576
3 88 773 654
3 576 733 665
3 107 824 656
3 659 841 596
3 571 705 669
3 700 873 572
3 644 831 545
3 19 874 666
3 626 889 665
3 664 873 578
3 643 873 700
3 620 894 666
3 575 840 716
3 105 765 104
3 666 732 19
3 122 723 661
3 843 916 618
3 689 718 589
3 600 718 689
3 32 777 662
3 744 857 670
3 630 852 693
3 17 700 16
3 650 830 553
3 618 916 694
3 650 918 574
3 656 763 107
3 728 789 606
3 578 927 826
3 674 786 602
3 545 856 644
3 586 845 665
3 117 686 116
3 593 706 669
3 700 930 643
3 648 812 568
3 698 861 549
3 667 759 583
3 562 833 652
3 716 856 545
3 652 837 621
3 739 811 554
3 585 905 793
3 132 730 131
3 652 746 550
3 553 803 650
3 726 796 590
3 715 905 585
3 563 823 653
3 597 870 684
3 811 886 554
3 585 744 707
3 564 786 674
3 134 721 133
3 695 790 634
3 129 694 128
3 719 817 561
3 691 761 582
3 574 769 649
3 636 817 719
3 570 715 667
3 666 717 578
3 615 791 755
3 660 836 564
3 666 894 717
3 26 742 25
3 697 739 611
3 661 762 121
3 95 747 94
3 665 733 547
3 611 752 696
3 600 907 660
3 703 716 617
3 547 898 665
3 696 752 584
3 665 898 626
3 575 716 703
3 20 874 19
3 584 754 696
3 588 739 697
3 663 787 588
3 563 758 728
3 728 758 614
3 636 856 716
3 740 838 646
3 9 710 8
3 582 838 740
3 603 790 680
3 585 793 744
3 585 722 715
3 663 884 7
3 543 760 726
3 588 782 663
3 638 869 721
3 701 819 624
3 550 772 652
3 726 760 613
3 667 751 570
3 719 814 599
3 548 819 701
3 98 696 97
3 578 732 666
3 657 831 605
3 687 821 566
3 127 690 126
3 598 800 653
3 545 831 657
3 100 697 99
3 653 800 563
3 780 911 685
3 590 796 743
3 591 798 655
3 681 720 552
3 740 826 628
3 101 884 663
3 702 733 576
3 657 834 545
3 680 790 553
3 9 860 710
3 664 909 572
3 662 825 32
3 614 788 784
3 777 870 597
3 581 709 688
3 599 839 675
3 582 708 691
3 88 797 87
3 576 845 661
3 570 751 682
3 694 853 128
3 610 780 685
3 577 942 684
3 629 911 780
3 542 899 668
3 546 904 693
3 685 752 554
3 586 762 661
3 661 845 586
3 688 910 593
3 734 789 558
3 673 741 566
3 93 776 92
3 625 789 734
3 605 793 657
3 668 896 571
3 615 866 703
3 544 818 679
3 590 743 693
3 572 873 664
3 656 828 763
3 693 743 630
3 663 782 101
3 671 815 601
3 763 828 596
3 105 841 659
3 747 902 94
3 723 867 576
3 702 770 555
3 665 845 576
3 749 776 93
3 596 841 763
3 548 767 664
3 573 913 721
3 117 738 686
3 686 738 587
3 564 810 660
3 549 768 677
3 678 768 549
3 660 810 600
3 559 795 737
3 737 795 627
3 616 840 690
3 690 840 575
3 660 907 25
3 551 766 669
3 583 751 667
3 669 766 593
3 108 824 107
3 773 814 654
3 545 834 716
3 599 814 773
3 565 844 670
3 597 827 777
3 19 732 18
3 110 712 109
3 676 802 594
3 777 827 662
3 709 910 688
3 686 774 116
3 548 826 740
3 666 874 620
3 727 779 558
3 0 6 102
3 592 772 670
3 598 774 686
3 653 943 774
3 602 820 674
3 616 853 694
3 635 867 723
3 33 777 32
3 676 764 589
3 693 904 631
3 664 826 548
3 692 730 577
3 670 772 550
3 583 759 725
3 593 766 672
3 668 899 594
3 699 735 623
3 571 922 705
3 672 897 593
3 697 782 588
3 670 857 565
3 556 938 688
3 587 771 672
3 584 752 685
3 556 897 771
3 675 799 599
3 568 887 807
3 120 762 699
3 557 764 676
3 789 868 558
3 90 883 675
3 633 851 736
3 114 943 731
3 554 929 685
3 670 844 592
3 771 897 672
3 98 846 696
3 784 788 543
3 7 787 663
3 589 880 676
3 677 945 549
3 551 815 671
3 637 850 725
3 123 723 122
3 761 838 582
3 28 756 27
3 671 935 551
3 114 731 113
3 781 799 565
3 725 850 560
3 685 911 584
3 672 862 587
3 644 799 781
3 697 846 99
3 680 821 603
3 679 775 595
3 695 909 622
3 89 773 88
3 676 858 557
3 552 880 718
3 563 800 671
3 569 775 679
3 590 784 726
3 673 818 544
3 727 784 590
3 705 922 642
3 594 858 676
3 674 936 600
3 595 805 679
3 586 735 699
3 588 787 710
3 7 884 6
3 612 733 702
3 675 839 90
3 708 926 557
3 549 861 678
3 86 816 4
3 678 861 596
3 566 801 673
3 716 834 617
3 600 810 674
3 674 810 564
3 30 713 29
3 678 828 568
3 803 918 650
3 127 853 690
3 710 860 619
3 721 913 638
3 701 865 574
3 690 853 616
3 770 791 615
3 680 830 604
3 635 791 770
3 4 816 130
3 679 944 569
3 553 830 680
3 567 827 677
3 107 763 106
3 696 846 611
3 624 865 701
3 568 900 678
3 612 879 682
3 683 805 595
3 722 914 715
3 684 942 597
3 682 875 570
3 604 801 680
3 690 755 126
3 632 792 722
3 731 943 653
3 878 926 708
3 611 846 697
3 679 805 544
3 736 851 581
3 596 828 678
3 680 801 566
3 677 832 567
3 778 907 600
3 802 880 552
3 22 724 21
3 696 754 97
3 742 836 660
3 13 822 687
3 542 761 691
3 575 866 690
3 23 778 689
3 707 744 550
3 121 762 120
3 712 939 109
3 566 821 680
3 552 820 681
3 702 867 770
3 720 896 668
3 706 910 542
3 687 822 603
3 667 914 759
3 593 897 688
3 759 914 541
3 705 931 601
3 642 931 705
3 713 919 641
3 688 938 806
3 773 839 599
3 594 899 691
3 102 884 101
3 685 929 610
3 655 890 687
3 767 909 664
3 125 791 124
3 687 890 13
3 729 796 613
3 699 762 586
3 559 796 729
3 744 793 605
3 689 778 600
3 653 823 731
3 603 821 687
3 776 844 651
3 693 779 590
3 701 767 548
3 592 844 776
3 572 909 695
3 628 878 740
3 118 738 117
3 703 866 575
3 631 779 693
3 758 788 614
3 583 847 751
3 594 802 720
3 775 792 632
3 569 792 775
3 32 825 31
3 729 872 836
3 729 836 607
3 100 782 697
3 549 945 704
3 126 755 125
3 783 830 650
3 15 750 14
3 688 897 556
3 761 804 608
3 688 806 581
3 622 767 701
3 543 931 854
3 695 941 572
3 634 941 695
3 734 849 579
3 631 849 734
3 553 790 695
3 781 831 644
3 694 863 618
3 639 859 747
3 818 944 679
3 691 899 542
3 834 875 617
3 640 939 712
3 760 786 613
3 617 876 703
3 34 877 870
3 97 754 96
3 542 910 709
3 703 876 555
3 565 933 844
3 596 861 698
3 870 877 684
3 129 863 694
3 597 942 704
3 788 931 543
3 30 919 713
3 725 759 637
3 6 884 102
3 828 887 568
3 572 941 700
3 694 916 616
3 112 928 111
3 557 858 708
3 595 855 746
3 620 920 724
3 101 782 100
3 637 865 850
3 792 893 722
3 15 864 750
3 729 795 559
3 700 941 634
3 29 813 28
3 681 922 896
3 607 795 729
3 94 902 93
3 711 862 551
3 656 887 828
3 561 843 814
3 692 877 35
3 814 843 654
3 807 887 640
3 551 935 711
3 634 864 700
3 24 778 23
3 700 864 16
3 644 856 719
3 736 806 626
3 613 796 726
3 21 920 20
3 581 806 736
3 730 912 577
3 750 864 634
3 726 784 543
3 574 918 701
3 118 842 738
3 91 883 90
3 605 857 744
3 757 928 112
3 638 912 730
3 93 902 749
3 567 885 827
3 754 882 96
3 710 787 8
3 587 862 711
3 110 785 712
3 723 915 635
3 735 938 556
3 123 915 723
3 690 866 755
3 701 918 622
3 714 829 633
3 745 798 591
3 14 822 13
3 600 936 718
3 111 785 110
3 547 903 714
3 555 879 702
3 819 921 624
3 590 779 727
3 702 879 612
3 681 896 720
3 103 881 5
3 756 795 607
3 627 795 756
3 116 774 115
3 5 881 135
3 639 882 754
3 740 878 582
3 809 925 609
3 621 837 749
3 601 815 705
3 704 942 577
3 749 837 592
3 581 804 709
3 827 885 662
3 710 811 588
3 896 922 571
3 614 784 727
3 619 811 710
3 786 872 613
3 704 945 597
3 576 867 702
3 580 891 737
3 720 802 552
3 561 814 719
3 842 901 738
3 8 787 7
3 757 789 625
3 606 789 757
3 737 891 630
3 621 902 747
3 713 813 29
3 592 776 749
3 608 851 794
3 541 914 722
3 646 921 819
3 675 933 799
3 769 865 637
3 113 848 112
3 820 937 681
3 13 890 12
3 760 854 602
3 579 849 807
3 807 849 648
3 707 855 632
3 609 925 832
3 712 895 579
3 20 920 874
3 25 907 24
3 593 910 706
3 603 822 750
3 134 906 721
3 561 916 843
3 783 892 569
3 565 857 781
3 650 892 783
3 889 938 735
3 602 937 820
3 551 862 766
3 580 908 713
3 721 906 647
3 743 796 559
3 582 878 708
3 774 943 115
3 652 833 746
3 546 852 809
3 809 852 645
3 569 944 783
3 606 823 728
3 714 847 583
3 728 823 563
3 643 930 732
3 734 895 625
3 579 895 734
3 732 930 18
3 646 819 740
3 804 851 608
3 711 935 598
3 35 877 34
3 736 898 547
3 626 898 736
3 602 786 760
3 844 933 651
3 588 811 739
3 560 829 725
3 112 848 757
3 601 788 758
3 719 856 636
3 648 904 888
3 733 903 547
3 737 908 580
3 836 872 564
3 731 823 606
3 27 835 26
3 569 892 792
3 718 880 589
3 627 908 737
3 792 892 649
3 10 860 9
3 598 935 800
3 800 935 671
3 717 894 557
3 106 841 105
3 570 905 715
3 557 926 717
3 717 927 578
3 742 835 607
3 718 936 552
3 722 893 541
3 740 819 548
3 604 818 801
3 801 818 673
3 850 865 624
3 715 914 667
3 26 835 742
3 608 838 761
3 558 868 727
3 727 868 614
3 633 829 794
3 794 829 560
3 90 839 89
3 606 848 731
3 130 863 129
3 132 869 730
3 775 855 595
3 854 937 602
3 632 855 775
3 609 832 768
3 768 832 677
3 731 848 113
3 745 860 10
3 119 842 118
3 724 920 21
3 730 869 638
3 562 917 833
3 99 846 98
3 833 917 683
3 607 836 742
3 128 853 127
3 799 933 565
3 750 822 14
3 614 868 728
3 613 872 729
3 619 886 811
3 607 835 756
3 748 917 562
3 560 934 794
3 584 911 748
3 16 864 15
3 876 879 555
3 682 879 876
3 748 911 629
3 34 870 33
3 770 867 635
3 133 869 132
3 612 903 733
3 921 934 560
3 96 882 95
3 714 903 847
3 629 917 748
3 586 889 735
3 109 939 108
3 95 882 747
3 609 888 809
3 552 936 820
3 820 936 674
3 812 888 609
3 812 900 568
3 104 924 103
3 619 860 745
3 747 882 639
3 756 835 27
3 747 859 621
3 753 932 591
3 738 901 587
3 124 915 123
3 888 904 546
3 135 906 134
3 757 848 606
3 793 905 657
3 31 919 30
3 18 930 17
3 92 923 91
3 87 940 86
3 115 943 114
3 772 837 652
3 780 871 629
3 544 871 780
3 623 901 842
3 745 932 619
3 610 929 753
3 763 841 106
3 89 839 773
3 604 944 818
3 826 927 628
3 543 854 760
3 597 945 827
3 591 932 745
3 755 866 615
3 827 945 677
3 785 895 712
3 628 926 878
3 592 837 772
3 604 830 783
3 749 902 621
3 605 831 781
3 554 886 753
3 636 840 817
3 794 851 633
3 871 917 629
3 683 917 871
3 808 885 567
3 641 885 808
3 766 862 672
3 616 916 817
3 808 925 645
3 567 925 808
3 753 929 554
3 849 904 648
3 574 865 769
3 654 843 797
3 625 928 757
3 557 894 764
3 797 843 618
3 764 894 620
3 781 857 605
3 768 900 609
3 854 931 642
3 618 940 797
3 33 870 777
3 111 928 785
3 713 908 813
3 564 872 786
3 635 915 791
3 791 915 124
3 765 924 104
3 816 863 130
3 771 901 623
3 587 901 771
3 678 900 768
3 622 909 767
3 647 924 765
3 581 851 804
3 817 840 616
3 651 923 776
3 852 891 645
3 776 923 92
3 816 940 618
3 624 921 850
3 683 871 805
3 805 871 544
3 642 937 854
3 24 907 778
3 676 880 802
3 651 933 883
3 883 933 675
3 625 895 785
3 645 925 809
3 809 888 546
3 649 893 792
3 886 932 753
3 618 863 816
3 785 928 625
3 824 887 656
3 609 900 812
3 648 888 812
3 783 944 604
3 608 934 838
3 838 934 646
3 601 931 788
3 797 940 87
3 662 885 825
3 825 885 641
3 108 939 824
3 640 887 824
3 794 934 608
3 641 919 825
3 825 919 31
3 622 918 803
3 813 908 627
3 875 876 617
3 682 876 875
3 847 903 612
3 817 916 561
3 806 938 626
3 646 934 921
3 874 920 620
3 881 906 135
3 626 938 889
3 630 891 852
3 86 940 816
3 647 906 881
3 631 904 849
3 638 913 912
3 832 925 567
3 881 924 647
3 912 913 658
3 824 939 640
3 103 924 881
3 91 923 883
3 883 923 651
3 850 921 560
3 628 927 926
3 926 927 717
3 619 932 886
3 681 937 922
3 922 937 642

CELL_TYPES 1815
3
3
3
3
3
3
3
3
3
3
3
3
3
3
3
3
3
3
3
3
3
3
3
3
3
3
3
3
3
3
3
5
5
5
5
5
5
5
5
5
5
5
5
5
5
5
5
5
5
5
5
5
5
5
5
5
5
5
5
5
5
5
5
5
5
5
5
5
5
5
5
5
5
5
5
5
5
5
5
5
5
5
5
5
5
5
5
5
5
5
5
5
5
5
5
5
5
5
5
5
5
5
5
5
5
5
5
5
5
5
5
5
5
5
5
5
5
5
5
5
5
5
5
5
5
5
5
5
5
5
5
5
5
5
5
5
5
5
5
5
5
5
5
5
5
5
5
5
5
5
5
5
5
5
5
5
5
5
5
5
5
5
5
5
5
5
5
5
5
5
5
5
5
5
5
5
5
5
5
5
5
5
5
5
5
5
5
5
5
5
5
5
5
5
5
5
5
5
5
5
5
5
5
5
5
5
5
5
5
5
5
5
5
5
5
5
5
5
5
5
5
5
5
5
5
5
5
5
5
5
5
5
5
5
5
5
5
5
5
5
5
5
5
5
5
5
5
5
5
5
5
5
5
5
5
5
5
5
5
5
5
5
5
5
5
5
5
5
5
5
5
5
5
5
5
5
5
5
5
5
5
5
5
5
5
5
5
5
5
5
5
5
5
5
5
5
5
5
5
5
5
5
5
5
5
5
5
5
5
5
5
5
5
5
5
5
5
5
5
5
5
5
5
5
5
5
5
5
5
5
5
5
5
5
5
5
5
5
5
5
5
5
5
5
5
5
5
5
5
5
5
5
5
5
5
5
5
5
5
5
5
5
5
5
5
5
5
5
5
5
5
5
5
5
5
5
5
5
5
5
5
5
5
5
5
5
5
5
5
5
5
5
5
5
5
5
5
5
5
5
5
5
5
5
5
5
5
5
5
5
5
5
5
5
5
5
5
5
5
5
5
5
5
5
5
5
5
5
5
5
5
5
5
5
5
5
5
5
5
5
5
5
5
5
5
5
5
5
5
5
5
5
5
5
5
5
5
5
5
5
5
5
5
5
5
5
5
5
5
5
5
5
5
5
5
5
5
5
5
5
5
5
5
5
5
5
5
5
5
5
5
5
5
5
5
5
5
5
5
5
5
5
5
5
5
5
5
5
5
5
5
5
5
5
5
5
5
5
5
5
5
5
5
5
5
5
5
5
5
5
5
5
5
5
5
5
5
5
5
5
5
5
5
5
5
5
5
5
5
5
5
5
5
5
5
5
5
5
5
5
5
5
5
5
5
5
5
5
5
5
5
5
5
5
5
5
5
5
5
5
5
5
5
5
5
5
5
5
5
5
5
5
5
5
5
5
5
5
5
5
5
5
5
5
5
5
5
5
5
5
5
5
5
5
5
5
5
5
5
5
5
5
5
5
5
5
5
5
5
5
5
5
5
5
5
5
5
5
5
5
5
5
5
5
5
5
5
5
5
5
5
5
5
5
5
5
5
5
5
5
5
5
5
5
5
5
5
5
5
5
5
5
5
5
5
5
5
5
5
5
5
5
5
5
5
5
5
5
5
5
5
5
5
5
5
5
5
5
5
5
5
5
5
5
5
5
5
5
5
5
5
5
5
5
5
5
5
5
5
5
5
5
5
5
5
5
5
5
5
5
5
5
5
5
5
5
5
5
5
5
5
5
5
5
5
5
5
5
5
5
5
5
5
5
5
5
5
5
5
5
5
5
5
5
5
5
5
5
5
5
5
5
5
5
5
5
5
5
5
5
5
5
5
5
5
5
5
5
5
5
5
5
5
5
5
5
5
5
5
5
5
5
5
5
5
5
5
5
5
5
5
5
5
5
5
5
5
5
5
5
5
5
5
5
5
5
5
5
5
5
5
5
5
5
5
5
5
5
5
5
5
5
5
5
5
5
5
5
5
5
5
5
5
5
5
5
5
5
5
5
5
5
5
5
5
5
5
5
5
5
5
5
5
5
5
5
5
5
5
5
5
5
5
5
5
5
5
5
5
5
5
5
5
5
5
5
5
5
5
5
5
5
5
5
5
5
5
5
5
5
5
5
5
5
5
5
5
5
5
5
5
5
5
5
5
5
5
5
5
5
5
5
5
5
5
5
5
5
5
5
5
5
5
5
5
5
5
5
5
5
5
5
5
5
5
5
5
5
5
5
5
5
5
5
5
5
5
5
5
5
5
5
5
5
5
5
5
5
5
5
5
5
5
5
5
5
5
5
5
5
5
5
5
5
5
5
5
5
5
5
5
5
5
5
5
5
5
5
5
5
5
5
5
5
5
5
5
5
5
5
5
5
5
5
5
5
5
5
5
5
5
5
5
5
5
5
5
5
5
5
5
5
5
5
5
5
5
5
5
5
5
5
5
5
5
5
5
5
5
5
5
5
5
5
5
5
5
5
5
5
5
5
5
5
5
5
5
5
5
5
5
5
5
5
5
5
5
5
5
5
5
5
5
5
5
5
5
5
5
5
5
5
5
5
5
5
5
5
5
5
5
5
5
5
5
5
5
5
5
5
5
5
5
5
5
5
5
5
5
5
5
5
5
5
5
5
5
5
5
5
5
5
5
5
5
5
5
5
5
5
5
5
5
5
5
5
5
5
5
5
5
5
5
5
5
5
5
5
5
5
5
5
5
5
5
5
5
5
5
5
5
5
5
5
5
5
5
5
5
5
5
5
5
5
5
5
5
5
5
5
5
5
5
5
5
5
5
5
5
5
5
5
5
5
5
5
5
5
5
5
5
5
5
5
5
5
5
5
5
5
5
5
5
5
5
5
5
5
5
5
5
5
5
5
5
5
5
5
5
5
5
5
5
5
5
5
5
5
5
5
5
5
5
5
5
5
5
5
5
5
5
5
5
5
5
5
5
5
5
5
5
5
5
5
5
5
5
5
5
5
5
5
5
5
5
5
5
5
5
5
5
5
5
5
5
5
5
5
5
5
5
5
5
5
5
5
5
5
5
5
5
5
5
5
5
5
5
5
5
5
5
5
5
5
5
5
5
5
5
5
5
5
5
5
5
5
5
5
5
5
5
5
5
5
5
5
5
5
5
5
5
5
5
5
5
5
5
5
5
5
5
5
5
5
5
5
5
5
5
5
5
5
5
5
5
5
5
5
5
5
5
5
5
5
5
5
5
5
5
5
5
5
5
5
5
5
5
5
5
5
5
5
5
5
5
5
5
5
5
5
5
5
5
5
5
5
5
5
5
5
5
5
5
5
5
5
5
5
5
5
5
5
5
5
5
5
5
5
5
5
5
5
5
5
5
5
5
5
5
5
5
5
5
5
5
5
5
5
5
5
5
5
5
5
5
5
5
5
5
5
5
5
5
5
5
5
5
5
5
5
5
5
5
5
5
5
5
5
5
5
5
5
5
5
5
5
5
5
5
5
5
5
5
5
5
5
5
5
5
5
5
5
5
5
5
5
5
5
5
5
5
5
5
5
5
5
5
5
5
5
5
5
5
5
5
5
5
5
5
5
5
5
5
5
5
5
5
5
5
5
5
5
5
5
5
5
5
5
5
5
5
5
5
5
5
5
5
5
5
5
5
5
5
5
5
5
5
5
5
5
5
5
5
5
5
5
5
5
5
5
5
5
5
5
5
5
5
5
5
5
5
5
5
5
5
5
5
5
5
5
5
5
5
5
5
5
5
5
5
5
5
5
5
5
5
5
5
5
5
5
5
5
5
5
5
5
5
5
5
5
5
5
5
5
5
5
5
5
5
5
5
5
5
5
5
5
5
5
5
5
5
5
5
5
5
5
5
5
5
5
5
5
5
5
5
5
5
5
5
5
5
5
5
5
5
5
5
5
5
5
5
5
5
5
5
5
5
5
5
5
5
5
5
5
5
5
5
5
5
5
5
5
5
5
5
5
5
5
5
5
5
5
5
5
5
5
5
5
5
5
5
5
5
5
5
5
5
5
5
5
5
5
5
5
5
5
5
5
5
5
5
5
5
5
5
5
5
5
5
5
5
5
5
5
5
5
5
5
5
5
5
5
5
5
5
5
5
5
5
5
5
5
5
5
5
5
5
5
5
5
5
5
5
5
5
5
5
5
5
5
5
5
5
5
5

CELL_DATA 1815
SCALARS CellEntityIds int 1
LOOKUP_TABLE default
2
2
2
2
2
2
2
2
2
2
2
2
2
2
2
2
2
2
2
2
2
2
2
2
2
2
2
2
2
2
2
1
1
1
1
1
1
1
1
1
1
1
1
1
1
1
1
1
1
1
1
1
1
1
1
1
1
1
1
1
1
1
1
1
1
1
1
1
1
1
1
1
1
1
1
1
1
1
1
1
1
1
1
1
1
1
1
1
1
1
1
1
1
1
1
1
1
1
1
1
1
1
1
1
1
1
1
1
1
1
1
1
1
1
1
1
1
1
1
1
1
1
1
1
1
1
1
1
1
1
1
1
1
1
1
1
1
1
1
1
1
1
1
1
1
1
1
1
1
1
1
1
1
1
1
1
1
1
1
1
1
1
1
1
1
1
1
1
1
1
1
1
1
1
1
1
1
1
1
1
1
1
1
1
1
1
1
1
1
1
1
1
1
1
1
1
1
1
1
1
1
1
1
1
1
1
1
1
1
1
1
1
1
1
1
1
1
1
1
1
1
1
1
1
1
1
1
1
1
1
1
1
1
1
1
1
1
1
1
1
1
1
1
1
1
1
1
1
1
1
1
1
1
1
1
1
1
1
1
1
1
1
1
1
1
1
1
1
1
1
1
1
1
1
1
1
1
1
1
1
1
1
1
1
1
1
1
1
1
1
1
1
1
1
1
1
1
1
1
1
1
1
1
1
1
1
1
1
1
1
1
1
1
1
1
1
1
1
1
1
1
1
1
1
1
1
1
1
1
1
1
1
1
1
1
1
1
1
1
1
1
1
1
1
1
1
1
1
1
1
1
1
1
1
1
1
1
1
1
1
1
1
1
1
1
1
1
1
1
1
1
1
1
1
1
1
1
1
1
1
1
1
1
1
1
1
1
1
1
1
1
1
1
1
1
1
1
1
1
1
1
1
1
1
1
1
1
1
1
1
1
1
1
1
1
1
1
1
1
1
1
1
1
1
1
1
1
1
1
1
1
1
1
1
1
1
1
1
1
1
1
1
1
1
1
1
1
1
1
1
1
1
1
1
1
1
1
1
1
1
1
1
1
1
1
1
1
1
1
1
1
1
1
1
1
1
1
1
1
1
1
1
1
1
1
1
1
1
1
1
1
1
1
1
1
1
1
1
1
1
1
1
1
1
1
1
1
1
1
1
1
1
1
1
1
1
1
1
1
1
1
1
1
1
1
1
1
1
1
1
1
1
1
1
1
1
1
1
1
1
1
1
1
1
1
1
1
1
1
1
1
1
1
1
1
1
1
1
1
1
1
1
1
1
1
1
1
1
1
1
1
1
1
1
1
1
1
1
1
1
1
1
1
1
1
1
1
1
1
1
1
1
1
1
1
1
1
1
1
1
1
1
1
1
1
1
1
1
1
1
1
1
1
1
1
1
1
1
1
1
1
1
1
1
1
1
1
1
1
1
1
1
1
1
1
1
1
1
1
1
1
1
1
1
1
1
1
1
1
1
1
1
1
1
1
1
1
1
1
1
1
1
1
1
1
1
1
1
1
1
1
1
1
1
1
1
1
1
1
1
1
1
1
1
1
1
1
1
1
1
1
1
1
1
1
1
1
1
1
1
1
1
1
1
1
1
1
1
1
1
1
1
1
1
1
1
1
1
1
1
1
1
1
1
1
1
1
1
1
1
1
1
1
1
1
1
1
1
1
1
1
1
1
1
1
1
1
1
1
1
1
1
1
1
1
1
1
1
1
1
1
1
1
1
1
1
1
1
1
1
1
1
1
1
1
1
1
1
1
1
1
1
1
1
1
1
1
1
1
1
1
1
1
1
1
1
1
1
1
1
1
1
1
1
1
1
1
1
1
1
1
1
1
1
1
1
1
1
1
1
1
1
1
1
1
1
1
1
1
1
1
1
1
1
1
1
1
1
1
1
1
1
1
1
1
1
1
1
1
1
1
1
1
1
1
1
1
1
1
1
1
1
1
1
1
1
1
1
1
1
1
1
1
1
1
1
1
1
1
1
1
1
1
1
1
1
1
1
1
1
1
1
1
1
1
1
1
1
1
1
1
1
1
1
1
1
1
1
1
1
1
1
1
1
1
1
1
1
1
1
1
1
1
1
1
1
1
1
1
1
1
1
1
1
1
1
1
1
1
1
1
1
1
1
1
1
1
1
1
1
1
1
1
1
1
1
1
1
1
1
1
1
1
1
1
1
1
1
1
1
1
1
1
1
1
1
1
1
1
1
1
1
1
1
1
1
1
1
1
1
1
1
1
1
1
1
1
1
1
1
1
1
1
1
1
1
1
1
1
1
1
1
1
1
1
1
1
1
1
1
1
1
1
1
1
1
1
1
1
1
1
1
1
1
1
1
1
1
1
1
1
1
1
1
1
1
1
1
1
1
1
1
1
1
1
1
1
1
1
1
1
1
1
1
1
1
1
1
1
1
1
1
1
1
1
1
1
1
1
1
1
1
1
1
1
1
1
1
1
1
1
1
1
1
1
1
1
1
1
1
1
1
1
1
1
1
1
1
1
1
1
1
1
1
1
1
1
1
1
1
1
1
1
1
1
1
1
1
1
1
1
1
1
1
1
1
1
1
1
1
1
1
1
1
1
1
1
1
1
1
1
1
1
1
1
1
1
1
1
1
1
1
1
1
1
1
1
1
1
1
1
1
1
1
1
1
1
1
1
1
1
1
1
1
1
1
1
1
1
1
1
1
1
1
1
1
1
1
1
1
1
1
1
1
1
1
1
1
1
1
1
1
1
1
1
1
1
1
1
1
1
1
1
1
1
1
1
1
1
1
1
1
1
1
1
1
1
1
1
1
1
1
1
1
1
1
1
1
1
1
1
1
1
1
1
1
1
1
1
1
1
1
1
1
1
1
1
1
1
1
1
1
1
1
1
1
1
1
1
1
1
1
1
1
1
1
1
1
1
1
1
1
1
1
1
1
1
1
1
1
1
1
1
1
1
1
1
1
1
1
1
1
1
1
1
1
1
1
1
1
1
1
1
1
1
1
1
1
1
1
1
1
1
1
1
1
1
1
1
1
1
1
1
1
1
1
1
1
1
1
1
1
1
1
1
1
1
1
1
1
1
1
1
1
1
1
1
1
1
1
1
1
1
1
1
1
1
1
1
1
1
1
1
1
1
1
1
1
1
1
1
1
1
1
1
1
1
1
1
1
1
1
1
1
1
1
1
1
1
1
1
1
1
1
1
1
1
1
1
1
1
1
1
1
1
1
1
1
1
1
1
1
1
1
1
1
1
1
1
1
1
1
1
1
1
1
1
1
1
1
1
1
1
1
1
1
1
1
1
1
1
1
1
1
1
1
1
1
1
1
1
1
1
1
1
1
1
1
1
1
1
1
1
1
1
1
1
1
1
1
1
1
1
1
1
1
1
1
1
1
1
1
1
1
1
1
1
1
1
1
1
1
1
1
1
1
1
1
1
1
1
1
1
1
1
1
1
1
1
1
1
1
1
1
1
1
1
1
1
1
1
1
1
1
1
1
1
1
1
1
1
1
1
1
1
1
1
1
1
1
1
1
1
1
1
1
1
1
1
1
1
1
1
1
1
1
1
1
1
1
1
1
1
1
1
1
1
1
1
1
1
1
1
1
1
1
1
1
1
1
1
1
1
1
1
1
1
1
1
1
1
1
1
1
1
1
1
1
1
1
1
1
1
1
1
1
1
1
1
1
1
1
1
1
1
1
1
1
1
1
1
1
1
1
1
1
1
1
1
1
1
1
1
1
1
1
1
1
1
1
1
1
1
1
1
1
1
1
1
1
1
1
1
1
1
1
1
1
1
1
1
1
1
1
1
1
1
1
1
1
1
1
1
1
1
1
1
1
1
1
1
1
1
1
1
1
1
1
1
1
1
1
1
1
1
1
1
1
1
1
1
1
1
1
1
1
1
1
1
1
1
1
1
1
1
1
1
1
1
1
1
1
1
1
1
1
1
1
1
1
1
1
1
1
1
1
1
1
1
1
1
1
1
1
1
1
1
1
1
1
1
1
1
1
1
1
1
1
1
1
1
1
1
1
1
1
1
1
1
1
1
1
1
1
1
1
1
1
1
1
1
1
1
1
1
1
1
1
1
1
1
1
1
1
1
